<svg width="14" height="20" viewBox="0 0 14 20" fill="none" xmlns="http://www.w3.org/2000/svg">
<path d="M7 9.4C6.68176 9.4 6.37648 9.2736 6.15144 9.04856C5.9264 8.82352 5.8 8.51824 5.8 8.2V5.8C5.8 5.48174 5.9264 5.17651 6.15144 4.95147C6.37648 4.72643 6.68176 4.6 7 4.6C7.31824 4.6 7.62352 4.72643 7.84856 4.95147C8.0736 5.17651 8.2 5.48174 8.2 5.8V8.2C8.2 8.51824 8.0736 8.82352 7.84856 9.04856C7.62352 9.2736 7.31824 9.4 7 9.4Z" stroke="#0ed5ff" stroke-width="1.5" stroke-linecap="round" stroke-linejoin="round"/>
<path d="M13 7C13 5.4087 12.3678 3.88258 11.2426 2.75736C10.1174 1.63214 8.59128 1 7 1C5.40872 1 3.88258 1.63214 2.75736 2.75736C1.63214 3.88258 1 5.4087 1 7V13C1 14.5913 1.63214 16.1174 2.75736 17.2426C3.88258 18.3678 5.40872 19 7 19C8.59128 19 10.1174 18.3678 11.2426 17.2426C12.3678 16.1174 13 14.5913 13 13V7Z" stroke="#0ed5ff" stroke-width="1.5" stroke-linecap="round" stroke-linejoin="round"/>
</svg>
