<svg width="14" height="20" viewBox="0 0 14 20" fill="none" xmlns="http://www.w3.org/2000/svg">
<path d="M5.20766 14.7945H5.62433M8.79266 14.7945H9.20933M1.5835 5.62533H12.8335M1.5835 5.62533V18.1253C1.5835 18.3463 1.6713 18.5583 1.82757 18.7146C1.98385 18.8708 2.19581 18.9587 2.41683 18.9587H12.0002C12.2212 18.9587 12.4332 18.8708 12.5894 18.7146C12.7457 18.5583 12.8335 18.3463 12.8335 18.1253V5.62533M1.5835 5.62533L2.41683 1.04199M12.8335 5.62533L12.0002 1.04199M5.5985 3.53783C4.80265 3.31449 4.27682 2.92949 4.27682 2.49283C4.27682 1.80283 5.58933 1.24283 7.2085 1.24283C8.82766 1.24283 10.1402 1.80283 10.1402 2.49283C10.1402 2.92033 9.64016 3.29699 8.87183 3.52199M7.2085 11.8395C8.00566 11.8395 8.65183 11.1933 8.65183 10.3962C8.65183 9.59899 8.00566 8.95283 7.2085 8.95283C6.41133 8.95283 5.76516 9.59899 5.76516 10.3962C5.76516 11.1933 6.41133 11.8395 7.2085 11.8395Z" stroke="#0ed5ff" stroke-width="1.5" stroke-linecap="round" stroke-linejoin="round"/>
</svg>
