<svg width="67" height="55" viewBox="0 0 67 55" fill="none" xmlns="http://www.w3.org/2000/svg">
<g clip-path="url(#clip0_881_14117)">
<path d="M7.34131 26.6911C7.34131 33.6627 10.0973 40.3489 15.003 45.2786C19.9086 50.2083 26.5622 52.9778 33.4998 52.9778C40.4375 52.9778 47.091 50.2083 51.9967 45.2786C56.9024 40.3489 59.6584 33.6627 59.6584 26.6911C59.6584 19.7194 56.9024 13.0332 51.9967 8.10351C47.091 3.17379 40.4375 0.404297 33.4998 0.404297C26.5622 0.404297 19.9086 3.17379 15.003 8.10351C10.0973 13.0332 7.34131 19.7194 7.34131 26.6911Z" fill="#E7FCF5"/>
<path d="M63.5824 5.65918L30.9077 51.661L17.8468 38.5334M25.5819 38.8725L49.1716 5.65918M3.43604 38.5308L16.497 51.661L19.4189 47.5498" stroke="#12E69A" stroke-width="4" stroke-linecap="square"/>
</g>
<defs>
<clipPath id="clip0_881_14117">
<rect width="66" height="55" fill="white" transform="translate(0.5)"/>
</clipPath>
</defs>
</svg>
