<svg width="16" height="20" viewBox="0 0 16 20" fill="none" xmlns="http://www.w3.org/2000/svg">
<path d="M12.6912 11.0074C12.7056 9.67995 13.4071 8.45301 14.5481 7.7596C13.8236 6.73957 12.66 6.11436 11.4031 6.06988C10.0621 5.93524 8.79219 6.85249 8.11222 6.85249C7.43226 6.85249 6.38551 6.08713 5.27646 6.10901C3.79379 6.15077 2.44255 6.96317 1.71896 8.24793C0.203691 10.8572 1.33246 14.7249 2.8099 16.8427C3.53083 17.8782 4.39302 19.0419 5.52259 18.9988C6.61192 18.9566 7.02128 18.3008 8.33936 18.3008C9.65743 18.3008 10.0243 18.9988 11.1791 18.9778C12.3504 18.9566 13.0927 17.9228 13.8089 16.8834C14.3218 16.1359 14.723 15.3187 15 14.4573C13.6051 13.868 12.6973 12.5117 12.6912 11.0074Z" stroke="#002024" stroke-width="1.5" stroke-linecap="round" stroke-linejoin="round"/>
<path d="M10.6672 3.87458C11.3514 3.07727 11.6906 2.04423 11.6114 1C10.5776 1.09886 9.62113 1.5864 8.93811 2.36254C8.25114 3.12375 7.90448 4.12876 7.97732 5.14792C9.02472 5.16141 10.0188 4.69081 10.6672 3.87458Z" stroke="#002024" stroke-width="1.5" stroke-linecap="round" stroke-linejoin="round"/>
</svg>
