<svg width="20" height="20" viewBox="0 0 20 20" fill="none" xmlns="http://www.w3.org/2000/svg">
<path d="M2.11738 17.9256C3.15013 18.3869 4.16085 18.3429 5.14958 17.7934C5.61094 16.7607 5.56693 15.75 5.01755 14.7613M17.9273 1.95068C16.8946 1.48932 15.8837 1.53334 14.895 2.08272C14.4337 3.11546 14.4777 4.12619 15.0271 5.11492M6.61517 1.69678C3.14553 2.77005 1.24719 5.64684 1.24719 10.0001C1.24719 13.6378 2.57273 16.2444 5.03298 17.6294M15.0427 2.38955C17.4817 3.77916 18.7953 6.37878 18.7953 10.0001C18.7953 14.4119 16.8456 17.3073 13.2866 18.3457M9.99525 14.0027C10.514 14.4473 11.2797 14.4766 11.8002 14.034C12.6195 13.3375 13.3374 12.6195 14.034 11.8002C14.4766 11.2797 14.4473 10.514 14.0027 9.99528C12.7633 8.54935 11.4508 7.23685 10.0049 5.99744C9.48617 5.55282 8.72045 5.52362 8.19994 5.96614C7.3806 6.66271 6.66268 7.38062 5.96611 8.19996C5.5236 8.72048 5.5528 9.48619 5.99741 10.0049C7.23683 11.4508 8.54933 12.7633 9.99525 14.0027Z" stroke="#002024" stroke-width="1.5" stroke-linecap="round" stroke-linejoin="round"/>
</svg>
