<svg width="18" height="16" viewBox="0 0 18 16" fill="none" xmlns="http://www.w3.org/2000/svg">
<path d="M3.82353 1L4.76471 4.73333H13.2353L14.1765 1M6.64706 8.46667H11.3529M17 1.93333C17 1.6858 16.9008 1.4484 16.7243 1.27337C16.5478 1.09833 16.3084 1 16.0588 1H1.94118C1.69156 1 1.45217 1.09833 1.27566 1.27337C1.09916 1.4484 1 1.6858 1 1.93333V14.0667C1 14.3142 1.09916 14.5516 1.27566 14.7266C1.45217 14.9017 1.69156 15 1.94118 15H4.0858C4.28343 14.9999 4.47602 14.9382 4.63636 14.8237C4.7967 14.7091 4.91667 14.5475 4.97929 14.3616L5.49129 12.8384C5.55392 12.6525 5.67389 12.4909 5.83423 12.3763C5.99457 12.2618 6.18716 12.2001 6.38478 12.2H11.6152C11.8128 12.2001 12.0054 12.2618 12.1658 12.3763C12.3261 12.4909 12.4461 12.6525 12.5087 12.8384L13.0207 14.3616C13.0833 14.5475 13.2033 14.7091 13.3636 14.8237C13.524 14.9382 13.7166 14.9999 13.9142 15H16.0588C16.3084 15 16.5478 14.9017 16.7243 14.7266C16.9008 14.5516 17 14.3142 17 14.0667V1.93333Z" stroke="#0ed5ff" stroke-width="1.5" stroke-linecap="round" stroke-linejoin="round"/>
</svg>
