<svg width="54" height="54" viewBox="0 0 54 54" fill="none" xmlns="http://www.w3.org/2000/svg">
<path d="M42.4863 19.5075L41.7879 19.7811L41.7925 19.7923L42.4863 19.5075ZM52.2 43.1723L52.8939 42.8878L52.8938 42.8875L52.2 43.1723ZM52.1904 45.8512L52.8822 46.141L52.8824 46.1406L52.1904 45.8512ZM50.289 47.7387L50.5734 48.4327L50.5737 48.4325L50.289 47.7387ZM47.6101 47.7289L47.8998 47.0371L47.8994 47.0369L47.6101 47.7289ZM45.7227 45.8277L45.0287 46.1121L45.0287 46.1122L45.7227 45.8277ZM39.9663 31.781L40.6603 31.4966C40.5628 31.2587 40.3503 31.0874 40.0972 31.0425C39.8441 30.9977 39.5856 31.0856 39.4123 31.2754L39.9663 31.781ZM33.4944 35.5015L33.3363 34.7684L33.3362 34.7684L33.4944 35.5015ZM26.0643 34.7793L25.3704 35.0638C25.4448 35.2455 25.5876 35.3907 25.768 35.4683L26.0643 34.7793ZM19.5614 18.9125L18.8662 18.6311C18.7927 18.8126 18.7931 19.0157 18.8674 19.197L19.5614 18.9125ZM25.628 12.4702L25.3314 11.7814C25.3226 11.7851 25.3139 11.7891 25.3053 11.7932L25.628 12.4702ZM30.5831 11.4342L30.5789 10.6842H30.5789L30.5831 11.4342ZM35.5491 12.4147L35.838 11.7226L35.838 11.7226L35.5491 12.4147ZM27.4974 4.86186C27.8237 5.11695 28.295 5.05918 28.5501 4.73284C28.8052 4.40649 28.7475 3.93514 28.4211 3.68005L27.4974 4.86186ZM21.2533 1.15032L21.0908 1.88255L21.0987 1.8842L21.2533 1.15032ZM10.0134 2.55427L9.67581 1.88455L9.67581 1.88455L10.0134 2.55427ZM1.34871 22.0439L0.625379 22.2421H0.62538L1.34871 22.0439ZM7.83897 31.3234L7.40461 31.9348C7.41269 31.9406 7.42087 31.9462 7.42917 31.9516L7.83897 31.3234ZM12.116 40.4055L12.8585 40.5114C12.8595 40.5042 12.8604 40.497 12.8612 40.4898L12.116 40.4055ZM12.2303 44.2933L11.4953 44.4426L11.4961 44.4461L12.2303 44.2933ZM16.4531 50.9682L16.0004 51.5662L16.0004 51.5662L16.4531 50.9682ZM24.025 53.2232L23.9732 52.475H23.9732L24.025 53.2232ZM31.214 49.9467L31.7448 50.4766L31.214 49.9467ZM35.2246 42.8042C35.2523 42.3909 34.9397 42.0334 34.5264 42.0056C34.1132 41.9779 33.7556 42.2905 33.7279 42.7038L35.2246 42.8042ZM17.6186 8.52452C18.0328 8.52548 18.3694 8.19046 18.3703 7.77625C18.3713 7.36204 18.0362 7.02548 17.622 7.02453L17.6186 8.52452ZM11.8112 9.65629L12.2524 10.2628L12.2524 10.2628L11.8112 9.65629ZM8.2316 14.6033L8.94567 14.8327L8.94567 14.8327L8.2316 14.6033ZM8.2607 20.7095L8.97254 20.4734L8.97254 20.4734L8.2607 20.7095ZM11.452 26.2329C11.7893 26.4733 12.2576 26.3948 12.498 26.0575C12.7385 25.7202 12.6599 25.2518 12.3226 25.0114L11.452 26.2329ZM41.7925 19.7923L51.5062 43.4571L52.8938 42.8875L43.1802 19.2227L41.7925 19.7923ZM51.5061 43.4568C51.643 43.7908 51.7129 44.1487 51.7116 44.5099L53.2116 44.5153C53.2136 43.9571 53.1056 43.4041 52.8939 42.8878L51.5061 43.4568ZM51.7116 44.5099C51.7103 44.8711 51.6379 45.2287 51.4985 45.5618L52.8824 46.1406C53.0977 45.6258 53.2096 45.0734 53.2116 44.5153L51.7116 44.5099ZM51.4987 45.5615C51.3591 45.8948 51.1553 46.1974 50.899 46.4518L51.9559 47.5163C52.352 47.123 52.6667 46.6556 52.8822 46.141L51.4987 45.5615ZM50.899 46.4518C50.6429 46.7061 50.3389 46.9075 50.0043 47.0448L50.5737 48.4325C51.0898 48.2208 51.5596 47.9098 51.9559 47.5163L50.899 46.4518ZM50.0046 47.0447C49.6703 47.1817 49.3124 47.2515 48.9512 47.2502L48.9458 48.7502C49.504 48.7522 50.057 48.6443 50.5734 48.4327L50.0046 47.0447ZM48.9512 47.2502C48.59 47.249 48.2328 47.1765 47.8998 47.0371L47.3204 48.4206C47.8353 48.6363 48.3877 48.7482 48.9458 48.7502L48.9512 47.2502ZM47.8994 47.0369C47.5665 46.8977 47.2642 46.694 47.0095 46.4375L45.945 47.4943C46.3381 47.8902 46.8053 48.2053 47.3208 48.4208L47.8994 47.0369ZM47.0095 46.4375C46.7551 46.1812 46.5536 45.8772 46.4166 45.5432L45.0287 46.1122C45.2404 46.6284 45.5518 47.0982 45.945 47.4943L47.0095 46.4375ZM46.4167 45.5433L40.6603 31.4966L39.2723 32.0654L45.0287 46.1121L46.4167 45.5433ZM39.4123 31.2754C37.7994 33.0428 35.6756 34.2639 33.3363 34.7684L33.6525 36.2346C36.2967 35.6644 38.6972 34.2843 40.5203 32.2866L39.4123 31.2754ZM33.3362 34.7684C30.9971 35.2729 28.559 35.0358 26.3607 34.0904L25.768 35.4683C28.2527 36.537 31.0085 36.8049 33.6525 36.2346L33.3362 34.7684ZM26.7583 34.4949L20.2553 18.6281L18.8674 19.197L25.3704 35.0638L26.7583 34.4949ZM20.2565 19.194C21.3321 16.5376 23.3636 14.3803 25.9507 13.1472L25.3053 11.7932C22.3797 13.1875 20.0825 15.6271 18.8662 18.6311L20.2565 19.194ZM25.9246 13.159C27.3977 12.5247 28.9833 12.1932 30.5873 12.1842L30.5789 10.6842C28.7738 10.6943 26.9892 11.0674 25.3314 11.7814L25.9246 13.159ZM30.5873 12.1842C32.1909 12.1752 33.7801 12.489 35.2602 13.1068L35.838 11.7226C34.1723 11.0273 32.3837 10.6741 30.5789 10.6842L30.5873 12.1842ZM35.2602 13.1068C36.7402 13.7247 38.0809 14.6339 39.2024 15.7806L40.2748 14.7317C39.0126 13.4413 37.5038 12.4179 35.838 11.7226L35.2602 13.1068ZM39.2024 15.7806C40.3239 16.9271 41.203 18.2876 41.788 19.781L43.1847 19.234C42.5264 17.5533 41.537 16.0222 40.2748 14.7317L39.2024 15.7806ZM30.0499 23.625C29.9809 23.625 29.9249 23.569 29.9249 23.5H28.4249C28.4249 24.3974 29.1525 25.125 30.0499 25.125V23.625ZM29.9249 23.5C29.9249 23.431 29.9809 23.375 30.0499 23.375V21.875C29.1525 21.875 28.4249 22.6026 28.4249 23.5H29.9249ZM30.0499 25.125C30.9473 25.125 31.6749 24.3974 31.6749 23.5H30.1749C30.1749 23.569 30.1189 23.625 30.0499 23.625V25.125ZM31.6749 23.5C31.6749 22.6026 30.9473 21.875 30.0499 21.875V23.375C30.1189 23.375 30.1749 23.431 30.1749 23.5H31.6749ZM28.4211 3.68005C26.3632 2.0715 23.9642 0.955123 21.408 0.416439L21.0987 1.8842C23.431 2.3757 25.6198 3.39428 27.4974 4.86186L28.4211 3.68005ZM21.4158 0.41813C17.4504 -0.461756 13.3026 0.0563289 9.67581 1.88455L10.351 3.224C13.6688 1.55154 17.4633 1.07758 21.0908 1.88251L21.4158 0.41813ZM9.67581 1.88455C6.04899 3.71279 3.16632 6.73864 1.51673 10.4491L2.88738 11.0584C4.39629 7.66442 7.03321 4.89646 10.351 3.22399L9.67581 1.88455ZM1.51673 10.4491C-0.132852 14.1595 -0.447773 18.3261 0.625379 22.2421L2.07204 21.8457C1.09042 18.2636 1.37847 14.4524 2.88738 11.0584L1.51673 10.4491ZM0.62538 22.2421C1.69853 26.1582 4.09369 29.5827 7.40461 31.9348L8.27333 30.712C5.24459 28.5603 3.05367 25.4278 2.07204 21.8457L0.62538 22.2421ZM7.42917 31.9516C8.79769 32.8444 9.89098 34.1 10.587 35.5779L11.944 34.9388C11.1295 33.2093 9.85017 31.7401 8.24878 30.6953L7.42917 31.9516ZM10.587 35.5779C11.283 37.0558 11.5543 38.6979 11.3707 40.3212L12.8612 40.4898C13.0761 38.5901 12.7585 36.6683 11.944 34.9388L10.587 35.5779ZM11.3735 40.2995C11.1769 41.6773 11.2182 43.0788 11.4953 44.4426L12.9653 44.1439C12.7223 42.9481 12.6861 41.7194 12.8585 40.5114L11.3735 40.2995ZM11.4961 44.4461C12.0873 47.2858 13.6875 49.815 16.0004 51.5662L16.9058 50.3703C14.8819 48.838 13.4818 46.6249 12.9646 44.1404L11.4961 44.4461ZM16.0004 51.5662C18.3133 53.3171 21.1823 54.1717 24.0768 53.9714L23.9732 52.475C21.4404 52.6503 18.9297 51.9024 16.9058 50.3703L16.0004 51.5662ZM24.0768 53.9714C26.9712 53.771 29.6952 52.5296 31.7448 50.4766L30.6832 49.4168C28.8898 51.2133 26.5061 52.2996 23.9732 52.475L24.0768 53.9714ZM31.7448 50.4766C33.7941 48.4237 35.0304 45.6981 35.2246 42.8042L33.7279 42.7038C33.5581 45.2358 32.4764 47.6206 30.6832 49.4168L31.7448 50.4766ZM17.622 7.02453C15.376 7.01935 13.1865 7.7286 11.3701 9.04975L12.2524 10.2628C13.8114 9.12884 15.6908 8.52008 17.6186 8.52452L17.622 7.02453ZM11.3701 9.04975C9.55364 10.3709 8.20443 12.2355 7.51753 14.3739L8.94567 14.8327C9.53524 12.9972 10.6933 11.3968 12.2524 10.2628L11.3701 9.04975ZM7.51754 14.3739C6.83062 16.5124 6.84159 18.8139 7.54885 20.9457L8.97254 20.4734C8.36549 18.6436 8.35607 16.6682 8.94567 14.8327L7.51754 14.3739ZM7.54885 20.9457C8.2561 23.0775 9.62301 24.9293 11.452 26.2329L12.3226 25.0114C10.7529 23.8926 9.57961 22.3032 8.97254 20.4734L7.54885 20.9457Z" fill="#002024"/>
</svg>
