<svg width="46" height="46" viewBox="0 0 46 46" fill="none" xmlns="http://www.w3.org/2000/svg">
<path d="M23 1V14.3913M1.10139 14.3913H44.8986M36.0087 1.80157C35.8315 1.55336 35.5976 1.35111 35.3264 1.21168C35.0551 1.07224 34.7545 0.999667 34.4496 1H11.5504C11.2455 0.999667 10.9449 1.07224 10.6736 1.21168C10.4024 1.35111 10.1685 1.55336 9.9913 1.80157L1.35583 13.892C1.12435 14.2164 0.999946 14.605 1 15.0035V43.087C1 43.5943 1.20155 44.0809 1.56032 44.4397C1.91908 44.7984 2.40567 45 2.91304 45H43.087C43.5943 45 44.0809 44.7984 44.4397 44.4397C44.7984 44.0809 45 43.5943 45 43.087V15.0035C45.0001 14.605 44.8757 14.2164 44.6442 13.892L36.0087 1.80157ZM24.915 33.5217H38.3063C38.3063 33.5217 39.2628 33.5217 39.2628 34.4783V38.3043C39.2628 38.3043 39.2628 39.2609 38.3063 39.2609H24.915C24.915 39.2609 23.9584 39.2609 23.9584 38.3043V34.4783C23.9584 34.4783 23.9584 33.5217 24.915 33.5217Z" stroke="#002024" stroke-width="1.5" stroke-linecap="round" stroke-linejoin="round"/>
</svg>
