<svg width="29" height="56" viewBox="0 0 29 56" fill="none" xmlns="http://www.w3.org/2000/svg">
<path d="M4.375 18.1875V4.4375C4.375 3.52582 4.73058 2.65148 5.36351 2.00682C5.99645 1.36216 6.85489 1 7.75 1H21.25C22.1451 1 23.0035 1.36216 23.6365 2.00682C24.2694 2.65148 24.625 3.52582 24.625 4.4375V18.1875M4.375 18.1875H24.625M4.375 18.1875C0.999999 18.1875 1 21.625 1 21.625V42.25C1 45.6875 4.375 45.6875 4.375 45.6875H24.625C28 45.6875 28 42.25 28 42.25V21.625C28 18.1875 24.625 18.1875 24.625 18.1875M11.125 45.6875V56M17.875 45.8319V56M11.125 1V7.875M17.875 1V7.875" stroke="#002024" stroke-width="1.5" stroke-linecap="round" stroke-linejoin="round"/>
</svg>
