<svg width="36" height="36" viewBox="0 0 36 36" fill="none" xmlns="http://www.w3.org/2000/svg">
<g clip-path="url(#clip0_922_13802)">
<path d="M18 36C27.9411 36 36 27.9411 36 18C36 8.05888 27.9411 0 18 0C8.05888 0 0 8.05888 0 18C0 27.9411 8.05888 36 18 36Z" fill="url(#paint0_linear_922_13802)"/>
<path d="M12.1843 19.316L14.3199 25.2269C14.3199 25.2269 14.5869 25.78 14.8728 25.78C15.1587 25.78 19.411 21.3562 19.411 21.3562L24.1398 12.2227L12.2605 17.7902L12.1843 19.316Z" fill="#C8DAEA"/>
<path d="M15.016 20.832L14.6061 25.1889C14.6061 25.1889 14.4345 26.5239 15.7692 25.1889C17.1039 23.8539 18.3814 22.8245 18.3814 22.8245" fill="#A9C6D8"/>
<path d="M12.2228 19.5264L7.82992 18.0951C7.82992 18.0951 7.30492 17.8821 7.47397 17.3991C7.50877 17.2995 7.57897 17.2148 7.78897 17.0691C8.76232 16.3907 25.8049 10.2651 25.8049 10.2651C25.8049 10.2651 26.2861 10.103 26.5699 10.2108C26.6401 10.2326 26.7033 10.2726 26.7529 10.3267C26.8026 10.3809 26.837 10.4473 26.8526 10.5191C26.8833 10.6459 26.8961 10.7765 26.8907 10.9068C26.8894 11.0196 26.8757 11.1242 26.8654 11.2881C26.7616 12.9629 23.6554 25.4621 23.6554 25.4621C23.6554 25.4621 23.4695 26.1935 22.8037 26.2185C22.64 26.2238 22.477 26.1961 22.3243 26.137C22.1716 26.078 22.0324 25.9888 21.9149 25.8747C20.6083 24.7508 16.0921 21.7157 15.0941 21.0482C15.0716 21.0329 15.0527 21.0129 15.0385 20.9896C15.0244 20.9663 15.0154 20.9402 15.0122 20.9132C14.9983 20.8428 15.0748 20.7557 15.0748 20.7557C15.0748 20.7557 22.9387 13.7657 23.1479 13.0319C23.1641 12.975 23.1029 12.947 23.0207 12.9719C22.4984 13.164 13.4441 18.8819 12.4448 19.5129C12.3729 19.5347 12.2969 19.5393 12.2228 19.5264Z" fill="white"/>
</g>
<defs>
<linearGradient id="paint0_linear_922_13802" x1="18" y1="36" x2="18" y2="0" gradientUnits="userSpaceOnUse">
<stop stop-color="#1D93D2"/>
<stop offset="1" stop-color="#38B0E3"/>
</linearGradient>
<clipPath id="clip0_922_13802">
<rect width="36" height="36" fill="white"/>
</clipPath>
</defs>
</svg>
