<svg width="36" height="36" viewBox="0 0 36 36" fill="none" xmlns="http://www.w3.org/2000/svg">
<g clip-path="url(#clip0_922_13837)">
<circle cx="18" cy="18" r="18" fill="#ED1D24"/>
<path d="M26.7301 13.6871C26.5219 12.9141 25.9084 12.3055 25.1292 12.0989C23.717 11.7234 18.0543 11.7234 18.0543 11.7234C18.0543 11.7234 12.3916 11.7234 10.9794 12.0989C10.2003 12.3055 9.58663 12.9141 9.3784 13.6871C9 15.0881 9 18.0111 9 18.0111C9 18.0111 9 20.9341 9.3784 22.3352C9.58663 23.1081 10.2003 23.7168 10.9794 23.9235C12.3916 24.2988 18.0543 24.2988 18.0543 24.2988C18.0543 24.2988 23.717 24.2988 25.1292 23.9235C25.9084 23.7168 26.5219 23.1081 26.7301 22.3352C27.1086 20.9341 27.1086 18.0111 27.1086 18.0111C27.1086 18.0111 27.1086 15.0881 26.7301 13.6871Z" fill="white"/>
<path d="M16.2024 20.6641L20.9353 18.0103L16.2024 15.3563V20.6641Z" fill="#ED1D24"/>
</g>
<defs>
<clipPath id="clip0_922_13837">
<rect width="36" height="36" fill="white"/>
</clipPath>
</defs>
</svg>
