<svg width="29" height="24" viewBox="0 0 29 24" fill="none" xmlns="http://www.w3.org/2000/svg">
<path d="M6.91463 13.5225L0.563144 11.4531C0.563144 11.4531 -0.195929 11.1451 0.048492 10.4467C0.0988077 10.3027 0.200306 10.1802 0.503935 9.96961C1.91126 8.98867 26.5523 0.132028 26.5523 0.132028C26.5523 0.132028 27.248 -0.102417 27.6583 0.0535182C27.7599 0.0849409 27.8512 0.142765 27.923 0.221073C27.9949 0.299381 28.0446 0.395363 28.0672 0.499202C28.1115 0.682609 28.13 0.871303 28.1223 1.05983C28.1203 1.22292 28.1006 1.37409 28.0856 1.61114C27.9355 4.03258 23.4444 22.1046 23.4444 22.1046C23.4444 22.1046 23.1757 23.1621 22.213 23.1983C21.9764 23.2059 21.7407 23.1659 21.5199 23.0805C21.2991 22.9951 21.0978 22.8661 20.928 22.7012C19.0388 21.0761 12.509 16.6878 11.0661 15.7227C11.0336 15.7006 11.0062 15.6717 10.9857 15.638C10.9653 15.6043 10.9523 15.5667 10.9477 15.5275C10.9275 15.4258 11.0381 15.2998 11.0381 15.2998C11.0381 15.2998 22.4082 5.19331 22.7107 4.13234C22.7341 4.05014 22.6457 4.00959 22.5268 4.04559C21.7716 4.32341 8.68045 12.5906 7.23561 13.503C7.13161 13.5345 7.02168 13.5411 6.91463 13.5225Z" fill="white"/>
</svg>
