<svg width="20" height="13" viewBox="0 0 20 13" fill="none" xmlns="http://www.w3.org/2000/svg">
<path d="M1 1H3.76923M16.2308 1H19M14.2185 7.15815C15.8313 8.31592 16.9741 10.0384 17.4308 12M5.78154 7.15815C4.16896 8.31624 3.02629 10.0386 2.56923 12M19 5.25221C19 4.87629 18.8541 4.51577 18.5945 4.24996C18.3348 3.98414 17.9826 3.83481 17.6154 3.83481H16.2418C15.6639 3.85064 15.0894 3.73891 14.5574 3.50721C14.0254 3.27552 13.5484 2.92929 13.1588 2.49205C12.7688 2.0246 12.2845 1.64926 11.7392 1.39189C11.1938 1.13452 10.6005 1.00124 10 1.00124C9.39951 1.00124 8.80616 1.13452 8.26084 1.39189C7.71552 1.64926 7.23119 2.0246 6.84123 2.49205C6.45163 2.92934 5.97461 3.2756 5.44261 3.5073C4.9106 3.739 4.3361 3.8507 3.75815 3.83481H2.38462C2.01739 3.83481 1.66521 3.98414 1.40554 4.24996C1.14588 4.51577 1 4.87629 1 5.25221C1 5.62813 1.14588 5.98865 1.40554 6.25447C1.66521 6.52028 2.01739 6.66962 2.38462 6.66962H3.75815C4.3361 6.65372 4.9106 6.76542 5.44261 6.99712C5.97461 7.22882 6.45163 7.57509 6.84123 8.01237C7.23119 8.47982 7.71552 8.85517 8.26084 9.11254C8.80616 9.36991 9.39951 9.50318 10 9.50318C10.6005 9.50318 11.1938 9.36991 11.7392 9.11254C12.2845 8.85517 12.7688 8.47982 13.1588 8.01237C13.5484 7.57514 14.0254 7.22891 14.5574 6.99721C15.0894 6.76551 15.6639 6.65378 16.2418 6.66962H17.6154C17.9826 6.66962 18.3348 6.52028 18.5945 6.25447C18.8541 5.98865 19 5.62813 19 5.25221Z" stroke="#0ed5ff" stroke-width="1.5" stroke-linecap="round" stroke-linejoin="round"/>
</svg>
