<svg width="24" height="24" viewBox="0 0 24 24" fill="none" xmlns="http://www.w3.org/2000/svg">
<path d="M0 12C0 5.37258 5.37258 0 12 0C18.6274 0 24 5.37258 24 12C24 18.6274 18.6274 24 12 24C5.37258 24 0 18.6274 0 12Z" fill="white"/>
<path d="M12.0003 7.09326C13.5024 7.09326 14.5157 7.74213 15.0935 8.28434L17.3512 6.07995C15.9646 4.79109 14.1602 4 12.0003 4C8.87144 4 6.16928 5.79551 4.85376 8.40878L7.44036 10.4176C8.08924 8.48878 9.88475 7.09326 12.0003 7.09326Z" fill="#EA4335"/>
<path d="M19.6798 12.1785C19.6798 11.5207 19.6265 11.0407 19.5109 10.543H12V13.5118H16.4088C16.3199 14.2495 15.8399 15.3606 14.7733 16.1073L17.2976 18.0628C18.8087 16.6673 19.6798 14.614 19.6798 12.1785Z" fill="#4285F4"/>
<path d="M7.4488 13.5834C7.27992 13.0856 7.18214 12.5523 7.18214 12.0012C7.18214 11.4501 7.27992 10.9168 7.43992 10.419L4.85331 8.41016C4.3111 9.49457 4 10.7123 4 12.0012C4 13.29 4.3111 14.5078 4.85331 15.5922L7.4488 13.5834Z" fill="#FBBC05"/>
<path d="M11.9999 19.9997C14.1599 19.9997 15.9731 19.2886 17.2976 18.0619L14.7732 16.1064C14.0976 16.5775 13.191 16.9064 11.9999 16.9064C9.8844 16.9064 8.08889 15.5109 7.44891 13.582L4.8623 15.5909C6.17783 18.2041 8.8711 19.9997 11.9999 19.9997Z" fill="#34A853"/>
</svg>
