<svg width="25" height="24" viewBox="0 0 25 24" fill="none" xmlns="http://www.w3.org/2000/svg">
<path d="M0.5 12C0.5 5.37258 5.87258 0 12.5 0C19.1274 0 24.5 5.37258 24.5 12C24.5 18.6274 19.1274 24 12.5 24C5.87258 24 0.5 18.6274 0.5 12Z" fill="white"/>
<path fill-rule="evenodd" clip-rule="evenodd" d="M15.0719 2.83008C15.2185 3.82561 14.8133 4.8009 14.2788 5.49093C13.7069 6.23108 12.7211 6.80353 11.766 6.77365C11.5917 5.82053 12.0381 4.83849 12.5813 4.17833C13.1771 3.44976 14.1983 2.89079 15.0719 2.83008ZM17.9415 16.8427C18.4338 16.0881 18.6178 15.7074 19 14.8555C16.22 13.7983 15.7746 9.84602 18.5258 8.32911C17.6866 7.27672 16.5074 6.66668 15.3942 6.66668C14.5922 6.66668 14.0426 6.87599 13.543 7.06627C13.1267 7.22484 12.7451 7.3702 12.2809 7.3702C11.7793 7.3702 11.3351 7.21093 10.87 7.04417C10.3589 6.86091 9.82251 6.6686 9.15697 6.6686C7.90779 6.6686 6.57815 7.43188 5.73514 8.73677C4.55015 10.5746 4.75228 14.0296 6.67394 16.9728C7.3608 18.0261 8.27852 19.2096 9.47885 19.2202C9.9769 19.2251 10.3083 19.0765 10.667 18.9156C11.0775 18.7315 11.5237 18.5314 12.2962 18.5273C13.0733 18.5226 13.5124 18.7252 13.9175 18.912C14.2669 19.0732 14.591 19.2227 15.0848 19.2173C16.2861 19.2077 17.2546 17.896 17.9415 16.8427Z" fill="#0B0B0A"/>
</svg>
