<svg width="14" height="24" viewBox="0 0 14 24" fill="none" xmlns="http://www.w3.org/2000/svg">
<path d="M3.94072 2.11751C3.94072 2.63731 4.44379 3.05869 5.06437 3.05869H8.93472C9.55529 3.05869 10.0584 2.63731 10.0584 2.11751M2.46499 0.840332H11.4966C12.0504 0.840332 12.3273 0.840332 12.5389 0.948112C12.7249 1.04292 12.8762 1.19419 12.971 1.38026C13.0788 1.59179 13.0788 1.8687 13.0788 2.42251V21.59C13.0788 22.1438 13.0788 22.4207 12.971 22.6322C12.8762 22.8183 12.7249 22.9696 12.5389 23.0644C12.3273 23.1721 12.0504 23.1721 11.4966 23.1721H2.46499C1.91118 23.1721 1.63427 23.1721 1.42274 23.0644C1.23667 22.9696 1.0854 22.8183 0.990592 22.6322C0.882812 22.4207 0.882812 22.1438 0.882812 21.59V2.42251C0.882812 1.8687 0.882812 1.59179 0.990592 1.38026C1.0854 1.19419 1.23667 1.04292 1.42274 0.948112C1.63427 0.840332 1.91118 0.840332 2.46499 0.840332Z" stroke="#002024" stroke-width="1.3"/>
</svg>
