<svg width="26" height="46" viewBox="0 0 26 46" fill="none" xmlns="http://www.w3.org/2000/svg">
<path d="M6.88242 3.23502C6.88242 4.27462 7.88857 5.11738 9.12972 5.11738H16.8704C18.1116 5.11738 19.1177 4.27462 19.1177 3.23502M3.93096 0.680664H21.9942C23.1018 0.680664 23.6556 0.680664 24.0787 0.896223C24.4508 1.08583 24.7534 1.38839 24.943 1.76052C25.1585 2.18358 25.1585 2.73739 25.1585 3.84502V42.1799C25.1585 43.2876 25.1585 43.8414 24.943 44.2644C24.7534 44.6366 24.4508 44.9391 24.0787 45.1287C23.6556 45.3443 23.1018 45.3443 21.9942 45.3443H3.93096C2.82333 45.3443 2.26952 45.3443 1.84646 45.1287C1.47433 44.9391 1.17177 44.6366 0.982161 44.2644C0.766602 43.8414 0.766602 43.2876 0.766602 42.1799V3.84502C0.766602 2.73739 0.766602 2.18358 0.982161 1.76052C1.17177 1.38839 1.47433 1.08583 1.84646 0.896223C2.26952 0.680664 2.82333 0.680664 3.93096 0.680664Z" stroke="#002024" stroke-width="1.3"/>
</svg>
