<svg width="14" height="13" viewBox="0 0 14 13" fill="none" xmlns="http://www.w3.org/2000/svg">
<path d="M7.48274 3.35714H0.741973M14 3.35714H11.4074M6.51726 9.64285L13.258 9.64285M0 9.64285H2.5926M11.6667 3.35714C11.6667 4.65896 10.622 5.71429 9.33332 5.71429C8.04465 5.71429 6.99998 4.65896 6.99998 3.35714C6.99998 2.05533 8.04465 1 9.33332 1C10.622 1 11.6667 2.05533 11.6667 3.35714ZM2.33334 9.64286C2.33334 8.34104 3.37801 7.28571 4.66668 7.28571C5.95535 7.28571 7.00002 8.34104 7.00002 9.64286C7.00002 10.9447 5.95535 12 4.66668 12C3.37801 12 2.33334 10.9447 2.33334 9.64286Z" stroke="#002024" stroke-width="1.5"/>
</svg>
