<svg width="24" height="24" viewBox="0 0 24 24" fill="none" xmlns="http://www.w3.org/2000/svg">
<path d="M6.66745 7.63689C6.56057 8.77689 6.48557 10.7944 7.1587 11.6531C7.1587 11.6531 6.84182 9.43689 9.68245 6.65626C10.8262 5.53689 11.0906 4.01439 10.6912 2.87251C10.4643 2.22564 10.0499 1.69126 9.68995 1.31814C9.47995 1.09876 9.6412 0.736887 9.94682 0.750012C11.7956 0.832512 14.7918 1.34626 16.0649 4.54126C16.6237 5.94376 16.6649 7.39314 16.3987 8.86689C16.2299 9.80814 15.6299 11.9006 16.9987 12.1575C17.9756 12.3413 18.4481 11.565 18.6599 11.0063C18.7481 10.7738 19.0537 10.7156 19.2187 10.9013C20.8687 12.7781 21.0093 14.9888 20.6681 16.8919C20.0081 20.5706 16.2824 23.2481 12.5812 23.2481C7.95745 23.2481 4.27682 20.6025 3.32245 15.8138C2.93807 13.8806 3.13307 10.0556 6.11432 7.35564C6.33557 7.15314 6.69745 7.33314 6.66745 7.63689Z" fill="url(#paint0_radial_161_1590)"/>
<path d="M14.2705 14.5162C12.5661 12.3225 13.3293 9.81937 13.7474 8.82187C13.8036 8.69062 13.6536 8.56687 13.5355 8.64749C12.8024 9.14624 11.3005 10.32 10.6011 11.9719C9.65426 14.205 9.72176 15.2981 10.2824 16.6331C10.6199 17.4375 10.228 17.6081 10.0311 17.6381C9.83988 17.6681 9.66363 17.5406 9.52301 17.4075C9.11988 17.0231 8.82926 16.5225 8.69051 15.9825C8.66051 15.8662 8.50863 15.8344 8.43926 15.93C7.91426 16.6556 7.64238 17.82 7.62926 18.6431C7.58801 21.1875 9.68988 23.25 12.2324 23.25C15.4368 23.25 17.7711 19.7062 15.9299 16.7437C15.3955 15.8812 14.893 15.3169 14.2705 14.5162Z" fill="url(#paint1_radial_161_1590)"/>
<defs>
<radialGradient id="paint0_radial_161_1590" cx="0" cy="0" r="1" gradientUnits="userSpaceOnUse" gradientTransform="translate(11.6655 23.3064) rotate(-179.751) scale(13.2352 21.7163)">
<stop offset="0.3144" stop-color="#FF9800"/>
<stop offset="0.6616" stop-color="#FF6D00"/>
<stop offset="0.9715" stop-color="#F44336"/>
</radialGradient>
<radialGradient id="paint1_radial_161_1590" cx="0" cy="0" r="1" gradientUnits="userSpaceOnUse" gradientTransform="translate(12.4086 10.136) rotate(90.5787) scale(13.8481 10.4217)">
<stop offset="0.2141" stop-color="#FFF176"/>
<stop offset="0.3275" stop-color="#FFF27D"/>
<stop offset="0.4868" stop-color="#FFF48F"/>
<stop offset="0.6722" stop-color="#FFF7AD"/>
<stop offset="0.7931" stop-color="#FFF9C4"/>
<stop offset="0.8221" stop-color="#FFF8BD" stop-opacity="0.804"/>
<stop offset="0.8627" stop-color="#FFF6AB" stop-opacity="0.529"/>
<stop offset="0.9101" stop-color="#FFF38D" stop-opacity="0.2088"/>
<stop offset="0.9409" stop-color="#FFF176" stop-opacity="0"/>
</radialGradient>
</defs>
</svg>
