<svg width="20" height="16" viewBox="0 0 20 16" fill="none" xmlns="http://www.w3.org/2000/svg">
<path d="M17.7796 3.84556L18.976 12.2878C18.9919 12.4001 19 12.514 19 12.6263C19 13.9352 17.9454 15 16.6491 15C16.5559 15 16.4638 14.9926 16.3727 14.9815C15.9425 14.9534 15.5562 14.7442 15.4168 14.6431C14.9846 14.3735 14.6381 13.9662 14.451 13.4692L13.3524 10.5507H6.64688L5.54903 13.4691C5.20437 14.3848 4.32107 15 3.35092 15C2.05464 15 1 13.9352 1 12.6263C1 12.5141 1.00809 12.4002 1.02396 12.2879L2.22051 3.84556M17.7796 3.84556C17.5498 2.22331 16.1509 1 14.5258 1C13.436 1 12.4201 1.54835 11.8109 2.44842H8.18931C7.58001 1.54841 6.56411 1 5.47435 1C3.84928 1 2.45041 2.22331 2.22051 3.84556M17.7796 3.84556C17.7796 5.24006 17.3677 6.06287 17.1618 6.29996C16.5619 7.11163 15.6036 7.63823 14.5257 7.63823C12.9538 7.63823 11.5965 6.50886 11.2983 4.95274M2.22051 3.84556C2.22051 5.11407 2.63227 6.01037 2.83816 6.29996C3.43802 7.1117 4.39632 7.6383 5.47423 7.6383C7.04616 7.6383 8.40354 6.50886 8.70169 4.9528" stroke="#0ed5ff" stroke-width="1.5"/>
</svg>
