<svg width="18" height="18" viewBox="0 0 18 18" fill="none" xmlns="http://www.w3.org/2000/svg">
<path d="M10.7707 1.91699L13.4269 4.57324M13.4269 4.57324L16.0832 7.22949M13.4269 4.57324L16.0832 1.91699M13.4269 4.57324L10.7707 7.22949M7.854 4.57324C7.854 6.38543 6.38494 7.85449 4.57275 7.85449C2.76057 7.85449 1.2915 6.38543 1.2915 4.57324C1.2915 2.76106 2.76057 1.29199 4.57275 1.29199C6.38494 1.29199 7.854 2.76106 7.854 4.57324ZM7.854 13.4274C7.854 15.2396 6.38494 16.7087 4.57275 16.7087C2.76057 16.7087 1.2915 15.2396 1.2915 13.4274C1.2915 11.6152 2.76057 10.1462 4.57275 10.1462C6.38494 10.1462 7.854 11.6152 7.854 13.4274ZM16.7082 13.4274C16.7082 15.2396 15.2391 16.7087 13.4269 16.7087C11.6147 16.7087 10.1457 15.2396 10.1457 13.4274C10.1457 11.6152 11.6147 10.1462 13.4269 10.1462C15.2391 10.1462 16.7082 11.6152 16.7082 13.4274Z" stroke="#002024" stroke-width="1.5" stroke-linecap="round"/>
</svg>
