<svg width="12" height="20" viewBox="0 0 12 20" fill="none" xmlns="http://www.w3.org/2000/svg">
<path fill-rule="evenodd" clip-rule="evenodd" d="M7.46992 1.01533C7.61808 0.96363 7.7838 1.0472 7.80871 1.19814C8.34427 4.44273 9.40276 11.9883 9.62357 17.9166C9.62847 18.0482 9.5185 18.1571 9.37802 18.1606C7.33281 18.212 3.16576 18.2467 1.29781 18.0094C1.17454 17.9937 1.08602 17.8967 1.0825 17.7832C1.0506 16.7578 1.05984 15.7592 1.0715 14.4996C1.07866 13.7257 1.08675 12.8531 1.08675 11.8152C1.08676 9.10981 1.05547 7.10681 1.02714 5.29282C1.01726 4.65977 1.00773 4.04972 1.00002 3.44089C0.998749 3.34073 1.06483 3.25065 1.1651 3.21567L7.46992 1.01533Z" stroke="#002024" stroke-width="1.5"/>
<path d="M10.959 17.2574C10.8086 14.8396 10.9023 7.79955 10.9997 3.07601C11.0184 2.17041 10.1095 1.49872 9.1717 1.7243C8.44027 1.90024 7.97363 2.5704 8.08831 3.26868C9.23092 10.2258 9.56215 15.2052 9.5947 17.3862C9.59967 17.7196 9.88733 17.9921 10.2437 17.9921C10.6521 17.9921 10.9828 17.6388 10.959 17.2574Z" stroke="#002024" stroke-width="1.5"/>
<path fill-rule="evenodd" clip-rule="evenodd" d="M3.11709 18.0969C3.12487 18.0597 3.15967 18.0329 3.20013 18.0329C4.47133 18.0329 5.59833 18.0916 6.61588 18.1504C6.72094 18.1564 6.8248 18.1624 6.92748 18.1684C7.82062 18.2205 8.62688 18.2675 9.37547 18.2675C9.41354 18.2675 9.44692 18.2913 9.45704 18.3256L9.62627 18.8998C9.63329 18.9237 9.62801 18.9492 9.61202 18.9688C9.59601 18.9884 9.57111 19 9.5447 19H3.0309C3.00562 19 2.98166 18.9894 2.96558 18.9712C2.9495 18.9528 2.943 18.9289 2.94786 18.9057L3.11709 18.0969Z" stroke="#002024" stroke-width="1.5"/>
</svg>
