<svg width="32" height="32" viewBox="0 0 32 32" fill="none" xmlns="http://www.w3.org/2000/svg">
<path d="M14.4832 7.2336C14.4832 11.1344 11.312 14.304 7.41122 14.304C3.50722 14.304 0.34082 11.1376 0.34082 7.2336C0.34082 3.3248 3.50722 0.1632 7.41122 0.1632C11.312 0.1632 14.4832 3.3232 14.4832 7.2336ZM31.6736 7.2336C31.6736 3.3248 28.5072 0.1632 24.6048 0.1632C20.704 0.1632 17.5392 3.3248 17.5392 7.2336C17.5392 11.1344 20.704 14.304 24.6048 14.304C28.5088 14.3024 31.6736 11.136 31.6736 7.2336ZM14.4832 24.4288C14.4832 20.5248 11.312 17.3632 7.41122 17.3632C3.50722 17.3632 0.34082 20.5248 0.34082 24.4288C0.34082 28.3328 3.50722 31.4992 7.41122 31.4992C11.312 31.4992 14.4832 28.3344 14.4832 24.4288ZM31.6736 24.4288C31.6736 20.5248 28.5072 17.3632 24.6048 17.3632C20.704 17.3632 17.5392 20.5248 17.5392 24.4288C17.5392 28.3328 20.704 31.4992 24.6048 31.4992C28.5088 31.4992 31.6736 28.3344 31.6736 24.4288Z" fill="#009DE0"/>
</svg>
