<svg width="52" height="52" viewBox="0 0 52 52" fill="none" xmlns="http://www.w3.org/2000/svg">
<circle cx="26" cy="26" r="25" stroke="#002024" stroke-width="1.5" stroke-linecap="round" stroke-linejoin="round" stroke-dasharray="6 6"/>
<path d="M33 30.0268C33 31.8762 32.2625 33.6499 30.9497 34.9576C29.637 36.2653 27.8565 37 26 37C24.1435 37 22.363 36.2653 21.0503 34.9576C19.7375 33.6499 19 31.8762 19 30.0268C19 26.8749 23.718 19.037 25.412 16.3314C25.473 16.2303 25.5592 16.1467 25.6622 16.0886C25.7652 16.0305 25.8816 16 26 16C26.1184 16 26.2348 16.0305 26.3378 16.0886C26.4408 16.1467 26.527 16.2303 26.588 16.3314C28.282 19.037 33 26.8749 33 30.0268Z" stroke="#002024" stroke-width="1.5" stroke-linecap="round" stroke-linejoin="round"/>
</svg>
