<svg width="38" height="48" viewBox="0 0 38 48" fill="none" xmlns="http://www.w3.org/2000/svg">
<path d="M33 47L31.73 43.617C31.2137 42.241 31.1047 40.7454 31.4161 39.309C31.7275 37.8727 32.4461 36.5564 33.486 35.5175C35.7359 33.2679 36.9999 30.2171 37 27.0361V17.509C36.7861 12.9407 34.7734 8.64244 31.4012 5.55217C28.029 2.46191 23.571 0.830499 19 1.01395C8 1.01395 1 8.16379 1 17.0091V27.0361C1.00015 30.2171 2.26414 33.2679 4.514 35.5175C5.55388 36.5564 6.27247 37.8727 6.58387 39.309C6.89527 40.7454 6.78631 42.241 6.27 43.617L5 47M19.182 21.3178C20.1954 21.3177 21.1712 21.7021 21.912 22.3935C22.6271 23.0608 23.4946 23.5432 24.4388 23.7987C25.3831 24.0542 26.3756 24.075 27.3297 23.8592C28.2839 23.6435 29.1708 23.1979 29.9132 22.5611C30.6556 21.9243 31.2311 21.1157 31.5893 20.2057C31.9476 19.2957 32.0779 18.3119 31.9689 17.3401C31.8598 16.3682 31.5147 15.4378 30.9636 14.6298C30.4125 13.8218 29.6722 13.1607 28.807 12.7042C27.9419 12.2477 26.9782 12.0096 26 12.0106H12C11.0218 12.0096 10.0581 12.2477 9.19297 12.7042C8.32785 13.1607 7.5875 13.8218 7.03641 14.6298C6.48532 15.4378 6.14021 16.3682 6.03115 17.3401C5.92208 18.3119 6.05237 19.2957 6.41065 20.2057C6.76894 21.1157 7.34437 21.9243 8.0868 22.5611C8.82923 23.1979 9.71615 23.6435 10.6703 23.8592C11.6244 24.075 12.6169 24.0542 13.5612 23.7987C14.5054 23.5432 15.3729 23.0608 16.088 22.3935C16.8288 21.7021 17.8046 21.3177 18.818 21.3178H19.182ZM12 33.0042C12 33.5294 12.1811 34.0494 12.5328 34.5345C12.8846 35.0197 13.4002 35.4605 14.0503 35.8318C14.7003 36.2031 15.4719 36.4977 16.3212 36.6986C17.1705 36.8996 18.0807 37.003 19 37.003C19.9193 37.003 20.8295 36.8996 21.6788 36.6986C22.5281 36.4977 23.2997 36.2031 23.9497 35.8318C24.5998 35.4605 25.1154 35.0197 25.4672 34.5345C25.8189 34.0494 26 33.5294 26 33.0042C26 32.4791 25.8189 31.9591 25.4672 31.474C25.1154 30.9888 24.5998 30.548 23.9497 30.1767C23.2997 29.8054 22.5281 29.5108 21.6788 29.3099C20.8295 29.1089 19.9193 29.0055 19 29.0055C18.0807 29.0055 17.1705 29.1089 16.3212 29.3099C15.4719 29.5108 14.7003 29.8054 14.0503 30.1767C13.4002 30.548 12.8846 30.9888 12.5328 31.474C12.1811 31.9591 12 32.4791 12 33.0042Z" stroke="#002024" stroke-width="1.5" stroke-linecap="round" stroke-linejoin="round"/>
</svg>
