<svg width="56" height="56" viewBox="0 0 56 56" fill="none" xmlns="http://www.w3.org/2000/svg">
<path d="M42.8182 51H14.1818C12.0119 51 9.93079 50.138 8.39639 48.6035C6.86202 47.0692 6 44.9882 6 42.8182V34.6364L10.772 38.7273L15.5461 34.6364L20.3182 38.7273L25.0902 34.6364L29.8643 38.7273L34.6364 34.6364V42.8182C34.6364 44.9882 35.4983 47.0692 37.0328 48.6035C38.5671 50.138 40.6482 51 42.8182 51ZM42.8182 51C44.9882 51 47.0692 50.138 48.6035 48.6035C50.138 47.0692 51 44.9882 51 42.8182V6L46.228 10.0909L41.4539 6L36.6818 10.0909L31.9098 6L27.1357 10.0909L22.3636 6V28.5M28.5 18.2727H44.8636M28.5 26.4545H44.8636" stroke="#002024" stroke-width="1.5" stroke-linecap="round" stroke-linejoin="round"/>
</svg>
