<svg width="203" height="22" viewBox="0 0 203 22" fill="none" xmlns="http://www.w3.org/2000/svg">
<g clip-path="url(#clip0_3012_715)">
<path d="M21.8792 10.0513H11.2678V14.1278H16.9211C16.1653 16.0787 14.3212 17.2725 11.5097 17.2725C7.39811 17.2725 4.85861 14.7392 4.85861 11.2742C4.85861 7.69278 7.51903 5.15954 11.0864 5.15954C13.4747 5.15954 15.3794 6.20778 16.256 7.54719L20.3676 5.27601C18.5839 2.53895 15.1677 0.617188 11.1166 0.617188C4.88884 0.617188 0.0214844 5.33425 0.0214844 11.2451C0.0214844 17.0978 4.79815 21.8148 11.4492 21.8148C17.3746 21.8148 21.8792 18.0295 21.8792 11.7984V10.0513ZM35.8996 21.4072H41.0995L36.595 13.924C38.9228 12.7884 40.4949 10.5172 40.4949 8.01307C40.4949 4.14042 37.2601 1.02483 33.2392 1.02483H24.7742V21.4072H29.6114V14.7101H31.909L35.8996 21.4072ZM29.6114 5.39248H33.2392C34.5694 5.39248 35.6578 6.52807 35.6578 8.01307C35.6578 9.49807 34.5694 10.6337 33.2392 10.6337H29.6114V5.39248ZM53.3442 21.8148C59.4208 21.8148 64.3487 17.2142 64.3487 11.216C64.3487 5.21778 59.4208 0.617188 53.3442 0.617188C47.2676 0.617188 42.3397 5.21778 42.3397 11.216C42.3397 17.2142 47.2676 21.8148 53.3442 21.8148ZM53.3442 17.2725C49.8977 17.2725 47.1769 14.8557 47.1769 11.216C47.1769 7.57631 49.8977 5.15954 53.3442 5.15954C56.7907 5.15954 59.5115 7.57631 59.5115 11.216C59.5115 14.8557 56.7907 17.2725 53.3442 17.2725ZM84.3515 21.4072L76.9145 10.954L84.0492 1.02483H78.547L72.0773 9.8766V1.02483H67.2402V21.4072H72.0773V11.9731L78.8493 21.4072H84.3515ZM97.8209 1.02483V8.82836H91.1699V1.02483H86.3327V21.4072H91.1699V13.3125H97.8209V21.4072H102.658V1.02483H97.8209ZM116.556 21.8148C122.633 21.8148 127.561 17.2142 127.561 11.216C127.561 5.21778 122.633 0.617188 116.556 0.617188C110.479 0.617188 105.552 5.21778 105.552 11.216C105.552 17.2142 110.479 21.8148 116.556 21.8148ZM116.556 17.2725C113.11 17.2725 110.389 14.8557 110.389 11.216C110.389 7.57631 113.11 5.15954 116.556 5.15954C120.002 5.15954 122.723 7.57631 122.723 11.216C122.723 14.8557 120.002 17.2725 116.556 17.2725ZM135.289 16.9231V1.02483H130.452V21.4072H142.847V16.9231H135.289ZM152.257 21.8148C156.852 21.8148 160.117 19.4854 160.117 15.5545C160.117 11.2451 156.52 10.1678 153.315 9.23601C150.02 8.27513 149.506 7.63454 149.506 6.70278C149.506 5.88748 150.262 5.15954 151.773 5.15954C153.708 5.15954 154.706 6.06219 155.431 7.51807L159.513 5.21778C157.971 2.21866 155.25 0.617188 151.773 0.617188C148.115 0.617188 144.669 2.88836 144.669 6.81925C144.669 10.721 147.753 12.1769 150.897 13.0213C154.071 13.8657 155.28 14.3607 155.28 15.6128C155.28 16.399 154.706 17.2725 152.408 17.2725C150.02 17.2725 148.72 16.1369 147.964 14.4481L143.792 16.7775C144.971 19.7766 147.813 21.8148 152.257 21.8148ZM179.667 21.4072L172.23 10.954L179.365 1.02483H173.862L167.393 9.8766V1.02483H162.555V21.4072H167.393V11.9731L174.165 21.4072H179.667ZM198.879 1.02483H193.377L189.356 8.8866L185.335 1.02483H179.833L186.938 13.5745V21.4072H191.775V13.5745L198.879 1.02483ZM199.645 21.8148C201.217 21.8148 202.517 20.5628 202.517 19.0487C202.517 17.5345 201.217 16.2825 199.645 16.2825C198.073 16.2825 196.773 17.5345 196.773 19.0487C196.773 20.5628 198.073 21.8148 199.645 21.8148Z" fill="#002024"/>
<path d="M199.586 21.892C201.256 21.892 202.609 20.5884 202.609 18.9803C202.609 17.3722 201.256 16.0685 199.586 16.0685C197.917 16.0685 196.563 17.3722 196.563 18.9803C196.563 20.5884 197.917 21.892 199.586 21.892Z" fill="url(#paint0_radial_3012_715)"/>
</g>
<defs>
<radialGradient id="paint0_radial_3012_715" cx="0" cy="0" r="1" gradientUnits="userSpaceOnUse" gradientTransform="translate(197.47 16.9616) rotate(43.9243) scale(6.58276 6.57812)">
<stop offset="0.0833333" stop-color="#00E0FF"/>
<stop offset="0.796875" stop-color="#FF00F5"/>
</radialGradient>
<clipPath id="clip0_3012_715">
<rect width="203" height="22" fill="white"/>
</clipPath>
</defs>
</svg>
