<svg width="110" height="22" viewBox="0 0 110 22" fill="none" xmlns="http://www.w3.org/2000/svg">
<g clip-path="url(#clip0_355_6146)">
<path d="M4.29526 20.7996V21.8638H3.87207V18.7424H4.29877V19.0084C4.40088 18.9025 4.52136 18.816 4.65438 18.753C4.78942 18.6963 4.93455 18.6673 5.08107 18.6679C5.2458 18.6624 5.40986 18.6912 5.56288 18.7522C5.71591 18.8133 5.85456 18.9054 5.97008 19.0226C6.08675 19.1385 6.17847 19.2769 6.23961 19.4294C6.30075 19.5818 6.33003 19.7452 6.32564 19.9093C6.3268 20.0708 6.29661 20.231 6.23675 20.3811C6.17962 20.5277 6.0938 20.6615 5.98428 20.7747C5.87663 20.8953 5.74288 20.9899 5.59315 21.0513C5.44086 21.1132 5.27749 21.1434 5.11308 21.14C4.95957 21.1412 4.80732 21.1123 4.66501 21.0549C4.52366 20.9923 4.39569 20.9033 4.28808 20.7925M4.28808 19.8845C4.2853 19.9944 4.30464 20.1037 4.34494 20.2061C4.38525 20.3084 4.44571 20.4017 4.52274 20.4803C4.59293 20.5596 4.67948 20.6229 4.77645 20.6657C4.87342 20.7086 4.97853 20.73 5.08458 20.7286C5.19152 20.7281 5.29732 20.7066 5.39594 20.6654C5.49455 20.6241 5.58406 20.5639 5.65935 20.4882C5.73463 20.4124 5.79422 20.3226 5.83471 20.2239C5.8752 20.1252 5.8958 20.0194 5.89533 19.9128C5.89733 19.8021 5.8773 19.6921 5.83641 19.5892C5.79552 19.4863 5.73457 19.3926 5.65711 19.3133C5.58284 19.2358 5.49336 19.1744 5.39424 19.1329C5.29513 19.0914 5.1885 19.0707 5.08102 19.0721C4.97661 19.0724 4.87339 19.0943 4.7779 19.1364C4.68241 19.1785 4.59674 19.24 4.52631 19.3169C4.44995 19.3903 4.38943 19.4785 4.34846 19.5761C4.3075 19.6737 4.28695 19.7786 4.28808 19.8844" fill="#0ED5FF"/>
<path d="M13.9105 21.0869V20.7819C13.8102 20.8898 13.6893 20.9766 13.5548 21.0373C13.4208 21.0974 13.2752 21.1277 13.1281 21.1259C12.9641 21.1302 12.8009 21.101 12.6486 21.04C12.4963 20.979 12.3582 20.8876 12.2427 20.7713C12.1263 20.6545 12.0347 20.5154 11.9736 20.3624C11.9125 20.2094 11.8831 20.0456 11.8871 19.881C11.8857 19.7195 11.9159 19.5592 11.976 19.4092C12.0315 19.2637 12.1162 19.1309 12.2249 19.019C12.3352 18.9015 12.4683 18.8074 12.616 18.7424C12.7695 18.6804 12.9341 18.6501 13.0997 18.6534C13.2532 18.6522 13.4055 18.6811 13.5478 18.7386C13.6824 18.8004 13.8033 18.8884 13.9034 18.9975V18.7137H14.3336V21.0725L13.9105 21.0869ZM12.3212 19.8915C12.318 20.0024 12.3374 20.1127 12.3784 20.2157C12.4194 20.3188 12.4809 20.4125 12.5594 20.491C12.6332 20.5703 12.723 20.6331 12.8229 20.6753C12.9229 20.7175 13.0306 20.7381 13.1391 20.7357C13.2429 20.7354 13.3456 20.7135 13.4405 20.6714C13.5355 20.6292 13.6205 20.5678 13.6903 20.491C13.7672 20.4171 13.8283 20.3284 13.8699 20.2302C13.9114 20.132 13.9326 20.0265 13.932 19.9199C13.9343 19.8103 13.9143 19.7013 13.8734 19.5995C13.8325 19.4978 13.7714 19.4053 13.6938 19.3276C13.6228 19.2483 13.5356 19.1852 13.4381 19.1424C13.3405 19.0995 13.235 19.078 13.1284 19.0793C13.0218 19.0793 12.9163 19.1003 12.8179 19.1412C12.7195 19.1822 12.6302 19.2421 12.5551 19.3176C12.4801 19.3931 12.4208 19.4827 12.3806 19.5812C12.3405 19.6798 12.3203 19.7852 12.3212 19.8915" fill="#0ED5FF"/>
<path d="M19.8779 18.7282H20.3331L20.9731 20.484L21.663 18.7282H22.1217L20.8487 21.8496H20.4006L20.7278 21.0195L19.8779 18.7282Z" fill="#0ED5FF"/>
<path d="M29.1053 19.8951C29.1202 19.6797 29.0773 19.4642 28.9808 19.2709C28.9403 19.2058 28.8829 19.153 28.8146 19.118C28.7463 19.083 28.6698 19.0672 28.5932 19.0723C28.5146 19.0672 28.4361 19.083 28.3656 19.1178C28.295 19.1527 28.2349 19.2055 28.1914 19.2709C28.09 19.4563 28.0443 19.667 28.0598 19.8777V21.0872H27.6543V18.7284H28.0348V19.0085C28.1046 18.9102 28.1958 18.829 28.3015 18.7709C28.4113 18.7145 28.5338 18.6876 28.6571 18.6929C28.8068 18.6874 28.9553 18.7217 29.0874 18.7922C29.2099 18.8647 29.3078 18.9722 29.3683 19.1008C29.4307 18.9712 29.5312 18.8635 29.6564 18.7922C29.7936 18.7217 29.9466 18.6875 30.1009 18.6929C30.22 18.6873 30.3389 18.7076 30.4494 18.7523C30.5599 18.797 30.6594 18.8651 30.741 18.9518C30.9113 19.1477 30.9981 19.4023 30.9827 19.6612V21.1048H30.556V19.7178C30.5663 19.5509 30.5186 19.3855 30.4209 19.2496C30.3793 19.1952 30.3254 19.1514 30.2636 19.1218C30.2018 19.0922 30.1338 19.0777 30.0653 19.0793C29.9889 19.0727 29.9121 19.0858 29.8423 19.1175C29.7725 19.1492 29.7121 19.1984 29.667 19.2602C29.5707 19.4446 29.5288 19.6525 29.5461 19.8597V21.094H29.1336L29.1053 19.8951Z" fill="#0ED5FF"/>
<path d="M37.0678 20.0725C37.0963 20.2588 37.1909 20.4288 37.3344 20.5514C37.4571 20.654 37.6081 20.7171 37.7674 20.7323C37.9268 20.7475 38.087 20.7141 38.227 20.6365C38.3431 20.5667 38.4388 20.4676 38.5043 20.3492H38.9808C38.8898 20.5893 38.7319 20.7985 38.5257 20.9522C38.3258 21.0913 38.0866 21.1633 37.843 21.1579C37.6784 21.1592 37.5152 21.1279 37.3629 21.0657C37.2131 21.0026 37.0786 20.9082 36.9683 20.789C36.8571 20.6723 36.7701 20.5348 36.7123 20.3845C36.6492 20.2364 36.6165 20.0772 36.6162 19.9163C36.6151 19.7563 36.644 19.5974 36.7016 19.4481C36.7605 19.3024 36.8461 19.1689 36.9541 19.0545C37.0649 18.9323 37.199 18.8334 37.3487 18.7636C37.5016 18.6989 37.6662 18.6663 37.8323 18.6679C38.0344 18.6656 38.2339 18.7145 38.4119 18.81C38.5902 18.9077 38.7426 19.0464 38.8564 19.2145C38.9233 19.3253 38.9748 19.4446 39.0093 19.5692C39.0424 19.7147 39.0579 19.8635 39.0556 20.0126V20.0727L37.0678 20.0725ZM38.5897 19.6894C38.5482 19.5143 38.4523 19.3566 38.3157 19.239C38.1795 19.1332 38.0118 19.0757 37.8392 19.0757C37.6666 19.0757 37.4989 19.1332 37.3627 19.239C37.2223 19.3515 37.1235 19.5075 37.0818 19.6823L38.5897 19.6894Z" fill="#0ED5FF"/>
<path d="M45.136 21.087H44.7129V18.7282H45.1218V19.0084C45.2005 18.9108 45.3001 18.832 45.4134 18.7779C45.5252 18.7279 45.6465 18.7025 45.769 18.7034C45.9003 18.695 46.0319 18.7151 46.1546 18.7623C46.2774 18.8094 46.3885 18.8826 46.4802 18.9767C46.6592 19.1946 46.7483 19.4724 46.7291 19.7535V21.1014H46.3131V19.8496C46.3271 19.6535 46.2771 19.4581 46.1706 19.2927C46.1188 19.2302 46.0526 19.1812 45.9777 19.1497C45.9028 19.1182 45.8214 19.1052 45.7404 19.1118C45.6515 19.1047 45.5623 19.1205 45.4813 19.1578C45.4003 19.1951 45.3304 19.2525 45.2781 19.3246C45.1664 19.5436 45.1171 19.789 45.1356 20.034L45.136 21.087Z" fill="#0ED5FF"/>
<path d="M52.664 21.0869V19.1113H52.3262V18.7282H52.664V17.962H53.0871V18.7282H53.4214V19.1113H53.0871V21.0869H52.664Z" fill="#0ED5FF"/>
<path d="M65.8701 20.0726C65.8896 20.1974 65.9391 20.3157 66.0143 20.4173C66.0895 20.519 66.1883 20.601 66.3021 20.6564C66.416 20.7118 66.5416 20.7389 66.6682 20.7355C66.7948 20.732 66.9187 20.6981 67.0294 20.6365C67.1463 20.5677 67.2422 20.4683 67.3067 20.3492H67.7868C67.6932 20.5889 67.5344 20.7978 67.3281 20.9522C67.1282 21.0913 66.8891 21.1634 66.6454 21.1579C66.4819 21.1595 66.3198 21.1281 66.1689 21.0657C66.0191 21.0026 65.8845 20.9082 65.7743 20.789C65.6632 20.6715 65.5752 20.5343 65.5147 20.3845C65.3962 20.0836 65.3962 19.7491 65.5147 19.4481C65.5723 19.3026 65.6567 19.1691 65.7636 19.0545C65.9461 18.8588 66.1884 18.7287 66.4526 18.6845C66.7169 18.6402 66.9885 18.6843 67.2251 18.8098C67.3714 18.8874 67.4999 18.9947 67.6021 19.1249C67.7044 19.255 67.7783 19.405 67.8189 19.5653C67.8533 19.7106 67.87 19.8595 67.8687 20.0087V20.0726H65.8701ZM67.3956 19.6895C67.353 19.5139 67.2559 19.3563 67.1183 19.239C66.9861 19.1314 66.8195 19.0747 66.6489 19.0794C66.4731 19.077 66.3021 19.136 66.1653 19.2461C66.0259 19.3596 65.9273 19.5152 65.8844 19.6895L67.3956 19.6895Z" fill="#0ED5FF"/>
<path d="M73.9355 21.087H73.5088V18.7282H73.9177V19.0084C73.9957 18.9097 74.0959 18.8307 74.2101 18.7777C74.3243 18.7247 74.4494 18.6993 74.5754 18.7034C74.7066 18.6955 74.8381 18.7157 74.9608 18.7629C75.0835 18.8101 75.1946 18.883 75.2866 18.9767C75.4644 19.1953 75.5532 19.4726 75.5355 19.7535V21.1014H75.1159V19.8496C75.131 19.6539 75.0823 19.4586 74.9772 19.2927C74.9252 19.2305 74.8589 19.1816 74.7841 19.1501C74.7092 19.1186 74.6279 19.1055 74.5469 19.1118C74.458 19.1043 74.3686 19.12 74.2876 19.1573C74.2066 19.1946 74.1367 19.2523 74.0847 19.3246C73.9711 19.543 73.9217 19.7889 73.9422 20.034L73.9355 21.087Z" fill="#0ED5FF"/>
<path d="M81.3533 21.2749H81.8049C81.867 21.3807 81.9567 21.4678 82.0645 21.5267C82.1741 21.5846 82.2961 21.615 82.4201 21.6154C82.5266 21.6197 82.6329 21.6024 82.7325 21.5646C82.8321 21.5268 82.9231 21.4693 82.9998 21.3955C83.0732 21.3209 83.1303 21.232 83.1676 21.1343C83.205 21.0366 83.2217 20.9324 83.2167 20.828V20.7818C83.1167 20.8901 82.9957 20.9769 82.8611 21.0372C82.7257 21.0971 82.579 21.1274 82.4308 21.1259C82.2668 21.1302 82.1036 21.1009 81.9513 21.0399C81.799 20.9789 81.6609 20.8875 81.5454 20.7712C81.4289 20.6544 81.3374 20.5153 81.2763 20.3623C81.2152 20.2093 81.1858 20.0455 81.1898 19.8808C81.1884 19.7193 81.2186 19.5591 81.2788 19.4091C81.3342 19.2627 81.4202 19.1297 81.5312 19.0189C81.6403 18.9015 81.7721 18.8073 81.9188 18.7423C82.0723 18.6803 82.2368 18.6501 82.4023 18.6534C82.5558 18.6522 82.7081 18.6811 82.8504 18.7386C82.9912 18.7988 83.1182 18.887 83.2237 18.9978V18.7141H83.6504V20.6827C83.6708 21.0321 83.5563 21.3761 83.3304 21.6439C83.218 21.7633 83.0809 21.8569 82.9286 21.9182C82.7763 21.9795 82.6125 22.0069 82.4485 21.9986C82.2033 22.0058 81.9617 21.9391 81.7551 21.8073C81.5619 21.6784 81.4179 21.4885 81.3461 21.2681M81.6306 19.8848C81.6282 19.9955 81.648 20.1056 81.689 20.2085C81.7299 20.3115 81.791 20.4052 81.8688 20.4842C81.9431 20.563 82.0329 20.6255 82.1328 20.6676C82.2326 20.7098 82.3401 20.7306 82.4485 20.729C82.5529 20.7287 82.6561 20.7068 82.7516 20.6647C82.8471 20.6226 82.9328 20.5611 83.0032 20.4842C83.0797 20.4101 83.1402 20.3213 83.1812 20.2231C83.2222 20.1249 83.2427 20.0195 83.2415 19.9131C83.2436 19.8038 83.2239 19.6952 83.1836 19.5935C83.1433 19.4918 83.0832 19.3991 83.0068 19.3208C82.9353 19.2421 82.848 19.1793 82.7506 19.1365C82.6532 19.0938 82.5478 19.0719 82.4414 19.0725C82.3344 19.072 82.2285 19.0927 82.1297 19.1334C82.0309 19.1741 81.9412 19.234 81.8657 19.3096C81.7903 19.3851 81.7307 19.4749 81.6903 19.5736C81.65 19.6724 81.6297 19.7781 81.6306 19.8848Z" fill="#0ED5FF"/>
<path d="M89.8558 18.4513H89.4326V17.962H89.8558V18.4513ZM89.4362 18.7279H89.8558V21.0834H89.4362V18.7279Z" fill="#0ED5FF"/>
<path d="M96.0712 21.087H95.6445V18.7282H96.0535V19.0084C96.1321 18.9108 96.2318 18.832 96.345 18.7779C96.4568 18.7279 96.5781 18.7025 96.7006 18.7034C96.8319 18.695 96.9635 18.7151 97.0863 18.7622C97.209 18.8094 97.3201 18.8826 97.4118 18.9767C97.5909 19.1946 97.6799 19.4724 97.6607 19.7535V21.1014H97.234V19.8496C97.2492 19.6537 97.2005 19.4582 97.0952 19.2922C97.0424 19.2299 96.9756 19.181 96.9001 19.1496C96.8247 19.1181 96.7428 19.105 96.6613 19.1113C96.5729 19.1038 96.484 19.1194 96.4035 19.1568C96.3231 19.1941 96.2538 19.2518 96.2026 19.3241C96.0891 19.5425 96.0398 19.7884 96.0604 20.0335L96.0712 21.087Z" fill="#0ED5FF"/>
<path d="M103.77 20.0725C103.797 20.2593 103.892 20.4297 104.036 20.5513C104.158 20.6539 104.309 20.717 104.468 20.7322C104.626 20.7474 104.786 20.714 104.925 20.6364C105.043 20.5691 105.14 20.4694 105.203 20.3491H105.697C105.606 20.5893 105.448 20.7985 105.242 20.9521C105.042 21.0912 104.803 21.1633 104.559 21.1578C104.394 21.1591 104.231 21.1278 104.079 21.0656C103.929 21.0025 103.795 20.9082 103.684 20.789C103.573 20.6714 103.485 20.5342 103.425 20.3844C103.306 20.0835 103.306 19.749 103.425 19.448C103.482 19.3025 103.567 19.169 103.674 19.0544C103.786 18.9328 103.922 18.8341 104.072 18.7636C104.225 18.6989 104.389 18.6663 104.556 18.6678C104.758 18.6655 104.957 18.7144 105.135 18.8099C105.312 18.9077 105.464 19.0465 105.576 19.2145C105.646 19.3236 105.698 19.4434 105.729 19.5692C105.765 19.7141 105.782 19.8632 105.779 20.0126V20.0727L103.77 20.0725ZM105.292 19.6894C105.249 19.5148 105.153 19.3575 105.018 19.239C104.881 19.1332 104.714 19.0757 104.541 19.0757C104.368 19.0757 104.201 19.1332 104.065 19.239C103.923 19.3512 103.823 19.5072 103.78 19.6824L105.292 19.6894Z" fill="#0ED5FF"/>
<path d="M80.8447 0.0531884H77.2887V13.7908H78.889V8.38864H80.5105C82.2813 8.38864 83.6421 8.01384 84.5927 7.26424C85.5434 6.51464 86.0175 5.4505 86.0151 4.07182C86.0151 1.39973 84.2952 0.0648695 80.8555 0.0672383M83.4051 6.34543C82.7721 6.80298 81.7446 7.03 80.3292 7.03H78.8853V1.43654H80.6632C81.9256 1.43654 82.8572 1.66001 83.4511 2.10345C83.7552 2.34285 83.9959 2.65294 84.1522 3.00658C84.3084 3.36022 84.3755 3.74666 84.3474 4.13211C84.3474 5.13947 84.0297 5.87253 83.3944 6.33127M92.4371 0L86.993 13.7908H88.6287L90.3071 9.43148H95.8258L97.5397 13.8014H99.1968L93.7849 0H92.4371ZM90.8725 7.98434L92.494 3.72792C92.7297 3.07883 92.928 2.41684 93.0879 1.74517C93.2667 2.41669 93.4803 3.0785 93.7279 3.72792L95.3282 7.98434H90.8725ZM108.268 0.0531884L104.595 6.92373L100.95 0.0531884H99.1971L103.784 8.53765V13.7909H105.406V8.47042L110 0.0604586L108.268 0.0531884ZM13.4735 8.51989C13.1842 9.58859 12.9586 10.6735 12.7979 11.7688C12.6148 10.6574 12.3594 9.55904 12.0334 8.48069L9.4447 0.0531884H7.74845L5.28057 8.4064C4.94812 9.50754 4.69617 10.6313 4.52671 11.7688C4.36591 10.6807 4.14638 9.602 3.86907 8.53749L1.6962 0.0531884H0L3.66263 13.7908H5.24506L7.93692 4.65011C8.21674 3.76018 8.43644 2.85253 8.59455 1.93327C8.6561 2.31074 8.74162 2.68392 8.85059 3.05057C9.01417 3.67129 9.16351 4.18563 9.29509 4.59348L12.0725 13.7908H13.6549L17.3354 0.0531884H15.6391L13.4735 8.51989ZM23.0426 0.00710669L17.5984 13.7978H19.2199L20.9161 9.43148H26.4314L28.1454 13.8014H29.8024L24.3903 0.0103864L23.0426 0.00710669ZM21.478 7.99144L23.0995 3.73502C23.3352 3.08592 23.5335 2.42391 23.6934 1.75222C23.9139 2.53612 24.1237 3.19587 24.3335 3.73497L25.9337 7.99139L21.478 7.99144ZM35.2006 6.92734L31.5557 0.0532434H29.8025L34.3895 8.53771V13.791H36.0004V8.47047L40.6231 0.0534069H38.8913L35.2006 6.92734Z" fill="#002024"/>
<mask id="mask0_355_6146" style="mask-type:luminance" maskUnits="userSpaceOnUse" x="43" y="0" width="33" height="14">
<path d="M56.8956 11.7228V10.5133C56.6266 10.3899 56.408 10.1786 56.2761 9.91426C56.1441 9.64996 56.1066 9.3486 56.1699 9.06015C56.2332 8.77171 56.3935 8.51351 56.6241 8.32839C56.8547 8.14326 57.1418 8.04233 57.4379 8.04233C57.7339 8.04233 58.021 8.14326 58.2516 8.32839C58.4822 8.51351 58.6425 8.77171 58.7058 9.06015C58.7691 9.3486 58.7316 9.64996 58.5997 9.91426C58.4677 10.1786 58.2491 10.3899 57.9801 10.5133V11.7228C57.9863 11.7975 57.9768 11.8727 57.9523 11.9437C57.9278 12.0146 57.8889 12.0797 57.8379 12.1348C57.787 12.1899 57.7251 12.234 57.6563 12.2641C57.5874 12.2942 57.513 12.3097 57.4379 12.3097C57.3627 12.3097 57.2883 12.2942 57.2194 12.2641C57.1506 12.234 57.0887 12.1899 57.0378 12.1348C56.9868 12.0797 56.9479 12.0146 56.9234 11.9437C56.8989 11.8727 56.8895 11.7976 56.8956 11.7228ZM61.1094 6.94854V7.00173H53.7805V6.94854H52.4364V7.00173C52.4364 9.14648 52.8773 10.829 53.7592 12.0491C54.1675 12.6361 54.7174 13.111 55.3581 13.4303C55.9989 13.7495 56.7098 13.9028 57.4255 13.8759C58.1485 13.9102 58.8686 13.7641 59.5205 13.4507C60.1725 13.1373 60.7358 12.6665 61.1593 12.0811C62.0341 10.8821 62.4714 9.1949 62.4714 7.01949V6.94843L61.1094 6.94854ZM43.166 0.0460711V13.7799H44.7663V7.91337H50.4735V6.49455H44.7662V1.46845H50.8398V0.0496244L43.166 0.0460711ZM66.9376 1.45068H69.0178C70.2031 1.45068 71.0649 1.6505 71.603 2.05014C72.1411 2.44977 72.4102 3.10478 72.4102 4.01517C72.4372 4.38874 72.38 4.76361 72.2428 5.11224C72.1056 5.46087 71.8918 5.77441 71.6172 6.02984C71.0911 6.47678 70.2613 6.70025 69.128 6.70025H66.9375L66.9376 1.45068ZM65.3373 0.0496244V13.7837H66.9376V8.07294H69.8108L73.1428 13.7836H75.0346L71.297 7.61195C73.1414 6.97346 74.0648 5.7462 74.0671 3.93017C74.0671 2.63193 73.6616 1.6636 72.8546 1.01807C72.0476 0.372529 70.7995 0.0497345 69.1101 0.0497345L65.3373 0.0496244ZM53.7415 1.82311C52.8667 3.01847 52.4293 4.30604 52.4293 6.49805V6.56911H53.7806V6.51592C53.7806 4.74243 54.0935 3.75278 54.7229 2.81993C55.0178 2.3637 55.4274 1.99258 55.911 1.74362C56.3946 1.49466 56.9352 1.37656 57.4788 1.4011C58.0162 1.37321 58.5515 1.48743 59.0304 1.73221C59.5094 1.97699 59.915 2.34365 60.2062 2.79505C60.8214 3.72436 61.1308 4.70335 61.1308 6.50171V6.5549H62.4749V6.50171C62.4749 4.3735 62.034 3.05783 61.1557 1.84093C60.7471 1.25234 60.1963 0.776041 59.5542 0.456125C58.9121 0.13621 58.1995 -0.0169892 57.4824 0.0107044C56.7596 -0.0229743 56.0399 0.123879 55.3885 0.437943C54.7371 0.752007 54.1747 1.22334 53.7522 1.80918" fill="white"/>
</mask>
<g mask="url(#mask0_355_6146)">
<path d="M75.0238 0.0247803H43.166V13.8794H75.0238V0.0247803Z" fill="#0ED5FF"/>
</g>
</g>
<defs>
<clipPath id="clip0_355_6146">
<rect width="110" height="22" fill="white"/>
</clipPath>
</defs>
</svg>
