<svg width="20" height="20" viewBox="0 0 20 20" fill="none" xmlns="http://www.w3.org/2000/svg">
<g clip-path="url(#clip0_1345_14929)">
<path d="M10 20C15.5228 20 20 15.5228 20 10C20 4.47715 15.5228 0 10 0C4.47715 0 0 4.47715 0 10C0 15.5228 4.47715 20 10 20Z" fill="url(#paint0_linear_1345_14929)"/>
<path d="M6.76907 10.7311L7.95549 14.0149C7.95549 14.0149 8.10382 14.3222 8.26266 14.3222C8.42149 14.3222 10.7839 11.8645 10.7839 11.8645L13.411 6.79034L6.81141 9.88343L6.76907 10.7311Z" fill="#C8DAEA"/>
<path d="M8.34223 11.5733L8.11448 13.9938C8.11448 13.9938 8.01914 14.7355 8.76064 13.9938C9.50214 13.2521 10.2119 12.6802 10.2119 12.6802" fill="#A9C6D8"/>
<path d="M6.79046 10.848L4.34996 10.0528C4.34996 10.0528 4.05829 9.93449 4.15221 9.66616C4.17154 9.61083 4.21054 9.56374 4.32721 9.48283C4.86796 9.10591 14.336 5.70283 14.336 5.70283C14.336 5.70283 14.6034 5.61275 14.761 5.67266C14.8 5.68474 14.8351 5.70696 14.8627 5.73704C14.8903 5.76713 14.9095 5.80401 14.9181 5.84391C14.9352 5.91439 14.9423 5.98689 14.9393 6.05933C14.9385 6.122 14.931 6.18008 14.9252 6.27116C14.8675 7.20158 13.1419 14.1456 13.1419 14.1456C13.1419 14.1456 13.0386 14.5519 12.6687 14.5658C12.5778 14.5688 12.4872 14.5534 12.4024 14.5205C12.3176 14.4877 12.2402 14.4382 12.175 14.3748C11.449 13.7504 8.94004 12.0642 8.38562 11.6934C8.37312 11.6849 8.36259 11.6738 8.35474 11.6608C8.34689 11.6479 8.34191 11.6334 8.34012 11.6184C8.33237 11.5793 8.37487 11.5309 8.37487 11.5309C8.37487 11.5309 12.7437 7.64758 12.86 7.23991C12.869 7.20833 12.835 7.19275 12.7893 7.20658C12.4991 7.31333 7.46896 10.4899 6.91379 10.8405C6.87383 10.8526 6.83159 10.8552 6.79046 10.848Z" fill="white"/>
</g>
<defs>
<linearGradient id="paint0_linear_1345_14929" x1="10" y1="20" x2="10" y2="0" gradientUnits="userSpaceOnUse">
<stop stop-color="#1D93D2"/>
<stop offset="1" stop-color="#38B0E3"/>
</linearGradient>
<clipPath id="clip0_1345_14929">
<rect width="20" height="20" fill="white"/>
</clipPath>
</defs>
</svg>
