<svg width="20" height="20" viewBox="0 0 20 20" fill="none" xmlns="http://www.w3.org/2000/svg">
<g clip-path="url(#clip0_1345_14938)">
<path d="M10 20C15.5228 20 20 15.5228 20 10C20 4.47715 15.5228 0 10 0C4.47715 0 0 4.47715 0 10C0 15.5228 4.47715 20 10 20Z" fill="#665CA7"/>
<path d="M9.83977 3.83998C9.45789 3.84222 9.07428 3.86498 8.68914 3.91216C7.95082 4.00252 7.21838 4.1538 6.51586 4.47654C5.40001 4.98918 4.60817 5.86003 4.37758 7.1256C4.28028 7.65918 4.20208 8.20094 4.15719 8.74599C4.07032 9.80275 4.12418 10.8646 4.42352 11.9058C4.65978 12.7279 5.09555 13.4657 5.85797 13.9451C6.18076 14.148 6.60638 14.2456 6.82867 14.3487V14.3493C6.8905 14.3779 6.90612 14.3954 6.90906 14.3996C6.91201 14.4038 6.92079 14.4109 6.92 14.4767C6.91208 15.1457 6.92 16.4416 6.92 16.4416L6.92164 16.72H7.2H7.42094L7.50242 16.6412C7.50242 16.6412 8.77118 15.4192 9.23164 14.9158C9.31378 14.8262 9.35696 14.7769 9.36508 14.7709C9.3732 14.765 9.36056 14.7617 9.44547 14.76C10.0479 14.7479 10.6502 14.7251 11.2518 14.6922C12.0441 14.6489 12.8522 14.5729 13.6302 14.2481C14.3076 13.9652 14.8726 13.5026 15.2145 12.8093C15.5651 12.098 15.7523 11.3446 15.822 10.5649C15.9383 9.26608 15.8972 7.9656 15.5382 6.68318C15.3279 5.93197 14.9035 5.29715 14.253 4.84896C13.4741 4.31227 12.5953 4.1115 11.7358 3.98326C11.2338 3.9085 10.7288 3.85913 10.2209 3.84435C10.094 3.84065 9.96706 3.83923 9.83977 3.83998ZM10.2051 4.4038C10.6876 4.41786 11.1699 4.46473 11.6532 4.53669C12.4826 4.66045 13.265 4.84818 13.9353 5.30998C14.4788 5.68443 14.8184 6.18925 14.999 6.83412C15.3344 8.03249 15.3765 9.26036 15.2642 10.5146V10.5151C15.1995 11.2385 15.0282 11.9199 14.7119 12.5615H14.7124C14.4333 13.1277 13.9973 13.4883 13.4141 13.7319C12.7356 14.0152 11.998 14.0909 11.2217 14.1333C10.6266 14.1658 10.0305 14.188 9.43453 14.2C9.28508 14.203 9.13831 14.243 9.03422 14.3192C8.93013 14.3954 8.88333 14.4669 8.81875 14.5374H8.8182C8.49037 14.8957 7.8363 15.5266 7.48 15.8729C7.47818 15.4542 7.47448 14.9495 7.48 14.4833C7.48174 14.3401 7.44917 14.1938 7.36734 14.0775C7.28568 13.9614 7.17314 13.8916 7.06437 13.8412L7.06383 13.8407C6.74806 13.6943 6.33485 13.5834 6.15602 13.471C5.52907 13.0768 5.17337 12.4858 4.96219 11.7511C4.68584 10.7898 4.63274 9.79933 4.71555 8.79193C4.75857 8.26962 4.83405 7.74601 4.92883 7.22623C5.12831 6.1314 5.75403 5.44241 6.74937 4.98513C7.37797 4.69635 8.04936 4.55439 8.75695 4.46779C9.23995 4.40862 9.72257 4.38975 10.2051 4.4038ZM10.3243 5.79998C10.0934 5.79998 9.86827 5.82583 9.65164 5.8749C9.57919 5.89129 9.51622 5.93579 9.47658 5.9986C9.43694 6.06142 9.42388 6.13741 9.44027 6.20986C9.45666 6.28231 9.50116 6.34528 9.56398 6.38491C9.6268 6.42455 9.70279 6.43762 9.77523 6.42123C9.95173 6.38125 10.1352 6.35998 10.3243 6.35998C11.6911 6.35998 12.7934 7.4623 12.7934 8.82912C12.7934 9.01821 12.7722 9.20168 12.7322 9.37818C12.7241 9.41405 12.7231 9.45117 12.7293 9.48742C12.7356 9.52367 12.7489 9.55833 12.7685 9.58943C12.7881 9.62054 12.8137 9.64747 12.8437 9.6687C12.8738 9.68992 12.9077 9.70502 12.9436 9.71314C12.9794 9.72125 13.0165 9.72222 13.0528 9.71599C13.089 9.70976 13.1237 9.69646 13.1548 9.67683C13.1859 9.6572 13.2128 9.63164 13.2341 9.6016C13.2553 9.57157 13.2704 9.53764 13.2785 9.50177C13.3276 9.28515 13.3534 9.06002 13.3534 8.82912C13.3534 7.15961 11.9938 5.79998 10.3243 5.79998ZM7.53031 6.36107C7.4845 6.35852 7.43739 6.36232 7.38867 6.3731C6.87907 6.48538 6.37428 6.85479 6.36 7.51279C6.37456 7.60435 6.37287 7.70307 6.40703 7.78623C6.57307 8.19335 6.7177 8.61282 6.92602 8.9981C7.93738 10.8682 9.46701 12.1692 11.418 12.9947C11.6504 13.0932 11.891 13.114 12.1268 13.0154C12.4496 12.8805 12.7241 12.6733 12.9072 12.374C13.1578 11.9643 13.1613 11.6797 12.7491 11.377C12.4787 11.1785 12.2128 10.9739 11.9392 10.7793C11.5229 10.4833 11.0718 10.4316 10.7607 10.9504C10.745 10.9765 10.7207 10.9983 10.6995 11.021C10.5404 11.1896 10.3448 11.2319 10.1367 11.1462C9.34768 10.8214 8.73878 10.2977 8.37086 9.51763C8.15498 9.05927 8.21426 8.82915 8.61914 8.52451C8.6589 8.49455 8.69785 8.46295 8.73453 8.42935C8.91205 8.26751 8.95874 8.07488 8.8543 7.85732C8.61602 7.36088 8.30039 6.91826 7.90055 6.53662C7.79198 6.43309 7.66774 6.36872 7.53031 6.36107ZM10.3199 6.63998C10.1956 6.63998 10.0734 6.6503 9.95352 6.6706C9.91606 6.67532 9.87995 6.68757 9.84735 6.70661C9.81474 6.72564 9.78633 6.75107 9.76381 6.78137C9.74129 6.81167 9.72512 6.84621 9.71629 6.88291C9.70746 6.91962 9.70614 6.95773 9.71241 6.99495C9.71868 7.03218 9.73242 7.06776 9.75279 7.09954C9.77316 7.13132 9.79975 7.15866 9.83095 7.1799C9.86216 7.20115 9.89734 7.21587 9.93438 7.22317C9.97142 7.23047 10.0095 7.23021 10.0465 7.2224C10.1349 7.20742 10.2264 7.19998 10.3199 7.19998C11.229 7.19998 11.96 7.93102 11.96 8.84005C11.96 8.93394 11.9526 9.02497 11.9376 9.11349C11.9298 9.15043 11.9295 9.18856 11.9368 9.2256C11.9441 9.26264 11.9588 9.29782 11.9801 9.32902C12.0013 9.36023 12.0287 9.38682 12.0604 9.40719C12.0922 9.42756 12.1278 9.44129 12.165 9.44757C12.2022 9.45384 12.2404 9.45252 12.2771 9.44369C12.3138 9.43485 12.3483 9.41869 12.3786 9.39617C12.4089 9.37365 12.4343 9.34523 12.4534 9.31263C12.4724 9.28003 12.4847 9.24392 12.4894 9.20646C12.5097 9.08666 12.52 8.96457 12.52 8.84005C12.52 7.62837 11.5316 6.63998 10.3199 6.63998ZM10.28 7.47998C10.2429 7.47945 10.2061 7.48631 10.1716 7.50014C10.1372 7.51398 10.1059 7.53452 10.0794 7.56057C10.053 7.58662 10.032 7.61767 10.0177 7.6519C10.0034 7.68613 9.99601 7.72287 9.99601 7.75998C9.99601 7.79708 10.0034 7.83382 10.0177 7.86805C10.032 7.90228 10.053 7.93333 10.0794 7.95938C10.1059 7.98543 10.1372 8.00597 10.1716 8.01981C10.2061 8.03365 10.2429 8.0405 10.28 8.03998C10.7472 8.03998 11.12 8.4128 11.12 8.87998C11.1195 8.91708 11.1263 8.95392 11.1402 8.98835C11.154 9.02278 11.1745 9.05412 11.2006 9.08054C11.2266 9.10696 11.2577 9.12795 11.2919 9.14227C11.3262 9.15659 11.3629 9.16396 11.4 9.16396C11.4371 9.16396 11.4738 9.15659 11.5081 9.14227C11.5423 9.12795 11.5734 9.10696 11.5994 9.08054C11.6255 9.05412 11.646 9.02278 11.6598 8.98835C11.6737 8.95392 11.6805 8.91708 11.68 8.87998C11.68 8.11011 11.0499 7.47998 10.28 7.47998Z" fill="white"/>
</g>
<defs>
<clipPath id="clip0_1345_14938">
<rect width="20" height="20" fill="white"/>
</clipPath>
</defs>
</svg>
