<svg width="56" height="65" viewBox="0 0 56 65" fill="none" xmlns="http://www.w3.org/2000/svg">
<path d="M6.39064 12.9401L6.70668 13.8889L6.39064 12.9401ZM37.0707 2.72048L36.7546 1.77174V1.77174L37.0707 2.72048ZM44.2295 6.32305L45.1789 6.00895L44.2295 6.32305ZM2.80028 20.1233L1.85089 20.4374L2.80028 20.1233ZM40.7327 1.9085L40.8833 0.919911L40.8833 0.919911L40.7327 1.9085ZM42.688 2.89249L43.3918 2.18209L43.3918 2.18208L42.688 2.89249ZM2.9717 14.4868L3.68449 15.1882L3.68449 15.1882L2.9717 14.4868ZM1.99105 16.4488L2.97979 16.5985L1.99105 16.4488ZM27.9751 11.6751L28.2912 12.6238L27.9751 11.6751ZM19.2974 14.5657L18.9814 13.6169L19.2974 14.5657ZM35.4189 39.9118L34.6256 40.5206L34.6259 40.5209L35.4189 39.9118ZM34.3667 39.454L34.2708 38.4586L34.2702 38.4587L34.3667 39.454ZM33.4208 40.1047L34.3153 40.5519L34.3153 40.5517L33.4208 40.1047ZM30.384 46.1783L29.9345 47.0716L30.8301 47.5222L31.2784 46.6255L30.384 46.1783ZM24.7078 43.3223L23.8134 42.8751L23.3673 43.7673L24.2584 44.2156L24.7078 43.3223ZM27.7447 37.2489L28.6391 37.6961L28.6392 37.696L27.7447 37.2489ZM27.6988 36.099L28.5545 35.5816L28.5545 35.5815L27.6988 36.099ZM26.7038 35.5267L26.7193 34.5268L26.7191 34.5268L26.7038 35.5267ZM22.9822 36.1021L23.2982 37.0508L22.9822 36.1021ZM16.4787 41.7468L17.3731 42.194L17.3731 42.1939L16.4787 41.7468ZM15.8576 50.3519L16.807 50.0378L15.8576 50.3519ZM17.9292 54.0699L18.8359 54.4917L19.1046 53.9143L18.6949 53.4266L17.9292 54.0699ZM36.5644 51.8527L35.67 51.4055L35.6699 51.4055L36.5644 51.8527ZM37.1389 7.3392L40.3082 8.93409L41.2072 7.14755L38.038 5.55266L37.1389 7.3392ZM33.0324 9.48669L41.2352 13.6146L42.1343 11.8281L33.9314 7.70016L33.0324 9.48669ZM6.70668 13.8889L37.3867 3.66923L36.7546 1.77174L6.07461 11.9914L6.70668 13.8889ZM12.3967 45.945L3.74967 19.8092L1.85089 20.4374L10.4979 46.5732L12.3967 45.945ZM37.3867 3.66923C38.343 3.35067 39.0033 3.13155 39.5296 3.00288C40.0445 2.87699 40.3451 2.86098 40.5821 2.89709L40.8833 0.919911C40.2802 0.828003 39.6904 0.904657 39.0546 1.0601C38.4303 1.21275 37.6796 1.46363 36.7546 1.77174L37.3867 3.66923ZM45.1789 6.00895C44.8718 5.08074 44.6234 4.32738 44.372 3.73435C44.1162 3.13065 43.8252 2.61144 43.3918 2.18209L41.9842 3.60289C42.1555 3.77258 42.323 4.02481 42.5306 4.51471C42.7427 5.01529 42.9627 5.67769 43.2801 6.63716L45.1789 6.00895ZM40.5821 2.89709C41.1115 2.97776 41.6024 3.22461 41.9842 3.60289L43.3918 2.18208C42.7099 1.5065 41.8318 1.06444 40.8833 0.919911L40.5821 2.89709ZM6.07461 11.9914C5.14966 12.2995 4.3985 12.5489 3.80714 12.8012C3.20488 13.0581 2.68696 13.3505 2.25891 13.7855L3.68449 15.1882C3.85345 15.0165 4.10436 14.8488 4.592 14.6407C5.09054 14.428 5.75034 14.2074 6.70668 13.8889L6.07461 11.9914ZM3.74967 19.8092C3.43223 18.8497 3.21372 18.1868 3.08538 17.6583C2.95979 17.1411 2.94352 16.8381 2.97979 16.5985L1.00231 16.2992C0.910989 16.9025 0.987071 17.4929 1.14186 18.1303C1.29389 18.7563 1.54379 19.5092 1.85089 20.4374L3.74967 19.8092ZM2.25891 13.7855C1.58568 14.4696 1.14601 15.3497 1.00231 16.2992L2.97979 16.5985C3.06052 16.065 3.30743 15.5714 3.68449 15.1882L2.25891 13.7855ZM27.6591 10.7263L18.9814 13.6169L19.6134 15.5144L28.2912 12.6238L27.6591 10.7263ZM18.9814 13.6169C18.1171 13.9048 17.1801 13.4363 16.8911 12.5629L14.9923 13.1911C15.6271 15.1098 17.6949 16.1535 19.6134 15.5144L18.9814 13.6169ZM28.7087 8.62207C28.9982 9.49705 28.5249 10.438 27.6591 10.7263L28.2912 12.6238C30.2082 11.9853 31.2418 9.91114 30.6075 7.99386L28.7087 8.62207ZM36.2123 39.303C35.7537 38.7054 35.02 38.3865 34.2708 38.4586L34.4625 40.4494C34.5251 40.4434 34.5868 40.4699 34.6256 40.5206L36.2123 39.303ZM34.2702 38.4587C33.5213 38.5312 32.8627 38.9846 32.5263 39.6576L34.3153 40.5517C34.3446 40.4933 34.4009 40.4554 34.4631 40.4493L34.2702 38.4587ZM32.5264 39.6575L29.4896 45.7311L31.2784 46.6255L34.3153 40.5519L32.5264 39.6575ZM30.8335 45.285L25.1573 42.429L24.2584 44.2156L29.9345 47.0716L30.8335 45.285ZM25.6022 43.7696L28.6391 37.6961L26.8503 36.8017L23.8134 42.8751L25.6022 43.7696ZM28.6392 37.696C28.9752 37.0238 28.9439 36.2254 28.5545 35.5816L26.8431 36.6165C26.8768 36.6722 26.8799 36.7424 26.8503 36.8018L28.6392 37.696ZM28.5545 35.5815C28.1653 34.938 27.4727 34.5385 26.7193 34.5268L26.6883 36.5266C26.7503 36.5275 26.8092 36.5604 26.8432 36.6165L28.5545 35.5815ZM26.7191 34.5268C25.3415 34.5057 23.9772 34.7166 22.6661 35.1533L23.2982 37.0508C24.3964 36.685 25.5366 36.5089 26.6884 36.5266L26.7191 34.5268ZM22.6661 35.1533C19.5653 36.1862 17.048 38.3717 15.5842 41.2996L17.3731 42.1939C18.6002 39.7395 20.702 37.9156 23.2982 37.0508L22.6661 35.1533ZM15.5843 41.2995C14.1199 44.2277 13.8797 47.5574 14.9082 50.666L16.807 50.0378C15.9446 47.4312 16.1454 44.649 17.3731 42.194L15.5843 41.2995ZM14.9082 50.666C15.4056 52.1691 16.1741 53.5352 17.1636 54.7131L18.6949 53.4266C17.8679 52.4422 17.2244 51.2994 16.807 50.0378L14.9082 50.666ZM30.3769 58.4462C33.4771 57.4135 35.9951 55.2281 37.4589 52.2998L35.6699 51.4055C34.443 53.8602 32.3405 55.6841 29.7449 56.5487L30.3769 58.4462ZM37.4589 52.2998C39.5524 48.1124 39.0635 43.015 36.212 39.3026L34.6259 40.5209C37.0108 43.6258 37.4211 47.9028 35.67 51.4055L37.4589 52.2998ZM43.2801 6.63716L54.0878 39.3033L55.9865 38.6751L45.1789 6.00895L43.2801 6.63716ZM17.0226 53.648L12.3419 63.7079L14.1552 64.5516L18.8359 54.4917L17.0226 53.648Z" fill="#FFC200"/>
</svg>
