<svg width="87" height="68" viewBox="0 0 87 68" fill="none" xmlns="http://www.w3.org/2000/svg">
<path d="M3.47038 30.9458L3.91904 30.0521H3.91904L3.47038 30.9458ZM1.89332 29.392L2.78158 28.9326H2.78158L1.89332 29.392ZM30.8784 29.392L29.9902 28.9326L29.9902 28.9326L30.8784 29.392ZM29.3014 30.9458L28.8527 30.0521H28.8527L29.3014 30.9458ZM30.8784 3.94137L29.9902 4.40072V4.40072L30.8784 3.94137ZM29.3014 2.38753L28.8527 3.28124L28.8527 3.28124L29.3014 2.38753ZM16.1978 37.6667V36.6667V37.6667ZM34.4217 37.6667V38.6667V37.6667ZM40.1957 43.3556H41.1957H40.1957ZM40.1957 61.3111H39.1957H40.1957ZM10.4239 43.3556H11.4239H10.4239ZM34.4217 67V68V67ZM39.8023 65.0586L38.9141 64.5993H38.9141L39.8023 65.0586ZM38.2253 66.6125L37.7766 65.7188L38.2253 66.6125ZM38.2253 38.0542L37.7766 38.9479L38.2253 38.0542ZM39.8023 39.608L38.9141 40.0674L38.9141 40.0674L39.8023 39.608ZM12.3943 38.0542L12.843 38.9479H12.843L12.3943 38.0542ZM10.8172 39.608L11.7055 40.0674V40.0674L10.8172 39.608ZM65.584 29.9458L65.1353 29.0521L65.584 29.9458ZM67.161 28.392L66.2728 27.9326L67.161 28.392ZM38.1759 28.392L39.0642 27.9326L39.0642 27.9326L38.1759 28.392ZM39.753 29.9458L40.2016 29.0521L39.753 29.9458ZM38.1759 2.94137L39.0642 3.40072L39.0642 3.40072L38.1759 2.94137ZM39.753 1.38753L40.2016 2.28124V2.28124L39.753 1.38753ZM75.4101 65.6125L74.9614 64.7188H74.9614L75.4101 65.6125ZM76.9871 64.0586L76.0989 63.5993V63.5993L76.9871 64.0586ZM48.002 64.0586L48.8903 63.5993L48.8903 63.5993L48.002 64.0586ZM49.5791 65.6125L50.0277 64.7188L49.5791 65.6125ZM48.002 38.608L48.8903 39.0674H48.8903L48.002 38.608ZM49.5791 37.0542L50.0277 37.9479L49.5791 37.0542ZM30.2717 7.68889V25.6444H32.2717V7.68889H30.2717ZM25.4978 30.3333H7.27391V32.3333H25.4978V30.3333ZM22.25 3H25.4978V1H22.25V3ZM2.5 25.6444V16.6667H0.5V25.6444H2.5ZM7.27391 30.3333C6.24712 30.3333 5.53629 30.3326 4.98397 30.2881C4.44289 30.2446 4.14186 30.164 3.91904 30.0521L3.02172 31.8395C3.57084 32.1152 4.16105 32.2283 4.82349 32.2817C5.47468 32.3341 6.27964 32.3333 7.27391 32.3333V30.3333ZM0.5 25.6444C0.5 26.6234 0.499199 27.4186 0.552586 28.0624C0.606978 28.7183 0.722682 29.3053 1.00507 29.8513L2.78158 28.9326C2.67064 28.7181 2.58968 28.427 2.54574 27.8971C2.5008 27.3551 2.5 26.6568 2.5 25.6444H0.5ZM3.91904 30.0521C3.42696 29.8051 3.02965 29.4123 2.78158 28.9326L1.00507 29.8513C1.44895 30.7097 2.15577 31.4048 3.02172 31.8395L3.91904 30.0521ZM30.2717 25.6444C30.2717 26.6568 30.2709 27.3551 30.226 27.8971C30.1821 28.427 30.1011 28.7181 29.9902 28.9326L31.7667 29.8513C32.0491 29.3053 32.1648 28.7183 32.2192 28.0624C32.2725 27.4186 32.2717 26.6233 32.2717 25.6444H30.2717ZM25.4978 32.3333C26.4921 32.3333 27.2971 32.3341 27.9483 32.2817C28.6107 32.2283 29.2009 32.1152 29.75 31.8395L28.8527 30.0521C28.6299 30.164 28.3288 30.2446 27.7878 30.2881C27.2354 30.3326 26.5246 30.3333 25.4978 30.3333V32.3333ZM29.9902 28.9326C29.7421 29.4123 29.3448 29.8051 28.8527 30.0521L29.75 31.8395C30.616 31.4048 31.3228 30.7097 31.7667 29.8513L29.9902 28.9326ZM32.2717 7.68889C32.2717 6.70999 32.2725 5.91477 32.2192 5.27097C32.1648 4.61504 32.0491 4.02807 31.7667 3.48201L29.9902 4.40072C30.1011 4.61524 30.1821 4.90638 30.226 5.43625C30.2709 5.97824 30.2717 6.6765 30.2717 7.68889H32.2717ZM25.4978 3C26.5246 3 27.2354 3.00076 27.7878 3.04522C28.3288 3.08877 28.6299 3.16937 28.8527 3.28124L29.75 1.49383C29.2009 1.21816 28.6107 1.10499 27.9483 1.05167C27.2971 0.999245 26.4921 1 25.4978 1V3ZM31.7667 3.48202C31.3228 2.62367 30.616 1.92856 29.75 1.49383L28.8527 3.28124C29.3448 3.52827 29.7421 3.92102 29.9902 4.40072L31.7667 3.48202ZM16.1978 38.6667H34.4217V36.6667H16.1978V38.6667ZM39.1957 43.3556V61.3111H41.1957V43.3556H39.1957ZM11.4239 46.5556V43.3556H9.42391V46.5556H11.4239ZM34.4217 66H25.3098V68H34.4217V66ZM39.1957 61.3111C39.1957 62.3235 39.1949 63.0218 39.1499 63.5638C39.106 64.0936 39.025 64.3848 38.9141 64.5993L40.6906 65.518C40.973 64.9719 41.0887 64.385 41.1431 63.729C41.1965 63.0852 41.1957 62.29 41.1957 61.3111H39.1957ZM34.4217 68C35.416 68 36.221 68.0008 36.8722 67.9483C37.5346 67.895 38.1248 67.7818 38.6739 67.5062L37.7766 65.7188C37.5538 65.8306 37.2528 65.9112 36.7117 65.9548C36.1594 65.9992 35.4485 66 34.4217 66V68ZM38.9141 64.5993C38.666 65.079 38.2687 65.4717 37.7766 65.7188L38.6739 67.5062C39.5399 67.0714 40.2467 66.3763 40.6906 65.518L38.9141 64.5993ZM34.4217 38.6667C35.4485 38.6667 36.1594 38.6674 36.7117 38.7119C37.2528 38.7554 37.5538 38.836 37.7766 38.9479L38.6739 37.1605C38.1248 36.8848 37.5346 36.7717 36.8722 36.7183C36.221 36.6659 35.416 36.6667 34.4217 36.6667V38.6667ZM41.1957 43.3556C41.1957 42.3766 41.1965 41.5814 41.1431 40.9376C41.0887 40.2817 40.973 39.6947 40.6906 39.1487L38.9141 40.0674C39.025 40.2819 39.106 40.573 39.1499 41.1029C39.1949 41.6449 39.1957 42.3432 39.1957 43.3556H41.1957ZM37.7766 38.9479C38.2687 39.1949 38.666 39.5877 38.9141 40.0674L40.6906 39.1487C40.2467 38.2903 39.5399 37.5952 38.6739 37.1605L37.7766 38.9479ZM16.1978 36.6667C15.2036 36.6667 14.3986 36.6659 13.7474 36.7183C13.085 36.7717 12.4948 36.8848 11.9456 37.1605L12.843 38.9479C13.0658 38.836 13.3668 38.7554 13.9079 38.7119C14.4602 38.6674 15.171 38.6667 16.1978 38.6667V36.6667ZM11.4239 43.3556C11.4239 42.3432 11.4247 41.6449 11.4697 41.1029C11.5136 40.573 11.5946 40.2819 11.7055 40.0674L9.92898 39.1487C9.64659 39.6947 9.53089 40.2817 9.4765 40.9376C9.42311 41.5814 9.42391 42.3767 9.42391 43.3556H11.4239ZM11.9456 37.1605C11.0797 37.5952 10.3729 38.2903 9.92898 39.1487L11.7055 40.0674C11.9536 39.5877 12.3509 39.1949 12.843 38.9479L11.9456 37.1605ZM36.7826 6.68889V24.6444H38.7826V6.68889H36.7826ZM43.5565 31.3333H61.7804V29.3333H43.5565V31.3333ZM46.8043 0H43.5565V2H46.8043V0ZM68.5544 24.6444V15.6667H66.5544V24.6444H68.5544ZM61.7804 31.3333C62.7747 31.3333 63.5797 31.3341 64.2309 31.2817C64.8933 31.2283 65.4835 31.1152 66.0326 30.8395L65.1353 29.0521C64.9125 29.164 64.6115 29.2446 64.0704 29.2881C63.5181 29.3326 62.8072 29.3333 61.7804 29.3333V31.3333ZM66.5544 24.6444C66.5544 25.6568 66.5536 26.3551 66.5086 26.8971C66.4647 27.427 66.3837 27.7181 66.2728 27.9326L68.0493 28.8513C68.3317 28.3053 68.4474 27.7183 68.5018 27.0624C68.5552 26.4186 68.5544 25.6234 68.5544 24.6444H66.5544ZM66.0326 30.8395C66.8986 30.4048 67.6054 29.7097 68.0493 28.8513L66.2728 27.9326C66.0247 28.4123 65.6274 28.8051 65.1353 29.0521L66.0326 30.8395ZM36.7826 24.6444C36.7826 25.6234 36.7818 26.4186 36.8352 27.0624C36.8896 27.7183 37.0053 28.3053 37.2877 28.8513L39.0642 27.9326C38.9533 27.7181 38.8723 27.427 38.8284 26.8971C38.7834 26.3551 38.7826 25.6568 38.7826 24.6444H36.7826ZM43.5565 29.3333C42.5297 29.3333 41.8189 29.3326 41.2666 29.2881C40.7255 29.2446 40.4245 29.164 40.2016 29.0521L39.3043 30.8395C39.8535 31.1152 40.4437 31.2283 41.1061 31.2817C41.7573 31.3341 42.5623 31.3333 43.5565 31.3333V29.3333ZM37.2877 28.8513C37.7316 29.7097 38.4384 30.4048 39.3043 30.8395L40.2016 29.0521C39.7096 28.8051 39.3123 28.4123 39.0642 27.9326L37.2877 28.8513ZM38.7826 6.68889C38.7826 5.6765 38.7834 4.97824 38.8284 4.43625C38.8723 3.90638 38.9533 3.61524 39.0642 3.40072L37.2877 2.48201C37.0053 3.02807 36.8896 3.61504 36.8352 4.27097C36.7818 4.91477 36.7826 5.70998 36.7826 6.68889H38.7826ZM43.5565 0C42.5623 0 41.7573 -0.000755191 41.1061 0.051666C40.4437 0.104992 39.8535 0.218159 39.3043 0.493829L40.2016 2.28124C40.4245 2.16937 40.7255 2.08877 41.2666 2.04522C41.8189 2.00076 42.5297 2 43.5565 2V0ZM39.0642 3.40072C39.3123 2.92102 39.7096 2.52827 40.2016 2.28124L39.3043 0.493829C38.4384 0.928559 37.7316 1.62367 37.2877 2.48202L39.0642 3.40072ZM46.6087 42.3556V60.3111H48.6087V42.3556H46.6087ZM53.3826 67H71.6065V65H53.3826V67ZM75.0122 35.6667H53.3826V37.6667H75.0122V35.6667ZM78.3804 60.3111V51.3333H76.3804V60.3111H78.3804ZM75.0122 37.6667C75.7819 37.6667 76.3804 38.2776 76.3804 39H78.3804C78.3804 37.1451 76.8584 35.6667 75.0122 35.6667V37.6667ZM71.6065 67C72.6008 67 73.4058 67.0008 74.0569 66.9483C74.7194 66.895 75.3096 66.7818 75.8587 66.5062L74.9614 64.7188C74.7386 64.8306 74.4375 64.9112 73.8965 64.9548C73.3441 64.9992 72.6333 65 71.6065 65V67ZM76.3804 60.3111C76.3804 61.3235 76.3796 62.0218 76.3347 62.5638C76.2908 63.0936 76.2098 63.3848 76.0989 63.5993L77.8754 64.518C78.1578 63.9719 78.2735 63.385 78.3279 62.729C78.3812 62.0852 78.3804 61.29 78.3804 60.3111H76.3804ZM75.8587 66.5062C76.7247 66.0714 77.4315 65.3763 77.8754 64.518L76.0989 63.5993C75.8508 64.079 75.4535 64.4717 74.9614 64.7188L75.8587 66.5062ZM46.6087 60.3111C46.6087 61.29 46.6079 62.0852 46.6613 62.729C46.7157 63.385 46.8314 63.9719 47.1138 64.518L48.8903 63.5993C48.7793 63.3848 48.6984 63.0936 48.6544 62.5638C48.6095 62.0218 48.6087 61.3235 48.6087 60.3111H46.6087ZM53.3826 65C52.3558 65 51.645 64.9992 51.0927 64.9548C50.5516 64.9112 50.2506 64.8306 50.0277 64.7188L49.1304 66.5062C49.6795 66.7818 50.2697 66.895 50.9322 66.9483C51.5834 67.0008 52.3883 67 53.3826 67V65ZM47.1138 64.518C47.5576 65.3763 48.2645 66.0714 49.1304 66.5062L50.0277 64.7188C49.5357 64.4717 49.1383 64.079 48.8903 63.5993L47.1138 64.518ZM48.6087 42.3556C48.6087 41.3432 48.6095 40.6449 48.6544 40.1029C48.6984 39.573 48.7793 39.2819 48.8903 39.0674L47.1138 38.1487C46.8314 38.6947 46.7157 39.2817 46.6613 39.9376C46.6079 40.5814 46.6087 41.3767 46.6087 42.3556H48.6087ZM53.3826 35.6667C52.3883 35.6667 51.5834 35.6659 50.9322 35.7183C50.2697 35.7717 49.6795 35.8848 49.1304 36.1605L50.0277 37.9479C50.2506 37.836 50.5516 37.7554 51.0927 37.7119C51.645 37.6674 52.3558 37.6667 53.3826 37.6667V35.6667ZM48.8903 39.0674C49.1383 38.5877 49.5357 38.1949 50.0277 37.9479L49.1304 36.1605C48.2645 36.5952 47.5577 37.2903 47.1138 38.1487L48.8903 39.0674ZM70.073 53.1592L86.1993 37.3815L84.8007 35.9519L68.6743 51.7297L70.073 53.1592ZM69.163 54.1111C69.163 55.0177 68.413 55.7778 67.4565 55.7778V57.7778C69.4895 57.7778 71.163 56.1501 71.163 54.1111H69.163ZM67.4565 55.7778C66.5 55.7778 65.75 55.0177 65.75 54.1111H63.75C63.75 56.1501 65.4235 57.7778 67.4565 57.7778V55.7778ZM65.75 54.1111C65.75 53.2046 66.5 52.4444 67.4565 52.4444V50.4444C65.4235 50.4444 63.75 52.0721 63.75 54.1111H65.75ZM67.4565 52.4444C68.413 52.4444 69.163 53.2046 69.163 54.1111H71.163C71.163 52.0721 69.4895 50.4444 67.4565 50.4444V52.4444Z" fill="#145BE6"/>
</svg>
