<svg width="58" height="56" viewBox="0 0 58 56" fill="none" xmlns="http://www.w3.org/2000/svg">
<path d="M13.7693 1.48955L13.8743 0.495076L13.8743 0.495076L13.7693 1.48955ZM44.803 4.76601L44.698 5.76049L44.698 5.76049L44.803 4.76601ZM7.75071 6.33395L8.74044 6.47686L8.74304 6.45885L8.74499 6.44076L7.75071 6.33395ZM48.3447 5.51322L48.889 4.67431L48.889 4.67431L48.3447 5.51322ZM49.6575 10.7584L50.6518 10.8652L50.6518 10.8652L49.6575 10.7584ZM49.6706 7.14994L48.7368 7.50772L48.7368 7.50772L49.6706 7.14994ZM10.1484 1.48055L9.79197 0.546212L10.1484 1.48055ZM8.50447 2.80372L9.3414 3.35103L9.3414 3.35103L8.50447 2.80372ZM24.0286 43.6393L23.3753 44.3964L24.0286 43.6393ZM23.0166 30.7832L22.8005 29.8069L22.8005 29.8069L23.0166 30.7832ZM32.476 8.72512L32.3579 9.71812L32.476 8.72512ZM24.331 7.75643L24.4491 6.76342L24.331 7.75643ZM13.6643 2.48402L44.698 5.76049L44.908 3.77154L13.8743 0.495076L13.6643 2.48402ZM44.698 5.76049C45.6658 5.86267 46.332 5.93378 46.8444 6.03043C47.3453 6.12494 47.6115 6.22957 47.8004 6.35213L48.889 4.67431C48.3907 4.35103 47.8375 4.18251 47.2151 4.0651C46.6042 3.94984 45.8431 3.87027 44.908 3.77154L44.698 5.76049ZM50.6518 10.8652C50.7519 9.9334 50.8342 9.1746 50.8498 8.5545C50.8658 7.92267 50.817 7.34692 50.6044 6.79217L48.7368 7.50772C48.8168 7.71645 48.8633 7.99667 48.8505 8.50406C48.8374 9.02319 48.7669 9.68686 48.6632 10.6516L50.6518 10.8652ZM47.8004 6.35213C48.2278 6.62939 48.5553 7.03406 48.7368 7.50772L50.6044 6.79217C50.2713 5.92263 49.6705 5.1814 48.889 4.67431L47.8004 6.35213ZM13.8743 0.495076C12.9392 0.396347 12.1783 0.315238 11.5566 0.300356C10.9232 0.285194 10.3471 0.33448 9.79197 0.546212L10.5047 2.41489C10.7161 2.33425 10.999 2.28758 11.5087 2.29978C12.0301 2.31226 12.6965 2.38184 13.6643 2.48402L13.8743 0.495076ZM8.74499 6.44076C8.84862 5.476 8.92068 4.81249 9.01816 4.30226C9.11342 3.80367 9.21845 3.53904 9.3414 3.35103L7.66754 2.25641C7.34233 2.75372 7.17235 3.30589 7.05369 3.92694C6.93727 4.53634 6.85653 5.29529 6.75643 6.22714L8.74499 6.44076ZM9.79197 0.546212C8.92117 0.878367 8.17736 1.47681 7.66754 2.25641L9.3414 3.35103C9.62 2.92501 10.0271 2.59708 10.5047 2.41489L9.79197 0.546212ZM48.6632 10.6516L45.0521 44.2686L47.0407 44.4822L50.6518 10.8652L48.6632 10.6516ZM34.0448 54.7951C32.734 52.0329 28.9006 46.5226 24.6819 42.8822L23.3753 44.3964C27.3777 47.8502 31.0431 53.1349 32.238 55.6526L34.0448 54.7951ZM24.6819 42.8822C22.4156 40.9267 21.1264 38.2079 20.9274 35.923C20.8282 34.7833 21.0047 33.8173 21.3916 33.1139C21.7637 32.4375 22.3534 31.9542 23.2327 31.7596L22.8005 29.8069C21.3465 30.1287 20.2822 30.9811 19.6392 32.15C19.0112 33.2918 18.8117 34.6809 18.935 36.0965C19.181 38.9221 20.7311 42.1149 23.3753 44.3964L24.6819 42.8822ZM23.2327 31.7596C23.9006 31.6118 24.8784 31.7426 26.2124 32.3538C27.5297 32.9573 29.0885 33.9811 30.8592 35.4485C34.3981 38.3811 38.668 42.9886 43.3984 49.2166L44.9911 48.0069C40.2098 41.7119 35.8353 36.9746 32.1354 33.9085C30.2867 32.3766 28.5775 31.2375 27.0455 30.5356C25.5302 29.8413 24.0773 29.5242 22.8005 29.8069L23.2327 31.7596ZM46.9999 29.9674C48.052 31.8512 50.3323 35.8927 52.3269 40.1123C53.3245 42.2226 54.2416 44.3587 54.8961 46.2781C55.5601 48.2251 55.9164 49.8449 55.877 50.9622L57.8758 51.0326C57.9286 49.5325 57.468 47.6236 56.7891 45.6326C56.1007 43.6139 55.1491 41.4025 54.1351 39.2576C52.1067 34.9667 49.793 30.8668 48.746 28.9921L46.9999 29.9674ZM32.5941 7.73212L24.4491 6.76342L24.2129 8.74943L32.3579 9.71812L32.5941 7.73212ZM24.4491 6.76342C23.6916 6.67333 23.1505 5.98617 23.2406 5.22862L21.2546 4.99242C21.0341 6.84681 22.3586 8.52888 24.2129 8.74943L24.4491 6.76342ZM34.1289 6.52357C34.0388 7.28113 33.3517 7.82221 32.5941 7.73212L32.3579 9.71812C34.2123 9.93867 35.8944 8.61416 36.1149 6.75977L34.1289 6.52357ZM2.29126 51.1403L8.74044 6.47686L6.76097 6.19104L0.311791 50.8545L2.29126 51.1403Z" fill="#14E6B9"/>
</svg>
