<svg width="28" height="28" viewBox="0 0 28 28" fill="none" xmlns="http://www.w3.org/2000/svg">
<g clip-path="url(#clip0_1319_22985)">
<circle cx="14" cy="14" r="14" fill="#ED1D24"/>
<path d="M20.7901 10.6456C20.6281 10.0444 20.1509 9.57093 19.5449 9.41026C18.4466 9.11825 14.0422 9.11825 14.0422 9.11825C14.0422 9.11825 9.63789 9.11825 8.53952 9.41026C7.93354 9.57093 7.45627 10.0444 7.29431 10.6456C7 11.7352 7 14.0087 7 14.0087C7 14.0087 7 16.2821 7.29431 17.3719C7.45627 17.973 7.93354 18.4464 8.53952 18.6072C9.63789 18.8991 14.0422 18.8991 14.0422 18.8991C14.0422 18.8991 18.4466 18.8991 19.5449 18.6072C20.1509 18.4464 20.6281 17.973 20.7901 17.3719C21.0844 16.2821 21.0844 14.0087 21.0844 14.0087C21.0844 14.0087 21.0844 11.7352 20.7901 10.6456Z" fill="white"/>
<path d="M12.6019 16.0721L16.283 14.008L12.6019 11.9438V16.0721Z" fill="#ED1D24"/>
</g>
<defs>
<clipPath id="clip0_1319_22985">
<rect width="28" height="28" fill="white"/>
</clipPath>
</defs>
</svg>
