<svg width="28" height="28" viewBox="0 0 28 28" fill="none" xmlns="http://www.w3.org/2000/svg">
<g clip-path="url(#clip0_1319_22949)">
<path d="M14 28C21.732 28 28 21.732 28 14C28 6.26801 21.732 0 14 0C6.26801 0 0 6.26801 0 14C0 21.732 6.26801 28 14 28Z" fill="url(#paint0_linear_1319_22949)"/>
<path d="M9.4767 15.0235L11.1377 19.6209C11.1377 19.6209 11.3453 20.051 11.5677 20.051C11.7901 20.051 15.0975 16.6103 15.0975 16.6103L18.7754 9.50647L9.53597 13.8368L9.4767 15.0235Z" fill="#C8DAEA"/>
<path d="M11.6791 16.2027L11.3603 19.5914C11.3603 19.5914 11.2268 20.6297 12.2649 19.5914C13.303 18.5531 14.2967 17.7524 14.2967 17.7524" fill="#A9C6D8"/>
<path d="M9.50664 15.1872L6.08994 14.074C6.08994 14.074 5.6816 13.9083 5.81309 13.5327C5.84015 13.4552 5.89475 13.3893 6.05809 13.276C6.81514 12.7483 20.0705 7.98399 20.0705 7.98399C20.0705 7.98399 20.4447 7.85787 20.6655 7.94175C20.7201 7.95866 20.7692 7.98976 20.8078 8.03189C20.8465 8.07401 20.8732 8.12564 20.8854 8.1815C20.9092 8.28016 20.9192 8.38167 20.915 8.48309C20.914 8.57082 20.9033 8.65214 20.8953 8.77965C20.8146 10.0822 18.3986 19.8038 18.3986 19.8038C18.3986 19.8038 18.2541 20.3727 17.7362 20.3922C17.6089 20.3963 17.4821 20.3747 17.3634 20.3288C17.2446 20.2829 17.1363 20.2135 17.0449 20.1248C16.0287 19.2506 12.5161 16.89 11.7399 16.3708C11.7224 16.3589 11.7076 16.3433 11.6966 16.3252C11.6856 16.3071 11.6787 16.2868 11.6762 16.2658C11.6653 16.2111 11.7248 16.1433 11.7248 16.1433C11.7248 16.1433 17.8412 10.7066 18.0039 10.1359C18.0165 10.0917 17.9689 10.0699 17.905 10.0892C17.4988 10.2387 10.4565 14.6859 9.6793 15.1767C9.62336 15.1936 9.56422 15.1972 9.50664 15.1872Z" fill="white"/>
</g>
<defs>
<linearGradient id="paint0_linear_1319_22949" x1="14" y1="28" x2="14" y2="0" gradientUnits="userSpaceOnUse">
<stop stop-color="#1D93D2"/>
<stop offset="1" stop-color="#38B0E3"/>
</linearGradient>
<clipPath id="clip0_1319_22949">
<rect width="28" height="28" fill="white"/>
</clipPath>
</defs>
</svg>
