<svg width="22" height="22" viewBox="0 0 22 22" fill="none" xmlns="http://www.w3.org/2000/svg">
<path d="M9.98955 5.15574C9.98955 7.75627 7.87542 9.86934 5.27488 9.86934C2.67221 9.86934 0.561279 7.7584 0.561279 5.15574C0.561279 2.54987 2.67221 0.442139 5.27488 0.442139C7.87542 0.442139 9.98955 2.5488 9.98955 5.15574ZM21.4498 5.15574C21.4498 2.54987 19.3389 0.442139 16.7373 0.442139C14.1368 0.442139 12.0269 2.54987 12.0269 5.15574C12.0269 7.75627 14.1368 9.86934 16.7373 9.86934C19.34 9.86827 21.4498 7.75734 21.4498 5.15574ZM9.98955 16.6192C9.98955 14.0165 7.87542 11.9088 5.27488 11.9088C2.67221 11.9088 0.561279 14.0165 0.561279 16.6192C0.561279 19.2219 2.67221 21.3328 5.27488 21.3328C7.87542 21.3328 9.98955 19.2229 9.98955 16.6192ZM21.4498 16.6192C21.4498 14.0165 19.3389 11.9088 16.7373 11.9088C14.1368 11.9088 12.0269 14.0165 12.0269 16.6192C12.0269 19.2219 14.1368 21.3328 16.7373 21.3328C19.34 21.3328 21.4498 19.2229 21.4498 16.6192Z" fill="#009DE0"/>
</svg>
