<svg width="30" height="30" viewBox="0 0 30 30" fill="none" xmlns="http://www.w3.org/2000/svg">
<path d="M15 29.6667C23.1002 29.6667 29.6667 23.1002 29.6667 15C29.6667 6.89982 23.1002 0.333328 15 0.333328C6.89986 0.333328 0.333374 6.89982 0.333374 15C0.333374 23.1002 6.89986 29.6667 15 29.6667Z" fill="#26A17B"/>
<path fill-rule="evenodd" clip-rule="evenodd" d="M16.7619 16.268V16.2662C16.6611 16.2735 16.1413 16.3047 14.9817 16.3047C14.0559 16.3047 13.4041 16.2772 13.175 16.2662V16.2689C9.61098 16.1122 6.95081 15.4916 6.95081 14.7491C6.95081 14.0075 9.61098 13.3869 13.175 13.2274V15.6511C13.4078 15.6676 14.0751 15.707 14.9973 15.707C16.1037 15.707 16.6583 15.6612 16.7619 15.652V13.2293C20.3186 13.3878 22.9723 14.0084 22.9723 14.7491C22.9723 15.4916 20.3186 16.1103 16.7619 16.268ZM16.7619 12.9772V10.8083H21.7247V7.50101H8.21215V10.8083H13.175V12.9763C9.14165 13.1614 6.1084 13.9608 6.1084 14.9178C6.1084 15.8748 9.14165 16.6732 13.175 16.8593V23.8094H16.7619V16.8574C20.7888 16.6723 23.8147 15.8738 23.8147 14.9178C23.8147 13.9617 20.7888 13.1633 16.7619 12.9772Z" fill="white"/>
</svg>
