<svg width="22" height="22" viewBox="0 0 22 22" fill="none" xmlns="http://www.w3.org/2000/svg">
<path d="M11.0004 21.6666C16.8914 21.6666 21.6671 16.891 21.6671 11C21.6671 5.10894 16.8914 0.333313 11.0004 0.333313C5.10937 0.333313 0.33374 5.10894 0.33374 11C0.33374 16.891 5.10937 21.6666 11.0004 21.6666Z" fill="#26A17B"/>
<path fill-rule="evenodd" clip-rule="evenodd" d="M12.2817 11.9221V11.9208C12.2084 11.9261 11.8304 11.9488 10.987 11.9488C10.3137 11.9488 9.83969 11.9288 9.67302 11.9208V11.9228C7.08102 11.8088 5.14636 11.3575 5.14636 10.8175C5.14636 10.2781 7.08102 9.82681 9.67302 9.71081V11.4735C9.84236 11.4855 10.3277 11.5141 10.9984 11.5141C11.803 11.5141 12.2064 11.4808 12.2817 11.4741V9.71214C14.8684 9.82748 16.7984 10.2788 16.7984 10.8175C16.7984 11.3575 14.8684 11.8075 12.2817 11.9221ZM12.2817 9.52881V7.95148H15.891V5.54614H6.06369V7.95148H9.67302V9.52814C6.73969 9.66281 4.53369 10.2441 4.53369 10.9401C4.53369 11.6361 6.73969 12.2168 9.67302 12.3521V17.4068H12.2817V12.3508C15.2104 12.2161 17.411 11.6355 17.411 10.9401C17.411 10.2448 15.2104 9.66414 12.2817 9.52881Z" fill="white"/>
</svg>
