<svg width="30" height="30" viewBox="0 0 30 30" fill="none" xmlns="http://www.w3.org/2000/svg">
<g clip-path="url(#clip0_335_6722)">
<path d="M13.6104 6.96412C13.6104 10.5399 10.7034 13.4453 7.12768 13.4453C3.54902 13.4453 0.646484 10.5428 0.646484 6.96412C0.646484 3.38106 3.54902 0.482925 7.12768 0.482925C10.7034 0.482925 13.6104 3.37959 13.6104 6.96412ZM29.3682 6.96412C29.3682 3.38106 26.4657 0.482925 22.8885 0.482925C19.3128 0.482925 16.4117 3.38106 16.4117 6.96412C16.4117 10.5399 19.3128 13.4453 22.8885 13.4453C26.4672 13.4439 29.3682 10.5413 29.3682 6.96412ZM13.6104 22.7264C13.6104 19.1477 10.7034 16.2496 7.12768 16.2496C3.54902 16.2496 0.646484 19.1477 0.646484 22.7264C0.646484 26.3051 3.54902 29.2076 7.12768 29.2076C10.7034 29.2076 13.6104 26.3065 13.6104 22.7264ZM29.3682 22.7264C29.3682 19.1477 26.4657 16.2496 22.8885 16.2496C19.3128 16.2496 16.4117 19.1477 16.4117 22.7264C16.4117 26.3051 19.3128 29.2076 22.8885 29.2076C26.4672 29.2076 29.3682 26.3065 29.3682 22.7264Z" fill="#009DE0"/>
</g>
<defs>
<clipPath id="clip0_335_6722">
<rect width="29.3333" height="29.3333" fill="white" transform="translate(0.334106 0.333328)"/>
</clipPath>
</defs>
</svg>
