<svg width="30" height="30" viewBox="0 0 30 30" fill="none" xmlns="http://www.w3.org/2000/svg">
<g clip-path="url(#clip0_335_6717)">
<path d="M15.2298 1.79996C16.0781 1.79996 16.9265 1.79996 17.8005 1.79996C17.8005 1.81515 17.8005 1.83033 17.8005 1.84598C17.8166 1.84644 17.8324 1.8469 17.8489 1.84736C17.9217 1.84966 17.9944 1.85219 18.0672 1.85473C18.0924 1.85542 18.1175 1.85611 18.1434 1.8568C18.2683 1.8614 18.3713 1.8706 18.4891 1.91502C18.5494 1.92399 18.6091 1.93159 18.6699 1.93803C18.7969 1.95253 18.9167 1.97347 19.0399 2.00707C19.1026 2.01926 19.1655 2.03054 19.2284 2.04158C19.4136 2.07472 19.5935 2.1166 19.7744 2.16815C19.8008 2.17551 19.8272 2.18288 19.8545 2.1907C19.9727 2.22407 20.0902 2.25744 20.2061 2.29748C20.2908 2.3267 20.3755 2.34626 20.463 2.36467C20.5194 2.37779 20.5706 2.39827 20.6237 2.42128C20.7067 2.45028 20.7903 2.47582 20.8748 2.50044C20.9705 2.52898 21.06 2.56511 21.1516 2.60538C21.1922 2.62057 21.2328 2.63529 21.2734 2.65002C21.3946 2.69351 21.5142 2.74069 21.6336 2.78947C21.6336 2.80466 21.6336 2.81985 21.6336 2.8355C21.6519 2.83734 21.6705 2.83918 21.6896 2.84125C21.7935 2.86311 21.8819 2.90591 21.9779 2.95056C22.016 2.96621 22.0543 2.98162 22.0926 2.99658C22.0926 3.01177 22.0926 3.02696 22.0926 3.0426C22.1045 3.04491 22.1163 3.04744 22.1284 3.04974C22.2039 3.07114 22.2735 3.10336 22.3451 3.13465C22.3678 3.14225 22.3905 3.14984 22.4139 3.15767C22.4139 3.17285 22.4139 3.18804 22.4139 3.20369C22.4323 3.20806 22.4323 3.20806 22.4511 3.21243C22.5163 3.22946 22.5797 3.25086 22.6435 3.27272C22.6435 3.28791 22.6435 3.3031 22.6435 3.31875C22.668 3.32542 22.6926 3.3321 22.7181 3.339C22.7833 3.35856 22.8372 3.37766 22.896 3.4108C22.896 3.42598 22.896 3.44117 22.896 3.45682C22.9152 3.46119 22.9152 3.46119 22.9347 3.46557C22.9928 3.48121 23.047 3.50261 23.1025 3.52586C23.1025 3.54104 23.1025 3.55623 23.1025 3.57188C23.1149 3.57418 23.1273 3.57648 23.1402 3.57878C23.3174 3.63171 23.4835 3.76058 23.6304 3.87104C23.6456 3.86344 23.6607 3.85585 23.6763 3.84802C23.6763 3.8784 23.6763 3.90878 23.6763 3.94007C23.7066 3.94007 23.7369 3.94007 23.7681 3.94007C23.7681 3.95526 23.7681 3.97045 23.7681 3.9861C23.7819 3.9884 23.7957 3.99093 23.8097 3.99323C23.8687 4.01187 23.8854 4.03465 23.9288 4.07814C24.0043 4.1244 24.0727 4.16398 24.1556 4.19459C24.1717 4.20172 24.1877 4.20885 24.2042 4.21622C24.2118 4.239 24.2194 4.26178 24.2272 4.28525C24.2499 4.29285 24.2726 4.30044 24.2961 4.30826C24.2961 4.32345 24.2961 4.33864 24.2961 4.35429C24.3126 4.3605 24.3291 4.36672 24.3463 4.37293C24.513 4.44358 24.513 4.44358 24.5557 4.53125C24.5609 4.54874 24.5662 4.56623 24.5715 4.58441C24.6018 4.58441 24.6321 4.58441 24.6633 4.58441C24.7221 4.63895 24.7221 4.63895 24.7781 4.69947C24.8008 4.71466 24.8235 4.72984 24.8469 4.74549C24.8469 4.76068 24.8469 4.77587 24.8469 4.79152C24.8678 4.79635 24.8887 4.80095 24.91 4.80578C25.0035 4.84559 25.0214 4.89208 25.0764 4.97561C25.1143 5.00277 25.1143 5.00277 25.1568 5.0244C25.2298 5.06375 25.2764 5.09666 25.3289 5.15971C25.3289 5.1749 25.3289 5.19008 25.3289 5.20573C25.3425 5.21195 25.356 5.21816 25.3698 5.2246C25.4839 5.28535 25.5876 5.38569 25.6732 5.48188C25.6732 5.49706 25.6732 5.51225 25.6732 5.5279C25.6858 5.53319 25.6985 5.53826 25.7115 5.54378C25.7809 5.5829 25.8295 5.6326 25.8855 5.68898C25.9059 5.70946 25.9264 5.72972 25.9475 5.75089C25.9945 5.80404 25.9945 5.80404 25.9945 5.85007C26.0173 5.85766 26.04 5.86526 26.0634 5.87308C26.1022 5.91864 26.1405 5.96467 26.1782 6.01115C26.1933 6.01875 26.2085 6.02634 26.2241 6.03416C26.2241 6.05695 26.2241 6.07973 26.2241 6.1032C26.2544 6.11839 26.2847 6.13358 26.3159 6.14922C26.3159 6.16441 26.3159 6.1796 26.3159 6.19525C26.3386 6.20284 26.3613 6.21044 26.3847 6.21826C26.4394 6.27947 26.4736 6.32412 26.4995 6.40236C26.5222 6.40995 26.5449 6.41754 26.5684 6.42537C26.592 6.46334 26.6147 6.50177 26.6372 6.54043C26.6537 6.557 26.6703 6.57357 26.6875 6.59082C26.7013 6.60463 26.7148 6.61821 26.729 6.63248C26.729 6.64766 26.729 6.66285 26.729 6.6785C26.7442 6.6785 26.7593 6.6785 26.7749 6.6785C26.7825 6.70888 26.7901 6.73925 26.7979 6.77055C26.813 6.77055 26.8282 6.77055 26.8438 6.77055C26.8459 6.78988 26.8459 6.78988 26.8482 6.80944C26.883 6.90908 26.965 6.96661 27.0504 7.02368C27.0504 7.04646 27.0504 7.06924 27.0504 7.09272C27.0655 7.10031 27.0807 7.1079 27.0963 7.11573C27.0887 7.13851 27.0811 7.16129 27.0733 7.18476C27.0871 7.18614 27.1009 7.18753 27.1149 7.18914C27.1851 7.21514 27.1989 7.25863 27.234 7.32284C27.2491 7.33043 27.2643 7.33802 27.2799 7.34585C27.323 7.41557 27.3258 7.44365 27.3258 7.52994C27.3485 7.52994 27.3712 7.52994 27.3947 7.52994C27.4612 7.61394 27.4865 7.65099 27.4865 7.76006C27.5092 7.76006 27.5319 7.76006 27.5553 7.76006C27.6471 7.90964 27.6471 7.90964 27.6471 8.0132C27.6685 8.02102 27.6685 8.02102 27.6903 8.02907C27.7545 8.06888 27.7582 8.10363 27.7848 8.17428C27.814 8.2157 27.8445 8.25551 27.8762 8.29509C27.8996 8.33536 27.8996 8.33536 27.8996 8.42741C27.9148 8.42741 27.9299 8.42741 27.9455 8.42741C27.9914 8.49645 27.9914 8.49645 27.9914 8.5885C28.0066 8.5885 28.0217 8.5885 28.0373 8.5885C28.0373 8.60368 28.0373 8.61887 28.0373 8.63452C28.0525 8.64211 28.0676 8.64971 28.0832 8.65753C28.1475 8.74429 28.1594 8.80366 28.1521 8.91066C28.1727 8.91849 28.1727 8.91849 28.1941 8.92654C28.2581 8.9652 28.2751 9.00294 28.307 9.07037C28.3169 9.09039 28.3268 9.11064 28.3369 9.13135C28.3587 9.18681 28.3587 9.18681 28.3587 9.25584C28.3738 9.26344 28.389 9.27103 28.4046 9.27886C28.4046 9.32442 28.4046 9.36998 28.4046 9.41693C28.4273 9.42452 28.45 9.43212 28.4734 9.43994C28.5184 9.50851 28.5193 9.53797 28.5193 9.62404C28.5345 9.62404 28.5496 9.62404 28.5652 9.62404C28.5696 9.65027 28.5696 9.65027 28.574 9.67719C28.5854 9.7437 28.5854 9.7437 28.6341 9.80813C28.6341 9.83851 28.6341 9.86888 28.6341 9.90018C28.6492 9.90018 28.6644 9.90018 28.68 9.90018C28.7213 9.98831 28.7305 10.0562 28.7259 10.1533C28.741 10.1533 28.7562 10.1533 28.7718 10.1533C28.7794 10.2065 28.787 10.2596 28.7948 10.3144C28.8099 10.3144 28.8251 10.3144 28.8407 10.3144C28.845 10.33 28.8496 10.3455 28.8542 10.3616C28.8602 10.382 28.8661 10.4025 28.8723 10.4237C28.8781 10.444 28.884 10.4642 28.89 10.4851C28.9077 10.5392 28.9297 10.5859 28.9554 10.6366C28.9708 10.6902 28.9859 10.744 29.0013 10.7976C29.0098 10.8128 29.0183 10.828 29.027 10.8437C29.0571 10.9122 29.05 10.9769 29.0472 11.0508C29.0624 11.0508 29.0775 11.0508 29.0931 11.0508C29.0968 11.0786 29.0968 11.0786 29.1007 11.1072C29.1044 11.1318 29.1081 11.1564 29.1117 11.1817C29.1152 11.2059 29.1186 11.2303 29.1223 11.2554C29.1397 11.3297 29.1684 11.3775 29.2079 11.442C29.2123 11.5297 29.2123 11.5297 29.2079 11.6031C29.223 11.6031 29.2382 11.6031 29.2538 11.6031C29.2924 11.6999 29.3002 11.7757 29.2967 11.8794C29.2974 11.9321 29.2974 11.9321 29.3341 12.0014C29.3805 12.1158 29.3745 12.2177 29.3686 12.3395C29.3837 12.3395 29.3989 12.3395 29.4145 12.3395C29.4535 12.4582 29.4654 12.5567 29.4631 12.6833C29.4631 12.6989 29.4629 12.7148 29.4627 12.7309C29.462 12.7691 29.4613 12.8075 29.4604 12.8457C29.4755 12.8457 29.4907 12.8457 29.5063 12.8457C29.5269 12.9164 29.532 12.979 29.5315 13.0524C29.5313 13.0848 29.5313 13.0848 29.5313 13.1177C29.5311 13.1398 29.5308 13.1621 29.5306 13.1851C29.5306 13.2077 29.5304 13.2305 29.5304 13.2537C29.5302 13.3094 29.5297 13.3653 29.5292 13.421C29.5444 13.421 29.5595 13.421 29.5751 13.421C29.6153 13.5425 29.6272 13.6465 29.6256 13.774C29.6254 13.7917 29.6254 13.8092 29.6254 13.8274C29.6252 13.8833 29.6245 13.939 29.6238 13.9949C29.6236 14.0329 29.6236 14.0711 29.6233 14.1091C29.6229 14.2018 29.622 14.2948 29.621 14.3875C29.6362 14.3875 29.6513 14.3875 29.667 14.3875C29.667 14.79 29.667 15.1925 29.667 15.6072C29.6518 15.6072 29.6367 15.6072 29.621 15.6072C29.6213 15.6297 29.6215 15.6525 29.6217 15.6757C29.6227 15.7604 29.6231 15.8453 29.6236 15.93C29.6238 15.9666 29.624 16.0032 29.6245 16.0395C29.6284 16.4133 29.6284 16.4133 29.5751 16.5967C29.56 16.5967 29.5448 16.5967 29.5292 16.5967C29.5297 16.6266 29.5304 16.6565 29.5308 16.6876C29.5313 16.7271 29.5318 16.767 29.532 16.8065C29.5324 16.8263 29.5329 16.8461 29.5334 16.8664C29.5341 16.9794 29.5226 17.065 29.4833 17.172C29.4781 17.2208 29.4741 17.2698 29.4719 17.3188C29.4645 17.4368 29.4478 17.5418 29.4145 17.6552C29.3993 17.6552 29.3842 17.6552 29.3686 17.6552C29.3693 17.6697 29.3702 17.6842 29.3711 17.6992C29.375 17.8232 29.364 17.9141 29.3149 18.0278C29.2956 18.0736 29.2956 18.0736 29.2997 18.1428C29.2997 18.2075 29.2997 18.2075 29.2667 18.2607C29.2233 18.3359 29.2205 18.3946 29.2136 18.48C29.2068 18.5403 29.1882 18.5902 29.162 18.6447C29.1468 18.6447 29.1317 18.6447 29.1161 18.6447C29.1214 18.6694 29.1264 18.694 29.1319 18.7195C29.1402 18.8201 29.1287 18.8235 29.0702 18.8979C29.0622 18.9427 29.0622 18.9427 29.0587 18.9913C29.0465 19.0879 29.0417 19.0903 28.9784 19.151C28.9784 19.1733 28.9784 19.1956 28.9784 19.2187C28.9784 19.3027 28.9584 19.3165 28.9095 19.3811C28.9058 19.4076 28.9019 19.4343 28.898 19.4617C28.8856 19.548 28.8682 19.5675 28.8177 19.6343C28.8065 19.6784 28.7954 19.7224 28.7858 19.7668C28.7612 19.8575 28.7202 19.941 28.68 20.0255C28.6648 20.0255 28.6497 20.0255 28.6341 20.0255C28.635 20.0459 28.6359 20.0662 28.6368 20.0874C28.6341 20.1628 28.6201 20.2107 28.5882 20.2786C28.573 20.2786 28.5579 20.2786 28.5423 20.2786C28.5347 20.3317 28.5271 20.3849 28.5193 20.4397C28.5042 20.4397 28.489 20.4397 28.4734 20.4397C28.4702 20.4576 28.4668 20.4758 28.4633 20.4944C28.4505 20.5547 28.4505 20.5547 28.4275 20.6008C28.4124 20.6008 28.3972 20.6008 28.3816 20.6008C28.374 20.6539 28.3665 20.7071 28.3587 20.7618C28.3435 20.7618 28.3284 20.7618 28.3127 20.7618C28.3127 20.7998 28.3127 20.8378 28.3127 20.8769C28.2981 20.8813 28.2834 20.8854 28.2682 20.8898C28.2113 20.9215 28.2113 20.9215 28.2037 21.0062C28.2019 21.032 28.2001 21.0575 28.198 21.084C28.1828 21.084 28.1677 21.084 28.1521 21.084C28.1521 21.122 28.1521 21.1599 28.1521 21.1991C28.1369 21.1991 28.1218 21.1991 28.1062 21.1991C28.1062 21.2143 28.1062 21.2294 28.1062 21.2451C28.091 21.2451 28.0759 21.2451 28.0603 21.2451C28.0637 21.2693 28.0637 21.2693 28.0674 21.2939C28.0568 21.3914 28.0134 21.4285 27.9455 21.4982C27.9304 21.4982 27.9152 21.4982 27.8996 21.4982C27.892 21.5514 27.8845 21.6045 27.8767 21.6593C27.8539 21.6593 27.8312 21.6593 27.8078 21.6593C27.8002 21.7125 27.7926 21.7656 27.7848 21.8204C27.7697 21.8204 27.7545 21.8204 27.7389 21.8204C27.7362 21.8446 27.7362 21.8446 27.7332 21.8692C27.7119 21.9513 27.6754 22.0066 27.6242 22.0735C27.609 22.0735 27.5939 22.0735 27.5783 22.0735C27.5762 22.0977 27.5762 22.0977 27.5739 22.1223C27.5494 22.2095 27.4986 22.2583 27.4406 22.3267C27.421 22.3777 27.421 22.3777 27.4176 22.4187C27.4025 22.4187 27.3873 22.4187 27.3717 22.4187C27.3641 22.4491 27.3565 22.4795 27.3487 22.5108C27.3336 22.5108 27.3184 22.5108 27.3028 22.5108C27.3028 22.5259 27.3028 22.5411 27.3028 22.5568C27.2877 22.5568 27.2725 22.5568 27.2569 22.5568C27.2569 22.5872 27.2569 22.6175 27.2569 22.6488C27.2418 22.6488 27.2266 22.6488 27.211 22.6488C27.2062 22.6649 27.2016 22.681 27.1968 22.6976C27.1672 22.7593 27.1472 22.7848 27.099 22.8302C27.0391 22.887 27.0035 22.9431 26.9648 23.0168C26.9005 23.1187 26.8158 23.2099 26.729 23.2932C26.7139 23.2932 26.6987 23.2932 26.6831 23.2932C26.6797 23.3187 26.6797 23.3187 26.676 23.3449C26.659 23.4128 26.6384 23.4492 26.5913 23.5003C26.5762 23.5003 26.561 23.5003 26.5454 23.5003C26.5399 23.5134 26.5344 23.5263 26.5289 23.5398C26.4933 23.6036 26.4504 23.6457 26.3978 23.6963C26.3776 23.7161 26.3574 23.7359 26.3368 23.7562C26.2943 23.7974 26.2518 23.8383 26.2094 23.8793C26.1024 23.9844 26.0134 24.0774 25.9486 24.2136C25.9335 24.2136 25.9183 24.2136 25.9027 24.2136C25.8876 24.244 25.8724 24.2744 25.8568 24.3057C25.8417 24.3057 25.8265 24.3057 25.8109 24.3057C25.8034 24.3285 25.7958 24.3513 25.788 24.3747C25.7728 24.3747 25.7577 24.3747 25.7421 24.3747C25.7269 24.4051 25.7118 24.4355 25.6962 24.4668C25.681 24.4668 25.6659 24.4668 25.6503 24.4668C25.6427 24.4896 25.6351 24.5123 25.6273 24.5358C25.589 24.5839 25.5628 24.6032 25.5045 24.6244C25.4363 24.6541 25.4001 24.6872 25.3487 24.7408C25.3232 24.7671 25.3232 24.7671 25.2972 24.794C25.2711 24.8214 25.2711 24.8214 25.2442 24.8492C25.2093 24.8856 25.1745 24.9219 25.1393 24.9581C25.124 24.9742 25.1086 24.9903 25.0927 25.0069C25.0535 25.0421 25.0535 25.0421 25.0076 25.0421C25 25.0649 24.9924 25.0876 24.9846 25.1111C24.961 25.1201 24.9374 25.1291 24.913 25.1385C24.8155 25.176 24.7659 25.24 24.7009 25.3196C24.6553 25.3737 24.6068 25.4162 24.5485 25.4563C24.5334 25.4563 24.5182 25.4563 24.5026 25.4563C24.5026 25.4715 24.5026 25.4867 24.5026 25.5023C24.4859 25.5081 24.4691 25.5136 24.4519 25.5196C24.3615 25.5603 24.3023 25.6236 24.2313 25.6915C24.1804 25.7331 24.1515 25.7405 24.0895 25.7554C24.0743 25.7782 24.0592 25.801 24.0436 25.8245C24.0284 25.8245 24.0133 25.8245 23.9977 25.8245C23.9977 25.8397 23.9977 25.8549 23.9977 25.8705C23.9593 25.8733 23.9593 25.8733 23.9201 25.8763C23.879 25.8848 23.879 25.8848 23.837 25.8935C23.8081 25.9361 23.8081 25.9361 23.7911 25.9856C23.7459 26.0263 23.7149 26.0516 23.6548 26.0633C23.6006 26.0755 23.6006 26.0755 23.5515 26.1338C23.4934 26.192 23.4558 26.2155 23.378 26.2387C23.3628 26.2387 23.3477 26.2387 23.3321 26.2387C23.3245 26.2615 23.3169 26.2843 23.3091 26.3077C23.2836 26.3105 23.2836 26.3105 23.2575 26.3135C23.1817 26.3342 23.1546 26.3653 23.1025 26.4228C23.0337 26.4688 23.0337 26.4688 22.9419 26.4688C22.9419 26.484 22.9419 26.4992 22.9419 26.5148C22.873 26.5609 22.873 26.5609 22.7812 26.5609C22.7812 26.5761 22.7812 26.5912 22.7812 26.6069C22.7557 26.6131 22.73 26.6193 22.7036 26.6255C22.6155 26.6451 22.6155 26.6451 22.5746 26.7219C22.5028 26.7263 22.5028 26.7263 22.4369 26.7219C22.4293 26.7523 22.4218 26.7827 22.4139 26.814C22.396 26.8126 22.3779 26.8112 22.3593 26.8096C22.3396 26.811 22.3196 26.8126 22.2992 26.814C22.284 26.8368 22.2689 26.8596 22.2533 26.883C22.1814 26.8874 22.1814 26.8874 22.1156 26.883C22.1004 26.9134 22.0853 26.9438 22.0697 26.9751C22.0318 26.9751 21.9939 26.9751 21.9549 26.9751C21.9549 26.9903 21.9549 27.0055 21.9549 27.0211C21.9019 27.0287 21.8489 27.0363 21.7942 27.0441C21.7942 27.0593 21.7942 27.0745 21.7942 27.0901C21.7715 27.0901 21.7488 27.0901 21.7254 27.0901C21.7254 27.1053 21.7254 27.1205 21.7254 27.1362C21.6375 27.1702 21.5523 27.2024 21.4614 27.2268C21.3974 27.2462 21.3501 27.2662 21.292 27.2972C21.2083 27.3417 21.1286 27.3601 21.0359 27.3778C20.9872 27.3872 20.9872 27.3872 20.9422 27.4266C20.8768 27.4747 20.8169 27.4629 20.7384 27.4583C20.7384 27.4735 20.7384 27.4887 20.7384 27.5044C20.7233 27.5069 20.7079 27.5094 20.6923 27.5119C20.5773 27.5327 20.4928 27.5552 20.3941 27.6194C20.2727 27.6615 20.1511 27.6792 20.0239 27.6963C19.9567 27.708 19.9567 27.708 19.9006 27.7471C19.8316 27.7874 19.7889 27.7876 19.7099 27.7849C19.6874 27.7842 19.6652 27.7835 19.642 27.783C19.625 27.7821 19.6082 27.7814 19.5908 27.7805C19.5908 27.7957 19.5908 27.8109 19.5908 27.8265C19.5017 27.8698 19.4212 27.8806 19.3241 27.8877C19.2669 27.8939 19.2669 27.8939 19.2061 27.919C19.1145 27.9469 19.0344 27.9466 18.9394 27.9443C18.9226 27.9443 18.9057 27.9441 18.8882 27.9439C18.8471 27.9432 18.8058 27.9425 18.7645 27.9416C18.7645 27.9568 18.7645 27.972 18.7645 27.9876C18.6731 28.05 18.5777 28.0387 18.4719 28.0364C18.4537 28.0364 18.4354 28.0362 18.4168 28.0359C18.372 28.0352 18.3272 28.0346 18.2825 28.0336C18.2825 28.0488 18.2825 28.064 18.2825 28.0797C18.0943 28.1137 17.9026 28.1105 17.7119 28.1146C17.6701 28.1158 17.6701 28.1158 17.6274 28.1169C17.6024 28.1176 17.5772 28.1181 17.5512 28.1188C17.475 28.1261 17.4133 28.1459 17.3414 28.1717C17.2577 28.1917 17.1799 28.1977 17.0938 28.1982C17.0676 28.1982 17.0412 28.1984 17.0144 28.1984C16.9861 28.1986 16.9579 28.1986 16.9288 28.1986C16.8994 28.1986 16.87 28.1986 16.8395 28.1989C16.7773 28.1989 16.7148 28.1991 16.6524 28.1991C16.5891 28.1991 16.5259 28.1991 16.4628 28.1995C16.1181 28.2012 15.7779 28.2005 15.4364 28.1487C15.4364 28.1335 15.4364 28.1183 15.4364 28.1027C15.4189 28.1029 15.4017 28.1029 15.3838 28.1031C15.3046 28.1036 15.2257 28.1038 15.1467 28.104C15.1194 28.1043 15.0921 28.1045 15.0639 28.1047C15.0242 28.1047 15.0242 28.1047 14.9835 28.105C14.9594 28.105 14.9351 28.1052 14.9101 28.1052C14.8389 28.1027 14.7719 28.093 14.7019 28.0797C14.7019 28.0645 14.7019 28.0493 14.7019 28.0336C14.6767 28.0341 14.6516 28.0348 14.6257 28.0352C14.5922 28.0357 14.5589 28.0362 14.5254 28.0364C14.5089 28.0369 14.4923 28.0373 14.4754 28.0378C14.3794 28.0385 14.306 28.0309 14.2199 27.9876C14.2199 27.9724 14.2199 27.9572 14.2199 27.9416C14.1942 27.9423 14.1683 27.9432 14.1419 27.9441C13.815 27.951 13.815 27.951 13.6658 27.8893C13.5999 27.8636 13.5322 27.8578 13.4625 27.8495C13.4397 27.8419 13.417 27.8343 13.3936 27.8265C13.3936 27.8113 13.3936 27.7961 13.3936 27.7805C13.3762 27.7807 13.3587 27.781 13.3408 27.7814C13.3066 27.7816 13.3066 27.7817 13.2717 27.7819C13.249 27.7821 13.2265 27.7826 13.2031 27.7828C13.1411 27.7805 13.1411 27.7805 13.0723 27.7575C13.0723 27.7347 13.0723 27.7119 13.0723 27.6884C13.0567 27.6887 13.0413 27.6889 13.0252 27.6894C12.9947 27.6896 12.9947 27.6896 12.9632 27.6898C12.943 27.6901 12.9228 27.6905 12.902 27.6908C12.8478 27.6887 12.8028 27.6809 12.7509 27.6654C12.7509 27.6502 12.7509 27.6351 12.7509 27.6194C12.7268 27.6208 12.7027 27.6222 12.6777 27.6238C12.5822 27.619 12.5547 27.5996 12.4755 27.5504C12.4213 27.5359 12.3674 27.5246 12.3123 27.5143C12.2689 27.5044 12.2689 27.5044 12.246 27.4813C12.221 27.4786 12.1957 27.4756 12.17 27.4726C12.0853 27.4583 12.0853 27.4583 12.0422 27.4252C11.9772 27.3773 11.9143 27.3693 11.8356 27.3555C11.7869 27.3433 11.7869 27.3433 11.7181 27.2972C11.68 27.2814 11.6419 27.266 11.6033 27.2512C11.6033 27.236 11.6033 27.2208 11.6033 27.2052C11.5797 27.2066 11.556 27.208 11.5317 27.2096C11.4355 27.2047 11.3876 27.1831 11.3049 27.1362C11.2668 27.1203 11.2287 27.1049 11.1902 27.0901C11.1902 27.075 11.1902 27.0598 11.1902 27.0441C11.1371 27.0365 11.0841 27.0289 11.0295 27.0211C11.0295 26.9983 11.0295 26.9755 11.0295 26.9521C10.9916 26.9597 10.9537 26.9673 10.9147 26.9751C10.8996 26.9447 10.8844 26.9143 10.8688 26.883C10.8332 26.8858 10.8332 26.8858 10.7972 26.8888C10.6921 26.8819 10.6542 26.8524 10.5704 26.791C10.497 26.7574 10.4242 26.727 10.348 26.7003C10.295 26.6759 10.295 26.6759 10.2519 26.6313C10.189 26.5698 10.1238 26.548 10.0425 26.5148C9.98791 26.4856 9.93511 26.4543 9.88186 26.4228C9.88186 26.4076 9.88186 26.3924 9.88186 26.3768C9.86052 26.3768 9.83917 26.3768 9.81737 26.3768C9.701 26.3609 9.62204 26.2859 9.53138 26.2159C9.45288 26.1579 9.37393 26.1179 9.2851 26.0776C9.2851 26.0624 9.2851 26.0472 9.2851 26.0316C9.26995 26.0316 9.2548 26.0316 9.23919 26.0316C9.23919 26.0164 9.23919 26.0012 9.23919 25.9856C9.15679 25.9425 9.0721 25.9066 8.98672 25.8705C8.98672 25.8553 8.98672 25.8401 8.98672 25.8245C8.96399 25.8169 8.94127 25.8093 8.91786 25.8015C8.91028 25.7863 8.90271 25.7711 8.89491 25.7554C8.85658 25.7391 8.85658 25.7391 8.81733 25.7223C8.70784 25.6749 8.70784 25.6749 8.66538 25.6174C8.66538 25.6022 8.66538 25.587 8.66538 25.5713C8.64977 25.57 8.63417 25.5686 8.6181 25.567C8.52881 25.5424 8.45812 25.4963 8.38995 25.4333C8.38995 25.4181 8.38995 25.4029 8.38995 25.3873C8.37572 25.3815 8.36149 25.376 8.3468 25.37C8.29814 25.3412 8.29814 25.3412 8.27656 25.2938C8.26853 25.2791 8.2605 25.2644 8.25224 25.2492C8.19623 25.2338 8.19623 25.2338 8.13747 25.2262C8.11475 25.211 8.09203 25.1958 8.06861 25.1801C8.06861 25.165 8.06861 25.1498 8.06861 25.1341C8.05576 25.1288 8.04314 25.1238 8.02983 25.1182C7.97658 25.0881 7.94008 25.0533 7.89808 25.0092C7.83473 24.9457 7.76633 24.8884 7.69885 24.8297C7.65547 24.7889 7.65547 24.7889 7.63252 24.7429C7.60979 24.7353 7.58707 24.7277 7.56366 24.7199C7.56366 24.7047 7.56366 24.6895 7.56366 24.6739C7.54094 24.6739 7.51821 24.6739 7.4948 24.6739C7.4948 24.6587 7.4948 24.6435 7.4948 24.6279C7.47208 24.6203 7.44936 24.6127 7.42594 24.6048C7.42594 24.5897 7.42594 24.5745 7.42594 24.5588C7.4124 24.5524 7.39886 24.5462 7.38486 24.5395C7.24852 24.4675 7.1473 24.3492 7.04906 24.2327C7.01096 24.1872 7.01096 24.1872 6.95679 24.1359C6.92099 24.0986 6.92099 24.0986 6.92099 24.0526C6.89826 24.045 6.87554 24.0374 6.85213 24.0295C6.80623 23.9605 6.80622 23.9605 6.80622 23.8915C6.79108 23.8915 6.77593 23.8915 6.76032 23.8915C6.74196 23.8692 6.72337 23.8468 6.70432 23.8238C6.65221 23.749 6.65221 23.749 6.5767 23.7304C6.56729 23.7143 6.55788 23.6982 6.54801 23.6816C6.50142 23.6045 6.44518 23.5511 6.38 23.4899C6.34717 23.4542 6.34717 23.4542 6.34717 23.4082C6.32445 23.4006 6.30173 23.393 6.27832 23.3852C6.251 23.3263 6.251 23.3263 6.23241 23.2701C6.21726 23.2701 6.20211 23.2701 6.18651 23.2701C6.0947 23.1457 6.0947 23.1457 6.0947 23.0861C6.07197 23.0785 6.04925 23.0709 6.02584 23.063C6.02584 23.0403 6.02584 23.0175 6.02584 22.994C6.01069 22.994 5.99554 22.994 5.97993 22.994C5.97993 22.9712 5.97993 22.9484 5.97993 22.925C5.96479 22.925 5.94964 22.925 5.93403 22.925C5.91085 22.8868 5.88789 22.8483 5.86517 22.8099C5.84268 22.7828 5.81973 22.7558 5.79631 22.7294C5.74192 22.6675 5.69991 22.6053 5.6586 22.5338C5.64299 22.5142 5.62738 22.4949 5.61132 22.4749C5.55554 22.4044 5.52616 22.3423 5.49793 22.2576C5.47521 22.25 5.45248 22.2424 5.42907 22.2346C5.41347 22.1886 5.39832 22.1426 5.38317 22.0965C5.3531 22.0576 5.32257 22.0194 5.29136 21.9815C5.24155 21.8938 5.2225 21.8535 5.2225 21.7514C5.30054 21.6708 5.36435 21.6467 5.47498 21.6363C5.47498 21.6211 5.47498 21.6059 5.47498 21.5903C5.52042 21.5751 5.56587 21.5599 5.61269 21.5442C5.61269 21.5291 5.61269 21.5139 5.61269 21.4982C5.66571 21.4906 5.71873 21.483 5.77336 21.4752C5.77336 21.4524 5.77336 21.4296 5.77336 21.4062C5.79402 21.4027 5.79402 21.4027 5.81491 21.399C5.87275 21.3809 5.89248 21.3574 5.93403 21.3141C5.97856 21.2897 5.97856 21.2897 6.02584 21.2681C6.04145 21.2596 6.05705 21.2511 6.07312 21.2423C6.11765 21.2221 6.11765 21.2221 6.18651 21.2221C6.19408 21.1993 6.20166 21.1765 6.20946 21.153C6.23218 21.153 6.25491 21.153 6.27832 21.153C6.28589 21.1303 6.29347 21.1075 6.30127 21.084C6.34052 21.0665 6.37977 21.0495 6.4197 21.0338C6.48007 21.0069 6.52574 20.9646 6.5767 20.9229C6.61434 20.9064 6.65267 20.8909 6.69146 20.8769C6.74242 20.8571 6.74242 20.8571 6.78327 20.8309C6.79085 20.8081 6.79842 20.7853 6.80622 20.7618C6.8138 20.777 6.82137 20.7922 6.82918 20.8079C6.83675 20.7927 6.84433 20.7775 6.85213 20.7618C6.87485 20.7542 6.89758 20.7467 6.92099 20.7388C6.93132 20.728 6.94187 20.717 6.95266 20.7057C6.9988 20.6613 7.04516 20.6465 7.10461 20.6238C7.11976 20.6086 7.13491 20.5934 7.15051 20.5777C7.19917 20.5635 7.19917 20.5635 7.24232 20.5547C7.23475 20.5395 7.22717 20.5244 7.21937 20.5087C7.24026 20.502 7.26091 20.4954 7.28249 20.4885C7.36925 20.4585 7.43145 20.4314 7.50192 20.372C7.57215 20.3182 7.6433 20.2901 7.72433 20.2556C7.74774 20.233 7.77069 20.21 7.79318 20.1865C7.83151 20.1711 7.86962 20.1559 7.90795 20.1405C7.92034 20.1281 7.93251 20.1159 7.94513 20.1032C7.95569 20.0927 7.96602 20.0823 7.9768 20.0715C7.99953 20.0715 8.02225 20.0715 8.04566 20.0715C8.05324 20.0563 8.06081 20.0411 8.06861 20.0255C8.09914 20.01 8.1299 19.9949 8.16042 19.9794C8.168 19.9642 8.17557 19.9491 8.18338 19.9334C8.22882 19.9334 8.27427 19.9334 8.32109 19.9334C8.32867 19.9106 8.33624 19.8878 8.34405 19.8644C8.37985 19.8255 8.37985 19.8255 8.4129 19.7953C8.45881 19.8183 8.45881 19.8183 8.48176 19.8414C8.48176 19.8186 8.48176 19.7958 8.48176 19.7723C8.56003 19.7146 8.64174 19.6853 8.73424 19.6573C8.73424 19.6421 8.73424 19.6269 8.73424 19.6112C8.78726 19.6036 8.84028 19.5961 8.89491 19.5882C8.89491 19.573 8.89491 19.5579 8.89491 19.5422C8.92681 19.5125 8.92681 19.5125 8.9695 19.4819C8.98327 19.4716 8.99727 19.4612 9.0115 19.4506C9.05557 19.4271 9.05557 19.4271 9.14738 19.4271C9.14738 19.412 9.14738 19.3968 9.14738 19.3811C9.19283 19.3735 9.23828 19.3659 9.2851 19.3581C9.2851 19.3353 9.2851 19.3125 9.2851 19.2891C9.34638 19.244 9.40216 19.2193 9.47446 19.1956C9.54079 19.1811 9.54079 19.1811 9.56053 19.128C9.63076 19.1135 9.63076 19.1135 9.69825 19.105C9.69067 19.0822 9.6831 19.0594 9.67529 19.0359C9.71316 19.0359 9.75104 19.0359 9.79005 19.0359C9.79786 19.0138 9.79786 19.0138 9.80589 18.9913C9.83596 18.9439 9.83596 18.9439 9.8961 18.9266C9.92318 18.9239 9.92318 18.9239 9.95072 18.9209C9.95072 18.9057 9.95072 18.8905 9.95072 18.8749C10.0037 18.8673 10.0568 18.8597 10.1114 18.8518C10.119 18.8291 10.1265 18.8063 10.1343 18.7828C10.1571 18.7828 10.1798 18.7828 10.2032 18.7828C10.211 18.7607 10.211 18.7607 10.219 18.7382C10.2491 18.6908 10.2491 18.6908 10.3021 18.6779C10.3226 18.6744 10.343 18.6712 10.3639 18.6677C10.4483 18.6261 10.4483 18.6261 10.5016 18.5527C10.5154 18.5499 10.5291 18.5469 10.5431 18.5439C10.598 18.5327 10.598 18.5327 10.6407 18.4823C10.6627 18.4602 10.6627 18.4602 10.6852 18.4376C10.7079 18.4376 10.7306 18.4376 10.7541 18.4376C10.7616 18.4224 10.7692 18.4073 10.777 18.3916C10.8225 18.3748 10.8684 18.3594 10.9147 18.3456C10.9147 18.3304 10.9147 18.3152 10.9147 18.2996C10.945 18.2996 10.9753 18.2996 11.0065 18.2996C11.0141 18.2768 11.0217 18.254 11.0295 18.2305C11.0997 18.2031 11.0997 18.2031 11.1672 18.1845C11.1672 18.1693 11.1672 18.1541 11.1672 18.1385C11.1964 18.1274 11.2255 18.1164 11.2547 18.1053C11.279 18.0961 11.279 18.0961 11.304 18.0867C11.3423 18.0727 11.3809 18.0593 11.4197 18.0464C11.4273 18.0236 11.4348 18.0009 11.4426 17.9774C11.4881 17.9608 11.5342 17.9456 11.5804 17.9314C11.6451 17.8994 11.6451 17.8994 11.6951 17.8623C11.6951 17.8471 11.6951 17.832 11.6951 17.8163C11.7169 17.8096 11.7387 17.803 11.7612 17.7961C11.834 17.7756 11.834 17.7756 11.8787 17.7243C11.8943 17.7206 11.91 17.7167 11.926 17.7128C11.9407 17.7091 11.9554 17.7052 11.9705 17.7012C11.9781 17.6861 11.9857 17.6709 11.9935 17.6552C12.0389 17.6384 12.0848 17.623 12.1312 17.6092C12.1312 17.594 12.1312 17.5788 12.1312 17.5632C12.1491 17.5565 12.1672 17.5498 12.1858 17.5429C12.2483 17.5206 12.2483 17.5206 12.2919 17.4711C12.3522 17.4684 12.3522 17.4684 12.4066 17.4711C12.4066 17.4483 12.4066 17.4256 12.4066 17.4021C12.4369 17.4021 12.4672 17.4021 12.4985 17.4021C12.506 17.3869 12.5136 17.3717 12.5214 17.3561C12.5535 17.331 12.5866 17.3071 12.6203 17.2843C12.6382 17.2718 12.6561 17.2594 12.6747 17.2465C12.728 17.218 12.728 17.218 12.8198 17.218C12.8198 17.2028 12.8198 17.1876 12.8198 17.172C12.8577 17.1568 12.8955 17.1416 12.9346 17.1259C12.9346 17.1108 12.9346 17.0956 12.9346 17.0799C12.9525 17.0732 12.9706 17.0666 12.9892 17.0597C13.0516 17.0373 13.0516 17.0373 13.0952 16.9879C13.1556 16.9734 13.1556 16.9734 13.21 16.9649C13.21 16.9497 13.21 16.9345 13.21 16.9188C13.2554 16.9037 13.3009 16.8885 13.3477 16.8728C13.3477 16.8576 13.3477 16.8424 13.3477 16.8268C13.3856 16.8268 13.4234 16.8268 13.4625 16.8268C13.4703 16.8047 13.4703 16.8047 13.4783 16.7821C13.5084 16.7347 13.5084 16.7347 13.5685 16.7175C13.5956 16.7147 13.5956 16.7147 13.6231 16.7117C13.6231 16.6965 13.6231 16.6814 13.6231 16.6657C13.6534 16.6657 13.6837 16.6657 13.7149 16.6657C13.7225 16.6353 13.7301 16.605 13.7379 16.5737C13.7833 16.5737 13.8288 16.5737 13.8756 16.5737C13.8832 16.5509 13.8908 16.5281 13.8986 16.5046C13.9738 16.4683 14.0489 16.439 14.1281 16.4126C14.1357 16.3898 14.1432 16.367 14.151 16.3435C14.1965 16.3359 14.2419 16.3284 14.2888 16.3205C14.2888 16.3053 14.2888 16.2902 14.2888 16.2745C14.3342 16.2593 14.3796 16.2441 14.4265 16.2285C14.4265 16.2133 14.4265 16.1981 14.4265 16.1825C14.4719 16.1673 14.5174 16.1521 14.5642 16.1364C14.5642 16.1212 14.5642 16.1061 14.5642 16.0904C14.6021 16.0904 14.6399 16.0904 14.6789 16.0904C14.6865 16.0676 14.6941 16.0448 14.7019 16.0214C14.7721 15.994 14.7721 15.994 14.8396 15.9753C14.8396 15.9602 14.8396 15.945 14.8396 15.9293C14.8926 15.9217 14.9457 15.9141 15.0003 15.9063C14.9851 15.8987 14.97 15.8911 14.9544 15.8833C14.9544 15.8681 14.9544 15.8529 14.9544 15.8373C14.9757 15.835 14.9971 15.8324 15.0189 15.8301C15.0971 15.8131 15.1095 15.8014 15.1609 15.7452C15.2213 15.7181 15.2817 15.6971 15.3446 15.6762C15.3521 15.6534 15.3597 15.6306 15.3675 15.6072C15.413 15.5906 15.4591 15.5754 15.5052 15.5611C15.5801 15.5215 15.645 15.4732 15.7118 15.4217C15.7788 15.3704 15.8385 15.3361 15.9184 15.308C15.9817 15.2756 15.9817 15.2756 16.0331 15.239C16.0331 15.2238 16.0331 15.2086 16.0331 15.1929C16.0586 15.1902 16.0586 15.1902 16.0848 15.1872C16.1596 15.1667 16.1895 15.1356 16.2397 15.0779C16.2624 15.0855 16.2852 15.0931 16.3086 15.1009C16.3086 15.0629 16.3086 15.025 16.3086 14.9858C16.2934 14.9858 16.2783 14.9858 16.2627 14.9858C16.2574 14.9697 16.2523 14.9536 16.2468 14.937C16.2172 14.8719 16.1812 14.8289 16.1346 14.7755C16.0795 14.703 16.0405 14.6218 15.9983 14.5412C15.9544 14.4616 15.9035 14.3914 15.8495 14.3185C15.8142 14.261 15.7802 14.2027 15.7462 14.1443C15.7293 14.1153 15.7293 14.1153 15.7118 14.0856C15.7003 14.066 15.6891 14.0465 15.6774 14.0262C15.6457 13.9738 15.6457 13.9738 15.6071 13.9376C15.5576 13.8877 15.5355 13.8281 15.5066 13.7648C15.4809 13.7179 15.4513 13.6884 15.4134 13.6511C15.398 13.6127 15.3829 13.5745 15.3675 13.5361C15.3567 13.5253 15.3457 13.5142 15.3345 13.5029C15.2987 13.467 15.2987 13.467 15.27 13.4081C15.2227 13.3149 15.1639 13.2348 15.102 13.1511C15.0691 13.0988 15.0691 13.0988 15.0691 13.0298C15.054 13.0298 15.0388 13.0298 15.0232 13.0298C14.9601 12.9474 14.9206 12.8805 14.9085 12.7767C14.8857 12.7691 14.863 12.7615 14.8396 12.7537C14.8033 12.6782 14.7742 12.6029 14.7478 12.5235C14.7251 12.516 14.7024 12.5084 14.6789 12.5005C14.6425 12.4375 14.614 12.3806 14.5986 12.3093C14.5949 12.2964 14.591 12.2835 14.5871 12.2704C14.5644 12.2628 14.5417 12.2552 14.5183 12.2474C14.5027 12.2092 14.4873 12.1708 14.4724 12.1323C14.4496 12.1172 14.4269 12.102 14.4035 12.0863C14.3877 12.0143 14.3877 12.0143 14.3806 11.9482C14.3578 11.9407 14.3351 11.9331 14.3117 11.9252C14.3193 11.91 14.3269 11.8949 14.3347 11.8792C14.3195 11.8716 14.3044 11.864 14.2888 11.8562C14.2731 11.8258 14.2578 11.795 14.2428 11.7642C14.2305 11.748 14.2183 11.7319 14.2057 11.7154C14.174 11.6721 14.174 11.6721 14.174 11.6261C14.1588 11.6185 14.1437 11.6109 14.1281 11.6031C14.1122 11.5727 14.0971 11.5419 14.0822 11.511C14.0666 11.4878 14.051 11.4645 14.0349 11.4406C13.9904 11.3729 13.9904 11.3729 13.9674 11.3039C13.9454 11.2825 13.9454 11.2825 13.9229 11.2606C13.8717 11.2077 13.8559 11.1649 13.8297 11.0968C13.7971 11.0604 13.7971 11.0604 13.7608 11.0278C13.7209 10.9797 13.6936 10.9399 13.6709 10.8812C13.6468 10.8223 13.6192 10.7762 13.583 10.7242C13.5178 10.6287 13.4586 10.5309 13.4005 10.4311C13.3716 10.3809 13.3716 10.3809 13.3247 10.3374C13.3247 10.3146 13.3247 10.2918 13.3247 10.2684C13.3096 10.2608 13.2944 10.2532 13.2788 10.2454C13.2552 10.2136 13.2329 10.1807 13.2114 10.1476C13.1992 10.1287 13.187 10.11 13.1744 10.0905C13.1237 10.0106 13.0759 9.93009 13.0307 9.84702C12.9958 9.78512 12.9568 9.73012 12.913 9.67443C12.8363 9.57456 12.728 9.43212 12.728 9.30187C12.7128 9.30187 12.6977 9.30187 12.6821 9.30187C12.6821 9.28668 12.6821 9.27149 12.6821 9.25584C12.6594 9.24825 12.6366 9.24066 12.6132 9.23283C12.5976 9.18681 12.5825 9.14078 12.5673 9.09476C12.5377 9.05564 12.5069 9.01744 12.4755 8.9797C12.4457 8.93414 12.4174 8.88788 12.3892 8.8414C12.3633 8.79975 12.3359 8.75948 12.3077 8.71943C12.2689 8.65753 12.2689 8.65753 12.2689 8.5885C12.2538 8.5885 12.2386 8.5885 12.223 8.5885C12.1856 8.53097 12.1535 8.47113 12.1207 8.41107C12.0885 8.3517 12.0885 8.3517 12.0165 8.33536C12.0165 8.31258 12.0165 8.2898 12.0165 8.26633C11.9891 8.22744 11.9616 8.18878 11.9334 8.15081C11.8099 7.97339 11.8099 7.97339 11.8099 7.87512C11.7947 7.87512 11.7796 7.87512 11.764 7.87512C11.7392 7.81414 11.716 7.75362 11.6951 7.69103C11.68 7.69103 11.6648 7.69103 11.6492 7.69103C11.6492 7.66825 11.6492 7.64546 11.6492 7.62199C11.6341 7.62199 11.6189 7.62199 11.6033 7.62199C11.5914 7.60059 11.5797 7.57919 11.5675 7.55733C11.4888 7.41903 11.4013 7.28579 11.315 7.15232C11.3045 7.13598 11.2941 7.11964 11.2833 7.10284C11.2742 7.08857 11.265 7.07431 11.2556 7.05958C11.2361 7.02368 11.2361 7.02368 11.2361 6.97766C11.2209 6.97006 11.2058 6.96247 11.1902 6.95464C11.1902 6.93946 11.1902 6.92427 11.1902 6.90862C11.1798 6.89873 11.1693 6.8886 11.1585 6.87847C11.1135 6.8313 11.0967 6.78551 11.0754 6.72452C11.0602 6.72452 11.0451 6.72452 11.0295 6.72452C11.0203 6.69829 11.0203 6.69829 11.0109 6.67137C10.9879 6.60946 10.9879 6.60946 10.9464 6.57219C10.9358 6.5616 10.9255 6.55124 10.9147 6.54043C10.9147 6.51765 10.9147 6.49486 10.9147 6.47139C10.8996 6.47139 10.8844 6.47139 10.8688 6.47139C10.7671 6.30041 10.7671 6.30041 10.7541 6.21826C10.7389 6.21826 10.7238 6.21826 10.7082 6.21826C10.7082 6.18788 10.7082 6.15751 10.7082 6.12621C10.693 6.12621 10.6779 6.12621 10.6623 6.12621C10.6186 6.07697 10.5932 6.0337 10.5691 5.97226C10.5528 5.91542 10.5528 5.91542 10.5016 5.89609C10.4855 5.85766 10.4694 5.819 10.4538 5.78034C10.4249 5.71798 10.3861 5.6662 10.3453 5.6112C10.3097 5.56242 10.2796 5.51087 10.2491 5.45886C10.234 5.43608 10.2188 5.4133 10.2032 5.38983C10.0832 5.20918 10.0832 5.20918 10.0655 5.11368C10.0503 5.11368 10.0352 5.11368 10.0196 5.11368C10.0097 5.09228 10.0097 5.09228 9.99938 5.07042C9.97505 5.01864 9.97505 5.01864 9.92777 4.97561C9.92066 4.94846 9.91354 4.92153 9.90619 4.89369C9.89816 4.86746 9.89013 4.84145 9.88186 4.81453C9.85914 4.80693 9.83642 4.79934 9.81301 4.79152C9.78592 4.75217 9.78592 4.75217 9.75999 4.70085C9.7173 4.62008 9.67323 4.54069 9.62663 4.46221C9.61011 4.4346 9.61011 4.4346 9.59335 4.4063C9.56145 4.35383 9.56145 4.35383 9.52335 4.30573C9.49167 4.26224 9.49167 4.26224 9.46872 4.1932C9.446 4.16996 9.42281 4.14718 9.39986 4.12417C9.37301 4.08045 9.37301 4.08045 9.3496 4.0335C9.34179 4.01808 9.33376 4.00267 9.32572 3.98702C9.30805 3.94007 9.30805 3.94007 9.30805 3.84802C9.39412 3.802 9.39412 3.802 9.44577 3.802C9.45334 3.78681 9.46092 3.77162 9.46872 3.75598C9.49925 3.74056 9.53 3.72537 9.56053 3.70995C9.5681 3.69476 9.57568 3.67958 9.58348 3.66393C9.62939 3.64828 9.67529 3.63286 9.7212 3.6179C9.73635 3.60272 9.75149 3.58753 9.7671 3.57188C9.81576 3.55761 9.81576 3.55761 9.85891 3.54887C9.85134 3.53368 9.84376 3.51849 9.83596 3.50284C9.85639 3.49617 9.85639 3.49617 9.87704 3.48927C9.97161 3.4582 10.0655 3.42645 10.1573 3.38778C10.1573 3.3726 10.1573 3.35741 10.1573 3.34176C10.1747 3.33946 10.1924 3.33693 10.2103 3.33463C10.2727 3.32427 10.2727 3.32427 10.3065 3.28285C10.3409 3.24971 10.3409 3.24971 10.4027 3.24534C10.4288 3.24764 10.4288 3.24764 10.4557 3.24971C10.4633 3.22693 10.4708 3.20415 10.4786 3.18068C10.5468 3.1694 10.5468 3.1694 10.6163 3.15767C10.6239 3.13488 10.6315 3.1121 10.6393 3.08863C10.6847 3.08863 10.7302 3.08863 10.777 3.08863C10.777 3.06585 10.777 3.04307 10.777 3.01959C10.8567 3.00832 10.8567 3.00832 10.9377 2.99658C10.9453 2.9738 10.9528 2.95102 10.9606 2.92755C11.0628 2.91627 11.0628 2.91627 11.1672 2.90453C11.1672 2.88935 11.1672 2.87416 11.1672 2.85851C11.2581 2.83573 11.2581 2.83573 11.3508 2.81248C11.3508 2.7973 11.3508 2.78211 11.3508 2.76646C11.3719 2.76232 11.3719 2.76232 11.3935 2.75795C11.4215 2.75219 11.4215 2.75219 11.4498 2.74621C11.4681 2.74253 11.4865 2.73885 11.5055 2.73493C11.5631 2.72182 11.5631 2.72182 11.6263 2.67441C11.6644 2.66567 11.7025 2.65761 11.741 2.6514C11.741 2.63621 11.741 2.62103 11.741 2.60538C11.7766 2.60193 11.7766 2.60193 11.8126 2.59824C11.9017 2.58237 11.9602 2.55567 12.0394 2.51333C12.0853 2.49768 12.1312 2.48226 12.1771 2.46731C12.1847 2.45971 12.1923 2.45212 12.2001 2.44429C12.2425 2.43532 12.285 2.42726 12.3277 2.4199C12.3626 2.41369 12.3626 2.41369 12.3982 2.40747C12.4161 2.40448 12.434 2.40149 12.4525 2.39827C12.4525 2.38308 12.4525 2.36789 12.4525 2.35225C12.481 2.34948 12.5095 2.34649 12.5386 2.3435C12.593 2.33821 12.6309 2.33199 12.6793 2.30622C12.7436 2.27585 12.8007 2.27354 12.8714 2.26894C12.8962 2.2671 12.921 2.26549 12.9465 2.26365C12.9653 2.2625 12.9841 2.26135 13.0034 2.2602C13.0034 2.24501 13.0034 2.22982 13.0034 2.21417C13.0229 2.21141 13.0427 2.20865 13.0629 2.20566C13.101 2.19991 13.101 2.19991 13.1397 2.19392C13.165 2.19024 13.1902 2.18656 13.2164 2.18265C13.2371 2.17781 13.2575 2.17321 13.2788 2.16815C13.2864 2.15296 13.294 2.13777 13.3018 2.12213C13.3555 2.11131 13.4097 2.10303 13.4638 2.09635C13.4934 2.09244 13.5231 2.08853 13.5536 2.08462C13.588 2.08047 13.588 2.08047 13.6231 2.0761C13.6231 2.06091 13.6231 2.04573 13.6231 2.03008C13.6488 2.02893 13.6745 2.02778 13.7009 2.02663C13.7349 2.02501 13.7686 2.02317 13.8024 2.02133C13.8194 2.02064 13.8364 2.01995 13.8538 2.01926C13.9403 2.01466 13.9858 2.01029 14.0592 1.96104C14.1063 1.9523 14.1063 1.9523 14.1598 1.94815C14.179 1.94631 14.1983 1.9447 14.2181 1.94286C14.2587 1.93964 14.2991 1.93642 14.3397 1.9332C14.3588 1.93136 14.378 1.92974 14.3978 1.9279C14.4155 1.92652 14.4331 1.92514 14.4513 1.92376C14.5006 1.91824 14.5006 1.91824 14.5412 1.86899C14.6096 1.86163 14.6096 1.86163 14.6964 1.85956C14.7115 1.8591 14.7267 1.85864 14.7425 1.85818C14.7912 1.8568 14.8398 1.85565 14.8883 1.85473C14.9213 1.85381 14.9544 1.85288 14.9872 1.85196C15.0682 1.84966 15.149 1.84782 15.2298 1.84598C15.2298 1.83079 15.2298 1.81561 15.2298 1.79996ZM14.5412 12.2014C14.5642 12.2474 14.5642 12.2474 14.5642 12.2474L14.5412 12.2014ZM14.7019 12.4545C14.7248 12.5005 14.7249 12.5005 14.7249 12.5005L14.7019 12.4545ZM27.9226 21.3371C27.9301 21.3523 27.9377 21.3675 27.9455 21.3832C27.9531 21.368 27.9607 21.3528 27.9685 21.3371C27.9533 21.3371 27.9382 21.3371 27.9226 21.3371ZM27.1422 22.6488C27.1651 22.6948 27.1651 22.6948 27.1651 22.6948L27.1422 22.6488ZM26.5684 23.3852C26.5913 23.4312 26.5913 23.4312 26.5913 23.4312L26.5684 23.3852ZM25.8798 24.1216C25.9027 24.1676 25.9027 24.1676 25.9027 24.1676L25.8798 24.1216ZM25.5355 24.4668C25.5584 24.5128 25.5584 24.5128 25.5584 24.5128L25.5355 24.4668ZM24.8928 25.0191C24.8928 25.0418 24.8928 25.0646 24.8928 25.0881C24.908 25.0805 24.9231 25.0729 24.9387 25.0651C24.9236 25.0499 24.9084 25.0347 24.8928 25.0191ZM23.0107 26.3307C23.0337 26.3768 23.0337 26.3768 23.0337 26.3768L23.0107 26.3307Z" fill="#FADB06"/>
<path d="M6.25537 3.34176C6.39469 3.3986 6.47342 3.50492 6.5308 3.64092C6.5308 3.65611 6.5308 3.6713 6.5308 3.68694C6.54595 3.68694 6.5611 3.68694 6.57671 3.68694C6.57671 3.70213 6.57671 3.71732 6.57671 3.73297C6.59186 3.73297 6.60701 3.73297 6.62261 3.73297C6.63202 3.75667 6.64143 3.78037 6.6513 3.80477C6.694 3.90487 6.75138 3.99093 6.81771 4.07677C6.85719 4.13108 6.88886 4.18815 6.92168 4.24706C6.94854 4.29331 6.98021 4.33473 7.01281 4.3773C7.08166 4.48477 7.08166 4.48477 7.08166 4.53839C7.09681 4.54598 7.11196 4.55358 7.12757 4.5614C7.19643 4.66495 7.19643 4.66495 7.19643 4.72248C7.21433 4.73905 7.23246 4.75562 7.25105 4.77288C7.31968 4.84675 7.33139 4.90267 7.35709 4.99863C7.37982 5.00622 7.40254 5.01382 7.42595 5.02164C7.45304 5.06191 7.45303 5.06191 7.47897 5.11369C7.55173 5.25153 7.63229 5.38247 7.73443 5.50052C7.77024 5.55092 7.77024 5.55092 7.7645 5.60407C7.75876 5.61696 7.75303 5.62985 7.74729 5.64296C7.76106 5.64872 7.77483 5.65447 7.78883 5.66022C7.8469 5.69336 7.87353 5.7242 7.90795 5.78104C7.90795 5.80382 7.90795 5.8266 7.90795 5.85007C7.9231 5.85007 7.93825 5.85007 7.95386 5.85007C7.96052 5.86434 7.96717 5.87861 7.97406 5.89333C7.99839 5.94511 7.99839 5.94511 8.04567 5.98814C8.11453 6.11563 8.11453 6.11563 8.11453 6.17224C8.12968 6.17224 8.14482 6.17224 8.16043 6.17224C8.21621 6.24979 8.22929 6.28109 8.22929 6.37935C8.24444 6.37935 8.25959 6.37935 8.2752 6.37935C8.28369 6.41778 8.28369 6.41778 8.29241 6.45713C8.31146 6.54181 8.31146 6.54181 8.36838 6.56782C8.38307 6.57403 8.39776 6.58001 8.41291 6.58646C8.43013 6.63524 8.43012 6.63524 8.43586 6.6785C8.45101 6.6785 8.46616 6.6785 8.48177 6.6785C8.48177 6.71647 8.48177 6.75444 8.48177 6.79356C8.49646 6.79932 8.51115 6.80507 8.5263 6.81082C8.57358 6.83959 8.57358 6.83959 8.59079 6.88837C8.59263 6.90264 8.59469 6.91691 8.59653 6.93164C8.61168 6.93164 8.62683 6.93164 8.64244 6.93164C8.64244 6.96961 8.64244 7.00758 8.64244 7.0467C8.65713 7.05337 8.67182 7.06004 8.68696 7.06695C8.73425 7.09272 8.73425 7.09272 8.7572 7.13874C8.74962 7.16153 8.74205 7.18431 8.73425 7.20778C8.75697 7.21537 8.77969 7.22297 8.8031 7.23079C8.8031 7.24598 8.8031 7.26117 8.8031 7.27682C8.81825 7.27682 8.8334 7.27682 8.84901 7.27682C8.85842 7.30144 8.86783 7.32629 8.8777 7.3516C8.91006 7.428 8.95 7.47196 9.00968 7.52995C9.03309 7.57574 9.05604 7.62177 9.07853 7.66802C9.09483 7.6839 9.09483 7.6839 9.11136 7.70024C9.15359 7.7435 9.17884 7.78745 9.20753 7.84061C9.2174 7.85833 9.22727 7.87628 9.23714 7.89446C9.26215 7.94416 9.26215 7.94416 9.28511 8.0132C9.30025 8.02079 9.3154 8.02839 9.33101 8.03621C9.33101 8.0514 9.33101 8.06659 9.33101 8.08224C9.34547 8.1133 9.36085 8.14391 9.37692 8.17428C9.39207 8.17428 9.40721 8.17428 9.42282 8.17428C9.43223 8.19891 9.44164 8.22353 9.45151 8.24907C9.4763 8.30752 9.49329 8.33698 9.53896 8.38277C9.59428 8.43823 9.60507 8.49208 9.62939 8.56549C9.65212 8.57308 9.67484 8.58068 9.69825 8.5885C9.73934 8.65293 9.73934 8.65293 9.78134 8.73371C9.79557 8.76017 9.80957 8.78663 9.82403 8.81402C9.85892 8.88766 9.85892 8.88766 9.87086 8.94035C9.88004 8.98914 9.88004 8.98914 9.95073 9.02573C9.95073 9.04092 9.95073 9.0561 9.95073 9.07175C9.96588 9.07175 9.98103 9.07175 9.99664 9.07175C10.0019 9.09591 10.007 9.12008 10.0125 9.14516C10.0384 9.23721 10.0855 9.28461 10.1573 9.3479C10.2172 9.40151 10.2298 9.43212 10.2491 9.50898C10.2599 9.51887 10.2709 9.529 10.2822 9.53912C10.3359 9.59735 10.3453 9.66339 10.3639 9.7391C10.379 9.7391 10.3942 9.7391 10.4098 9.7391C10.416 9.7651 10.4222 9.79134 10.4284 9.81826C10.4373 9.84518 10.4465 9.87234 10.4557 9.90018C10.4784 9.90778 10.5011 9.91537 10.5245 9.9232C10.5523 9.96508 10.5523 9.96508 10.5792 10.018C10.6164 10.0896 10.6549 10.154 10.7038 10.218C10.7541 10.2914 10.7541 10.2914 10.7541 10.3834C10.7678 10.3887 10.7816 10.394 10.7956 10.3995C10.8587 10.4371 10.8792 10.4748 10.9147 10.5388C10.9267 10.5595 10.9384 10.5802 10.9505 10.6016C10.9668 10.6304 10.9668 10.6304 10.9836 10.6596C10.9987 10.6824 11.0139 10.7051 11.0295 10.7286C11.083 10.8089 11.1312 10.892 11.1796 10.9755C11.2104 11.0275 11.2104 11.0275 11.2489 11.0634C11.2985 11.1134 11.3205 11.1727 11.3495 11.2363C11.3717 11.2818 11.3717 11.2818 11.4073 11.3145C11.4502 11.3575 11.4745 11.4026 11.5028 11.4563C11.5356 11.5225 11.5356 11.5225 11.5804 11.5801C11.5813 11.6185 11.5813 11.6567 11.5804 11.6951C11.5937 11.6995 11.6068 11.7036 11.6205 11.708C11.682 11.7476 11.7043 11.7922 11.7378 11.8562C11.7667 11.9068 11.7998 11.9512 11.8356 11.997C11.8865 12.0633 11.9185 12.1229 11.9476 12.2014C11.9825 12.2421 11.9825 12.2421 12.0165 12.2704C12.0089 12.2856 12.0013 12.3008 11.9935 12.3164C12.0087 12.324 12.0238 12.3316 12.0394 12.3395C12.069 12.3795 12.069 12.3795 12.0995 12.4287C12.1149 12.4527 12.1149 12.4527 12.1308 12.4773C12.1542 12.5236 12.1542 12.5236 12.1542 12.5926C12.1769 12.5926 12.1996 12.5926 12.223 12.5926C12.2322 12.6098 12.2414 12.6271 12.2508 12.6448C12.263 12.6674 12.2751 12.6902 12.2875 12.7134C12.3057 12.747 12.3057 12.747 12.3238 12.7813C12.3582 12.8455 12.3582 12.8455 12.4011 12.8957C12.4106 12.9097 12.42 12.9235 12.4296 12.9378C12.422 12.9605 12.4145 12.9833 12.4067 13.0068C12.4294 13.0068 12.4521 13.0068 12.4755 13.0068C12.537 13.0876 12.5558 13.1601 12.5673 13.2599C12.59 13.2675 12.6128 13.2751 12.6362 13.2829C12.6679 13.328 12.6984 13.3743 12.728 13.421C12.7436 13.4406 12.7592 13.4599 12.7753 13.4799C12.848 13.5717 12.8887 13.6235 12.8887 13.7432C12.9038 13.7432 12.919 13.7432 12.9346 13.7432C12.9346 13.7584 12.9346 13.7736 12.9346 13.7892C12.9573 13.7968 12.98 13.8044 13.0034 13.8122C13.0484 13.8808 13.0493 13.9103 13.0493 13.9963C13.0645 13.9963 13.0796 13.9963 13.0952 13.9963C13.1728 14.0548 13.2056 14.1436 13.2458 14.2292C13.2887 14.3371 13.2887 14.3371 13.3707 14.4105C13.3734 14.4883 13.3734 14.4883 13.3707 14.5716C13.3555 14.5868 13.3404 14.602 13.3248 14.6176C13.2945 14.6176 13.2642 14.6176 13.2329 14.6176C13.2329 14.6328 13.2329 14.648 13.2329 14.6637C13.2178 14.6637 13.2026 14.6637 13.187 14.6637C13.1795 14.6864 13.1719 14.7092 13.1641 14.7327C13.1262 14.7251 13.0883 14.7175 13.0493 14.7097C13.0569 14.7325 13.0645 14.7553 13.0723 14.7787C13.042 14.7787 13.0117 14.7787 12.9805 14.7787C12.9805 14.7939 12.9805 14.8091 12.9805 14.8247C12.9685 14.8303 12.9566 14.8358 12.9444 14.8415C12.8675 14.8786 12.8017 14.9129 12.7351 14.9672C12.6777 15.0123 12.6392 15.0236 12.5673 15.0319C12.5673 15.047 12.5673 15.0622 12.5673 15.0779C12.5143 15.0931 12.4613 15.1083 12.4067 15.1239C12.4067 15.1391 12.4067 15.1543 12.4067 15.1699C12.3915 15.1748 12.3764 15.1794 12.3607 15.1842C12.2816 15.2208 12.221 15.2689 12.1523 15.3223C12.1021 15.3586 12.0513 15.3782 11.9935 15.4001C11.9747 15.4157 11.9556 15.4313 11.9361 15.4475C11.876 15.4942 11.8386 15.5066 11.764 15.5151C11.764 15.5303 11.764 15.5455 11.764 15.5611C11.7516 15.5669 11.739 15.5729 11.7263 15.5789C11.7098 15.5867 11.6933 15.5947 11.6765 15.6028C11.6602 15.6106 11.6439 15.6184 11.6272 15.6263C11.5799 15.6534 11.5498 15.6836 11.5115 15.7222C11.4583 15.7459 11.4048 15.7689 11.3508 15.7913C11.2875 15.826 11.2345 15.8617 11.1787 15.9077C11.1218 15.9521 11.0729 15.9717 11.0065 15.9984C10.9682 16.029 10.9299 16.0596 10.8918 16.0904C10.8461 16.1139 10.8002 16.1369 10.7541 16.1594C10.7389 16.1746 10.7238 16.1898 10.7082 16.2055C10.6779 16.2055 10.6476 16.2055 10.6164 16.2055C10.6164 16.2207 10.6164 16.2358 10.6164 16.2515C10.5936 16.2515 10.5709 16.2515 10.5475 16.2515C10.5475 16.2667 10.5475 16.2819 10.5475 16.2975C10.5248 16.2975 10.5021 16.2975 10.4786 16.2975C10.4711 16.3127 10.4635 16.3279 10.4557 16.3435C10.4254 16.3435 10.3951 16.3435 10.3639 16.3435C10.3563 16.3663 10.3487 16.3891 10.3409 16.4126C10.306 16.4395 10.306 16.4395 10.2633 16.463C10.2496 16.4708 10.2356 16.4789 10.2213 16.4869C10.1803 16.5046 10.1803 16.5046 10.1114 16.5046C10.1114 16.5198 10.1114 16.535 10.1114 16.5507C10.091 16.5559 10.0708 16.561 10.0497 16.5665C9.97047 16.5918 9.97047 16.5918 9.9163 16.6556C9.84997 16.7205 9.81187 16.7283 9.7212 16.7347C9.71363 16.7575 9.70606 16.7803 9.69825 16.8038C9.65281 16.8114 9.60736 16.819 9.56054 16.8268C9.55296 16.8496 9.54539 16.8724 9.53758 16.8958C9.45289 16.9619 9.41731 16.9879 9.30806 16.9879C9.30806 17.0031 9.30806 17.0183 9.30806 17.0339C9.29291 17.0339 9.27776 17.0339 9.26215 17.0339C9.26215 17.0491 9.26215 17.0643 9.26215 17.0799C9.22428 17.0799 9.18641 17.0799 9.14739 17.0799C9.13982 17.1027 9.13224 17.1255 9.12444 17.149C9.08955 17.1759 9.08955 17.1759 9.04686 17.1994C9.03309 17.2072 9.01909 17.2152 9.00486 17.2233C8.96377 17.241 8.96377 17.241 8.89491 17.241C8.89491 17.2562 8.89491 17.2714 8.89491 17.287C8.84189 17.3022 8.78887 17.3174 8.73425 17.3331C8.73425 17.3482 8.73425 17.3634 8.73425 17.3791C8.68903 17.4122 8.64427 17.4419 8.59653 17.4711C8.58276 17.4799 8.56899 17.4886 8.55476 17.4976C8.47649 17.5455 8.43816 17.5632 8.34405 17.5632C8.339 17.577 8.33395 17.5906 8.32867 17.6048C8.28851 17.6711 8.24605 17.6904 8.17765 17.7256C8.14368 17.7436 8.14368 17.7436 8.10879 17.7615C8.06265 17.7848 8.01629 17.8071 7.9697 17.8292C7.91622 17.858 7.88087 17.8844 7.83634 17.9242C7.77024 17.9774 7.77024 17.9774 7.67843 17.9774C7.67843 17.9926 7.67843 18.0078 7.67843 18.0234C7.66604 18.0292 7.65341 18.0352 7.64079 18.0411C7.62426 18.049 7.60774 18.057 7.59098 18.0651C7.57468 18.0729 7.55839 18.0807 7.54163 18.0885C7.49389 18.1132 7.49389 18.1132 7.45969 18.1514C7.40529 18.2048 7.33758 18.2128 7.26528 18.2305C7.26528 18.2457 7.26528 18.2609 7.26528 18.2766C7.24164 18.2855 7.218 18.2945 7.19367 18.3039C7.11885 18.3355 7.06743 18.3771 7.00707 18.4314C6.92168 18.4936 6.7982 18.5527 6.69147 18.5527C6.68298 18.5748 6.68298 18.5748 6.67426 18.5973C6.64557 18.6447 6.64557 18.6447 6.59691 18.662C6.57556 18.6648 6.57556 18.6648 6.55375 18.6678C6.55375 18.6829 6.55375 18.6981 6.55375 18.7138C6.52346 18.7138 6.49316 18.7138 6.46195 18.7138C6.46195 18.729 6.46195 18.7442 6.46195 18.7598C6.40112 18.7847 6.34076 18.8079 6.27832 18.8288C6.27075 18.844 6.26318 18.8592 6.25537 18.8749C6.24022 18.8749 6.22507 18.8749 6.20947 18.8749C6.20947 18.89 6.20947 18.9052 6.20947 18.9209C6.19707 18.9271 6.18445 18.9331 6.17182 18.9393C6.1553 18.9476 6.13877 18.9556 6.12202 18.9641C6.10572 18.972 6.08943 18.98 6.07267 18.9883C6.02103 19.0145 6.02103 19.0145 5.95699 19.059C5.93427 19.0666 5.91154 19.0741 5.88813 19.082C5.85715 19.1043 5.82639 19.1273 5.79632 19.151C5.76166 19.1759 5.72678 19.2003 5.69166 19.2244C5.66526 19.2426 5.66526 19.2426 5.63841 19.2612C5.58975 19.2891 5.58975 19.2891 5.52089 19.2891C5.50345 19.307 5.48577 19.3252 5.46787 19.3438C5.39465 19.4154 5.32625 19.4502 5.22251 19.4502C5.21493 19.4729 5.20736 19.4957 5.19956 19.5192C5.18441 19.5192 5.16926 19.5192 5.15365 19.5192C5.14608 19.5344 5.1385 19.5496 5.1307 19.5652C5.10798 19.5576 5.08525 19.55 5.06184 19.5422C5.05427 19.565 5.04669 19.5878 5.03889 19.6112C4.96131 19.6681 4.93078 19.6803 4.83231 19.6803C4.82704 19.6943 4.82199 19.7081 4.81648 19.7226C4.77746 19.7871 4.73959 19.802 4.67165 19.8326C4.5842 19.8724 4.5842 19.8724 4.51098 19.9334C4.48068 19.9334 4.45039 19.9334 4.41917 19.9334C4.41159 19.9562 4.40402 19.979 4.39622 20.0024C4.31152 20.0685 4.27595 20.0945 4.16669 20.0945C4.16669 20.1097 4.16669 20.1249 4.16669 20.1405C4.14121 20.1463 4.11551 20.152 4.08911 20.1578C4.00465 20.1764 4.00465 20.1764 3.98169 20.2326C3.97458 20.2478 3.96746 20.2629 3.96012 20.2786C3.89264 20.306 3.89264 20.306 3.8224 20.3246C3.79968 20.3322 3.77696 20.3398 3.75355 20.3476C3.75355 20.3628 3.75355 20.378 3.75355 20.3937C3.72807 20.3994 3.70236 20.4052 3.67597 20.4109C3.59173 20.4307 3.59173 20.4307 3.55983 20.4885C3.55569 20.5027 3.55133 20.517 3.54697 20.5317C3.5091 20.5317 3.47123 20.5317 3.43221 20.5317C3.43221 20.5469 3.43221 20.5621 3.43221 20.5777C3.34797 20.6431 3.31125 20.6698 3.20269 20.6698C3.19741 20.6841 3.1919 20.6986 3.18639 20.7133C3.14829 20.7757 3.11983 20.7823 3.05074 20.8021C3.03192 20.8076 3.0131 20.8132 2.99382 20.8189C2.97936 20.8228 2.96513 20.8267 2.95021 20.8309C2.95021 20.8461 2.95021 20.8613 2.95021 20.8769C2.93781 20.8827 2.92519 20.8886 2.91256 20.8946C2.89604 20.9024 2.87951 20.9105 2.86276 20.9186C2.84646 20.9264 2.83017 20.9342 2.81341 20.942C2.76521 20.9669 2.76521 20.9669 2.73055 21.0067C2.69773 21.038 2.69773 21.038 2.62887 21.038C2.62887 21.0532 2.62887 21.0684 2.62887 21.084C2.59857 21.084 2.56828 21.084 2.53706 21.084C2.53706 21.0992 2.53706 21.1144 2.53706 21.13C2.51158 21.1363 2.48588 21.1425 2.45948 21.1487C2.37134 21.1682 2.37134 21.1682 2.33049 21.2451C2.19851 21.2251 2.19851 21.2251 2.14687 21.1991C2.13011 21.1459 2.11473 21.0921 2.10096 21.038C2.08581 21.038 2.07067 21.038 2.05506 21.038C2.04932 21.026 2.04335 21.0141 2.03738 21.0019C2.02958 20.9858 2.02155 20.9696 2.01351 20.9531C2.00571 20.9374 1.99791 20.9215 1.9901 20.9054C1.97174 20.8702 1.95246 20.8357 1.93203 20.8019C1.88291 20.7197 1.83862 20.6353 1.79386 20.5504C1.78491 20.5331 1.77573 20.5156 1.76632 20.4977C1.58017 20.1428 1.58017 20.1428 1.52302 19.9813C1.49226 19.9028 1.45301 19.8287 1.41445 19.7539C1.38163 19.6874 1.36648 19.64 1.36648 19.5652C1.35133 19.5652 1.33618 19.5652 1.32058 19.5652C1.31782 19.5523 1.31484 19.5397 1.31186 19.5263C1.29831 19.4713 1.29831 19.4713 1.27329 19.4143C1.25172 19.3581 1.25172 19.3581 1.25172 19.2891C1.23657 19.2891 1.22142 19.2891 1.20581 19.2891C1.19985 19.2702 1.19985 19.2702 1.19388 19.2511C1.16381 19.1568 1.13099 19.0656 1.08967 18.9757C1.04147 18.8696 1.01187 18.7626 0.982945 18.65C0.976978 18.6273 0.97101 18.6047 0.964813 18.5815C0.959304 18.5603 0.954025 18.5389 0.948287 18.517C0.931761 18.4556 0.931761 18.4556 0.884479 18.3916C0.881266 18.367 0.877823 18.3424 0.87438 18.3168C0.860608 18.2243 0.830541 18.1546 0.792669 18.0694C0.764437 17.9779 0.741714 17.8874 0.723811 17.7933C0.704302 17.6989 0.685022 17.6067 0.653577 17.5158C0.635215 17.4585 0.626722 17.4122 0.620525 17.3533C0.615016 17.2691 0.615016 17.2691 0.586096 17.2205C0.557176 17.1595 0.556028 17.1098 0.553044 17.0426C0.546847 16.9497 0.535141 16.8689 0.505762 16.7808C0.469727 16.6724 0.460546 16.5693 0.455496 16.4554C0.450906 16.3886 0.450905 16.3886 0.425658 16.3247C0.396508 16.2329 0.392836 16.1475 0.389622 16.0515C0.38572 15.9194 0.38572 15.9194 0.356571 15.7913C0.36667 15.7294 0.36667 15.7294 0.379523 15.6762C0.364375 15.6762 0.349226 15.6762 0.333618 15.6762C0.333618 14.8485 0.333618 14.0207 0.333618 13.1679C0.348767 13.1679 0.363916 13.1679 0.379523 13.1679C0.375162 13.138 0.371031 13.1081 0.36667 13.0772C0.359325 13.0264 0.359325 13.0264 0.356571 12.9838C0.364145 12.9762 0.371719 12.9686 0.379523 12.9608C0.383196 12.9283 0.385262 12.8957 0.386868 12.863C0.387786 12.8432 0.388704 12.8236 0.389622 12.8034C0.391 12.7723 0.390999 12.7723 0.392377 12.7408C0.393524 12.7201 0.394442 12.6991 0.395361 12.678C0.397885 12.6264 0.400181 12.5751 0.402476 12.5236C0.417624 12.5236 0.432773 12.5236 0.448381 12.5236C0.455955 12.4704 0.46353 12.4172 0.471333 12.3625C0.456185 12.3549 0.441036 12.3473 0.425428 12.3395C0.440577 12.3395 0.455726 12.3395 0.471333 12.3395C0.478908 12.2255 0.486482 12.1116 0.494286 11.9943C0.509435 11.9943 0.524583 11.9943 0.540191 11.9943C0.547765 11.8652 0.55534 11.7361 0.563144 11.6031C0.578292 11.5955 0.593441 11.5879 0.609049 11.5801C0.618689 11.5225 0.626263 11.4668 0.632001 11.4088C0.648756 11.2411 0.648756 11.2411 0.700859 11.1889C0.710269 11.1403 0.717614 11.0913 0.723811 11.042C0.735517 10.9495 0.749059 10.8798 0.792669 10.7977C0.796341 10.7696 0.800243 10.7417 0.804145 10.7127C0.809883 10.675 0.809883 10.675 0.815621 10.6366C0.83077 10.629 0.845919 10.6214 0.861526 10.6136C0.870478 10.5652 0.870478 10.5652 0.873003 10.51C0.876675 10.4532 0.876675 10.4532 0.884479 10.4064C0.899628 10.3989 0.914776 10.3913 0.930384 10.3834C0.944615 10.3248 0.944615 10.3248 0.953337 10.2569C0.963436 10.1871 0.963436 10.1871 0.976289 10.1303C0.991438 10.1227 1.00659 10.1151 1.02219 10.1073C1.03803 10.0585 1.03803 10.0585 1.0479 10.0024C1.0518 9.98326 1.05571 9.96416 1.05961 9.9446C1.06236 9.9301 1.06534 9.91537 1.0681 9.90018C1.08325 9.90018 1.0984 9.90018 1.114 9.90018C1.11538 9.88569 1.11676 9.87142 1.11814 9.85646C1.1202 9.83759 1.12204 9.81895 1.1241 9.79939C1.12594 9.78075 1.12778 9.76211 1.12961 9.74278C1.13696 9.69308 1.13696 9.69308 1.15991 9.64705C1.17506 9.64705 1.19021 9.64705 1.20581 9.64705C1.20719 9.63255 1.20857 9.61829 1.20995 9.60333C1.21201 9.58446 1.21385 9.56582 1.21591 9.54626C1.21775 9.52762 1.21959 9.50898 1.22142 9.48965C1.22877 9.43994 1.22877 9.43994 1.25172 9.39392C1.26687 9.39392 1.28202 9.39392 1.29762 9.39392C1.29762 9.35595 1.29762 9.31798 1.29762 9.27886C1.31277 9.27127 1.32792 9.26367 1.34353 9.25585C1.35937 9.20706 1.35937 9.20706 1.36924 9.15091C1.37314 9.13181 1.37704 9.11271 1.38094 9.09315C1.38507 9.07129 1.38507 9.07129 1.38943 9.04874C1.40458 9.04874 1.41973 9.04874 1.43534 9.04874C1.45806 8.98039 1.45806 8.98039 1.48124 8.91067C1.49639 8.91067 1.51154 8.91067 1.52715 8.91067C1.52853 8.89617 1.5299 8.8819 1.53128 8.86695C1.53335 8.84808 1.53518 8.82943 1.53725 8.80987C1.53909 8.79123 1.54092 8.7726 1.54276 8.75327C1.5501 8.70356 1.5501 8.70356 1.57306 8.65754C1.5882 8.65754 1.60335 8.65754 1.61896 8.65754C1.62562 8.63521 1.63227 8.61289 1.63916 8.58988C1.66487 8.51946 1.66487 8.51946 1.71077 8.49645C1.71077 8.45848 1.71077 8.42051 1.71077 8.38139C1.73349 8.38899 1.75622 8.39658 1.77963 8.4044C1.77963 8.38922 1.77963 8.37403 1.77963 8.35838C1.76448 8.35079 1.74933 8.34319 1.73372 8.33537C1.74887 8.32777 1.76402 8.32018 1.77963 8.31236C1.7872 8.28957 1.79478 8.26679 1.80258 8.24332C1.81773 8.24332 1.83288 8.24332 1.84849 8.24332C1.84091 8.22054 1.83334 8.19776 1.82553 8.17428C1.84068 8.17428 1.85583 8.17428 1.87144 8.17428C1.9217 8.0774 1.96394 7.97707 2.00433 7.87582C2.05024 7.76237 2.05024 7.76237 2.10096 7.73706C2.12506 7.69448 2.12506 7.69448 2.14687 7.64501C2.15536 7.6289 2.16385 7.61279 2.17258 7.59622C2.19599 7.55388 2.19599 7.55388 2.19277 7.50694C2.2155 7.49934 2.23822 7.49175 2.26163 7.48392C2.26599 7.45608 2.26599 7.45608 2.27035 7.42777C2.27494 7.40844 2.27976 7.38888 2.28458 7.36886C2.29973 7.36127 2.31488 7.35368 2.33049 7.34585C2.33806 7.33066 2.34564 7.31548 2.35344 7.29983C2.37639 7.2538 2.37639 7.2538 2.4223 7.23079C2.4223 7.20801 2.4223 7.18523 2.4223 7.16176C2.52077 7.03174 2.52077 7.03174 2.58297 7.00067C2.58962 6.98364 2.59628 6.96638 2.60316 6.94889C2.63231 6.87733 2.67179 6.83015 2.72068 6.77055C2.73101 6.75306 2.74157 6.73534 2.75236 6.71739C2.78472 6.66355 2.81892 6.61591 2.85702 6.56621C2.91922 6.48451 2.97018 6.40075 3.01906 6.31031C3.03421 6.31031 3.04936 6.31031 3.06497 6.31031C3.07071 6.29697 3.07645 6.28362 3.08218 6.27004C3.11501 6.21067 3.15173 6.17086 3.20269 6.12622C3.21783 6.12622 3.23298 6.12622 3.24859 6.12622C3.25134 6.10781 3.25433 6.08917 3.25731 6.07007C3.2619 6.05074 3.26672 6.03118 3.27154 6.01116C3.28669 6.00356 3.30184 5.99597 3.31745 5.98814C3.33627 5.96329 3.3544 5.93775 3.37207 5.91197C3.44988 5.80428 3.54192 5.7143 3.63764 5.62294C3.69364 5.56841 3.72853 5.53412 3.75355 5.45887C3.77627 5.45887 3.79899 5.45887 3.8224 5.45887C3.82998 5.43609 3.83755 5.4133 3.84536 5.38983C3.88988 5.33944 3.88988 5.33944 3.93717 5.29778C3.95231 5.29778 3.96746 5.29778 3.98307 5.29778C4.00579 5.25222 4.00579 5.25222 4.02898 5.20574C4.04412 5.20574 4.05927 5.20574 4.07488 5.20574C4.08246 5.18295 4.09003 5.16017 4.09783 5.1367C4.11298 5.1367 4.12813 5.1367 4.14374 5.1367C4.16646 5.09114 4.16646 5.09114 4.18964 5.04465C4.20479 5.04465 4.21994 5.04465 4.23555 5.04465C4.24312 5.02187 4.2507 4.99909 4.2585 4.97562C4.27365 4.97562 4.2888 4.97562 4.30441 4.97562C4.32713 4.93005 4.32713 4.93005 4.35031 4.88357C4.36546 4.88357 4.38061 4.88357 4.39622 4.88357C4.40379 4.86079 4.41137 4.838 4.41917 4.81453C4.43432 4.80694 4.44947 4.79934 4.46507 4.79152C4.47012 4.76874 4.47012 4.76874 4.47517 4.7455C4.47931 4.73031 4.48367 4.71512 4.48803 4.69947C4.51075 4.69188 4.53347 4.68428 4.55688 4.67646C4.5881 4.64631 4.6184 4.61548 4.64869 4.58441C4.6767 4.55933 4.70493 4.53425 4.73339 4.50962C4.749 4.49582 4.76483 4.48201 4.78113 4.46797C4.81694 4.43668 4.8532 4.40538 4.88924 4.37454C4.90783 4.3582 4.92642 4.3421 4.9457 4.32553C4.96291 4.3108 4.98013 4.29584 4.9978 4.28065C5.0444 4.23992 5.0444 4.23992 5.06184 4.1702C5.07699 4.17779 5.09214 4.18538 5.10775 4.19321C5.13047 4.17802 5.15319 4.16283 5.1766 4.14718C5.19175 4.14718 5.2069 4.14718 5.22251 4.14718C5.23031 4.12716 5.23031 4.12716 5.23835 4.10691C5.27599 4.04225 5.32442 4.00842 5.38318 3.96309C5.39075 3.9479 5.39832 3.93271 5.40613 3.91706C5.444 3.90096 5.48233 3.88577 5.52089 3.87104C5.54361 3.85585 5.56634 3.84066 5.58975 3.82502C5.6049 3.82502 5.62005 3.82502 5.63565 3.82502C5.64483 3.80362 5.64483 3.80362 5.65425 3.78175C5.69143 3.71525 5.73573 3.69224 5.80642 3.66669C5.87275 3.6377 5.90787 3.60134 5.95699 3.54887C5.97214 3.54128 5.98729 3.53368 6.00289 3.52586C6.02424 3.50952 6.02424 3.50952 6.04605 3.49272C6.0947 3.45682 6.0947 3.45682 6.14199 3.43381C6.1895 3.40919 6.21957 3.38111 6.25537 3.34176ZM0.769716 10.8897C0.792669 10.9357 0.792669 10.9357 0.792669 10.9357L0.769716 10.8897Z" fill="#16AD0A"/>
</g>
<defs>
<clipPath id="clip0_335_6717">
<rect width="29.3333" height="29.3333" fill="white" transform="translate(0.334106 0.333313)"/>
</clipPath>
</defs>
</svg>
