<svg width="22" height="20" viewBox="0 0 22 20" fill="none" xmlns="http://www.w3.org/2000/svg">
<path d="M11.1673 0.399963C11.7843 0.399963 12.4013 0.399963 13.0369 0.399963C13.0369 0.411009 13.0369 0.422055 13.0369 0.433435C13.0486 0.43377 13.0601 0.434105 13.0721 0.43444C13.1251 0.436113 13.178 0.437954 13.2309 0.439795C13.2493 0.440297 13.2674 0.440799 13.2863 0.441301C13.3771 0.444649 13.4521 0.451343 13.5377 0.483643C13.5816 0.49017 13.625 0.495693 13.6692 0.500379C13.7616 0.510923 13.8487 0.526153 13.9383 0.550587C13.9839 0.559457 14.0296 0.567658 14.0754 0.575691C14.2101 0.599791 14.341 0.630251 14.4725 0.667739C14.4917 0.673095 14.5109 0.67845 14.5308 0.684141C14.6167 0.708408 14.7022 0.732675 14.7865 0.761796C14.8481 0.783051 14.9097 0.797276 14.9733 0.810665C15.0143 0.820204 15.0516 0.835099 15.0901 0.851835C15.1506 0.872923 15.2113 0.8915 15.2727 0.909407C15.3424 0.93016 15.4075 0.956436 15.4741 0.985723C15.5036 0.996769 15.5332 1.00748 15.5627 1.01819C15.6508 1.04982 15.7378 1.08413 15.8246 1.11961C15.8246 1.13066 15.8246 1.1417 15.8246 1.15308C15.838 1.15442 15.8515 1.15576 15.8653 1.15727C15.941 1.17317 16.0052 1.2043 16.075 1.23676C16.1027 1.24814 16.1306 1.25936 16.1585 1.27024C16.1585 1.28128 16.1585 1.29233 16.1585 1.30371C16.1671 1.30538 16.1757 1.30722 16.1845 1.3089C16.2394 1.32446 16.29 1.34789 16.3421 1.37065C16.3586 1.37617 16.3751 1.3817 16.3922 1.38739C16.3922 1.39843 16.3922 1.40948 16.3922 1.42086C16.4055 1.42404 16.4055 1.42404 16.4192 1.42722C16.4666 1.4396 16.5127 1.45517 16.5591 1.47107C16.5591 1.48211 16.5591 1.49316 16.5591 1.50454C16.577 1.50939 16.5948 1.51425 16.6133 1.51927C16.6607 1.53349 16.7 1.54738 16.7427 1.57148C16.7427 1.58253 16.7427 1.59358 16.7427 1.60496C16.7567 1.60814 16.7567 1.60814 16.7709 1.61132C16.8132 1.6227 16.8525 1.63826 16.8929 1.65516C16.8929 1.66621 16.8929 1.67726 16.8929 1.68864C16.902 1.69031 16.911 1.69198 16.9203 1.69366C17.0492 1.73215 17.17 1.82587 17.2769 1.9062C17.2879 1.90068 17.2989 1.89516 17.3103 1.88947C17.3103 1.91156 17.3103 1.93365 17.3103 1.95641C17.3323 1.95641 17.3543 1.95641 17.377 1.95641C17.377 1.96746 17.377 1.9785 17.377 1.98988C17.3871 1.99156 17.3971 1.9934 17.4072 1.99507C17.4501 2.00863 17.4623 2.0252 17.4939 2.05683C17.5488 2.09047 17.5985 2.11925 17.6588 2.14151C17.6705 2.1467 17.6822 2.15189 17.6942 2.15724C17.6997 2.17381 17.7052 2.19038 17.7109 2.20745C17.7274 2.21297 17.7439 2.2185 17.761 2.22419C17.761 2.23523 17.761 2.24628 17.761 2.25766C17.773 2.26218 17.785 2.2667 17.7975 2.27122C17.9187 2.3226 17.9187 2.3226 17.9498 2.38636C17.9536 2.39908 17.9574 2.4118 17.9613 2.42502C17.9833 2.42502 18.0054 2.42502 18.0281 2.42502C18.0708 2.46468 18.0708 2.46468 18.1115 2.5087C18.128 2.51975 18.1446 2.53079 18.1616 2.54217C18.1616 2.55322 18.1616 2.56426 18.1616 2.57564C18.1768 2.57916 18.192 2.58251 18.2075 2.58602C18.2754 2.61497 18.2885 2.64878 18.3285 2.70953C18.3561 2.72928 18.3561 2.72928 18.3869 2.74501C18.44 2.77363 18.4739 2.79756 18.5121 2.84342C18.5121 2.85447 18.5121 2.86551 18.5121 2.87689C18.522 2.88141 18.5318 2.88593 18.5419 2.89062C18.6248 2.9348 18.7003 3.00777 18.7625 3.07772C18.7625 3.08877 18.7625 3.09982 18.7625 3.1112C18.7717 3.11505 18.7809 3.11873 18.7904 3.12274C18.8408 3.15119 18.8762 3.18734 18.9169 3.22835C18.9318 3.24324 18.9467 3.25797 18.962 3.27337C18.9962 3.31203 18.9962 3.31203 18.9962 3.3455C19.0128 3.35102 19.0293 3.35655 19.0463 3.36224C19.0745 3.39537 19.1024 3.42885 19.1298 3.46265C19.1408 3.46817 19.1518 3.4737 19.1632 3.47939C19.1632 3.49596 19.1632 3.51253 19.1632 3.5296C19.1852 3.54064 19.2072 3.55169 19.2299 3.56307C19.2299 3.57411 19.2299 3.58516 19.2299 3.59654C19.2465 3.60206 19.263 3.60759 19.28 3.61328C19.3197 3.65779 19.3446 3.69026 19.3635 3.74716C19.38 3.75269 19.3965 3.75821 19.4136 3.7639C19.4307 3.79151 19.4473 3.81946 19.4636 3.84758C19.4756 3.85963 19.4877 3.87168 19.5002 3.88423C19.5102 3.89427 19.5201 3.90415 19.5304 3.91452C19.5304 3.92557 19.5304 3.93662 19.5304 3.948C19.5414 3.948 19.5524 3.948 19.5638 3.948C19.5693 3.97009 19.5748 3.99218 19.5805 4.01494C19.5915 4.01494 19.6025 4.01494 19.6139 4.01494C19.6154 4.029 19.6154 4.029 19.617 4.04322C19.6424 4.11569 19.702 4.15753 19.7641 4.19904C19.7641 4.2156 19.7641 4.23217 19.7641 4.24924C19.7751 4.25477 19.7861 4.26029 19.7975 4.26598C19.792 4.28255 19.7865 4.29912 19.7808 4.31619C19.7908 4.31719 19.8008 4.3182 19.811 4.31937C19.8621 4.33828 19.8721 4.36991 19.8976 4.4166C19.9087 4.42213 19.9197 4.42765 19.931 4.43334C19.9624 4.48405 19.9644 4.50447 19.9644 4.56723C19.9809 4.56723 19.9975 4.56723 20.0145 4.56723C20.0629 4.62831 20.0813 4.65526 20.0813 4.73459C20.0978 4.73459 20.1143 4.73459 20.1313 4.73459C20.1981 4.84337 20.1981 4.84337 20.1981 4.91868C20.2136 4.92437 20.2136 4.92437 20.2295 4.93023C20.2762 4.95919 20.2789 4.98446 20.2983 5.03584C20.3195 5.06596 20.3417 5.09491 20.3647 5.1237C20.3817 5.15299 20.3817 5.15299 20.3817 5.21993C20.3927 5.21993 20.4038 5.21993 20.4151 5.21993C20.4485 5.27014 20.4485 5.27014 20.4485 5.33708C20.4595 5.33708 20.4705 5.33708 20.4819 5.33708C20.4819 5.34813 20.4819 5.35918 20.4819 5.37056C20.4929 5.37608 20.5039 5.3816 20.5153 5.38729C20.562 5.45039 20.5707 5.49357 20.5654 5.57139C20.5804 5.57708 20.5804 5.57708 20.5959 5.58294C20.6425 5.61105 20.6548 5.6385 20.678 5.68754C20.6852 5.7021 20.6924 5.71682 20.6997 5.73189C20.7156 5.77222 20.7156 5.77222 20.7156 5.82243C20.7266 5.82795 20.7376 5.83347 20.749 5.83916C20.749 5.8723 20.749 5.90544 20.749 5.93958C20.7655 5.9451 20.782 5.95063 20.799 5.95632C20.8318 6.00619 20.8324 6.02761 20.8324 6.0902C20.8435 6.0902 20.8545 6.0902 20.8658 6.0902C20.869 6.10928 20.869 6.10928 20.8722 6.12886C20.8805 6.17723 20.8805 6.17723 20.9159 6.22409C20.9159 6.24618 20.9159 6.26828 20.9159 6.29104C20.9269 6.29104 20.9379 6.29104 20.9493 6.29104C20.9793 6.35513 20.986 6.40451 20.9827 6.47513C20.9937 6.47513 21.0047 6.47513 21.0161 6.47513C21.0216 6.51379 21.0271 6.55245 21.0327 6.59228C21.0438 6.59228 21.0548 6.59228 21.0661 6.59228C21.0693 6.60366 21.0726 6.61488 21.076 6.62659C21.0803 6.64149 21.0847 6.65638 21.0892 6.67178C21.0933 6.68651 21.0977 6.70124 21.102 6.71647C21.1149 6.7558 21.1309 6.78977 21.1496 6.82659C21.1608 6.86558 21.1718 6.90475 21.183 6.94374C21.1892 6.95479 21.1953 6.96583 21.2017 6.97721C21.2235 7.02709 21.2184 7.07411 21.2164 7.12784C21.2274 7.12784 21.2384 7.12784 21.2498 7.12784C21.2524 7.14809 21.2524 7.14809 21.2553 7.16884C21.2579 7.18675 21.2606 7.20466 21.2633 7.22306C21.2658 7.24064 21.2683 7.25838 21.271 7.27662C21.2836 7.33068 21.3045 7.36549 21.3332 7.41235C21.3364 7.47611 21.3364 7.47611 21.3332 7.5295C21.3442 7.5295 21.3553 7.5295 21.3666 7.5295C21.3946 7.59996 21.4003 7.65502 21.3978 7.7305C21.3983 7.76883 21.3983 7.76883 21.425 7.8192C21.4587 7.90238 21.4544 7.97652 21.4501 8.06505C21.4611 8.06505 21.4721 8.06505 21.4835 8.06505C21.5118 8.15141 21.5205 8.22304 21.5188 8.31509C21.5188 8.32647 21.5187 8.33802 21.5185 8.34973C21.518 8.37751 21.5175 8.40546 21.5168 8.43324C21.5279 8.43324 21.5389 8.43324 21.5502 8.43324C21.5652 8.48462 21.5689 8.53015 21.5686 8.58353C21.5684 8.60713 21.5684 8.60713 21.5684 8.63106C21.5683 8.64713 21.5681 8.66336 21.5679 8.6801C21.5679 8.6965 21.5678 8.71307 21.5678 8.72997C21.5676 8.77048 21.5672 8.81114 21.5669 8.85164C21.5779 8.85164 21.5889 8.85164 21.6003 8.85164C21.6295 8.94001 21.6382 9.01566 21.637 9.10838C21.6369 9.12126 21.6369 9.13398 21.6369 9.1472C21.6367 9.18787 21.6362 9.22837 21.6357 9.26904C21.6355 9.29666 21.6355 9.32444 21.6354 9.35205C21.635 9.4195 21.6344 9.48711 21.6337 9.55456C21.6447 9.55456 21.6557 9.55456 21.6671 9.55456C21.6671 9.84727 21.6671 10.14 21.6671 10.4416C21.6561 10.4416 21.645 10.4416 21.6337 10.4416C21.6339 10.458 21.634 10.4745 21.6342 10.4914C21.6349 10.553 21.6352 10.6148 21.6355 10.6764C21.6357 10.703 21.6359 10.7296 21.6362 10.756C21.639 11.0278 21.639 11.0278 21.6003 11.1612C21.5893 11.1612 21.5783 11.1612 21.5669 11.1612C21.5672 11.183 21.5678 11.2047 21.5681 11.2273C21.5684 11.2561 21.5688 11.2851 21.5689 11.3138C21.5693 11.3282 21.5696 11.3426 21.5699 11.3574C21.5704 11.4395 21.5621 11.5018 21.5335 11.5796C21.5297 11.6151 21.5269 11.6507 21.5252 11.6864C21.5198 11.7722 21.5077 11.8486 21.4835 11.9311C21.4724 11.9311 21.4614 11.9311 21.4501 11.9311C21.4506 11.9416 21.4512 11.9522 21.4519 11.963C21.4547 12.0532 21.4467 12.1193 21.411 12.202C21.397 12.2353 21.397 12.2353 21.4 12.2857C21.4 12.3327 21.4 12.3327 21.376 12.3714C21.3444 12.4261 21.3424 12.4688 21.3374 12.5309C21.3324 12.5747 21.3189 12.6111 21.2998 12.6507C21.2888 12.6507 21.2778 12.6507 21.2664 12.6507C21.2703 12.6686 21.274 12.6865 21.278 12.7051C21.284 12.7782 21.2756 12.7808 21.2331 12.8348C21.2272 12.8674 21.2272 12.8674 21.2247 12.9028C21.2159 12.9731 21.2124 12.9747 21.1663 13.0189C21.1663 13.0351 21.1663 13.0514 21.1663 13.0681C21.1663 13.1292 21.1518 13.1392 21.1162 13.1863C21.1135 13.2055 21.1107 13.2249 21.1079 13.2448C21.0989 13.3076 21.0862 13.3218 21.0494 13.3704C21.0413 13.4025 21.0332 13.4345 21.0262 13.4668C21.0084 13.5327 20.9785 13.5935 20.9493 13.6549C20.9383 13.6549 20.9272 13.6549 20.9159 13.6549C20.9166 13.6698 20.9172 13.6845 20.9179 13.6999C20.9159 13.7548 20.9057 13.7896 20.8825 13.839C20.8715 13.839 20.8605 13.839 20.8491 13.839C20.8436 13.8776 20.8381 13.9163 20.8324 13.9561C20.8214 13.9561 20.8104 13.9561 20.799 13.9561C20.7967 13.9692 20.7942 13.9824 20.7917 13.996C20.7824 14.0398 20.7824 14.0398 20.7657 14.0733C20.7546 14.0733 20.7436 14.0733 20.7323 14.0733C20.7268 14.1119 20.7213 14.1506 20.7156 14.1904C20.7046 14.1904 20.6936 14.1904 20.6822 14.1904C20.6822 14.218 20.6822 14.2457 20.6822 14.2741C20.6715 14.2773 20.6608 14.2803 20.6498 14.2835C20.6084 14.3066 20.6084 14.3066 20.6029 14.3682C20.6016 14.3869 20.6002 14.4055 20.5987 14.4247C20.5877 14.4247 20.5767 14.4247 20.5654 14.4247C20.5654 14.4523 20.5654 14.48 20.5654 14.5084C20.5543 14.5084 20.5433 14.5084 20.532 14.5084C20.532 14.5195 20.532 14.5305 20.532 14.5419C20.5209 14.5419 20.5099 14.5419 20.4986 14.5419C20.5011 14.5595 20.5011 14.5595 20.5038 14.5774C20.4961 14.6483 20.4645 14.6753 20.4151 14.726C20.4041 14.726 20.3931 14.726 20.3817 14.726C20.3762 14.7646 20.3707 14.8033 20.365 14.8431C20.3485 14.8431 20.332 14.8431 20.315 14.8431C20.3095 14.8818 20.3039 14.9205 20.2983 14.9603C20.2873 14.9603 20.2762 14.9603 20.2649 14.9603C20.2629 14.9779 20.2629 14.9779 20.2607 14.9958C20.2452 15.0555 20.2186 15.0957 20.1814 15.1444C20.1704 15.1444 20.1594 15.1444 20.148 15.1444C20.1465 15.162 20.1465 15.162 20.1449 15.1799C20.127 15.2433 20.0901 15.2788 20.0479 15.3285C20.0337 15.3656 20.0337 15.3656 20.0312 15.3954C20.0202 15.3954 20.0091 15.3954 19.9978 15.3954C19.9923 15.4175 19.9868 15.4396 19.9811 15.4624C19.9701 15.4624 19.9591 15.4624 19.9477 15.4624C19.9477 15.4734 19.9477 15.4845 19.9477 15.4958C19.9367 15.4958 19.9257 15.4958 19.9143 15.4958C19.9143 15.5179 19.9143 15.54 19.9143 15.5628C19.9033 15.5628 19.8923 15.5628 19.8809 15.5628C19.8774 15.5745 19.8741 15.5862 19.8706 15.5983C19.8491 15.6431 19.8345 15.6617 19.7995 15.6947C19.7559 15.736 19.73 15.7768 19.7018 15.8304C19.6551 15.9045 19.5935 15.9708 19.5304 16.0314C19.5194 16.0314 19.5084 16.0314 19.497 16.0314C19.4945 16.05 19.4945 16.05 19.4918 16.069C19.4795 16.1184 19.4645 16.1449 19.4302 16.182C19.4192 16.182 19.4082 16.182 19.3969 16.182C19.3929 16.1916 19.3888 16.2009 19.3848 16.2108C19.359 16.2572 19.3278 16.2878 19.2895 16.3246C19.2748 16.339 19.2601 16.3534 19.2451 16.3681C19.2142 16.3981 19.1834 16.4279 19.1525 16.4577C19.0747 16.5341 19.0099 16.6018 18.9628 16.7008C18.9518 16.7008 18.9408 16.7008 18.9295 16.7008C18.9184 16.7229 18.9074 16.745 18.8961 16.7678C18.8851 16.7678 18.874 16.7678 18.8627 16.7678C18.8572 16.7843 18.8517 16.8009 18.846 16.818C18.835 16.818 18.824 16.818 18.8126 16.818C18.8016 16.8401 18.7906 16.8622 18.7792 16.8849C18.7682 16.8849 18.7572 16.8849 18.7458 16.8849C18.7403 16.9015 18.7348 16.9181 18.7291 16.9351C18.7013 16.9701 18.6822 16.9842 18.6398 16.9996C18.5903 17.0212 18.5639 17.0453 18.5265 17.0843C18.508 17.1033 18.508 17.1033 18.4891 17.1229C18.4701 17.1428 18.4701 17.1428 18.4505 17.1631C18.4252 17.1895 18.3998 17.216 18.3743 17.2422C18.3631 17.254 18.3519 17.2657 18.3404 17.2777C18.3118 17.3033 18.3118 17.3033 18.2784 17.3033C18.2729 17.3199 18.2674 17.3365 18.2618 17.3535C18.2446 17.3601 18.2274 17.3666 18.2097 17.3734C18.1387 17.4007 18.1027 17.4473 18.0554 17.5052C18.0222 17.5445 17.987 17.5755 17.9446 17.6046C17.9336 17.6046 17.9226 17.6046 17.9112 17.6046C17.9112 17.6156 17.9112 17.6267 17.9112 17.638C17.899 17.6422 17.8868 17.6462 17.8743 17.6506C17.8085 17.6802 17.7655 17.7262 17.7139 17.7756C17.6768 17.8059 17.6558 17.8113 17.6107 17.8221C17.5997 17.8387 17.5887 17.8553 17.5773 17.8724C17.5663 17.8724 17.5553 17.8724 17.544 17.8724C17.544 17.8834 17.544 17.8944 17.544 17.9058C17.5161 17.9078 17.5161 17.9078 17.4875 17.91C17.4577 17.9162 17.4577 17.9162 17.4271 17.9226C17.4061 17.9535 17.4061 17.9535 17.3937 17.9895C17.3608 18.0191 17.3383 18.0375 17.2946 18.0461C17.2552 18.0549 17.2552 18.0549 17.2195 18.0973C17.1772 18.1396 17.1498 18.1567 17.0933 18.1736C17.0822 18.1736 17.0712 18.1736 17.0599 18.1736C17.0544 18.1902 17.0489 18.2067 17.0432 18.2238C17.0247 18.2258 17.0247 18.2258 17.0056 18.228C16.9505 18.2431 16.9308 18.2656 16.8929 18.3075C16.8429 18.341 16.8429 18.341 16.7761 18.341C16.7761 18.352 16.7761 18.363 16.7761 18.3744C16.726 18.4079 16.726 18.4079 16.6592 18.4079C16.6592 18.4189 16.6592 18.43 16.6592 18.4414C16.6407 18.4459 16.622 18.4504 16.6028 18.4549C16.5387 18.4692 16.5387 18.4692 16.509 18.5251C16.4568 18.5282 16.4568 18.5282 16.4089 18.5251C16.4033 18.5471 16.3978 18.5692 16.3922 18.592C16.3791 18.591 16.366 18.59 16.3524 18.5888C16.3381 18.5898 16.3236 18.591 16.3087 18.592C16.2977 18.6086 16.2867 18.6251 16.2753 18.6422C16.2231 18.6454 16.2231 18.6454 16.1752 18.6422C16.1641 18.6643 16.1531 18.6864 16.1418 18.7092C16.1142 18.7092 16.0867 18.7092 16.0583 18.7092C16.0583 18.7202 16.0583 18.7312 16.0583 18.7426C16.0197 18.7481 15.9812 18.7537 15.9415 18.7594C15.9415 18.7704 15.9415 18.7814 15.9415 18.7928C15.9249 18.7928 15.9084 18.7928 15.8914 18.7928C15.8914 18.8039 15.8914 18.8149 15.8914 18.8263C15.8274 18.8511 15.7655 18.8745 15.6994 18.8922C15.6528 18.9063 15.6185 18.9209 15.5762 18.9435C15.5153 18.9758 15.4574 18.9891 15.3899 19.002C15.3545 19.0089 15.3545 19.0089 15.3218 19.0375C15.2742 19.0725 15.2307 19.064 15.1736 19.0606C15.1736 19.0717 15.1736 19.0827 15.1736 19.0941C15.1626 19.0959 15.1514 19.0978 15.14 19.0996C15.0564 19.1147 14.995 19.1311 14.9232 19.1778C14.8349 19.2084 14.7464 19.2213 14.6539 19.2337C14.605 19.2422 14.605 19.2422 14.5643 19.2706C14.5141 19.2999 14.483 19.3001 14.4256 19.2981C14.4092 19.2976 14.393 19.2971 14.3762 19.2968C14.3638 19.2961 14.3516 19.2956 14.339 19.2949C14.339 19.306 14.339 19.317 14.339 19.3284C14.2742 19.3598 14.2156 19.3677 14.145 19.3729C14.1034 19.3774 14.1034 19.3774 14.0592 19.3957C13.9926 19.4159 13.9343 19.4157 13.8652 19.4141C13.853 19.4141 13.8407 19.4139 13.828 19.4137C13.7981 19.4132 13.7681 19.4127 13.738 19.4121C13.738 19.4231 13.738 19.4342 13.738 19.4455C13.6716 19.4909 13.6021 19.4827 13.5252 19.481C13.512 19.481 13.4986 19.4808 13.4851 19.4807C13.4526 19.4802 13.42 19.4797 13.3875 19.479C13.3875 19.4901 13.3875 19.5011 13.3875 19.5125C13.2506 19.5372 13.1112 19.5349 12.9725 19.5379C12.9421 19.5388 12.9421 19.5388 12.9111 19.5396C12.8929 19.5401 12.8745 19.5404 12.8556 19.5409C12.8002 19.5463 12.7553 19.5607 12.7031 19.5794C12.6421 19.594 12.5855 19.5983 12.5229 19.5987C12.5039 19.5987 12.4847 19.5988 12.4652 19.5988C12.4447 19.599 12.4241 19.599 12.4029 19.599C12.3816 19.599 12.3602 19.599 12.338 19.5992C12.2928 19.5992 12.2474 19.5993 12.2019 19.5993C12.1559 19.5993 12.11 19.5993 12.0641 19.5997C11.8133 19.6008 11.566 19.6003 11.3176 19.5627C11.3176 19.5516 11.3176 19.5406 11.3176 19.5292C11.3049 19.5294 11.2924 19.5294 11.2793 19.5296C11.2217 19.5299 11.1643 19.5301 11.1069 19.5302C11.087 19.5304 11.0672 19.5306 11.0466 19.5307C11.0178 19.5307 11.0178 19.5307 10.9882 19.5309C10.9707 19.5309 10.953 19.5311 10.9348 19.5311C10.8831 19.5292 10.8343 19.5222 10.7834 19.5125C10.7834 19.5014 10.7834 19.4904 10.7834 19.479C10.765 19.4793 10.7468 19.4798 10.728 19.4802C10.7036 19.4805 10.6794 19.4808 10.655 19.481C10.643 19.4813 10.631 19.4817 10.6186 19.482C10.5489 19.4825 10.4954 19.477 10.4328 19.4455C10.4328 19.4345 10.4328 19.4234 10.4328 19.4121C10.4142 19.4126 10.3953 19.4132 10.3761 19.4139C10.1384 19.4189 10.1384 19.4189 10.0299 19.3741C9.98198 19.3553 9.93274 19.3511 9.88199 19.3451C9.86546 19.3396 9.84894 19.3341 9.83191 19.3284C9.83191 19.3173 9.83191 19.3063 9.83191 19.2949C9.81922 19.2951 9.80654 19.2952 9.79352 19.2956C9.76865 19.2957 9.76865 19.2957 9.74327 19.2959C9.72675 19.2961 9.71039 19.2964 9.69336 19.2966C9.64829 19.2949 9.64829 19.2949 9.59821 19.2782C9.59821 19.2616 9.59821 19.245 9.59821 19.228C9.58686 19.2281 9.57568 19.2283 9.56399 19.2286C9.54179 19.2288 9.54179 19.2288 9.51892 19.229C9.50423 19.2291 9.48954 19.2295 9.47435 19.2296C9.43496 19.2281 9.40224 19.2224 9.36451 19.2112C9.36451 19.2002 9.36451 19.1891 9.36451 19.1778C9.34699 19.1788 9.32946 19.1798 9.31126 19.1809C9.24182 19.1774 9.22179 19.1634 9.1642 19.1276C9.12481 19.117 9.08558 19.1088 9.04552 19.1013C9.01397 19.0941 9.01397 19.0941 8.99727 19.0773C8.97908 19.0753 8.96072 19.0732 8.94202 19.071C8.88042 19.0606 8.88042 19.0606 8.84904 19.0365C8.8018 19.0017 8.75606 18.9958 8.69881 18.9858C8.66342 18.9769 8.66342 18.9769 8.61334 18.9435C8.58563 18.9319 8.55792 18.9207 8.52988 18.91C8.52988 18.8989 8.52988 18.8879 8.52988 18.8765C8.51268 18.8775 8.49549 18.8785 8.47779 18.8797C8.40785 18.8762 8.37296 18.8604 8.31287 18.8263C8.28516 18.8148 8.25745 18.8035 8.22941 18.7928C8.22941 18.7818 8.22941 18.7707 8.22941 18.7594C8.19085 18.7538 8.15229 18.7483 8.11256 18.7426C8.11256 18.7261 8.11256 18.7095 8.11256 18.6924C8.08501 18.6979 8.05747 18.7035 8.02909 18.7092C8.01808 18.6871 8.00706 18.665 7.99571 18.6422C7.96983 18.6442 7.96983 18.6442 7.94363 18.6464C7.86717 18.6414 7.83963 18.6199 7.7787 18.5753C7.72529 18.5508 7.67237 18.5287 7.61695 18.5093C7.57839 18.4916 7.57839 18.4916 7.54701 18.4591C7.50127 18.4144 7.45386 18.3985 7.39477 18.3744C7.35504 18.3532 7.31665 18.3304 7.27792 18.3075C7.27792 18.2964 7.27792 18.2854 7.27792 18.274C7.26239 18.274 7.24687 18.274 7.23101 18.274C7.14638 18.2625 7.08896 18.2079 7.02302 18.157C6.96593 18.1149 6.90851 18.0857 6.84391 18.0564C6.84391 18.0454 6.84391 18.0344 6.84391 18.023C6.83289 18.023 6.82187 18.023 6.81052 18.023C6.81052 18.0119 6.81052 18.0009 6.81052 17.9895C6.7506 17.9582 6.689 17.9321 6.6269 17.9058C6.6269 17.8948 6.6269 17.8837 6.6269 17.8724C6.61038 17.8668 6.59385 17.8613 6.57682 17.8556C6.57131 17.8446 6.56581 17.8335 6.56013 17.8221C6.53225 17.8103 6.53225 17.8103 6.50371 17.798C6.42409 17.7636 6.42409 17.7636 6.3932 17.7217C6.3932 17.7107 6.3932 17.6996 6.3932 17.6883C6.38185 17.6873 6.3705 17.6862 6.35882 17.6851C6.29388 17.6672 6.24247 17.6337 6.19289 17.5878C6.19289 17.5768 6.19289 17.5657 6.19289 17.5544C6.18254 17.5502 6.17219 17.5462 6.16151 17.5418C6.12612 17.5209 6.12612 17.5209 6.11043 17.4864C6.10459 17.4757 6.09874 17.465 6.09273 17.4539C6.052 17.4427 6.052 17.4427 6.00927 17.4372C5.99274 17.4262 5.97622 17.4151 5.95919 17.4037C5.95919 17.3927 5.95919 17.3817 5.95919 17.3703C5.94984 17.3664 5.94066 17.3627 5.93098 17.3587C5.89225 17.3368 5.86571 17.3115 5.83517 17.2794C5.78909 17.2332 5.73935 17.1915 5.69027 17.1489C5.65872 17.1192 5.65872 17.1192 5.64203 17.0858C5.6255 17.0802 5.60898 17.0747 5.59195 17.069C5.59195 17.058 5.59195 17.0469 5.59195 17.0355C5.57543 17.0355 5.5589 17.0355 5.54187 17.0355C5.54187 17.0245 5.54187 17.0135 5.54187 17.0021C5.52535 16.9966 5.50882 16.991 5.49179 16.9853C5.49179 16.9743 5.49179 16.9632 5.49179 16.9519C5.48195 16.9472 5.4721 16.9427 5.46191 16.9378C5.36276 16.8854 5.28914 16.7994 5.2177 16.7147C5.18999 16.6816 5.18999 16.6816 5.1506 16.6443C5.12455 16.6172 5.12455 16.6171 5.12455 16.5837C5.10803 16.5782 5.0915 16.5726 5.07448 16.5669C5.04109 16.5167 5.04109 16.5167 5.04109 16.4665C5.03007 16.4665 5.01906 16.4665 5.00771 16.4665C4.99435 16.4503 4.98083 16.4341 4.96697 16.4173C4.92908 16.3629 4.92908 16.3629 4.87416 16.3494C4.86732 16.3377 4.86047 16.3259 4.8533 16.3139C4.81941 16.2578 4.77851 16.219 4.73111 16.1745C4.70724 16.1485 4.70724 16.1485 4.70724 16.1151C4.69071 16.1095 4.67418 16.104 4.65716 16.0983C4.63729 16.0555 4.63729 16.0555 4.62377 16.0147C4.61275 16.0147 4.60174 16.0147 4.59039 16.0147C4.52362 15.9241 4.52362 15.9241 4.52362 15.8808C4.50709 15.8752 4.49056 15.8697 4.47354 15.864C4.47354 15.8475 4.47354 15.8309 4.47354 15.8138C4.46252 15.8138 4.4515 15.8138 4.44015 15.8138C4.44015 15.7973 4.44015 15.7807 4.44015 15.7636C4.42913 15.7636 4.41812 15.7636 4.40677 15.7636C4.38991 15.7358 4.37321 15.7079 4.35669 15.6799C4.34033 15.6602 4.32364 15.6406 4.30661 15.6214C4.26705 15.5763 4.2365 15.5312 4.20645 15.4791C4.1951 15.4649 4.18375 15.4508 4.17207 15.4363C4.1315 15.385 4.11014 15.3399 4.0896 15.2783C4.07308 15.2727 4.05655 15.2672 4.03953 15.2615C4.02817 15.2281 4.01716 15.1946 4.00614 15.1611C3.98427 15.1328 3.96207 15.1051 3.93937 15.0774C3.90315 15.0137 3.88929 14.9844 3.88929 14.9101C3.94605 14.8515 3.99245 14.8339 4.07291 14.8264C4.07291 14.8154 4.07291 14.8043 4.07291 14.7929C4.10596 14.7819 4.13901 14.7708 4.17307 14.7595C4.17307 14.7484 4.17307 14.7374 4.17307 14.726C4.21163 14.7205 4.25019 14.7149 4.28992 14.7092C4.28992 14.6927 4.28992 14.6761 4.28992 14.659C4.30494 14.6565 4.30494 14.6565 4.32013 14.6538C4.3622 14.6406 4.37655 14.6236 4.40677 14.5921C4.43915 14.5744 4.43915 14.5744 4.47354 14.5586C4.48489 14.5524 4.49624 14.5462 4.50792 14.5399C4.54031 14.5252 4.54031 14.5252 4.59039 14.5252C4.59589 14.5086 4.6014 14.492 4.60708 14.4749C4.6236 14.4749 4.64013 14.4749 4.65716 14.4749C4.66267 14.4584 4.66817 14.4418 4.67385 14.4247C4.70239 14.412 4.73094 14.3996 4.75998 14.3882C4.80389 14.3687 4.8371 14.3379 4.87416 14.3076C4.90154 14.2955 4.92942 14.2843 4.95763 14.2741C4.99468 14.2597 4.99468 14.2597 5.0244 14.2406C5.02991 14.2241 5.03542 14.2075 5.04109 14.1904C5.0466 14.2015 5.05211 14.2125 5.05778 14.2239C5.06329 14.2129 5.0688 14.2018 5.07448 14.1904C5.091 14.1849 5.10753 14.1794 5.12455 14.1737C5.13207 14.1658 5.13974 14.1578 5.14759 14.1496C5.18114 14.1173 5.21486 14.1066 5.2581 14.09C5.26911 14.079 5.28013 14.0679 5.29148 14.0565C5.32687 14.0462 5.32687 14.0462 5.35825 14.0398C5.35274 14.0288 5.34724 14.0177 5.34156 14.0063C5.35675 14.0015 5.37177 13.9966 5.38747 13.9916C5.45056 13.9698 5.4958 13.9501 5.54705 13.9069C5.59813 13.8678 5.64988 13.8473 5.7088 13.8222C5.72583 13.8058 5.74252 13.7891 5.75888 13.772C5.78676 13.7608 5.81447 13.7498 5.84234 13.7386C5.85136 13.7295 5.8602 13.7206 5.86938 13.7114C5.87706 13.7037 5.88458 13.6962 5.89242 13.6883C5.90895 13.6883 5.92547 13.6883 5.9425 13.6883C5.94801 13.6773 5.95352 13.6663 5.95919 13.6549C5.98139 13.6437 6.00376 13.6326 6.02596 13.6214C6.03147 13.6104 6.03698 13.5993 6.04266 13.5879C6.07571 13.5879 6.10876 13.5879 6.14281 13.5879C6.14832 13.5714 6.15383 13.5548 6.15951 13.5377C6.18555 13.5094 6.18555 13.5094 6.20958 13.4875C6.24297 13.5043 6.24297 13.5043 6.25966 13.521C6.25966 13.5044 6.25966 13.4879 6.25966 13.4708C6.31658 13.4288 6.37601 13.4075 6.44328 13.3871C6.44328 13.3761 6.44328 13.365 6.44328 13.3536C6.48184 13.3481 6.5204 13.3426 6.56013 13.3369C6.56013 13.3258 6.56013 13.3148 6.56013 13.3034C6.58333 13.2818 6.58333 13.2818 6.61438 13.2596C6.6244 13.252 6.63458 13.2445 6.64493 13.2368C6.67698 13.2197 6.67698 13.2197 6.74375 13.2197C6.74375 13.2087 6.74375 13.1976 6.74375 13.1863C6.7768 13.1807 6.80985 13.1752 6.84391 13.1695C6.84391 13.153 6.84391 13.1364 6.84391 13.1193C6.88848 13.0865 6.92904 13.0686 6.98162 13.0514C7.02986 13.0408 7.02986 13.0408 7.04422 13.0022C7.0953 12.9916 7.0953 12.9916 7.14438 12.9854C7.13887 12.9689 7.13336 12.9523 7.12768 12.9352C7.15523 12.9352 7.18277 12.9352 7.21115 12.9352C7.21682 12.9192 7.21682 12.9192 7.22267 12.9028C7.24453 12.8683 7.24453 12.8683 7.28827 12.8557C7.30797 12.8537 7.30797 12.8537 7.328 12.8516C7.328 12.8405 7.328 12.8295 7.328 12.8181C7.36656 12.8126 7.40512 12.807 7.44485 12.8013C7.45036 12.7848 7.45586 12.7682 7.46154 12.7511C7.47807 12.7511 7.49459 12.7511 7.51162 12.7511C7.51729 12.7351 7.51729 12.7351 7.52314 12.7187C7.545 12.6842 7.545 12.6842 7.58356 12.6748C7.59842 12.6723 7.61328 12.67 7.62847 12.6675C7.6899 12.6372 7.6899 12.6372 7.72862 12.5838C7.73864 12.5818 7.74866 12.5796 7.75884 12.5774C7.79873 12.5692 7.79873 12.5692 7.82978 12.5326C7.84581 12.5165 7.84581 12.5165 7.86217 12.5001C7.87869 12.5001 7.89522 12.5001 7.91224 12.5001C7.91775 12.489 7.92326 12.478 7.92894 12.4666C7.96199 12.4544 7.99537 12.4432 8.02909 12.4331C8.02909 12.4221 8.02909 12.4111 8.02909 12.3997C8.05113 12.3997 8.07316 12.3997 8.09586 12.3997C8.10137 12.3831 8.10688 12.3665 8.11256 12.3495C8.16364 12.3296 8.16364 12.3296 8.21271 12.316C8.21271 12.305 8.21271 12.2939 8.21271 12.2825C8.23391 12.2745 8.25511 12.2665 8.27631 12.2584C8.29401 12.2517 8.29401 12.2517 8.3122 12.2449C8.34008 12.2347 8.36812 12.225 8.39633 12.2156C8.40184 12.199 8.40735 12.1824 8.41303 12.1654C8.44608 12.1533 8.47963 12.1423 8.51318 12.1319C8.56026 12.1086 8.56026 12.1086 8.59665 12.0817C8.59665 12.0706 8.59665 12.0596 8.59665 12.0482C8.6125 12.0434 8.62836 12.0385 8.64472 12.0335C8.69764 12.0186 8.69764 12.0186 8.73019 11.9813C8.74154 11.9786 8.75289 11.9758 8.76458 11.9729C8.77526 11.9702 8.78594 11.9674 8.79696 11.9645C8.80247 11.9535 8.80798 11.9425 8.81365 11.9311C8.8467 11.9189 8.88009 11.9076 8.91381 11.8976C8.91381 11.8866 8.91381 11.8755 8.91381 11.8641C8.92683 11.8593 8.94002 11.8544 8.95354 11.8494C8.99894 11.8332 8.99894 11.8332 9.03066 11.7972C9.07456 11.7952 9.07456 11.7952 9.11412 11.7972C9.11412 11.7806 9.11412 11.764 9.11412 11.747C9.13616 11.747 9.15819 11.747 9.18089 11.747C9.1864 11.7359 9.19191 11.7249 9.19759 11.7135C9.22096 11.6953 9.24499 11.6779 9.26953 11.6613C9.28255 11.6522 9.29557 11.6432 9.30909 11.6338C9.34782 11.6131 9.34782 11.6131 9.41459 11.6131C9.41459 11.602 9.41459 11.591 9.41459 11.5796C9.44213 11.5686 9.46968 11.5575 9.49806 11.5461C9.49806 11.5351 9.49806 11.524 9.49806 11.5127C9.51108 11.5078 9.52426 11.503 9.53778 11.4979C9.58319 11.4817 9.58319 11.4817 9.61491 11.4457C9.65881 11.4352 9.65881 11.4352 9.69837 11.429C9.69837 11.4179 9.69837 11.4069 9.69837 11.3955C9.73142 11.3845 9.76447 11.3734 9.79852 11.362C9.79852 11.351 9.79852 11.34 9.79852 11.3286C9.82607 11.3286 9.85361 11.3286 9.88199 11.3286C9.88766 11.3125 9.88766 11.3125 9.89351 11.2961C9.91537 11.2616 9.91537 11.2616 9.95911 11.2491C9.97881 11.2471 9.97881 11.2471 9.99884 11.2449C9.99884 11.2338 9.99884 11.2228 9.99884 11.2114C10.0209 11.2114 10.0429 11.2114 10.0656 11.2114C10.0711 11.1893 10.0766 11.1672 10.0823 11.1445C10.1154 11.1445 10.1484 11.1445 10.1825 11.1445C10.188 11.1279 10.1935 11.1113 10.1992 11.0943C10.2539 11.0678 10.3085 11.0466 10.3661 11.0273C10.3716 11.0108 10.3771 10.9942 10.3828 10.9771C10.4158 10.9716 10.4489 10.9661 10.4829 10.9604C10.4829 10.9493 10.4829 10.9383 10.4829 10.9269C10.516 10.9159 10.549 10.9048 10.5831 10.8934C10.5831 10.8824 10.5831 10.8713 10.5831 10.86C10.6161 10.8489 10.6492 10.8379 10.6832 10.8265C10.6832 10.8154 10.6832 10.8044 10.6832 10.793C10.7108 10.793 10.7383 10.793 10.7667 10.793C10.7722 10.7765 10.7777 10.7599 10.7834 10.7428C10.8345 10.7229 10.8345 10.7229 10.8836 10.7093C10.8836 10.6983 10.8836 10.6873 10.8836 10.6759C10.9221 10.6703 10.9607 10.6648 11.0004 10.6591C10.9894 10.6536 10.9784 10.6481 10.967 10.6424C10.967 10.6314 10.967 10.6203 10.967 10.6089C10.9825 10.6073 10.9981 10.6054 11.0139 10.6037C11.0708 10.5914 11.0799 10.5828 11.1173 10.542C11.1612 10.5222 11.2051 10.507 11.2508 10.4918C11.2563 10.4752 11.2618 10.4586 11.2675 10.4416C11.3005 10.4295 11.3341 10.4185 11.3676 10.4081C11.4221 10.3793 11.4693 10.3442 11.5179 10.3067C11.5666 10.2694 11.61 10.2444 11.6681 10.224C11.7142 10.2004 11.7142 10.2004 11.7516 10.1738C11.7516 10.1627 11.7516 10.1517 11.7516 10.1403C11.7701 10.1383 11.7701 10.1383 11.7891 10.1361C11.8436 10.1212 11.8653 10.0986 11.9018 10.0566C11.9183 10.0622 11.9349 10.0677 11.9519 10.0734C11.9519 10.0458 11.9519 10.0181 11.9519 9.98969C11.9409 9.98969 11.9299 9.98969 11.9185 9.98969C11.9147 9.97798 11.911 9.96626 11.907 9.95421C11.8855 9.90685 11.8592 9.87555 11.8254 9.83673C11.7853 9.78401 11.7569 9.72493 11.7262 9.66635C11.6943 9.60845 11.6573 9.5574 11.618 9.50435C11.5923 9.46251 11.5676 9.42017 11.5429 9.37766C11.5306 9.35657 11.5306 9.35657 11.5179 9.33498C11.5095 9.32076 11.5014 9.30653 11.4928 9.2918C11.4698 9.25364 11.4698 9.25364 11.4418 9.22737C11.4057 9.19105 11.3897 9.14771 11.3686 9.10168C11.3499 9.06754 11.3284 9.04612 11.3009 9.019C11.2897 8.99106 11.2787 8.96327 11.2675 8.93532C11.2596 8.92746 11.2516 8.91943 11.2435 8.91122C11.2174 8.88512 11.2174 8.88512 11.1965 8.84227C11.1622 8.77449 11.1194 8.71625 11.0744 8.65533C11.0505 8.61734 11.0505 8.61734 11.0505 8.56713C11.0395 8.56713 11.0284 8.56713 11.0171 8.56713C10.9712 8.50722 10.9425 8.45852 10.9336 8.38304C10.9171 8.37751 10.9006 8.37199 10.8836 8.3663C10.8572 8.31141 10.836 8.25668 10.8168 8.19894C10.8003 8.19342 10.7837 8.1879 10.7667 8.1822C10.7402 8.13635 10.7195 8.09501 10.7083 8.04313C10.7056 8.03376 10.7028 8.02438 10.6999 8.01484C10.6834 8.00932 10.6669 8.0038 10.6499 7.99811C10.6385 7.97033 10.6273 7.94238 10.6165 7.91443C10.5999 7.90338 10.5834 7.89234 10.5664 7.88096C10.5549 7.82857 10.5549 7.82857 10.5497 7.78054C10.5332 7.77502 10.5166 7.7695 10.4996 7.7638C10.5051 7.75276 10.5106 7.74171 10.5163 7.73033C10.5053 7.72481 10.4943 7.71929 10.4829 7.7136C10.4716 7.69151 10.4604 7.66908 10.4495 7.64665C10.4405 7.63494 10.4317 7.62322 10.4225 7.61117C10.3995 7.57971 10.3995 7.57971 10.3995 7.54624C10.3884 7.54071 10.3774 7.53519 10.3661 7.5295C10.3546 7.50741 10.3435 7.48498 10.3327 7.46256C10.3213 7.44565 10.31 7.42875 10.2983 7.41134C10.2659 7.36214 10.2659 7.36214 10.2492 7.31193C10.2332 7.29637 10.2332 7.29637 10.2168 7.28047C10.1796 7.24198 10.1681 7.21085 10.1491 7.16131C10.1254 7.13487 10.1254 7.13487 10.099 7.1111C10.0699 7.07612 10.0501 7.04717 10.0336 7.00449C10.016 6.96165 9.996 6.92818 9.96963 6.89035C9.92222 6.8209 9.87915 6.74977 9.83692 6.67714C9.81589 6.64065 9.81589 6.64065 9.78183 6.60902C9.78183 6.59245 9.78183 6.57588 9.78183 6.55881C9.77082 6.55329 9.7598 6.54777 9.74845 6.54208C9.73125 6.51898 9.71506 6.49505 9.69937 6.47095C9.69052 6.45722 9.68168 6.44367 9.67249 6.42944C9.6356 6.37137 9.60088 6.31279 9.568 6.25238C9.54263 6.20736 9.51425 6.16736 9.48236 6.12686C9.42661 6.05422 9.34782 5.95063 9.34782 5.8559C9.3368 5.8559 9.32579 5.8559 9.31444 5.8559C9.31444 5.84485 9.31444 5.83381 9.31444 5.82243C9.29791 5.81691 9.28138 5.81138 9.26436 5.80569C9.25301 5.77222 9.24199 5.73875 9.23097 5.70528C9.20944 5.67683 9.18707 5.64904 9.1642 5.6216C9.1425 5.58846 9.12197 5.55482 9.10144 5.52101C9.08257 5.49072 9.06271 5.46143 9.04218 5.43231C9.01397 5.38729 9.01397 5.38729 9.01397 5.33708C9.00295 5.33708 8.99193 5.33708 8.98058 5.33708C8.95337 5.29524 8.93 5.25173 8.90613 5.20805C8.88276 5.16487 8.88276 5.16487 8.83035 5.15299C8.83035 5.13642 8.83035 5.11985 8.83035 5.10278C8.81048 5.0745 8.79045 5.04638 8.76992 5.01877C8.68011 4.88973 8.68011 4.88973 8.68011 4.81827C8.66909 4.81827 8.65808 4.81827 8.64673 4.81827C8.6287 4.77392 8.61184 4.7299 8.59665 4.68438C8.58563 4.68438 8.57461 4.68438 8.56326 4.68438C8.56326 4.66781 8.56326 4.65124 8.56326 4.63417C8.55224 4.63417 8.54123 4.63417 8.52988 4.63417C8.5212 4.61861 8.51268 4.60304 8.50384 4.58714C8.44658 4.48656 8.38298 4.38966 8.32022 4.29259C8.31254 4.28071 8.30502 4.26883 8.29718 4.25661C8.2905 4.24623 8.28382 4.23586 8.27698 4.22514C8.26279 4.19904 8.26279 4.19904 8.26279 4.16556C8.25177 4.16004 8.24076 4.15452 8.22941 4.14883C8.22941 4.13778 8.22941 4.12674 8.22941 4.11536C8.22189 4.10816 8.21422 4.1008 8.20637 4.09343C8.17365 4.05912 8.16147 4.02582 8.14594 3.98147C8.13493 3.98147 8.12391 3.98147 8.11256 3.98147C8.10588 3.96239 8.10588 3.96239 8.09904 3.94281C8.08234 3.89779 8.08234 3.89779 8.05213 3.87068C8.04445 3.86298 8.03694 3.85545 8.02909 3.84758C8.02909 3.83101 8.02909 3.81444 8.02909 3.79737C8.01808 3.79737 8.00706 3.79737 7.99571 3.79737C7.92176 3.67302 7.92176 3.67302 7.91224 3.61328C7.90123 3.61328 7.89021 3.61328 7.87886 3.61328C7.87886 3.59118 7.87886 3.56909 7.87886 3.54633C7.86784 3.54633 7.85682 3.54633 7.84547 3.54633C7.81376 3.51052 7.79523 3.47905 7.7777 3.43437C7.76585 3.39303 7.76585 3.39303 7.72862 3.37897C7.71694 3.35102 7.70525 3.32291 7.6939 3.29479C7.67287 3.24944 7.64466 3.21178 7.61495 3.17178C7.58907 3.1363 7.5672 3.09881 7.545 3.06099C7.53399 3.04442 7.52297 3.02785 7.51162 3.01078C7.42431 2.8794 7.42431 2.8794 7.41146 2.80995C7.40044 2.80995 7.38943 2.80995 7.37808 2.80995C7.3709 2.79438 7.3709 2.79438 7.36339 2.77848C7.34569 2.74083 7.34569 2.74083 7.31131 2.70953C7.30613 2.68978 7.30096 2.6702 7.29561 2.64995C7.28977 2.63087 7.28393 2.61196 7.27792 2.59238C7.26139 2.58686 7.24487 2.58133 7.22784 2.57564C7.20814 2.54703 7.20814 2.54703 7.18928 2.5097C7.15823 2.45096 7.12618 2.39322 7.0923 2.33615C7.08028 2.31607 7.08028 2.31607 7.06809 2.29548C7.04489 2.25733 7.04489 2.25733 7.01718 2.22235C6.99414 2.19072 6.99414 2.19072 6.97745 2.14051C6.96092 2.1236 6.94406 2.10704 6.92737 2.0903C6.90784 2.0585 6.90784 2.0585 6.89081 2.02436C6.88514 2.01315 6.8793 2.00193 6.87345 1.99055C6.8606 1.95641 6.8606 1.95641 6.8606 1.88947C6.9232 1.856 6.9232 1.856 6.96076 1.856C6.96627 1.84495 6.97177 1.8339 6.97745 1.82252C6.99965 1.81131 7.02202 1.80026 7.04422 1.78905C7.04973 1.77801 7.05524 1.76696 7.06091 1.75558C7.0943 1.7442 7.12768 1.73299 7.16107 1.72211C7.17209 1.71106 7.1831 1.70002 7.19446 1.68864C7.22984 1.67826 7.22984 1.67826 7.26123 1.6719C7.25572 1.66085 7.25021 1.64981 7.24453 1.63843C7.25939 1.63357 7.25939 1.63357 7.27441 1.62855C7.34319 1.60596 7.41146 1.58286 7.47823 1.55475C7.47823 1.5437 7.47823 1.53266 7.47823 1.52128C7.49092 1.5196 7.50377 1.51776 7.51679 1.51609C7.5622 1.50856 7.5622 1.50856 7.58674 1.47843C7.61177 1.45433 7.61177 1.45433 7.65668 1.45115C7.67571 1.45283 7.67571 1.45283 7.69524 1.45433C7.70075 1.43776 7.70626 1.42119 7.71193 1.40412C7.76151 1.39592 7.76151 1.39592 7.81209 1.38739C7.8176 1.37082 7.8231 1.35425 7.82878 1.33718C7.86183 1.33718 7.89488 1.33718 7.92894 1.33718C7.92894 1.32061 7.92894 1.30404 7.92894 1.28697C7.98686 1.27877 7.98686 1.27877 8.04579 1.27024C8.05129 1.25367 8.0568 1.2371 8.06248 1.22003C8.13676 1.21183 8.13676 1.21183 8.21271 1.20329C8.21271 1.19225 8.21271 1.1812 8.21271 1.16982C8.27882 1.15325 8.27882 1.15325 8.34626 1.13635C8.34626 1.1253 8.34626 1.11426 8.34626 1.10288C8.36161 1.09986 8.36161 1.09986 8.3773 1.09668C8.39767 1.0925 8.39767 1.0925 8.4182 1.08815C8.43156 1.08547 8.44491 1.08279 8.45877 1.07995C8.50066 1.07041 8.50066 1.07041 8.54657 1.03593C8.57428 1.02957 8.60199 1.02371 8.63003 1.0192C8.63003 1.00815 8.63003 0.997104 8.63003 0.985723C8.65591 0.983213 8.65591 0.983213 8.68211 0.980535C8.74688 0.968987 8.78945 0.949574 8.84704 0.918779C8.88042 0.907399 8.91381 0.896186 8.9472 0.885307C8.9527 0.879785 8.95821 0.874262 8.96389 0.868571C8.99477 0.862044 9.02565 0.856187 9.0567 0.850831C9.08207 0.846313 9.08207 0.846313 9.10795 0.841794C9.12097 0.839618 9.13399 0.837443 9.14751 0.835099C9.14751 0.824054 9.14751 0.813008 9.14751 0.801627C9.16821 0.799619 9.18891 0.797443 9.21011 0.795268C9.24967 0.791419 9.27721 0.7869 9.31243 0.768155C9.35917 0.746064 9.40074 0.74439 9.45215 0.741043C9.47018 0.739704 9.48821 0.738533 9.50674 0.737194C9.52042 0.736357 9.53411 0.73552 9.54813 0.734683C9.54813 0.723638 9.54813 0.712592 9.54813 0.701211C9.56232 0.699203 9.57668 0.697195 9.59137 0.695019C9.61908 0.690835 9.61908 0.690835 9.64729 0.686484C9.66565 0.683806 9.68401 0.681128 9.70304 0.678283C9.71807 0.674769 9.73292 0.671421 9.74845 0.667739C9.75396 0.656694 9.75946 0.645648 9.76514 0.634267C9.8042 0.626401 9.8436 0.620377 9.88299 0.615523C9.90452 0.612678 9.92606 0.609833 9.94826 0.606988C9.9733 0.603975 9.9733 0.603975 9.99884 0.600795C9.99884 0.58975 9.99884 0.578704 9.99884 0.567323C10.0175 0.566487 10.0362 0.56565 10.0554 0.564813C10.0801 0.563641 10.1047 0.562303 10.1292 0.560964C10.1416 0.560462 10.1539 0.55996 10.1666 0.559457C10.2295 0.55611 10.2626 0.55293 10.316 0.517115C10.3502 0.510756 10.3502 0.510756 10.3891 0.507743C10.4031 0.506404 10.4172 0.505233 10.4315 0.503894C10.4611 0.501551 10.4904 0.499208 10.52 0.496865C10.5338 0.495526 10.5479 0.494354 10.5622 0.493016C10.5751 0.492011 10.5879 0.491007 10.6011 0.490003C10.637 0.485986 10.637 0.485986 10.6665 0.450171C10.7163 0.444816 10.7163 0.444816 10.7794 0.44331C10.7904 0.442975 10.8014 0.44264 10.8129 0.442305C10.8483 0.441301 10.8837 0.440465 10.9189 0.439795C10.943 0.439126 10.967 0.438456 10.9909 0.437787C11.0498 0.436113 11.1086 0.434774 11.1673 0.433435C11.1673 0.42239 11.1673 0.411344 11.1673 0.399963ZM10.6665 7.96464C10.6832 7.99811 10.6832 7.99811 10.6832 7.99811L10.6665 7.96464ZM10.7834 8.14873C10.8001 8.1822 10.8001 8.1822 10.8001 8.1822L10.7834 8.14873ZM20.3984 14.6088C20.4039 14.6199 20.4094 14.6309 20.4151 14.6423C20.4206 14.6313 20.4261 14.6202 20.4318 14.6088C20.4208 14.6088 20.4098 14.6088 20.3984 14.6088ZM19.8309 15.5628C19.8476 15.5963 19.8476 15.5963 19.8476 15.5963L19.8309 15.5628ZM19.4136 16.0983C19.4302 16.1318 19.4302 16.1318 19.4302 16.1318L19.4136 16.0983ZM18.9128 16.6339C18.9295 16.6674 18.9295 16.6674 18.9295 16.6674L18.9128 16.6339ZM18.6624 16.8849C18.6791 16.9184 18.6791 16.9184 18.6791 16.9184L18.6624 16.8849ZM18.195 17.2866C18.195 17.3032 18.195 17.3197 18.195 17.3368C18.206 17.3313 18.217 17.3258 18.2284 17.3201C18.2173 17.309 18.2063 17.298 18.195 17.2866ZM16.8262 18.2405C16.8429 18.274 16.8429 18.274 16.8429 18.274L16.8262 18.2405Z" fill="#FADB06"/>
<path d="M4.64047 1.52128C4.7418 1.56262 4.79905 1.63994 4.84078 1.73885C4.84078 1.74989 4.84078 1.76094 4.84078 1.77232C4.8518 1.77232 4.86282 1.77232 4.87417 1.77232C4.87417 1.78336 4.87417 1.79441 4.87417 1.80579C4.88519 1.80579 4.8962 1.80579 4.90755 1.80579C4.9144 1.82303 4.92124 1.84027 4.92842 1.85801C4.95947 1.93081 5.0012 1.9934 5.04944 2.05583C5.07815 2.09532 5.10119 2.13683 5.12506 2.17967C5.14459 2.21331 5.16763 2.24344 5.19133 2.2744C5.24141 2.35256 5.24141 2.35256 5.24141 2.39155C5.25243 2.39707 5.26344 2.4026 5.2748 2.40829C5.32487 2.4836 5.32487 2.4836 5.32487 2.52544C5.33789 2.53749 5.35108 2.54954 5.3646 2.56209C5.41451 2.61581 5.42303 2.65648 5.44172 2.72627C5.45825 2.73179 5.47477 2.73732 5.4918 2.74301C5.5115 2.77229 5.5115 2.77229 5.53036 2.80995C5.58328 2.9102 5.64187 3.00543 5.71615 3.09128C5.74219 3.12793 5.74219 3.12793 5.73802 3.16659C5.73385 3.17597 5.72967 3.18534 5.7255 3.19488C5.73551 3.19906 5.74553 3.20325 5.75571 3.20743C5.79795 3.23153 5.81731 3.25396 5.84235 3.29529C5.84235 3.31186 5.84235 3.32843 5.84235 3.3455C5.85337 3.3455 5.86438 3.3455 5.87573 3.3455C5.88057 3.35588 5.88542 3.36626 5.89042 3.37697C5.90812 3.41462 5.90812 3.41462 5.9425 3.44592C5.99258 3.53864 5.99258 3.53864 5.99258 3.57981C6.0036 3.57981 6.01462 3.57981 6.02597 3.57981C6.06653 3.63621 6.07605 3.65897 6.07605 3.73043C6.08706 3.73043 6.09808 3.73043 6.10943 3.73043C6.11561 3.75838 6.11561 3.75838 6.12195 3.787C6.13581 3.84859 6.13581 3.84859 6.17721 3.8675C6.18789 3.87202 6.19857 3.87637 6.20959 3.88105C6.22211 3.91653 6.22211 3.91653 6.22628 3.948C6.2373 3.948 6.24832 3.948 6.25967 3.948C6.25967 3.97561 6.25967 4.00323 6.25967 4.03168C6.27035 4.03586 6.28103 4.04005 6.29205 4.04423C6.32644 4.06515 6.32644 4.06515 6.33896 4.10063C6.34029 4.11101 6.3418 4.12138 6.34313 4.13209C6.35415 4.13209 6.36517 4.13209 6.37652 4.13209C6.37652 4.15971 6.37652 4.18732 6.37652 4.21577C6.3872 4.22063 6.39788 4.22548 6.4089 4.2305C6.44329 4.24925 6.44329 4.24925 6.45998 4.28272C6.45447 4.29929 6.44896 4.31586 6.44329 4.33293C6.45981 4.33845 6.47634 4.34397 6.49337 4.34966C6.49337 4.36071 6.49337 4.37175 6.49337 4.38313C6.50438 4.38313 6.5154 4.38313 6.52675 4.38313C6.5336 4.40104 6.54044 4.41912 6.54762 4.43753C6.57115 4.49309 6.6002 4.52506 6.6436 4.56723C6.66063 4.60054 6.67732 4.63401 6.69368 4.66765C6.70553 4.67919 6.70553 4.67919 6.71755 4.69108C6.74826 4.72254 6.76663 4.75451 6.78749 4.79317C6.79467 4.80605 6.80185 4.81911 6.80903 4.83233C6.82722 4.86848 6.82722 4.86848 6.84391 4.91869C6.85493 4.92421 6.86595 4.92973 6.8773 4.93542C6.8773 4.94647 6.8773 4.95751 6.8773 4.96889C6.88782 4.99149 6.899 5.01375 6.91068 5.03584C6.9217 5.03584 6.93272 5.03584 6.94407 5.03584C6.95091 5.05375 6.95776 5.07165 6.96494 5.09023C6.98296 5.13274 6.99532 5.15416 7.02854 5.18747C7.06877 5.2278 7.07661 5.26696 7.0943 5.32035C7.11083 5.32587 7.12736 5.3314 7.14438 5.33709C7.17426 5.38395 7.17426 5.38395 7.20481 5.44269C7.21516 5.46194 7.22534 5.48118 7.23586 5.5011C7.26123 5.55466 7.26123 5.55466 7.26991 5.59298C7.27659 5.62846 7.27659 5.62846 7.328 5.65507C7.328 5.66612 7.328 5.67716 7.328 5.68854C7.33902 5.68854 7.35004 5.68854 7.36139 5.68854C7.36523 5.70612 7.3689 5.72369 7.37291 5.74193C7.39177 5.80887 7.42599 5.84335 7.47824 5.88938C7.52181 5.92837 7.53099 5.95063 7.54501 6.00653C7.55285 6.01372 7.56087 6.02109 7.56905 6.02845C7.60811 6.07079 7.61495 6.11883 7.62847 6.17389C7.63949 6.17389 7.65051 6.17389 7.66186 6.17389C7.66637 6.1928 7.67087 6.21188 7.67538 6.23146C7.68189 6.25104 7.68857 6.27079 7.69524 6.29104C7.71177 6.29656 7.7283 6.30208 7.74532 6.30778C7.76552 6.33823 7.76552 6.33823 7.78505 6.37673C7.81209 6.42878 7.84014 6.47564 7.87569 6.52216C7.91225 6.57555 7.91225 6.57555 7.91225 6.6425C7.92227 6.64634 7.93228 6.65019 7.94246 6.65421C7.98837 6.68149 8.00322 6.70894 8.0291 6.75546C8.03778 6.77053 8.04629 6.78559 8.05514 6.80115C8.06699 6.82207 8.06699 6.82207 8.07918 6.84333C8.09019 6.8599 8.10121 6.87646 8.11256 6.89354C8.15146 6.95194 8.18651 7.01236 8.22173 7.07311C8.2441 7.11094 8.2441 7.11094 8.27215 7.13704C8.3082 7.17336 8.32423 7.21654 8.34526 7.26273C8.36145 7.29587 8.36145 7.29587 8.38733 7.31963C8.41854 7.35093 8.43623 7.38373 8.45677 7.42273C8.48064 7.47093 8.48064 7.47093 8.51319 7.51277C8.51386 7.54072 8.51386 7.5685 8.51319 7.59645C8.52287 7.59963 8.53238 7.60264 8.5424 7.60582C8.58714 7.63461 8.60333 7.66707 8.6277 7.7136C8.64873 7.75042 8.67277 7.78272 8.69881 7.81602C8.73587 7.86422 8.75907 7.90757 8.78027 7.96464C8.80565 7.99426 8.80565 7.99426 8.83035 8.01485C8.82484 8.02589 8.81933 8.03694 8.81366 8.04832C8.82468 8.05384 8.83569 8.05937 8.84704 8.06506C8.86858 8.09418 8.86858 8.09418 8.89078 8.12999C8.90196 8.1474 8.90196 8.1474 8.91348 8.1653C8.93051 8.19894 8.93051 8.19894 8.93051 8.24915C8.94703 8.24915 8.96356 8.24915 8.98059 8.24915C8.98726 8.2617 8.99394 8.27426 9.00078 8.28714C9.00963 8.30354 9.01848 8.32011 9.02749 8.33702C9.04068 8.36145 9.04068 8.36145 9.05387 8.38639C9.07891 8.43308 9.07891 8.43308 9.11012 8.46956C9.11697 8.47977 9.12381 8.48981 9.13082 8.50019C9.12531 8.51676 9.1198 8.53333 9.11413 8.5504C9.13065 8.5504 9.14718 8.5504 9.16421 8.5504C9.20894 8.60914 9.22263 8.66186 9.23098 8.7345C9.2475 8.74002 9.26403 8.74554 9.28106 8.75123C9.30409 8.78403 9.32629 8.81767 9.34783 8.85165C9.35918 8.86587 9.37053 8.87993 9.38221 8.89449C9.43513 8.96127 9.46467 8.99893 9.46467 9.08595C9.47569 9.08595 9.48671 9.08595 9.49806 9.08595C9.49806 9.097 9.49806 9.10804 9.49806 9.11942C9.51459 9.12495 9.53111 9.13047 9.54814 9.13616C9.58086 9.18603 9.58152 9.20746 9.58152 9.27005C9.59254 9.27005 9.60356 9.27005 9.61491 9.27005C9.67133 9.31256 9.6952 9.37716 9.72441 9.43942C9.75563 9.51791 9.75563 9.51791 9.81522 9.5713C9.81723 9.62786 9.81723 9.62786 9.81522 9.68845C9.80421 9.69949 9.79319 9.71054 9.78184 9.72192C9.7598 9.72192 9.73777 9.72192 9.71507 9.72192C9.71507 9.73297 9.71507 9.74401 9.71507 9.75539C9.70405 9.75539 9.69303 9.75539 9.68168 9.75539C9.67617 9.77196 9.67066 9.78853 9.66499 9.8056C9.63745 9.80008 9.6099 9.79455 9.58152 9.78886C9.58703 9.80543 9.59254 9.822 9.59822 9.83907C9.57618 9.83907 9.55415 9.83907 9.53145 9.83907C9.53145 9.85012 9.53145 9.86116 9.53145 9.87254C9.52277 9.87656 9.51409 9.88058 9.50524 9.88476C9.44932 9.91171 9.40141 9.93664 9.353 9.97614C9.31127 10.0089 9.28323 10.0171 9.23098 10.0232C9.23098 10.0342 9.23098 10.0453 9.23098 10.0566C9.19242 10.0677 9.15386 10.0787 9.11413 10.0901C9.11413 10.1012 9.11413 10.1122 9.11413 10.1236C9.10311 10.1271 9.09209 10.1304 9.08074 10.134C9.02315 10.1606 8.97908 10.1955 8.92917 10.2344C8.89262 10.2608 8.85572 10.275 8.81366 10.2909C8.79997 10.3023 8.78612 10.3137 8.77193 10.3254C8.72819 10.3594 8.70098 10.3684 8.64673 10.3746C8.64673 10.3857 8.64673 10.3967 8.64673 10.4081C8.63772 10.4123 8.62854 10.4166 8.61935 10.421C8.60734 10.4267 8.59532 10.4325 8.58313 10.4384C8.57128 10.4441 8.55943 10.4498 8.54724 10.4555C8.51285 10.4752 8.49099 10.4971 8.46311 10.5252C8.42438 10.5425 8.38549 10.5592 8.34626 10.5755C8.30019 10.6007 8.26163 10.6267 8.22107 10.6601C8.17967 10.6924 8.14411 10.7067 8.09587 10.7261C8.06799 10.7483 8.04012 10.7706 8.01241 10.793C7.97919 10.8101 7.9458 10.8268 7.91225 10.8432C7.90123 10.8543 7.89022 10.8653 7.87886 10.8767C7.85683 10.8767 7.8348 10.8767 7.81209 10.8767C7.81209 10.8877 7.81209 10.8988 7.81209 10.9102C7.79557 10.9102 7.77904 10.9102 7.76201 10.9102C7.76201 10.9212 7.76201 10.9323 7.76201 10.9436C7.74549 10.9436 7.72896 10.9436 7.71194 10.9436C7.70643 10.9547 7.70092 10.9657 7.69524 10.9771C7.67321 10.9771 7.65118 10.9771 7.62847 10.9771C7.62296 10.9937 7.61746 11.0103 7.61178 11.0273C7.58641 11.0469 7.58641 11.0469 7.55536 11.064C7.54534 11.0697 7.53516 11.0755 7.52481 11.0814C7.49493 11.0943 7.49493 11.0943 7.44485 11.0943C7.44485 11.1053 7.44485 11.1164 7.44485 11.1277C7.43 11.1316 7.41531 11.1353 7.39995 11.1393C7.34236 11.1577 7.34236 11.1577 7.30296 11.2041C7.25472 11.2513 7.22701 11.2569 7.16108 11.2616C7.15557 11.2782 7.15006 11.2948 7.14438 11.3118C7.11133 11.3174 7.07828 11.3229 7.04423 11.3286C7.03872 11.3451 7.03321 11.3617 7.02753 11.3788C6.96594 11.4268 6.94006 11.4457 6.86061 11.4457C6.86061 11.4568 6.86061 11.4678 6.86061 11.4792C6.84959 11.4792 6.83857 11.4792 6.82722 11.4792C6.82722 11.4902 6.82722 11.5013 6.82722 11.5127C6.79968 11.5127 6.77213 11.5127 6.74376 11.5127C6.73825 11.5292 6.73274 11.5458 6.72706 11.5629C6.70169 11.5825 6.70169 11.5825 6.67064 11.5995C6.66063 11.6052 6.65044 11.6111 6.6401 11.6169C6.61022 11.6298 6.61021 11.6298 6.56014 11.6298C6.56014 11.6409 6.56014 11.6519 6.56014 11.6633C6.52158 11.6743 6.48302 11.6854 6.44329 11.6968C6.44329 11.7078 6.44329 11.7189 6.44329 11.7302C6.4104 11.7543 6.37785 11.7759 6.34313 11.7972C6.33312 11.8035 6.3231 11.8099 6.31275 11.8164C6.25583 11.8512 6.22795 11.8641 6.15951 11.8641C6.15584 11.8742 6.15217 11.884 6.14833 11.8944C6.11911 11.9426 6.08823 11.9567 6.03849 11.9823C6.01378 11.9953 6.01378 11.9953 5.98841 12.0084C5.95486 12.0253 5.92114 12.0415 5.88725 12.0576C5.84836 12.0785 5.82265 12.0978 5.79027 12.1267C5.74219 12.1654 5.74219 12.1654 5.67542 12.1654C5.67542 12.1764 5.67542 12.1875 5.67542 12.1988C5.66641 12.203 5.65723 12.2074 5.64804 12.2117C5.63603 12.2174 5.62401 12.2233 5.61182 12.2291C5.59997 12.2348 5.58812 12.2405 5.57593 12.2462C5.54121 12.2641 5.54121 12.2641 5.51634 12.2919C5.47678 12.3307 5.42753 12.3366 5.37495 12.3495C5.37495 12.3605 5.37495 12.3716 5.37495 12.3829C5.35776 12.3895 5.34056 12.396 5.32287 12.4029C5.26845 12.4258 5.23106 12.4561 5.18716 12.4956C5.12506 12.5408 5.03525 12.5838 4.95763 12.5838C4.95146 12.5998 4.95146 12.5998 4.94511 12.6162C4.92425 12.6507 4.92425 12.6507 4.88886 12.6633C4.87333 12.6653 4.87333 12.6653 4.85748 12.6675C4.85748 12.6785 4.85748 12.6895 4.85748 12.7009C4.83544 12.7009 4.81341 12.7009 4.7907 12.7009C4.7907 12.712 4.7907 12.723 4.7907 12.7344C4.74647 12.7525 4.70257 12.7694 4.65716 12.7846C4.65165 12.7957 4.64615 12.8067 4.64047 12.8181C4.62945 12.8181 4.61844 12.8181 4.60708 12.8181C4.60708 12.8291 4.60708 12.8402 4.60708 12.8516C4.59807 12.8561 4.58889 12.8604 4.57971 12.8649C4.56769 12.871 4.55567 12.8768 4.54349 12.883C4.53163 12.8887 4.51978 12.8946 4.5076 12.9006C4.47004 12.9197 4.47004 12.9197 4.42346 12.952C4.40694 12.9575 4.39041 12.963 4.37339 12.9687C4.35085 12.9849 4.32848 13.0017 4.30662 13.0189C4.28141 13.037 4.25604 13.0547 4.2305 13.0723C4.2113 13.0855 4.2113 13.0855 4.19177 13.0991C4.15638 13.1193 4.15638 13.1193 4.1063 13.1193C4.09362 13.1324 4.08076 13.1456 4.06774 13.1592C4.01449 13.2112 3.96475 13.2365 3.8893 13.2365C3.88379 13.253 3.87828 13.2696 3.8726 13.2867C3.86159 13.2867 3.85057 13.2867 3.83922 13.2867C3.83371 13.2977 3.8282 13.3088 3.82253 13.3202C3.806 13.3146 3.78947 13.3091 3.77245 13.3034C3.76694 13.32 3.76143 13.3366 3.75575 13.3536C3.69933 13.395 3.67713 13.4038 3.60552 13.4038C3.60168 13.414 3.59801 13.4241 3.594 13.4346C3.56562 13.4815 3.53808 13.4924 3.48867 13.5146C3.42507 13.5436 3.42507 13.5436 3.37182 13.5879C3.34979 13.5879 3.32775 13.5879 3.30505 13.5879C3.29954 13.6045 3.29403 13.6211 3.28836 13.6381C3.22676 13.6862 3.20089 13.7051 3.12143 13.7051C3.12143 13.7161 3.12143 13.7272 3.12143 13.7386C3.1029 13.7427 3.0842 13.7469 3.06501 13.7511C3.00358 13.7647 3.00358 13.7647 2.98689 13.8055C2.98171 13.8166 2.97654 13.8276 2.97119 13.839C2.92212 13.8589 2.92212 13.8589 2.87104 13.8724C2.85451 13.878 2.83799 13.8835 2.82096 13.8892C2.82096 13.9002 2.82096 13.9113 2.82096 13.9227C2.80243 13.9268 2.78374 13.931 2.76454 13.9352C2.70328 13.9496 2.70328 13.9496 2.68007 13.9916C2.67707 14.002 2.6739 14.0124 2.67073 14.0231C2.64318 14.0231 2.61564 14.0231 2.58726 14.0231C2.58726 14.0341 2.58726 14.0452 2.58726 14.0565C2.526 14.1041 2.49929 14.1235 2.42033 14.1235C2.41649 14.1339 2.41249 14.1444 2.40848 14.1551C2.38077 14.2005 2.36007 14.2053 2.30983 14.2197C2.29614 14.2237 2.28245 14.2278 2.26843 14.2319C2.25791 14.2348 2.24756 14.2376 2.23671 14.2406C2.23671 14.2517 2.23671 14.2627 2.23671 14.2741C2.2277 14.2783 2.21852 14.2826 2.20934 14.287C2.19732 14.2927 2.1853 14.2985 2.17311 14.3044C2.16126 14.3101 2.14941 14.3158 2.13723 14.3215C2.10217 14.3396 2.10217 14.3396 2.07696 14.3685C2.05309 14.3913 2.05309 14.3913 2.00302 14.3913C2.00302 14.4023 2.00302 14.4134 2.00302 14.4247C1.98098 14.4247 1.95895 14.4247 1.93624 14.4247C1.93624 14.4358 1.93624 14.4468 1.93624 14.4582C1.91772 14.4627 1.89902 14.4672 1.87982 14.4718C1.81572 14.486 1.81572 14.486 1.78601 14.5419C1.69003 14.5273 1.69003 14.5273 1.65247 14.5084C1.64028 14.4698 1.6291 14.4306 1.61908 14.3913C1.60806 14.3913 1.59705 14.3913 1.5857 14.3913C1.58152 14.3826 1.57718 14.3739 1.57284 14.365C1.56717 14.3533 1.56133 14.3416 1.55548 14.3295C1.54981 14.3181 1.54413 14.3066 1.53846 14.2949C1.5251 14.2693 1.51108 14.2442 1.49622 14.2196C1.4605 14.1598 1.42828 14.0984 1.39573 14.0366C1.38922 14.0241 1.38255 14.0114 1.3757 13.9983C1.24032 13.7402 1.24032 13.7402 1.19876 13.6227C1.17639 13.5657 1.14785 13.5118 1.1198 13.4574C1.09593 13.409 1.08491 13.3746 1.08491 13.3202C1.0739 13.3202 1.06288 13.3202 1.05153 13.3202C1.04953 13.3108 1.04736 13.3016 1.04519 13.2919C1.03534 13.2519 1.03534 13.2519 1.01714 13.2104C1.00145 13.1695 1.00145 13.1695 1.00145 13.1193C0.990433 13.1193 0.979416 13.1193 0.968065 13.1193C0.963725 13.1056 0.963725 13.1056 0.959385 13.0917C0.937517 13.0231 0.913646 12.9568 0.8836 12.8914C0.848545 12.8142 0.827011 12.7364 0.805978 12.6546C0.801638 12.638 0.797298 12.6216 0.792791 12.6047C0.788785 12.5893 0.784945 12.5737 0.780772 12.5578C0.768753 12.5132 0.768753 12.5132 0.734366 12.4666C0.732029 12.4487 0.729525 12.4308 0.727021 12.4122C0.717006 12.345 0.695138 12.2942 0.667595 12.2323C0.647063 12.1657 0.630537 12.0999 0.617517 12.0315C0.603328 11.9629 0.589306 11.8958 0.566437 11.8297C0.553083 11.788 0.546907 11.7543 0.5424 11.7115C0.538393 11.6502 0.538393 11.6502 0.517361 11.6149C0.496328 11.5706 0.495493 11.5344 0.493323 11.4856C0.488816 11.4179 0.480303 11.3592 0.458936 11.2951C0.432728 11.2163 0.426051 11.1413 0.422379 11.0585C0.41904 11.0099 0.41904 11.0099 0.400678 10.9634C0.379478 10.8966 0.376808 10.8345 0.374471 10.7647C0.371633 10.6687 0.371633 10.6687 0.350433 10.5755C0.357778 10.5304 0.357778 10.5304 0.367126 10.4918C0.356109 10.4918 0.345091 10.4918 0.33374 10.4918C0.33374 9.88978 0.33374 9.28779 0.33374 8.66755C0.344757 8.66755 0.355775 8.66755 0.367126 8.66755C0.363954 8.64579 0.360949 8.62404 0.357778 8.60161C0.352436 8.56463 0.352436 8.56462 0.350433 8.53366C0.355942 8.52814 0.36145 8.52262 0.367126 8.51693C0.369797 8.49333 0.371299 8.46956 0.372468 8.4458C0.373135 8.43141 0.373803 8.41718 0.374471 8.40245C0.375472 8.37986 0.375472 8.37986 0.376474 8.35693C0.377308 8.34187 0.377976 8.32664 0.378644 8.31124C0.38048 8.27375 0.382149 8.23643 0.383818 8.19894C0.394836 8.19894 0.405853 8.19894 0.417204 8.19894C0.422713 8.16028 0.428221 8.12162 0.433897 8.08179C0.42288 8.07627 0.411862 8.07075 0.400511 8.06506C0.411528 8.06506 0.422546 8.06506 0.433897 8.06506C0.439405 7.98221 0.444914 7.89937 0.45059 7.81402C0.461607 7.81402 0.472624 7.81402 0.483975 7.81402C0.489484 7.72013 0.494992 7.62624 0.500668 7.5295C0.511685 7.52398 0.522702 7.51846 0.534053 7.51277C0.541064 7.47093 0.546573 7.43043 0.550746 7.38825C0.562932 7.26625 0.562932 7.26625 0.600824 7.22826C0.607668 7.19294 0.61301 7.15729 0.617517 7.12148C0.62603 7.0542 0.635879 7.00349 0.667595 6.94374C0.670266 6.92333 0.673104 6.90307 0.675942 6.88199C0.680115 6.85454 0.680115 6.85454 0.684288 6.82659C0.695305 6.82107 0.706322 6.81555 0.717674 6.80985C0.724184 6.77471 0.724184 6.77471 0.72602 6.73454C0.728691 6.69321 0.728691 6.69321 0.734366 6.65923C0.745384 6.65371 0.756401 6.64819 0.767752 6.6425C0.778101 6.59982 0.778101 6.59982 0.784445 6.55045C0.791789 6.49974 0.791789 6.49974 0.801137 6.4584C0.812155 6.45288 0.823172 6.44735 0.834523 6.44166C0.846041 6.40618 0.846041 6.40618 0.853219 6.36535C0.856056 6.35146 0.858894 6.33756 0.861732 6.32334C0.863735 6.3128 0.865905 6.30208 0.867908 6.29104C0.878926 6.29104 0.889943 6.29104 0.901294 6.29104C0.902295 6.2805 0.903297 6.27012 0.904298 6.25924C0.905801 6.24552 0.907136 6.23196 0.908639 6.21774C0.909974 6.20418 0.911309 6.19062 0.912645 6.17656C0.917986 6.14042 0.917987 6.14042 0.934679 6.10694C0.945697 6.10694 0.956714 6.10694 0.968065 6.10694C0.969066 6.0964 0.970068 6.08602 0.971069 6.07514C0.972572 6.06142 0.973907 6.04786 0.97541 6.03364C0.976745 6.02008 0.97808 6.00653 0.979416 5.99247C0.984757 5.95632 0.984758 5.95632 1.00145 5.92285C1.01247 5.92285 1.02348 5.92285 1.03484 5.92285C1.03484 5.89523 1.03484 5.86762 1.03484 5.83917C1.04585 5.83364 1.05687 5.82812 1.06822 5.82243C1.07974 5.78695 1.07974 5.78695 1.08692 5.74611C1.08975 5.73222 1.09259 5.71833 1.09543 5.70411C1.09844 5.68821 1.09844 5.68821 1.10161 5.67181C1.11262 5.67181 1.12364 5.67181 1.13499 5.67181C1.15152 5.6221 1.15152 5.6221 1.16838 5.57139C1.1794 5.57139 1.19041 5.57139 1.20176 5.57139C1.20276 5.56085 1.20377 5.55047 1.20477 5.53959C1.20627 5.52587 1.20761 5.51231 1.20911 5.49809C1.21044 5.48453 1.21178 5.47097 1.21311 5.45692C1.21846 5.42077 1.21846 5.42077 1.23515 5.38729C1.24617 5.38729 1.25718 5.38729 1.26853 5.38729C1.27338 5.37106 1.27822 5.35483 1.28322 5.33809C1.30192 5.28688 1.30192 5.28688 1.33531 5.27014C1.33531 5.24253 1.33531 5.21491 1.33531 5.18646C1.35183 5.19199 1.36836 5.19751 1.38538 5.2032C1.38538 5.19215 1.38538 5.18111 1.38538 5.16973C1.37437 5.1642 1.36335 5.15868 1.352 5.15299C1.36302 5.14747 1.37403 5.14194 1.38538 5.13625C1.39089 5.11969 1.3964 5.10312 1.40208 5.08605C1.41309 5.08605 1.42411 5.08605 1.43546 5.08605C1.42995 5.06948 1.42444 5.05291 1.41877 5.03584C1.42979 5.03584 1.4408 5.03584 1.45215 5.03584C1.48871 4.96538 1.51943 4.89241 1.54881 4.81877C1.58219 4.73626 1.58219 4.73626 1.61908 4.71785C1.63661 4.68689 1.63661 4.68689 1.65247 4.65091C1.65864 4.6392 1.66482 4.62748 1.67116 4.61543C1.68819 4.58464 1.68819 4.58464 1.68585 4.55049C1.70238 4.54497 1.7189 4.53945 1.73593 4.53376C1.7391 4.51351 1.7391 4.51351 1.74227 4.49292C1.74561 4.47886 1.74912 4.46464 1.75262 4.45008C1.76364 4.44456 1.77466 4.43903 1.78601 4.43334C1.79152 4.4223 1.79703 4.41125 1.8027 4.39987C1.8194 4.3664 1.8194 4.3664 1.85278 4.34966C1.85278 4.33309 1.85278 4.31653 1.85278 4.29945C1.92439 4.2049 1.92439 4.2049 1.96963 4.1823C1.97447 4.16992 1.97931 4.15737 1.98432 4.14465C2.00552 4.0926 2.03423 4.05829 2.06979 4.01494C2.0773 4.00222 2.08498 3.98934 2.09282 3.97628C2.11636 3.93712 2.14123 3.90248 2.16894 3.86633C2.21418 3.80691 2.25124 3.746 2.28679 3.68022C2.29781 3.68022 2.30883 3.68022 2.32018 3.68022C2.32435 3.67052 2.32852 3.66081 2.3327 3.65093C2.35657 3.60776 2.38328 3.5788 2.42033 3.54633C2.43135 3.54633 2.44237 3.54633 2.45372 3.54633C2.45572 3.53295 2.45789 3.51939 2.46006 3.5055C2.4634 3.49144 2.46691 3.47721 2.47041 3.46265C2.48143 3.45713 2.49245 3.45161 2.5038 3.44592C2.51749 3.42784 2.53067 3.40927 2.54353 3.39052C2.60012 3.3122 2.66705 3.24676 2.73666 3.18032C2.77739 3.14065 2.80277 3.11572 2.82096 3.06099C2.83749 3.06099 2.85401 3.06099 2.87104 3.06099C2.87655 3.04442 2.88206 3.02785 2.88773 3.01078C2.92012 2.97413 2.92012 2.97413 2.9545 2.94384C2.96552 2.94384 2.97654 2.94384 2.98789 2.94384C3.00441 2.9107 3.00441 2.9107 3.02127 2.87689C3.03229 2.87689 3.04331 2.87689 3.05466 2.87689C3.06017 2.86033 3.06568 2.84376 3.07135 2.82669C3.08237 2.82669 3.09339 2.82669 3.10474 2.82669C3.12126 2.79355 3.12126 2.79355 3.13812 2.75974C3.14914 2.75974 3.16016 2.75974 3.17151 2.75974C3.17702 2.74317 3.18253 2.72661 3.1882 2.70953C3.19922 2.70953 3.21024 2.70953 3.22159 2.70953C3.23811 2.6764 3.23811 2.6764 3.25497 2.64259C3.26599 2.64259 3.27701 2.64259 3.28836 2.64259C3.29387 2.62602 3.29937 2.60945 3.30505 2.59238C3.31607 2.58686 3.32708 2.58134 3.33844 2.57565C3.34211 2.55908 3.34211 2.55908 3.34578 2.54217C3.34879 2.53113 3.35196 2.52008 3.35513 2.5087C3.37165 2.50318 3.38818 2.49766 3.40521 2.49197C3.42791 2.47004 3.44994 2.44762 3.47198 2.42502C3.49234 2.40678 3.51287 2.38854 3.53357 2.37063C3.54492 2.36059 3.55644 2.35055 3.56829 2.34034C3.59434 2.31758 3.62071 2.29482 3.64692 2.27239C3.66044 2.26051 3.67396 2.24879 3.68798 2.23674C3.7005 2.22603 3.71302 2.21515 3.72587 2.20411C3.75976 2.17448 3.75976 2.17448 3.77245 2.12377C3.78346 2.1293 3.79448 2.13482 3.80583 2.14051C3.82236 2.12946 3.83888 2.11842 3.85591 2.10704C3.86693 2.10704 3.87795 2.10704 3.8893 2.10704C3.89497 2.09248 3.89497 2.09248 3.90081 2.07775C3.92819 2.03072 3.96341 2.00612 4.00615 1.97315C4.01165 1.9621 4.01716 1.95106 4.02284 1.93968C4.05038 1.92796 4.07826 1.91692 4.1063 1.90621C4.12283 1.89516 4.13935 1.88411 4.15638 1.87273C4.1674 1.87273 4.17841 1.87273 4.18977 1.87273C4.19644 1.85717 4.19644 1.85717 4.20329 1.84127C4.23033 1.7929 4.26255 1.77617 4.31396 1.75759C4.3622 1.7365 4.38774 1.71006 4.42346 1.6719C4.43448 1.66638 4.4455 1.66086 4.45685 1.65517C4.47237 1.64328 4.47237 1.64328 4.48823 1.63107C4.52362 1.60496 4.52362 1.60496 4.55801 1.58822C4.59256 1.57031 4.61443 1.5499 4.64047 1.52128ZM0.650903 7.01069C0.667595 7.04416 0.667595 7.04416 0.667595 7.04416L0.650903 7.01069Z" fill="#16AD0A"/>
</svg>
