<svg width="44" height="52" viewBox="0 0 44 52" fill="none" xmlns="http://www.w3.org/2000/svg">
<path d="M42.25 21.5C42.25 37.25 22 50.75 22 50.75C22 50.75 1.75 37.25 1.75 21.5C1.75 16.1294 3.88348 10.9787 7.68109 7.18109C11.4787 3.38348 16.6294 1.25 22 1.25C27.3706 1.25 32.5213 3.38348 36.3189 7.18109C40.1165 10.9787 42.25 16.1294 42.25 21.5Z" stroke="#0ED5FF" stroke-width="2" stroke-linecap="round" stroke-linejoin="round"/>
<path d="M22 28.25C25.7279 28.25 28.75 25.2279 28.75 21.5C28.75 17.7721 25.7279 14.75 22 14.75C18.2721 14.75 15.25 17.7721 15.25 21.5C15.25 25.2279 18.2721 28.25 22 28.25Z" stroke="#0ED5FF" stroke-width="2" stroke-linecap="round" stroke-linejoin="round"/>
</svg>
