<svg width="28" height="28" viewBox="0 0 28 28" fill="none" xmlns="http://www.w3.org/2000/svg">
<path d="M20.1157 16.5827H5.16426M17.3973 21.7477H5.16426M19.248 11.374H5.24805M9.62305 27.124H3.49921C3.15449 27.1241 2.81312 27.0564 2.49458 26.9246C2.17604 26.7928 1.88658 26.5996 1.64272 26.3559C1.39885 26.1123 1.20537 25.823 1.07331 25.5046C0.941249 25.1862 0.8732 24.8448 0.873047 24.5001V3.50013C0.873047 2.80363 1.14973 2.13565 1.64223 1.64315C2.13474 1.15065 2.80271 0.873962 3.49921 0.873962H20.2735C20.5035 0.874011 20.7311 0.919373 20.9435 1.00745C21.1559 1.09553 21.3489 1.22461 21.5114 1.3873L26.6109 6.4868C26.7734 6.64938 26.9022 6.84238 26.9901 7.05477C27.078 7.26715 27.1232 7.49478 27.123 7.72463V14.874M20.123 0.873962V6.12396C20.123 6.58809 20.3074 7.03321 20.6356 7.3614C20.9638 7.68959 21.4089 7.87396 21.873 7.87396H27.123" stroke="#0ED5FF" stroke-width="2" stroke-linecap="round" stroke-linejoin="round"/>
</svg>
