<svg width="52" height="50" viewBox="0 0 52 50" fill="none" xmlns="http://www.w3.org/2000/svg">
<path fill-rule="evenodd" clip-rule="evenodd" d="M41.3218 14.8434C41.4756 14.7954 41.678 14.8914 41.8803 15.1554C41.8803 15.1554 41.8803 15.1554 51.0265 24.0044C51.5607 24.5325 51.5607 25.3326 51.0265 25.7246C51.0265 25.7246 51.0265 25.7246 41.8803 34.7097C41.678 34.9737 41.4756 35.0377 41.3218 34.9577C41.1681 34.8777 41.0709 34.6457 41.0709 34.3096V15.4194C41.0709 15.0914 41.1681 14.8914 41.3218 14.8434Z" fill="#ED1C24"/>
<path fill-rule="evenodd" clip-rule="evenodd" d="M25.6762 0.0976562H26.3237L26.947 0.353687C26.947 0.353687 26.947 0.353687 36.3603 9.60276C36.765 10.1308 36.6274 10.5309 35.9556 10.5309C35.9556 10.5309 35.9556 10.5309 32.0543 10.5309C31.3825 10.5309 30.8483 11.0589 30.8483 11.723C30.8483 11.723 30.8483 11.723 30.8483 18.5878C30.8483 19.2519 30.306 19.7799 29.4966 19.7799C29.4966 19.7799 29.4966 19.7799 22.641 19.7799C21.9692 19.7799 21.4269 19.2519 21.4269 18.5878C21.4269 18.5878 21.4269 18.5878 21.4269 11.723C21.4269 11.0589 20.8927 10.5309 20.2128 10.5309H16.0444C15.3726 10.5309 15.235 10.1308 15.6397 9.60276C15.6397 9.60276 15.6397 9.60276 25.0611 0.353687L25.6762 0.0976562Z" fill="#ED1C24"/>
<path fill-rule="evenodd" clip-rule="evenodd" d="M10.929 14.6433C11.099 14.7234 11.2042 14.9554 11.2042 15.2914V34.5737C11.2042 34.9097 11.099 35.1097 10.929 35.1737C10.7672 35.2377 10.5324 35.1737 10.2572 34.9737C10.2572 34.9737 10.2572 34.9737 0.973466 25.7246C0.439265 25.3326 0.439265 24.5325 0.973466 24.0044C0.973466 24.0044 0.973467 24.0044 10.2572 14.8914C10.5324 14.6273 10.7672 14.5633 10.929 14.6433Z" fill="#ED1C24"/>
<path fill-rule="evenodd" clip-rule="evenodd" d="M22.641 29.8211C22.641 29.8211 22.641 29.8211 29.4966 29.8211C30.306 29.8211 30.8483 30.3492 30.8483 31.0132C30.8483 31.0132 30.8483 31.0132 30.8483 38.2781C30.8483 39.0702 31.3825 39.5982 32.0543 39.5982H35.6885C36.3603 39.5982 36.6274 39.9903 36.0932 40.3903C36.0932 40.3903 36.0932 40.3903 26.947 49.5034C26.6718 49.7674 26.3399 49.9034 26 49.9034C25.6681 49.9034 25.3282 49.7674 25.0611 49.5034C25.0611 49.5034 25.0611 49.5034 15.9149 40.3903C15.3726 39.9903 15.6397 39.5982 16.3115 39.5982C16.3115 39.5982 16.3115 39.5982 20.2128 39.5982C20.8927 39.5982 21.4269 39.0702 21.4269 38.2781C21.4269 38.2781 21.4269 38.2781 21.4269 31.0132C21.4269 30.3492 21.9692 29.8211 22.641 29.8211Z" fill="#ED1C24"/>
</svg>
