<svg width="54" height="54" viewBox="0 0 54 54" fill="none" xmlns="http://www.w3.org/2000/svg">
<path d="M38.7962 31.9809H9.96122M33.5535 41.942H9.96122M37.1228 21.9355H10.1228M18.5603 52.3105H6.75005C6.08524 52.3108 5.42687 52.1802 4.81255 51.926C4.19822 51.6719 3.63997 51.2993 3.16967 50.8294C2.69936 50.3595 2.32621 49.8016 2.07152 49.1875C1.81684 48.5734 1.6856 47.9151 1.6853 47.2503V6.7503C1.6853 5.40704 2.21891 4.1188 3.16873 3.16898C4.11856 2.21915 5.4068 1.68555 6.75005 1.68555H39.1005C39.544 1.68564 39.9831 1.77312 40.3927 1.94299C40.8023 2.11286 41.1744 2.36179 41.4878 2.67555L51.3225 12.5103C51.6359 12.8238 51.8844 13.1961 52.0539 13.6057C52.2234 14.0153 52.3105 14.4543 52.3103 14.8975V28.6855M38.8103 1.68555V11.8105C38.8103 12.7057 39.1659 13.5641 39.7988 14.197C40.4318 14.83 41.2902 15.1855 42.1853 15.1855H52.3103" stroke="#0ED5FF" stroke-width="2" stroke-linecap="round" stroke-linejoin="round"/>
</svg>
