<svg width="54" height="54" viewBox="0 0 54 54" fill="none" xmlns="http://www.w3.org/2000/svg">
<g clip-path="url(#clip0_1043_12114)">
<path d="M32.7274 13.5011C36.7395 22.028 36.7395 31.9742 32.7274 40.5011M24.5319 17.3568C27.3977 23.4475 27.3977 30.5519 24.5319 36.6425M16.3345 21.2128C18.054 24.8672 18.054 29.1298 16.3345 32.7842M1.92859 27.0011C1.92859 33.6504 4.57003 40.0275 9.27183 44.7293C13.9736 49.4311 20.3506 52.0725 27 52.0725C33.6493 52.0725 40.0264 49.4311 44.7282 44.7293C49.43 40.0275 52.0714 33.6504 52.0714 27.0011C52.0714 20.3517 49.43 13.9747 44.7282 9.27293C40.0264 4.57113 33.6493 1.92969 27 1.92969C20.3506 1.92969 13.9736 4.57113 9.27183 9.27293C4.57003 13.9747 1.92859 20.3517 1.92859 27.0011Z" stroke="#0ED5FF" stroke-width="2" stroke-linecap="round" stroke-linejoin="round"/>
</g>
<defs>
<clipPath id="clip0_1043_12114">
<rect width="54" height="54" fill="white"/>
</clipPath>
</defs>
</svg>
