<svg width="52" height="36" viewBox="0 0 52 36" fill="none" xmlns="http://www.w3.org/2000/svg">
<path d="M2.96694 34.2367L3.42093 33.3457L2.96694 34.2367ZM1.45419 32.724L2.3452 32.27L1.45419 32.724ZM49.033 34.2367L48.579 33.3457L49.033 34.2367ZM50.5458 32.724L49.6548 32.27L50.5458 32.724ZM49.033 1.41439L48.579 2.3054L49.033 1.41439ZM50.5458 2.92714L49.6548 3.38113L50.5458 2.92714ZM2.96694 1.41439L3.42093 2.3054L2.96694 1.41439ZM1.45419 2.92714L2.3452 3.38113L1.45419 2.92714ZM6.61536 2.03711H45.3846V0.0371094H6.61536V2.03711ZM45.3846 33.614H6.61536V35.614H45.3846V33.614ZM2.0769 7.61403V6.57557H0.0769043V7.61403H2.0769ZM49.923 6.57557V7.61403H51.923V6.57557H49.923ZM1.0769 8.61403H50.923V6.61403H1.0769V8.61403ZM2.0769 29.0755V14.0179H0.0769043V29.0755H2.0769ZM2.0769 14.0179V7.61403H0.0769043V14.0179H2.0769ZM49.923 7.61403V14.0179H51.923V7.61403H49.923ZM49.923 14.0179V29.0755H51.923V14.0179H49.923ZM1.0769 15.0179H50.923V13.0179H1.0769V15.0179ZM5.92306 22.6332H18.0384V20.6332H5.92306V22.6332ZM5.92306 27.9986H22.1923V25.9986H5.92306V27.9986ZM6.61536 33.614C5.62954 33.614 4.95032 33.6132 4.42326 33.5702C3.90789 33.528 3.62669 33.4506 3.42093 33.3457L2.51295 35.1277C3.04765 35.4002 3.62134 35.5113 4.2604 35.5635C4.88779 35.6148 5.66254 35.614 6.61536 35.614V33.614ZM0.0769043 29.0755C0.0769043 30.0284 0.0761266 30.8031 0.127386 31.4305C0.179599 32.0696 0.29074 32.6433 0.563183 33.178L2.3452 32.27C2.24035 32.0642 2.16285 31.783 2.12074 31.2676C2.07768 30.7406 2.0769 30.0614 2.0769 29.0755H0.0769043ZM3.42093 33.3457C2.95776 33.1097 2.58119 32.7331 2.3452 32.27L0.563183 33.178C0.990925 34.0174 1.67345 34.7 2.51295 35.1277L3.42093 33.3457ZM45.3846 35.614C46.3374 35.614 47.1122 35.6148 47.7395 35.5635C48.3786 35.5113 48.9523 35.4002 49.487 35.1277L48.579 33.3457C48.3733 33.4506 48.0921 33.528 47.5767 33.5702C47.0496 33.6132 46.3704 33.614 45.3846 33.614V35.614ZM49.923 29.0755C49.923 30.0614 49.9223 30.7406 49.8792 31.2676C49.8371 31.783 49.7596 32.0642 49.6548 32.27L51.4368 33.178C51.7092 32.6433 51.8203 32.0696 51.8726 31.4305C51.9238 30.8031 51.923 30.0284 51.923 29.0755H49.923ZM49.487 35.1277C50.3265 34.7 51.009 34.0174 51.4368 33.178L49.6548 32.27C49.4188 32.7331 49.0422 33.1097 48.579 33.3457L49.487 35.1277ZM45.3846 2.03711C46.3704 2.03711 47.0496 2.03789 47.5767 2.08095C48.0921 2.12306 48.3733 2.20056 48.579 2.3054L49.487 0.523387C48.9523 0.250945 48.3786 0.139804 47.7395 0.0875911C47.1122 0.0363317 46.3374 0.0371094 45.3846 0.0371094V2.03711ZM51.923 6.57557C51.923 5.62275 51.9238 4.84799 51.8726 4.2206C51.8203 3.58154 51.7092 3.00785 51.4368 2.47315L49.6548 3.38113C49.7596 3.58689 49.8371 3.86809 49.8792 4.38347C49.9223 4.91052 49.923 5.58974 49.923 6.57557H51.923ZM48.579 2.3054C49.0422 2.5414 49.4188 2.91796 49.6548 3.38113L51.4368 2.47315C51.009 1.63366 50.3265 0.951129 49.487 0.523387L48.579 2.3054ZM6.61536 0.0371094C5.66254 0.0371094 4.88779 0.0363317 4.2604 0.0875911C3.62134 0.139804 3.04765 0.250945 2.51295 0.523387L3.42093 2.3054C3.62669 2.20056 3.90789 2.12306 4.42326 2.08095C4.95032 2.03789 5.62954 2.03711 6.61536 2.03711V0.0371094ZM2.0769 6.57557C2.0769 5.58974 2.07768 4.91052 2.12074 4.38347C2.16285 3.86809 2.24035 3.58689 2.3452 3.38113L0.563183 2.47315C0.29074 3.00785 0.179599 3.58154 0.127386 4.2206C0.0761266 4.84799 0.0769043 5.62275 0.0769043 6.57557H2.0769ZM2.51295 0.523387C1.67345 0.95113 0.990926 1.63366 0.563183 2.47315L2.3452 3.38113C2.58119 2.91796 2.95776 2.5414 3.42093 2.3054L2.51295 0.523387ZM32.923 29.114C30.2253 29.114 28.0384 26.9271 28.0384 24.2294H26.0384C26.0384 28.0317 29.1208 31.114 32.923 31.114V29.114ZM28.0384 24.2294C28.0384 21.5317 30.2253 19.3448 32.923 19.3448V17.3448C29.1208 17.3448 26.0384 20.4271 26.0384 24.2294H28.0384ZM32.923 19.3448C33.9982 19.3448 34.9896 19.691 35.7957 20.2783L36.9734 18.6618C35.8368 17.8337 34.4355 17.3448 32.923 17.3448V19.3448ZM35.7957 28.1805C34.9896 28.7678 33.9982 29.114 32.923 29.114V31.114C34.4355 31.114 35.8368 30.6251 36.9734 29.797L35.7957 28.1805ZM44.7307 24.2294C44.7307 26.9271 42.5438 29.114 39.8461 29.114V31.114C43.6484 31.114 46.7307 28.0317 46.7307 24.2294H44.7307ZM39.8461 29.114C37.1484 29.114 34.9615 26.9271 34.9615 24.2294H32.9615C32.9615 28.0317 36.0439 31.114 39.8461 31.114V29.114ZM34.9615 24.2294C34.9615 21.5317 37.1484 19.3448 39.8461 19.3448V17.3448C36.0439 17.3448 32.9615 20.4271 32.9615 24.2294H34.9615ZM39.8461 19.3448C42.5438 19.3448 44.7307 21.5317 44.7307 24.2294H46.7307C46.7307 20.4271 43.6484 17.3448 39.8461 17.3448V19.3448Z" fill="#0ED5FF"/>
</svg>
