<svg width="28" height="28" viewBox="0 0 28 28" fill="none" xmlns="http://www.w3.org/2000/svg">
<g clip-path="url(#clip0_1253_13691)">
<path d="M16.9697 7.00055C19.0501 11.4219 19.0501 16.5792 16.9697 21.0006M12.7202 8.9998C14.2062 12.1579 14.2062 15.8417 12.7202 18.9998M8.46973 10.9992C9.36133 12.8941 9.36133 15.1043 8.46973 16.9992M1 14.0005C1 17.4484 2.36964 20.755 4.80761 23.1929C7.24558 25.6309 10.5522 27.0005 14 27.0005C17.4478 27.0005 20.7544 25.6309 23.1924 23.1929C25.6303 20.755 27 17.4484 27 14.0005C27 10.5527 25.6303 7.24613 23.1924 4.80816C20.7544 2.37019 17.4478 1.00055 14 1.00055C10.5522 1.00055 7.24558 2.37019 4.80761 4.80816C2.36964 7.24613 1 10.5527 1 14.0005Z" stroke="#0ED5FF" stroke-width="2" stroke-linecap="round" stroke-linejoin="round"/>
</g>
<defs>
<clipPath id="clip0_1253_13691">
<rect width="28" height="28" fill="white"/>
</clipPath>
</defs>
</svg>
