<svg width="53" height="35" viewBox="0 0 53 35" fill="none" xmlns="http://www.w3.org/2000/svg">
<path d="M1.1263 33.3614L2.01896 32.9106L1.1263 33.3614ZM1.63285 33.8725L2.09009 32.9832L1.63285 33.8725ZM1.63285 7.8117L2.09009 8.70104L1.63285 7.8117ZM1.12631 8.32283L2.01896 8.77357L1.12631 8.32283ZM47.2373 8.32283L46.3446 8.77357L47.2373 8.32283ZM46.7308 7.8117L46.2735 8.70104L46.7308 7.8117ZM47.2373 33.3614L46.3446 32.9106L47.2373 33.3614ZM46.7308 33.8725L46.2735 32.9832L46.7308 33.8725ZM37.3603 26.7087L36.389 26.471L37.3603 26.7087ZM40.0695 23.5839L40.3153 24.5532L40.0695 23.5839ZM40.1454 18.056L40.4152 17.0931L40.4152 17.0931L40.1454 18.056ZM37.3233 15.338L38.2975 15.1124L38.2975 15.1124L37.3233 15.338ZM37.1161 14.6487L37.9255 14.0615L37.9255 14.0615L37.1161 14.6487ZM36.8754 14.4561L37.27 13.5372L37.27 13.5372L36.8754 14.4561ZM40.9451 18.5145L40.019 18.8917L40.019 18.8917L40.9451 18.5145ZM40.7648 18.2751L41.3821 17.4884L41.3821 17.4884L40.7648 18.2751ZM40.7568 23.3626L40.1533 22.5653L40.1533 22.5653L40.7568 23.3626ZM40.9435 23.1211L41.8668 23.5052L40.9435 23.1211ZM36.9213 27.5214L36.5302 26.6011L36.9213 27.5214ZM37.161 27.332L36.3567 26.7377L36.3567 26.7377L37.161 27.332ZM9.26466 26.7087L10.236 26.471L9.26466 26.7087ZM6.55545 23.5839L6.30968 24.5532L6.55545 23.5839ZM6.4796 18.056L6.20973 17.0931L6.20974 17.0931L6.4796 18.056ZM9.3017 15.338L8.32748 15.1124L8.32748 15.1124L9.3017 15.338ZM9.50886 14.6487L8.69944 14.0615L8.69944 14.0615L9.50886 14.6487ZM9.74954 14.4561L9.35494 13.5372L9.35494 13.5372L9.74954 14.4561ZM5.67985 18.5145L6.60597 18.8917L6.60597 18.8917L5.67985 18.5145ZM5.86015 18.2751L5.24289 17.4884L5.2429 17.4884L5.86015 18.2751ZM5.86812 23.3626L6.47163 22.5653L5.86812 23.3626ZM5.6815 23.1211L4.75819 23.5052L4.75818 23.5052L5.6815 23.1211ZM9.70364 27.5214L10.0948 26.6011L9.70364 27.5214ZM9.46398 27.332L10.2682 26.7377L10.2682 26.7377L9.46398 27.332ZM50.548 1.03352L50.3121 0.0617255L50.3121 0.0617255L50.548 1.03352ZM46.3636 32.1287L46.3636 9.55557L48.3636 9.55557L48.3636 32.1287L46.3636 32.1287ZM45.5091 8.68422L2.85452 8.68422L2.85452 6.68422L45.5091 6.68422L45.5091 8.68422ZM1.99997 9.55556L1.99997 32.1287L-3.04358e-05 32.1287L-2.94491e-05 9.55556L1.99997 9.55556ZM2.85452 33L45.5091 33L45.5091 35L2.85452 35L2.85452 33ZM1.99997 32.1287C1.99997 32.4725 2.00074 32.6708 2.0125 32.8161C2.02334 32.95 2.03843 32.9492 2.01896 32.9106L0.23365 33.8121C0.0878372 33.5234 0.0397644 33.2337 0.0190239 32.9775C-0.000793402 32.7328 -3.04494e-05 32.4398 -3.04358e-05 32.1287L1.99997 32.1287ZM2.85452 35C2.54659 35 2.25496 35.0008 2.01106 34.9807C1.75522 34.9596 1.46483 34.9106 1.1756 34.7619L2.09009 32.9832C2.0488 32.962 2.04467 32.9767 2.17539 32.9874C2.31806 32.9992 2.51329 33 2.85452 33L2.85452 35ZM2.01896 32.9106C2.03544 32.9433 2.06087 32.9682 2.09009 32.9832L1.1756 34.7619C0.768627 34.5526 0.439419 34.2196 0.23365 33.8121L2.01896 32.9106ZM2.85452 8.68422C2.51329 8.68422 2.31806 8.68501 2.17539 8.69677C2.04467 8.70755 2.0488 8.72227 2.09009 8.70104L1.1756 6.92236C1.46483 6.77365 1.75523 6.72463 2.01106 6.70353C2.25496 6.68343 2.54659 6.68422 2.85452 6.68422L2.85452 8.68422ZM-2.94491e-05 9.55556C-2.94355e-05 9.2444 -0.000792362 8.95143 0.019025 8.70668C0.0397655 8.45051 0.0878383 8.16084 0.233651 7.87208L2.01896 8.77357C2.03843 8.735 2.02334 8.73418 2.0125 8.86808C2.00074 9.01339 1.99997 9.21169 1.99997 9.55556L-2.94491e-05 9.55556ZM2.09009 8.70104C2.06087 8.71606 2.03544 8.74093 2.01896 8.77357L0.233651 7.87208C0.43942 7.46458 0.768628 7.1316 1.1756 6.92236L2.09009 8.70104ZM46.3636 9.55557C46.3636 9.2117 46.3629 9.0134 46.3511 8.86809C46.3403 8.73419 46.3252 8.735 46.3446 8.77357L48.13 7.87208C48.2758 8.16084 48.3238 8.45051 48.3446 8.70667C48.3644 8.95143 48.3636 9.2444 48.3636 9.55557L46.3636 9.55557ZM45.5091 6.68422C45.817 6.68422 46.1086 6.68343 46.3525 6.70354C46.6084 6.72463 46.8988 6.77365 47.188 6.92236L46.2735 8.70104C46.3148 8.72227 46.3189 8.70755 46.1882 8.69678C46.0455 8.68501 45.8503 8.68422 45.5091 8.68422L45.5091 6.68422ZM46.3446 8.77357C46.3282 8.74093 46.3027 8.71606 46.2735 8.70104L47.188 6.92236C47.595 7.1316 47.9242 7.46458 48.13 7.87208L46.3446 8.77357ZM48.3636 32.1287C48.3636 32.4398 48.3644 32.7328 48.3446 32.9775C48.3238 33.2337 48.2758 33.5234 48.13 33.8121L46.3446 32.9106C46.3252 32.9492 46.3403 32.95 46.3511 32.8161C46.3629 32.6708 46.3636 32.4725 46.3636 32.1287L48.3636 32.1287ZM45.5091 33C45.8503 33 46.0455 32.9992 46.1882 32.9874C46.3189 32.9767 46.3148 32.962 46.2735 32.9832L47.188 34.7619C46.8988 34.9106 46.6084 34.9596 46.3525 34.9807C46.1086 35.0008 45.817 35 45.5091 35L45.5091 33ZM48.13 33.8121C47.9242 34.2196 47.595 34.5526 47.188 34.7619L46.2735 32.9832C46.3027 32.9682 46.3282 32.9433 46.3446 32.9106L48.13 33.8121ZM31.1364 26.5673L36.3582 26.5673L36.3582 28.5673L31.1364 28.5673L31.1364 26.5673ZM36.389 26.471C36.716 25.1345 37.6481 23.1662 39.8237 22.6146L40.3153 24.5532C39.2186 24.8313 38.5941 25.8736 38.3317 26.9464L36.389 26.471ZM39.9886 22.538L39.9886 19.077L41.9886 19.077L41.9886 22.538L39.9886 22.538ZM39.8755 19.0189C38.6025 18.6621 36.8422 17.6929 36.349 15.5636L38.2975 15.1124C38.5565 16.2307 39.4903 16.8338 40.4152 17.0931L39.8755 19.0189ZM36.2943 15.4094L31.1364 15.4094L31.1364 13.4094L36.2943 13.4094L36.2943 15.4094ZM36.349 15.5636C36.3008 15.3552 36.2729 15.2363 36.2499 15.1554C36.2392 15.1179 36.2353 15.1097 36.2386 15.1179C36.2415 15.1251 36.2612 15.1733 36.3067 15.2359L37.9255 14.0615C38.0721 14.2635 38.139 14.4869 38.1732 14.6069C38.2134 14.7478 38.2542 14.9254 38.2975 15.1124L36.349 15.5636ZM36.2943 13.4094C36.4386 13.4094 36.594 13.4089 36.7253 13.4172C36.8567 13.4255 37.0584 13.4463 37.27 13.5372L36.4808 15.3749C36.535 15.3982 36.5778 15.408 36.5985 15.4119C36.6171 15.4154 36.6209 15.4146 36.5991 15.4132C36.5776 15.4119 36.5443 15.4107 36.4907 15.41C36.4372 15.4094 36.3748 15.4094 36.2943 15.4094L36.2943 13.4094ZM36.3067 15.236C36.3005 15.2274 36.3284 15.2678 36.386 15.3139C36.4438 15.3601 36.4896 15.3787 36.4808 15.3749L37.27 13.5372C37.3739 13.5818 37.5039 13.6469 37.6358 13.7525C37.7675 13.8579 37.8594 13.9704 37.9255 14.0615L36.3067 15.236ZM39.9886 19.077C39.9886 18.9994 39.9886 18.9392 39.988 18.8876C39.9874 18.8358 39.9863 18.8036 39.985 18.7827C39.9838 18.7615 39.983 18.7646 39.9861 18.7818C39.9895 18.8009 39.9983 18.8409 40.019 18.8917L41.8712 18.1373C41.9542 18.3408 41.9736 18.5335 41.9813 18.6611C41.9891 18.7879 41.9886 18.9377 41.9886 19.077L39.9886 19.077ZM40.4152 17.0931C40.5807 17.1394 40.7431 17.1846 40.8733 17.2286C40.9893 17.2677 41.1946 17.3413 41.3821 17.4884L40.1476 19.0619C40.2033 19.1056 40.2473 19.1268 40.2581 19.1318C40.2689 19.1368 40.2648 19.134 40.2337 19.1235C40.2036 19.1134 40.1613 19.1003 40.099 19.0822C40.0371 19.0642 39.9651 19.044 39.8755 19.0189L40.4152 17.0931ZM40.019 18.8917C40.0174 18.8879 40.0339 18.9295 40.0741 18.9828C40.1143 19.0362 40.1501 19.0639 40.1476 19.0619L41.3821 17.4884C41.6113 17.6682 41.7617 17.8684 41.8712 18.1373L40.019 18.8917ZM39.8237 22.6146C40.0322 22.5617 40.1521 22.531 40.2335 22.506C40.2715 22.4944 40.2801 22.4902 40.2723 22.4935C40.2659 22.4963 40.2168 22.5173 40.1533 22.5653L41.3604 24.16C41.1609 24.311 40.937 24.3822 40.8198 24.4182C40.6799 24.4611 40.5028 24.5057 40.3153 24.5532L39.8237 22.6146ZM41.9886 22.538C41.9886 22.6835 41.9891 22.8381 41.9811 22.9683C41.9732 23.0978 41.9536 23.2965 41.8668 23.5052L40.0202 22.7371C39.9981 22.7902 39.989 22.8316 39.9856 22.8504C39.9825 22.8673 39.9834 22.8696 39.9848 22.8467C39.9862 22.8242 39.9874 22.79 39.988 22.7358C39.9886 22.6817 39.9886 22.6188 39.9886 22.538L41.9886 22.538ZM40.1533 22.5653C40.1646 22.5567 40.1239 22.5857 40.0779 22.6453C40.032 22.7047 40.0143 22.7511 40.0202 22.7371L41.8668 23.5052C41.8252 23.6051 41.7632 23.7351 41.6604 23.8683C41.5573 24.0016 41.4469 24.0944 41.3604 24.16L40.1533 22.5653ZM36.3582 26.5673C36.4358 26.5673 36.4956 26.5672 36.5468 26.5666C36.5982 26.566 36.6294 26.5648 36.6491 26.5636C36.669 26.5623 36.6641 26.5617 36.6449 26.5653C36.6236 26.5693 36.582 26.579 36.5302 26.6011L37.3125 28.4417C37.1048 28.53 36.9082 28.5511 36.7771 28.5595C36.6482 28.5677 36.4967 28.5673 36.3582 28.5673L36.3582 26.5673ZM38.3317 26.9464C38.2913 27.1112 38.2516 27.2749 38.2115 27.4072C38.1749 27.5279 38.1072 27.7342 37.9653 27.9263L36.3567 26.7377C36.3161 26.7928 36.2965 26.8362 36.2912 26.8485C36.2861 26.8603 36.2884 26.8571 36.2976 26.8268C36.3065 26.7975 36.3179 26.7558 36.3337 26.6939C36.3495 26.6323 36.367 26.5606 36.389 26.471L38.3317 26.9464ZM36.5302 26.6011C36.5273 26.6023 36.4862 26.6202 36.4353 26.6604C36.3846 26.7005 36.358 26.736 36.3567 26.7377L37.9653 27.9263C37.7898 28.1637 37.5852 28.3258 37.3125 28.4417L36.5302 26.6011ZM15.4886 28.5673L10.2668 28.5673L10.2668 26.5673L15.4886 26.5673L15.4886 28.5673ZM8.29331 26.9464C8.03083 25.8736 7.40634 24.8313 6.30968 24.5532L6.80123 22.6146C8.97682 23.1662 9.909 25.1345 10.236 26.471L8.29331 26.9464ZM4.63634 22.538L4.63634 19.077L6.63634 19.077L6.63634 22.538L4.63634 22.538ZM6.20974 17.0931C7.13468 16.8338 8.0685 16.2307 8.32748 15.1124L10.2759 15.5636C9.78281 17.6929 8.02249 18.6621 6.74946 19.0189L6.20974 17.0931ZM10.3307 13.4094L15.4886 13.4094L15.4886 15.4094L10.3307 15.4094L10.3307 13.4094ZM8.32748 15.1124C8.37079 14.9254 8.4116 14.7478 8.45177 14.6069C8.48601 14.4869 8.55287 14.2635 8.69944 14.0615L10.3183 15.2359C10.3637 15.1733 10.3834 15.125 10.3863 15.1179C10.3897 15.1097 10.3858 15.1179 10.3751 15.1554C10.352 15.2363 10.3242 15.3552 10.2759 15.5636L8.32748 15.1124ZM10.3307 15.4094C10.2502 15.4094 10.1878 15.4094 10.1343 15.41C10.0806 15.4107 10.0474 15.4119 10.0259 15.4132C10.0041 15.4146 10.0079 15.4154 10.0265 15.4119C10.0471 15.408 10.09 15.3982 10.1441 15.3749L9.35494 13.5372C9.56653 13.4463 9.76827 13.4255 9.89968 13.4172C10.031 13.4089 10.1863 13.4094 10.3307 13.4094L10.3307 15.4094ZM8.69944 14.0615C8.76554 13.9704 8.85747 13.8579 8.98917 13.7525C9.12106 13.6469 9.25111 13.5818 9.35494 13.5372L10.1441 15.3749C10.1353 15.3787 10.1812 15.3601 10.239 15.3139C10.2966 15.2678 10.3245 15.2274 10.3183 15.236L8.69944 14.0615ZM4.63634 19.077C4.63634 18.9377 4.6359 18.7879 4.64363 18.6611C4.6514 18.5335 4.6708 18.3408 4.75373 18.1373L6.60597 18.8917C6.62668 18.8409 6.63545 18.8009 6.63889 18.7818C6.64198 18.7646 6.64121 18.7615 6.63993 18.7827C6.63865 18.8036 6.63755 18.8358 6.63695 18.8876C6.63635 18.9392 6.63634 18.9994 6.63634 19.077L4.63634 19.077ZM6.74946 19.0189C6.65989 19.044 6.58785 19.0642 6.52595 19.0822C6.46372 19.1003 6.42135 19.1134 6.39128 19.1235C6.36013 19.134 6.35608 19.1368 6.36683 19.1318C6.37763 19.1268 6.42167 19.1056 6.47741 19.0619L5.2429 17.4884C5.43033 17.3413 5.63569 17.2677 5.75169 17.2285C5.88189 17.1846 6.04424 17.1394 6.20973 17.0931L6.74946 19.0189ZM4.75373 18.1373C4.86324 17.8684 5.01364 17.6682 5.24289 17.4884L6.47741 19.0619C6.47487 19.0639 6.51063 19.0362 6.55088 18.9828C6.59102 18.9295 6.60753 18.8879 6.60597 18.8917L4.75373 18.1373ZM6.30968 24.5532C6.12216 24.5057 5.94504 24.4611 5.80515 24.4182C5.68795 24.3822 5.46412 24.311 5.26461 24.16L6.47163 22.5653C6.40821 22.5173 6.35904 22.4963 6.35269 22.4935C6.3449 22.4902 6.35345 22.4944 6.39145 22.506C6.47289 22.531 6.59276 22.5617 6.80123 22.6146L6.30968 24.5532ZM6.63634 22.538C6.63634 22.6188 6.63635 22.6817 6.63697 22.7358C6.6376 22.79 6.63876 22.8242 6.64013 22.8467C6.64153 22.8696 6.64242 22.8673 6.63936 22.8504C6.63596 22.8316 6.62689 22.7902 6.60481 22.7371L4.75818 23.5052C4.67139 23.2965 4.65172 23.0977 4.64383 22.9683C4.6359 22.8381 4.63634 22.6835 4.63634 22.538L6.63634 22.538ZM5.26461 24.16C5.17802 24.0944 5.06764 24.0016 4.9646 23.8683C4.86171 23.7351 4.79974 23.6051 4.75819 23.5052L6.60481 22.7371C6.61062 22.7511 6.59301 22.7047 6.54712 22.6453C6.50106 22.5857 6.46032 22.5567 6.47163 22.5653L5.26461 24.16ZM10.2668 28.5673C10.1283 28.5673 9.97673 28.5677 9.84785 28.5595C9.7168 28.5511 9.52012 28.53 9.31251 28.4417L10.0948 26.6011C10.0429 26.579 10.0014 26.5693 9.98004 26.5653C9.96085 26.5617 9.95598 26.5623 9.97586 26.5636C9.99556 26.5648 10.0268 26.566 10.0782 26.5666C10.1294 26.5672 10.1891 26.5673 10.2668 26.5673L10.2668 28.5673ZM10.236 26.471C10.2579 26.5606 10.2755 26.6323 10.2912 26.6939C10.307 26.7558 10.3185 26.7975 10.3274 26.8268C10.3366 26.8571 10.3389 26.8602 10.3338 26.8485C10.3285 26.8362 10.3089 26.7928 10.2682 26.7377L8.65971 27.9263C8.51777 27.7342 8.45005 27.5279 8.41344 27.4072C8.37334 27.2749 8.33365 27.1112 8.29331 26.9464L10.236 26.471ZM9.31251 28.4417C9.03978 28.3258 8.83512 28.1637 8.65971 27.9263L10.2682 26.7377C10.267 26.736 10.2404 26.7005 10.1896 26.6604C10.1388 26.6202 10.0977 26.6023 10.0948 26.6011L9.31251 28.4417ZM51 26.3977L51 2.1815L53 2.1815L53 26.3977L51 26.3977ZM50.7838 2.00532C47.2221 2.86961 40.0716 3.69022 32.6071 4.24381C25.1257 4.79866 17.2191 5.09303 12.115 4.8822L12.1975 2.8839C17.1871 3.09001 25.0043 2.80216 32.4592 2.24929C39.9312 1.69514 46.9297 0.882522 50.3121 0.0617255L50.7838 2.00532ZM51 2.1815C51 2.05951 50.8891 1.97977 50.7838 2.00532L50.3121 0.0617255C51.6833 -0.271 53 0.771217 53 2.1815L51 2.1815ZM23.3125 15.117C20.1924 15.117 17.6477 17.6717 17.6477 20.8421L15.6477 20.8421C15.6477 16.5842 19.0709 13.117 23.3125 13.117L23.3125 15.117ZM17.6477 20.8421C17.6477 24.0125 20.1924 26.5673 23.3125 26.5673L23.3125 28.5673C19.0709 28.5673 15.6477 25.1001 15.6477 20.8421L17.6477 20.8421ZM23.3125 26.5673C26.4326 26.5673 28.9773 24.0125 28.9773 20.8421L30.9773 20.8421C30.9773 25.1001 27.5541 28.5673 23.3125 28.5673L23.3125 26.5673ZM28.9773 20.8421C28.9773 17.6717 26.4326 15.117 23.3125 15.117L23.3125 13.117C27.5541 13.117 30.9773 16.5842 30.9773 20.8421L28.9773 20.8421Z" fill="#0ED5FF"/>
</svg>
