<svg width="130" height="26" viewBox="0 0 130 26" fill="none" xmlns="http://www.w3.org/2000/svg">
<path d="M5.07618 24.5807V25.8383H4.57605V22.1494H5.08033V22.4637C5.201 22.3386 5.34339 22.2364 5.5006 22.1619C5.66018 22.0948 5.8317 22.0606 6.00487 22.0613C6.19954 22.0549 6.39343 22.0888 6.57428 22.161C6.75513 22.2331 6.919 22.342 7.05552 22.4805C7.1934 22.6175 7.30179 22.781 7.37405 22.9612C7.44631 23.1414 7.48091 23.3345 7.47573 23.5285C7.47709 23.7193 7.44142 23.9087 7.37067 24.086C7.30316 24.2593 7.20173 24.4174 7.07229 24.5511C6.94508 24.6937 6.78701 24.8055 6.61005 24.8781C6.43008 24.9513 6.237 24.9869 6.0427 24.9829C5.86128 24.9844 5.68135 24.9502 5.51316 24.8823C5.34611 24.8084 5.19487 24.7031 5.0677 24.5722M5.0677 23.4991C5.06441 23.629 5.08727 23.7582 5.1349 23.8792C5.18253 24.0001 5.25398 24.1103 5.34503 24.2033C5.42798 24.297 5.53026 24.3717 5.64486 24.4224C5.75946 24.473 5.88368 24.4984 6.00902 24.4967C6.1354 24.4961 6.26043 24.4708 6.37698 24.422C6.49353 24.3733 6.59931 24.3021 6.68829 24.2126C6.77726 24.123 6.84768 24.0169 6.89554 23.9002C6.94339 23.7835 6.96773 23.6586 6.96718 23.5325C6.96954 23.4018 6.94587 23.2718 6.89754 23.1502C6.84921 23.0286 6.77719 22.9177 6.68564 22.8241C6.59787 22.7325 6.49212 22.6599 6.37498 22.6109C6.25784 22.5618 6.13183 22.5374 6.00481 22.5391C5.88141 22.5394 5.75943 22.5652 5.64658 22.615C5.53373 22.6648 5.43247 22.7374 5.34924 22.8283C5.25899 22.9151 5.18747 23.0193 5.13906 23.1347C5.09065 23.25 5.06636 23.374 5.0677 23.499" fill="#0ED5FF"/>
<path d="M16.4397 24.9211V24.5606C16.3212 24.6882 16.1783 24.7908 16.0194 24.8625C15.8609 24.9336 15.6888 24.9693 15.5151 24.9672C15.3212 24.9723 15.1284 24.9378 14.9484 24.8657C14.7684 24.7936 14.6052 24.6855 14.4687 24.5481C14.3311 24.4101 14.2229 24.2457 14.1506 24.0649C14.0784 23.8841 14.0436 23.6905 14.0484 23.496C14.0467 23.3051 14.0824 23.1157 14.1535 22.9384C14.2191 22.7664 14.3192 22.6095 14.4476 22.4773C14.578 22.3383 14.7353 22.2271 14.9099 22.1503C15.0913 22.077 15.2858 22.0413 15.4815 22.0452C15.6629 22.0438 15.8428 22.0779 16.011 22.1458C16.1702 22.2189 16.313 22.3229 16.4313 22.4518V22.1164H16.9398V24.9041L16.4397 24.9211ZM14.5614 23.5084C14.5576 23.6394 14.5806 23.7698 14.629 23.8916C14.6775 24.0134 14.7502 24.1241 14.843 24.2169C14.9302 24.3106 15.0363 24.3848 15.1544 24.4347C15.2725 24.4846 15.3998 24.5089 15.528 24.5061C15.6508 24.5058 15.7721 24.4798 15.8843 24.43C15.9965 24.3802 16.097 24.3076 16.1794 24.2169C16.2704 24.1295 16.3426 24.0247 16.3917 23.9087C16.4408 23.7926 16.4658 23.6679 16.4652 23.542C16.4678 23.4124 16.4443 23.2836 16.3959 23.1633C16.3475 23.043 16.2753 22.9337 16.1836 22.8419C16.0997 22.7483 15.9966 22.6736 15.8814 22.623C15.7661 22.5724 15.6414 22.547 15.5154 22.5485C15.3895 22.5485 15.2647 22.5734 15.1484 22.6217C15.0321 22.67 14.9266 22.7409 14.8379 22.8301C14.7492 22.9194 14.6791 23.0253 14.6317 23.1417C14.5842 23.2581 14.5604 23.3828 14.5615 23.5084" fill="#0ED5FF"/>
<path d="M23.4919 22.1328H24.0298L24.7862 24.2078L25.6015 22.1328H26.1437L24.6392 25.8217H24.1097L24.4963 24.8407L23.4919 22.1328Z" fill="#0ED5FF"/>
<path d="M34.3973 23.5118C34.4149 23.2572 34.3642 23.0025 34.2502 22.774C34.2023 22.6971 34.1344 22.6347 34.0537 22.5933C33.9731 22.552 33.8826 22.5333 33.7921 22.5393C33.6992 22.5334 33.6065 22.5519 33.5231 22.5931C33.4397 22.6343 33.3687 22.6967 33.3172 22.774C33.1974 22.9932 33.1434 23.2422 33.1618 23.4911V24.9205H32.6825V22.1329H33.1322V22.4639C33.2147 22.3478 33.3224 22.2518 33.4474 22.1831C33.5771 22.1165 33.7219 22.0847 33.8677 22.0909C34.0446 22.0844 34.2201 22.125 34.3761 22.2083C34.5209 22.2939 34.6366 22.421 34.7081 22.573C34.7819 22.4198 34.9007 22.2926 35.0486 22.2083C35.2107 22.125 35.3916 22.0846 35.5739 22.0909C35.7147 22.0843 35.8552 22.1083 35.9858 22.1611C36.1164 22.214 36.2339 22.2944 36.3304 22.3969C36.5317 22.6284 36.6343 22.9293 36.6161 23.2353V24.9414H36.1118V23.3022C36.124 23.1049 36.0676 22.9095 35.9521 22.7489C35.903 22.6846 35.8393 22.6329 35.7662 22.5979C35.6932 22.5629 35.6129 22.5457 35.5318 22.5477C35.4416 22.5398 35.3508 22.5553 35.2683 22.5928C35.1858 22.6302 35.1145 22.6883 35.0612 22.7614C34.9474 22.9794 34.8978 23.225 34.9183 23.4699V24.9286H34.4308L34.3973 23.5118Z" fill="#0ED5FF"/>
<path d="M43.8073 23.7227C43.8411 23.9428 43.9529 24.1437 44.1225 24.2886C44.2675 24.4098 44.4459 24.4844 44.6342 24.5023C44.8226 24.5203 45.0119 24.4808 45.1773 24.3892C45.3146 24.3067 45.4276 24.1896 45.5051 24.0496H46.0682C45.9606 24.3334 45.774 24.5807 45.5303 24.7623C45.2941 24.9267 45.0115 25.0118 44.7235 25.0054C44.529 25.0069 44.3361 24.9699 44.1561 24.8964C43.9791 24.8218 43.8201 24.7103 43.6898 24.5694C43.5584 24.4315 43.4555 24.269 43.3872 24.0913C43.3126 23.9163 43.274 23.7282 43.2737 23.538C43.2723 23.3489 43.3065 23.1612 43.3746 22.9847C43.4442 22.8125 43.5454 22.6547 43.673 22.5195C43.8039 22.3751 43.9625 22.2582 44.1393 22.1758C44.32 22.0993 44.5146 22.0608 44.7108 22.0626C44.9498 22.0599 45.1855 22.1177 45.3959 22.2306C45.6066 22.346 45.7867 22.5099 45.9212 22.7086C46.0003 22.8395 46.0611 22.9805 46.1019 23.1278C46.141 23.2997 46.1593 23.4756 46.1566 23.6518V23.7229L43.8073 23.7227ZM45.606 23.2699C45.5569 23.0629 45.4436 22.8766 45.2821 22.7376C45.1212 22.6125 44.923 22.5446 44.719 22.5446C44.515 22.5446 44.3168 22.6125 44.1559 22.7376C43.99 22.8706 43.8732 23.0549 43.8239 23.2615L45.606 23.2699Z" fill="#0ED5FF"/>
<path d="M53.3426 24.9208H52.8425V22.1331H53.3258V22.4643C53.4188 22.3489 53.5365 22.2558 53.6704 22.1918C53.8025 22.1327 53.9458 22.1027 54.0907 22.1038C54.2458 22.0938 54.4013 22.1176 54.5464 22.1733C54.6915 22.2291 54.8228 22.3156 54.9311 22.4268C55.1428 22.6843 55.248 23.0126 55.2253 23.3448V24.9377H54.7337V23.4583C54.7502 23.2266 54.6911 22.9957 54.5653 22.8002C54.5041 22.7264 54.4259 22.6684 54.3373 22.6312C54.2488 22.594 54.1526 22.5786 54.0568 22.5864C53.9518 22.578 53.8463 22.5967 53.7507 22.6408C53.655 22.6848 53.5723 22.7527 53.5105 22.8379C53.3785 23.0967 53.3202 23.3867 53.3421 23.6763L53.3426 24.9208Z" fill="#0ED5FF"/>
<path d="M62.2393 24.9216V22.5867H61.8401V22.1339H62.2393V21.2285H62.7394V22.1339H63.1345V22.5867H62.7394V24.9216H62.2393Z" fill="#0ED5FF"/>
<path d="M77.8465 23.7227C77.8696 23.8703 77.9281 24.0101 78.017 24.1302C78.1059 24.2504 78.2226 24.3473 78.3571 24.4128C78.4917 24.4782 78.6401 24.5103 78.7897 24.5062C78.9394 24.5021 79.0858 24.462 79.2166 24.3893C79.3547 24.3079 79.468 24.1905 79.5443 24.0497H80.1117C80.0011 24.333 79.8134 24.5799 79.5696 24.7624C79.3333 24.9267 79.0507 25.0119 78.7627 25.0055C78.5696 25.0073 78.378 24.9703 78.1996 24.8965C78.0226 24.8219 77.8636 24.7104 77.7333 24.5695C77.602 24.4306 77.4979 24.2685 77.4265 24.0914C77.2864 23.7358 77.2864 23.3404 77.4265 22.9848C77.4945 22.8128 77.5943 22.655 77.7206 22.5196C77.9364 22.2883 78.2226 22.1346 78.535 22.0823C78.8473 22.03 79.1682 22.0821 79.4478 22.2304C79.6208 22.3221 79.7726 22.449 79.8935 22.6028C80.0143 22.7565 80.1016 22.9338 80.1496 23.1233C80.1903 23.295 80.21 23.4709 80.2085 23.6473V23.7227H77.8465ZM79.6494 23.27C79.599 23.0626 79.4843 22.8763 79.3216 22.7377C79.1654 22.6104 78.9685 22.5435 78.7669 22.549C78.5592 22.5462 78.357 22.6159 78.1954 22.7461C78.0306 22.8801 77.9141 23.0641 77.8634 23.2701L79.6494 23.27Z" fill="#0ED5FF"/>
<path d="M87.3783 24.9205H86.874V22.1329H87.3573V22.464C87.4495 22.3474 87.5678 22.254 87.7028 22.1914C87.8378 22.1288 87.9857 22.0987 88.1345 22.1036C88.2896 22.0942 88.445 22.1181 88.59 22.1739C88.735 22.2296 88.8664 22.3158 88.9751 22.4266C89.1852 22.6849 89.2902 23.0126 89.2692 23.3446V24.9375H88.7733V23.4581C88.7911 23.2268 88.7336 22.996 88.6094 22.8C88.5479 22.7264 88.4697 22.6686 88.3812 22.6314C88.2927 22.5943 88.1966 22.5787 88.1009 22.5862C87.9958 22.5774 87.8902 22.5959 87.7945 22.64C87.6987 22.6841 87.6161 22.7522 87.5546 22.8377C87.4204 23.0958 87.362 23.3864 87.3862 23.6761L87.3783 24.9205Z" fill="#0ED5FF"/>
<path d="M96.1447 25.1433H96.6784C96.7518 25.2684 96.8578 25.3712 96.9852 25.4409C97.1147 25.5093 97.259 25.5453 97.4055 25.5457C97.5314 25.5507 97.6569 25.5303 97.7747 25.4857C97.8924 25.441 97.9999 25.373 98.0905 25.2858C98.1773 25.1976 98.2448 25.0926 98.2889 24.9771C98.333 24.8617 98.3528 24.7385 98.3469 24.6151V24.5606C98.2287 24.6885 98.0857 24.7912 97.9266 24.8624C97.7666 24.9332 97.5932 24.969 97.4181 24.9672C97.2243 24.9723 97.0314 24.9377 96.8514 24.8656C96.6714 24.7935 96.5082 24.6854 96.3717 24.548C96.2341 24.41 96.1259 24.2456 96.0537 24.0647C95.9815 23.8839 95.9467 23.6904 95.9515 23.4958C95.9498 23.3049 95.9855 23.1155 96.0566 22.9383C96.1221 22.7652 96.2238 22.608 96.3549 22.4772C96.4838 22.3383 96.6397 22.2271 96.813 22.1502C96.9944 22.077 97.1888 22.0413 97.3845 22.0452C97.5659 22.0438 97.7458 22.078 97.914 22.1458C98.0804 22.217 98.2305 22.3212 98.3552 22.4522V22.1169H98.8595V24.4434C98.8836 24.8563 98.7482 25.2629 98.4812 25.5794C98.3484 25.7205 98.1864 25.8312 98.0064 25.9036C97.8264 25.976 97.6328 26.0084 97.439 25.9986C97.1492 26.0071 96.8637 25.9283 96.6195 25.7725C96.3913 25.6202 96.221 25.3958 96.1362 25.1353M96.4724 23.5004C96.4696 23.6313 96.493 23.7614 96.5414 23.883C96.5897 24.0047 96.662 24.1155 96.7539 24.2089C96.8417 24.302 96.9479 24.3758 97.0659 24.4256C97.1838 24.4754 97.3109 24.5001 97.439 24.4981C97.5624 24.4978 97.6844 24.4719 97.7972 24.4221C97.9101 24.3724 98.0113 24.2997 98.0946 24.2089C98.1849 24.1213 98.2565 24.0163 98.3049 23.9003C98.3533 23.7843 98.3776 23.6596 98.3762 23.5339C98.3786 23.4048 98.3554 23.2764 98.3078 23.1562C98.2602 23.036 98.1891 22.9265 98.0988 22.8339C98.0143 22.7409 97.9112 22.6667 97.796 22.6161C97.6809 22.5656 97.5564 22.5398 97.4306 22.5405C97.3042 22.5399 97.179 22.5644 97.0623 22.6125C96.9455 22.6606 96.8394 22.7313 96.7503 22.8206C96.6612 22.9099 96.5907 23.016 96.543 23.1327C96.4953 23.2494 96.4713 23.3744 96.4724 23.5004Z" fill="#0ED5FF"/>
<path d="M106.193 21.8067H105.693V21.2285H106.193V21.8067ZM105.697 22.1337H106.193V24.9174H105.697V22.1337Z" fill="#0ED5FF"/>
<path d="M113.539 24.9208H113.035V22.1331H113.518V22.4643C113.611 22.3489 113.729 22.2558 113.863 22.1918C113.995 22.1327 114.138 22.1027 114.283 22.1038C114.438 22.0938 114.593 22.1175 114.739 22.1733C114.884 22.2291 115.015 22.3156 115.123 22.4268C115.335 22.6843 115.44 23.0126 115.417 23.3448V24.9378H114.913V23.4583C114.931 23.2268 114.873 22.9958 114.749 22.7996C114.687 22.726 114.608 22.6682 114.519 22.631C114.429 22.5939 114.333 22.5784 114.236 22.5858C114.132 22.5769 114.027 22.5954 113.932 22.6396C113.837 22.6837 113.755 22.7519 113.694 22.8373C113.56 23.0954 113.502 23.386 113.526 23.6757L113.539 24.9208Z" fill="#0ED5FF"/>
<path d="M122.637 23.7227C122.669 23.9435 122.781 24.1449 122.952 24.2886C123.096 24.4098 123.274 24.4844 123.462 24.5023C123.649 24.5203 123.838 24.4808 124.003 24.3892C124.142 24.3096 124.256 24.1917 124.33 24.0496H124.915C124.807 24.3334 124.62 24.5807 124.377 24.7623C124.14 24.9267 123.858 25.0118 123.57 25.0054C123.375 25.0069 123.182 24.9699 123.002 24.8964C122.825 24.8218 122.666 24.7103 122.536 24.5694C122.405 24.4305 122.301 24.2684 122.229 24.0913C122.089 23.7357 122.089 23.3403 122.229 22.9847C122.297 22.8127 122.397 22.6549 122.523 22.5195C122.657 22.3758 122.817 22.2591 122.994 22.1758C123.175 22.0993 123.369 22.0608 123.566 22.0626C123.805 22.0599 124.04 22.1177 124.251 22.2306C124.46 22.3462 124.639 22.5101 124.772 22.7086C124.855 22.8376 124.916 22.9792 124.953 23.1278C124.995 23.2992 125.015 23.4754 125.011 23.6518V23.7229L122.637 23.7227ZM124.435 23.27C124.385 23.0636 124.272 22.8777 124.112 22.7376C123.951 22.6126 123.753 22.5446 123.549 22.5446C123.345 22.5446 123.146 22.6126 122.985 22.7376C122.818 22.8702 122.7 23.0546 122.649 23.2616L124.435 23.27Z" fill="#0ED5FF"/>
<path d="M95.5438 0.062859H91.3413V16.2982H93.2324V9.91385H95.1488C97.2416 9.91385 98.8498 9.4709 99.9733 8.58501C101.097 7.69912 101.657 6.4415 101.654 4.81215C101.654 1.65422 99.6217 0.0766639 95.5565 0.0794634M98.5697 7.49915C97.8216 8.03988 96.6073 8.30818 94.9345 8.30818H93.228V1.69772H95.3293C96.8212 1.69772 97.9222 1.96182 98.624 2.48589C98.9835 2.76883 99.268 3.13529 99.4526 3.55323C99.6373 3.97117 99.7165 4.42787 99.6833 4.8834C99.6833 6.07392 99.3079 6.94026 98.557 7.48242M109.244 0L102.81 16.2982H104.743L106.727 11.1463H113.249L115.274 16.3107H117.233L110.837 0H109.244ZM107.395 9.43604L109.311 4.40572C109.59 3.63862 109.824 2.85626 110.013 2.06248C110.224 2.85609 110.477 3.63823 110.769 4.40572L112.661 9.43604H107.395ZM127.953 0.062859L123.612 8.18259L119.305 0.062859H117.233L122.654 10.09V16.2984H124.57V10.0105L130 0.071451L127.953 0.062859ZM15.9233 10.069C15.5813 11.332 15.3147 12.6141 15.1248 13.9086C14.9084 12.5951 14.6065 11.297 14.2213 10.0226L11.1619 0.062859H9.15726L6.24068 9.93484C5.84778 11.2362 5.55002 12.5642 5.34974 13.9086C5.15972 12.6226 4.90027 11.3478 4.57254 10.0898L2.0046 0.062859H0L4.32857 16.2982H6.19871L9.37999 5.49559C9.71069 4.44384 9.97034 3.37117 10.1572 2.28478C10.2299 2.73087 10.331 3.1719 10.4598 3.60522C10.6531 4.33879 10.8296 4.94665 10.9851 5.42866L14.2675 16.2982H16.1376L20.4873 0.062859H18.4826L15.9233 10.069ZM27.2322 0.00839881L20.7981 16.3065H22.7145L24.7191 11.1463H31.2371L33.2627 16.3107H35.2211L28.825 0.0122749L27.2322 0.00839881ZM25.3831 9.44443L27.2994 4.41412C27.578 3.647 27.8123 2.86462 28.0013 2.07081C28.2619 2.99723 28.5098 3.77693 28.7577 4.41406L30.6489 9.44437L25.3831 9.44443ZM41.6007 8.18686L37.2932 0.0629241H35.2211L40.6421 10.09V16.2984H42.5459V10.0106L48.0091 0.0631173H45.9625L41.6007 8.18686Z" fill="#002024"/>
<mask id="mask0_1043_12126" style="mask-type:luminance" maskUnits="userSpaceOnUse" x="51" y="0" width="38" height="17">
<path d="M67.24 13.855V12.4255C66.9222 12.2797 66.6638 12.03 66.5079 11.7176C66.3519 11.4052 66.3076 11.0491 66.3824 10.7082C66.4572 10.3673 66.6466 10.0622 66.9192 9.84339C67.1917 9.6246 67.531 9.50532 67.8809 9.50532C68.2307 9.50532 68.5701 9.6246 68.8426 9.84339C69.1151 10.0622 69.3045 10.3673 69.3793 10.7082C69.4542 11.0491 69.4099 11.4052 69.2539 11.7176C69.0979 12.03 68.8396 12.2797 68.5218 12.4255V13.855C68.529 13.9433 68.5178 14.0322 68.4889 14.116C68.46 14.1998 68.4139 14.2767 68.3537 14.3419C68.2935 14.407 68.2204 14.4591 68.139 14.4946C68.0576 14.5302 67.9697 14.5486 67.8809 14.5486C67.792 14.5486 67.7041 14.5302 67.6228 14.4946C67.5414 14.4591 67.4683 14.407 67.4081 14.3419C67.3478 14.2767 67.3018 14.1998 67.2729 14.116C67.244 14.0322 67.2328 13.9434 67.24 13.855ZM72.2199 8.21265V8.27551H63.5586V8.21265H61.9701V8.27551C61.9701 10.8102 62.4912 12.7986 63.5334 14.2406C64.016 14.9343 64.6658 15.4956 65.423 15.8729C66.1802 16.2502 67.0205 16.4313 67.8663 16.3995C68.7207 16.4401 69.5717 16.2674 70.3422 15.897C71.1128 15.5266 71.7785 14.9703 72.2789 14.2784C73.3128 12.8614 73.8297 10.8674 73.8297 8.29651V8.21252L72.2199 8.21265ZM51.0142 0.0551911V16.2861H52.9054V9.35291H59.6503V7.67612H52.9053V1.73618H60.0831V0.0593906L51.0142 0.0551911ZM79.1078 1.71519H81.5663C82.9671 1.71519 83.9855 1.95134 84.6215 2.42363C85.2575 2.89593 85.5755 3.67003 85.5755 4.74595C85.6074 5.18744 85.5398 5.63046 85.3776 6.04248C85.2155 6.4545 84.9628 6.82505 84.6383 7.12692C84.0165 7.65512 83.0359 7.91922 81.6965 7.91922H79.1078L79.1078 1.71519ZM77.2166 0.0593906V16.2905H79.1078V9.54149H82.5034L86.4413 16.2905H88.677L84.2599 8.99669C86.4396 8.24211 87.5309 6.79171 87.5337 4.64549C87.5337 3.11121 87.0544 1.96682 86.1007 1.20391C85.1469 0.441006 83.6719 0.0595207 81.6754 0.0595207L77.2166 0.0593906ZM63.5124 2.15533C62.4786 3.56803 61.9617 5.0897 61.9617 7.68025V7.76424H63.5587V7.70138C63.5587 5.60544 63.9285 4.43585 64.6723 3.33338C65.0208 2.7942 65.5049 2.35561 66.0764 2.06138C66.6479 1.76716 67.2868 1.62758 67.9293 1.65659C68.5644 1.62363 69.197 1.75862 69.763 2.0479C70.3291 2.33719 70.8084 2.77051 71.1526 3.30399C71.8797 4.40226 72.2453 5.55924 72.2453 7.68458V7.74744H73.8338V7.68458C73.8338 5.16943 73.3127 3.61454 72.2747 2.17639C71.7918 1.48078 71.1409 0.917883 70.382 0.539801C69.6232 0.161719 68.7811 -0.0193346 67.9335 0.0133942C67.0794 -0.0264079 66.2288 0.147146 65.459 0.518313C64.6891 0.889479 64.0244 1.44651 63.5251 2.13886" fill="white"/>
</mask>
<g mask="url(#mask0_1043_12126)">
<path d="M88.6643 0.0273438H51.0142V16.401H88.6643V0.0273438Z" fill="#0ED5FF"/>
</g>
</svg>
