<svg width="52" height="53" viewBox="0 0 52 53" fill="none" xmlns="http://www.w3.org/2000/svg">
<path d="M24.2968 43.7451L23.7927 44.6088L23.7929 44.6089L24.2968 43.7451ZM36.7123 50.9878L37.2164 50.1242L37.2162 50.1241L36.7123 50.9878ZM40.263 51.0006L40.7607 51.868L40.7608 51.8679L40.263 51.0006ZM41.5655 49.7031L42.4308 50.2043L42.431 50.204L41.5655 49.7031ZM42.0425 33.8428L41.0425 33.8425V33.8428H42.0425ZM41.1013 30.3121L41.9685 29.814L41.9684 29.814L41.1013 30.3121ZM38.5258 27.7206L38.0219 28.5844L38.0223 28.5846L38.5258 27.7206ZM26.1103 20.4778L26.6142 19.614L26.6137 19.6137L26.1103 20.4778ZM24.3373 19.9958L24.3404 18.9958L24.3373 19.9958ZM22.5611 20.4666L23.0591 21.3338L23.0591 21.3338L22.5611 20.4666ZM21.2595 21.7634L22.1248 22.2647L22.1249 22.2646L21.2595 21.7634ZM20.7823 23.5379L19.7823 23.5374V23.5379H20.7823ZM20.7823 37.6251L21.7823 37.6251V37.6251H20.7823ZM21.7232 41.1538L20.856 41.6516L20.8561 41.6518L21.7232 41.1538ZM24.3238 19.0277C23.7715 19.0277 23.3238 19.4754 23.3238 20.0277C23.3238 20.58 23.7715 21.0277 24.3238 21.0277V19.0277ZM48.7138 20.2977L49.0967 19.3739L49.0965 19.3738L48.7138 20.2977ZM49.8638 21.0664L50.5713 20.3597L50.571 20.3594L49.8638 21.0664ZM50.6317 22.2169L49.7076 22.5991L49.7076 22.5992L50.6317 22.2169ZM50.9008 23.5736L49.9008 23.5731V23.5736H50.9008ZM49.9008 44.3546C49.9008 44.9069 50.3485 45.3546 50.9008 45.3546C51.4531 45.3546 51.9008 44.9069 51.9008 44.3546H49.9008ZM45.043 12.3887C45.043 12.941 45.4907 13.3887 46.043 13.3887C46.5953 13.3887 47.043 12.941 47.043 12.3887H45.043ZM46.043 4.51593H47.043V4.51451L46.043 4.51593ZM45.1637 2.39965L45.8704 1.69207L45.8702 1.69193L45.1637 2.39965ZM43.046 1.52344V2.52344H43.046L43.046 1.52344ZM4.09625 1.52344L4.09549 2.52344H4.09625V1.52344ZM2.95003 1.75055L3.33199 2.67472L3.33202 2.67471L2.95003 1.75055ZM1.97798 2.399L2.68455 3.10665L2.6846 3.10659L1.97798 2.399ZM1.32807 3.37007L2.25165 3.75347L2.25167 3.75344L1.32807 3.37007ZM1.09924 4.51593L0.0992432 4.51518V4.51593H1.09924ZM13.4 42.4699C13.9523 42.4699 14.4 42.0222 14.4 41.4699C14.4 40.9176 13.9523 40.4699 13.4 40.4699V42.4699ZM1.09924 9.51024C0.546958 9.51024 0.0992432 9.95795 0.0992432 10.5102C0.0992432 11.0625 0.546958 11.5102 1.09924 11.5102V9.51024ZM46.043 11.5102C46.5953 11.5102 47.043 11.0625 47.043 10.5102C47.043 9.95795 46.5953 9.51024 46.043 9.51024V11.5102ZM23.7929 44.6089L36.2084 51.8516L37.2162 50.1241L24.8007 42.8813L23.7929 44.6089ZM36.2081 51.8514C36.8987 52.2546 37.6831 52.468 38.4823 52.4709L38.4896 50.4709C38.0418 50.4693 37.6027 50.3497 37.2164 50.1242L36.2081 51.8514ZM38.4823 52.4709C39.2817 52.4738 40.0675 52.2658 40.7607 51.868L39.7653 50.1333C39.3771 50.3561 38.9371 50.4725 38.4896 50.4709L38.4823 52.4709ZM40.7608 51.8679C41.4544 51.4698 42.0302 50.896 42.4308 50.2043L40.7002 49.2019C40.4758 49.5893 40.1534 49.9105 39.7652 50.1334L40.7608 51.8679ZM42.431 50.204C42.8313 49.5125 43.0425 48.7275 43.0425 47.9278H41.0425C41.0425 48.3751 40.9244 48.8146 40.7001 49.2021L42.431 50.204ZM43.0425 47.9278V33.8428H41.0425V47.9278H43.0425ZM43.0425 33.8432C43.043 32.4292 42.6728 31.0401 41.9685 29.814L40.2342 30.8103C40.7643 31.7329 41.0429 32.7783 41.0425 33.8425L43.0425 33.8432ZM41.9684 29.814C41.2642 28.5882 40.2507 27.5684 39.0292 26.8566L38.0223 28.5846C38.9415 29.1202 39.7042 29.8878 40.2343 30.8103L41.9684 29.814ZM39.0297 26.8568L26.6142 19.614L25.6064 21.3415L38.0219 28.5844L39.0297 26.8568ZM26.6137 19.6137C25.9234 19.2115 25.1393 18.9984 24.3404 18.9958L24.3341 20.9958C24.7812 20.9972 25.2202 21.1166 25.6068 21.3418L26.6137 19.6137ZM24.3404 18.9958C23.5413 18.9933 22.756 19.2015 22.0631 19.5994L23.0591 21.3338C23.4471 21.111 23.8867 20.9944 24.3341 20.9958L24.3404 18.9958ZM22.0632 19.5994C21.3701 19.9973 20.7945 20.5709 20.3942 21.2623L22.1249 22.2646C22.349 21.8775 22.6712 21.5565 23.0591 21.3338L22.0632 19.5994ZM20.3942 21.2622C19.9937 21.9536 19.7827 22.7383 19.7823 23.5374L21.7823 23.5384C21.7825 23.0909 21.9007 22.6517 22.1248 22.2647L20.3942 21.2622ZM19.7823 23.5379V37.6251H21.7823V23.5379H19.7823ZM19.7823 37.6251C19.7822 39.038 20.1525 40.4262 20.856 41.6516L22.5905 40.6559C22.0609 39.7334 21.7822 38.6885 21.7823 37.6251L19.7823 37.6251ZM20.8561 41.6518C21.5598 42.877 22.5724 43.8966 23.7927 44.6088L24.8008 42.8814C23.8822 42.3453 23.12 41.5779 22.5903 40.6557L20.8561 41.6518ZM24.3238 21.0277H47.357V19.0277H24.3238V21.0277ZM47.357 21.0277C47.6911 21.0277 48.0221 21.0935 48.331 21.2215L49.0965 19.3738C48.545 19.1453 47.954 19.0277 47.357 19.0277V21.0277ZM48.3309 21.2214C48.6396 21.3494 48.9202 21.537 49.1565 21.7734L50.571 20.3594C50.149 19.9373 49.648 19.6024 49.0967 19.3739L48.3309 21.2214ZM49.1563 21.7731C49.3925 22.0096 49.5799 22.2903 49.7076 22.5991L51.5557 21.8346C51.3275 21.283 50.9929 20.7818 50.5713 20.3597L49.1563 21.7731ZM49.7076 22.5992C49.8353 22.9078 49.9009 23.2388 49.9008 23.5731L51.9008 23.5741C51.9011 22.9774 51.784 22.3863 51.5557 21.8346L49.7076 22.5992ZM49.9008 23.5736V44.3546H51.9008V23.5736H49.9008ZM47.043 12.3887V4.51593H45.043V12.3887H47.043ZM47.043 4.51451C47.0415 3.45537 46.6196 2.4403 45.8704 1.69207L44.4571 3.10722C44.8315 3.48116 45.0423 3.98835 45.043 4.51734L47.043 4.51451ZM45.8702 1.69193C45.1207 0.943728 44.105 0.523435 43.046 0.523438L43.046 2.52344C43.5751 2.52344 44.0826 2.7334 44.4572 3.10736L45.8702 1.69193ZM43.046 0.523438H4.09625V2.52344H43.046V0.523438ZM4.097 0.523439C3.57239 0.523042 3.05286 0.625984 2.56804 0.826381L3.33202 2.67471C3.57413 2.57464 3.83355 2.52324 4.09549 2.52344L4.097 0.523439ZM2.56807 0.826367C2.08326 1.02674 1.64261 1.32067 1.27136 1.6914L2.6846 3.10659C2.86992 2.92153 3.08992 2.77477 3.33199 2.67472L2.56807 0.826367ZM1.27142 1.69134C0.900184 2.06201 0.605596 2.50217 0.404473 2.98671L2.25167 3.75344C2.35209 3.5115 2.49918 3.29173 2.68455 3.10665L1.27142 1.69134ZM0.404488 2.98667C0.203353 3.47119 0.0996366 3.99058 0.0992435 4.51518L2.09924 4.51668C2.09944 4.25472 2.15123 3.99539 2.25165 3.75347L0.404488 2.98667ZM0.0992432 4.51593V38.4729H2.09924V4.51593H0.0992432ZM0.0992432 38.4729C0.0992432 39.533 0.520331 40.5497 1.26993 41.2993L2.68414 39.8851C2.30965 39.5106 2.09924 39.0026 2.09924 38.4729H0.0992432ZM1.26993 41.2993C2.01957 42.0489 3.03624 42.4699 4.09625 42.4699V40.4699C3.56654 40.4699 3.05861 40.2595 2.68414 39.8851L1.26993 41.2993ZM4.09625 42.4699H13.4V40.4699H4.09625V42.4699ZM1.09924 11.5102H46.043V9.51024H1.09924V11.5102ZM34.8493 38.1956C34.7803 38.1956 34.7243 38.1395 34.7243 38.0706H32.7243C32.7243 39.2441 33.6758 40.1956 34.8493 40.1956V38.1956ZM34.7243 38.0706C34.7243 38.0016 34.7802 37.9456 34.8493 37.9456V35.9456C33.6759 35.9456 32.7243 36.8967 32.7243 38.0706H34.7243ZM34.8493 40.1956C36.0228 40.1956 36.9743 39.2441 36.9743 38.0706H34.9743C34.9743 38.1395 34.9182 38.1956 34.8493 38.1956V40.1956ZM36.9743 38.0706C36.9743 36.8967 36.0227 35.9456 34.8493 35.9456V37.9456C34.9183 37.9456 34.9743 38.0016 34.9743 38.0706H36.9743Z" fill="#0ED5FF"/>
</svg>
