<svg width="28" height="28" viewBox="0 0 28 28" fill="none" xmlns="http://www.w3.org/2000/svg">
<g clip-path="url(#clip0_1253_13667)">
<path d="M0.583946 22.4837L1.4766 22.0329L0.583946 22.4837ZM0.846598 22.7487L1.30384 21.8594L0.846598 22.7487ZM0.846598 9.23569L1.30385 10.125L0.846598 9.23569ZM0.583947 9.50072L1.4766 9.95147L0.583947 9.50072ZM24.4933 9.50072L23.6007 9.95147L24.4933 9.50072ZM24.2307 9.23569L23.7734 10.125L24.2307 9.23569ZM24.4933 22.4837L23.6007 22.0329L24.4933 22.4837ZM24.2307 22.7487L23.7734 21.8594L24.2307 22.7487ZM19.3719 19.0341L18.4006 18.7965L19.3719 19.0341ZM20.7767 17.4139L21.0225 18.3832L20.7767 17.4139ZM20.816 14.5475L21.0859 13.5846L21.0859 13.5846L20.816 14.5475ZM19.3527 13.1382L20.327 12.9126L19.3527 13.1382ZM19.2453 12.7808L20.0547 12.1936L20.0547 12.1936L19.2453 12.7808ZM19.1205 12.6809L19.5151 11.7621L19.5151 11.7621L19.1205 12.6809ZM21.2307 14.7853L20.3046 15.1625L20.3046 15.1625L21.2307 14.7853ZM21.1372 14.6612L21.7545 13.8744L21.7545 13.8744L21.1372 14.6612ZM21.1331 17.2991L20.5296 16.5018L20.5296 16.5018L21.1331 17.2991ZM21.2299 17.1739L22.1532 17.558L22.1532 17.558L21.2299 17.1739ZM19.1443 19.4555L18.7532 18.5352L18.7532 18.5352L19.1443 19.4555ZM19.2686 19.3573L18.4643 18.7631L18.4643 18.7631L19.2686 19.3573ZM4.80383 19.0341L5.77518 18.7965L4.80383 19.0341ZM3.39906 17.4139L3.15329 18.3832L3.39906 17.4139ZM3.35973 14.5475L3.08986 13.5846L3.08987 13.5846L3.35973 14.5475ZM4.82304 13.1382L3.84882 12.9126L4.82304 13.1382ZM4.93045 12.7808L4.12104 12.1936L4.12104 12.1936L4.93045 12.7808ZM5.05525 12.6809L4.66065 11.7621L4.66065 11.7621L5.05525 12.6809ZM2.94504 14.7853L3.87116 15.1625L3.87116 15.1625L2.94504 14.7853ZM3.03853 14.6612L2.42127 13.8744L2.42128 13.8744L3.03853 14.6612ZM3.04267 17.2991L3.64618 16.5018L3.64618 16.5018L3.04267 17.2991ZM2.9459 17.1739L2.02259 17.558L2.02259 17.558L2.9459 17.1739ZM5.03145 19.4555L5.42258 18.5352L5.42258 18.5352L5.03145 19.4555ZM4.90718 19.3573L5.71145 18.7631L5.71145 18.7631L4.90718 19.3573ZM26.21 5.72108L25.9742 4.74929L25.9742 4.74929L26.21 5.72108ZM23.5588 21.8445L23.5589 10.1399L25.5589 10.1399L25.5588 21.8445L23.5588 21.8445ZM23.5972 10.1696L1.48006 10.1696L1.48006 8.16959L23.5972 8.1696L23.5972 10.1696ZM1.51844 10.1399L1.51844 21.8445L-0.48156 21.8445L-0.481559 10.1399L1.51844 10.1399ZM1.48006 21.8148L23.5972 21.8148L23.5972 23.8148L1.48006 23.8148L1.48006 21.8148ZM1.51844 21.8445C1.51844 21.9317 1.51847 21.9975 1.51934 22.0538C1.52022 22.1102 1.5218 22.1428 1.52337 22.1621C1.52661 22.2021 1.52649 22.1317 1.4766 22.0329L-0.308706 22.9344C-0.424105 22.7059 -0.456972 22.4858 -0.47011 22.3235C-0.482323 22.1727 -0.48156 21.998 -0.48156 21.8445L1.51844 21.8445ZM1.48006 23.8148C1.32841 23.8148 1.15399 23.8156 1.00315 23.8032C0.840372 23.7898 0.618895 23.7561 0.389351 23.6381L1.30384 21.8594C1.20287 21.8075 1.12982 21.8068 1.16748 21.8099C1.18578 21.8114 1.21742 21.813 1.27301 21.8139C1.32858 21.8148 1.3936 21.8148 1.48006 21.8148L1.48006 23.8148ZM1.4766 22.0329C1.43958 21.9596 1.37963 21.8983 1.30384 21.8594L0.389353 23.6381C0.087389 23.4828 -0.156445 23.236 -0.308706 22.9344L1.4766 22.0329ZM1.48006 10.1696C1.3936 10.1696 1.32858 10.1696 1.27301 10.1705C1.21742 10.1714 1.18578 10.173 1.16748 10.1745C1.12982 10.1776 1.20287 10.177 1.30385 10.125L0.389352 8.34635C0.618895 8.22834 0.840373 8.19466 1.00315 8.18124C1.15399 8.1688 1.32841 8.16959 1.48006 8.16959L1.48006 10.1696ZM-0.481559 10.1399C-0.481559 9.98645 -0.482322 9.81175 -0.470109 9.6609C-0.456972 9.49864 -0.424104 9.27851 -0.308706 9.04998L1.4766 9.95147C1.52649 9.85266 1.52661 9.78231 1.52337 9.82231C1.5218 9.84162 1.52022 9.87421 1.51934 9.93058C1.51847 9.98691 1.51844 10.0527 1.51844 10.1399L-0.481559 10.1399ZM1.30385 10.125C1.37963 10.0861 1.43958 10.0248 1.4766 9.95147L-0.308706 9.04998C-0.156442 8.74844 0.0873915 8.5016 0.389353 8.34635L1.30385 10.125ZM23.5589 10.1399C23.5589 10.0527 23.5588 9.98691 23.5579 9.93058C23.5571 9.87422 23.5555 9.84163 23.5539 9.82231C23.5507 9.78232 23.5508 9.85267 23.6007 9.95147L25.386 9.04998C25.5014 9.27851 25.5343 9.49864 25.5474 9.6609C25.5596 9.81175 25.5589 9.98645 25.5589 10.1399L23.5589 10.1399ZM23.5972 8.1696C23.7489 8.1696 23.9233 8.1688 24.0741 8.18124C24.2369 8.19466 24.4584 8.22834 24.6879 8.34636L23.7734 10.125C23.8744 10.177 23.9475 10.1776 23.9098 10.1745C23.8915 10.173 23.8599 10.1714 23.8043 10.1705C23.7487 10.1696 23.6837 10.1696 23.5972 10.1696L23.5972 8.1696ZM23.6007 9.95147C23.6377 10.0248 23.6977 10.0861 23.7734 10.125L24.6879 8.34636C24.9899 8.50161 25.2337 8.74844 25.386 9.04998L23.6007 9.95147ZM25.5588 21.8445C25.5588 21.998 25.5596 22.1727 25.5474 22.3235C25.5343 22.4858 25.5014 22.7059 25.386 22.9344L23.6007 22.0329C23.5508 22.1317 23.5507 22.2021 23.5539 22.1621C23.5555 22.1428 23.5571 22.1102 23.5579 22.0538C23.5588 21.9975 23.5588 21.9317 23.5588 21.8445L25.5588 21.8445ZM23.5972 21.8148C23.6837 21.8148 23.7487 21.8148 23.8043 21.8139C23.8599 21.813 23.8915 21.8114 23.9098 21.8099C23.9475 21.8068 23.8744 21.8075 23.7734 21.8594L24.6879 23.6381C24.4584 23.7561 24.2369 23.7898 24.0741 23.8032C23.9233 23.8156 23.7489 23.8148 23.5972 23.8148L23.5972 21.8148ZM25.386 22.9344C25.2337 23.236 24.9899 23.4828 24.6879 23.6381L23.7734 21.8594C23.6977 21.8983 23.6377 21.9596 23.6007 22.0329L25.386 22.9344ZM16.1447 18.4793L18.8523 18.4793L18.8523 20.4793L16.1447 20.4793L16.1447 18.4793ZM18.4006 18.7965C18.5857 18.04 19.1431 16.7964 20.5309 16.4445L21.0225 18.3832C20.7136 18.4615 20.4639 18.779 20.3433 19.2718L18.4006 18.7965ZM20.2533 16.8716L20.2533 15.077L22.2533 15.077L22.2533 16.8716L20.2533 16.8716ZM20.5462 15.5104C19.8023 15.302 18.6906 14.7113 18.3785 13.3638L20.327 12.9126C20.4049 13.2491 20.6901 13.4737 21.0859 13.5846L20.5462 15.5104ZM18.8192 13.6567L16.1447 13.6567L16.1447 11.6567L18.8192 11.6567L18.8192 13.6567ZM18.3785 13.3638C18.3663 13.3112 18.3571 13.2713 18.3489 13.2376C18.3407 13.2034 18.3358 13.1851 18.3331 13.1756C18.332 13.1715 18.3321 13.1722 18.3335 13.1764C18.3349 13.1806 18.3384 13.1908 18.3443 13.2054C18.3501 13.2198 18.3597 13.2418 18.3738 13.2685C18.3879 13.2953 18.4081 13.3297 18.4359 13.368L20.0547 12.1936C20.1845 12.3724 20.2374 12.5604 20.2565 12.6271C20.2814 12.7146 20.3057 12.8208 20.327 12.9126L18.3785 13.3638ZM18.8192 11.6567C18.8877 11.6567 18.9862 11.6562 19.0731 11.6617C19.16 11.6672 19.3297 11.6824 19.5151 11.7621L18.7259 13.5998C18.7932 13.6287 18.8506 13.6427 18.8881 13.6497C18.9235 13.6564 18.9464 13.6577 18.9468 13.6577C18.9476 13.6578 18.9397 13.6573 18.9152 13.657C18.891 13.6567 18.8618 13.6567 18.8192 13.6567L18.8192 11.6567ZM18.4359 13.3681C18.4471 13.3835 18.4904 13.4412 18.5659 13.5016C18.6415 13.5621 18.7076 13.5919 18.7259 13.5998L19.5151 11.7621C19.5918 11.795 19.7016 11.8489 19.8157 11.9402C19.9295 12.0313 20.006 12.1265 20.0547 12.1936L18.4359 13.3681ZM20.2533 15.077C20.2533 15.0359 20.2533 15.0077 20.253 14.9843C20.2527 14.9608 20.2523 14.953 20.2523 14.9536C20.2523 14.954 20.2535 14.9756 20.2596 15.0092C20.266 15.0447 20.2787 15.0988 20.3046 15.1625L22.1569 14.4081C22.2293 14.5859 22.2435 14.7474 22.2486 14.832C22.2537 14.9159 22.2533 15.0108 22.2533 15.077L20.2533 15.077ZM21.0859 13.5846C21.1665 13.6072 21.2652 13.6345 21.3475 13.6623C21.4156 13.6853 21.5888 13.7444 21.7545 13.8744L20.52 15.4479C20.554 15.4746 20.5851 15.4949 20.6105 15.5098C20.6357 15.5246 20.6568 15.5351 20.6716 15.542C20.6865 15.5489 20.6974 15.5533 20.7028 15.5554C20.7082 15.5574 20.7103 15.5581 20.7079 15.5573C20.7018 15.5552 20.6873 15.5506 20.6576 15.542C20.6282 15.5334 20.5933 15.5236 20.5462 15.5104L21.0859 13.5846ZM20.3046 15.1625C20.3137 15.1848 20.3409 15.2466 20.3945 15.3178C20.4483 15.3892 20.5004 15.4326 20.52 15.4479L21.7545 13.8744C21.9395 14.0196 22.0686 14.1915 22.1569 14.4081L20.3046 15.1625ZM20.5309 16.4445C20.5836 16.4312 20.6237 16.421 20.6576 16.4121C20.692 16.403 20.7107 16.3977 20.7206 16.3947C20.7249 16.3933 20.7245 16.3934 20.7205 16.3948C20.7167 16.3961 20.7067 16.3998 20.6924 16.4059C20.6782 16.4119 20.6564 16.4219 20.6298 16.4366C20.6031 16.4513 20.5683 16.4725 20.5296 16.5018L21.7366 18.0965C21.5596 18.2305 21.3708 18.2872 21.3069 18.3068C21.2203 18.3333 21.1147 18.3598 21.0225 18.3832L20.5309 16.4445ZM22.2533 16.8716C22.2533 16.9409 22.2537 17.0383 22.2485 17.124C22.2433 17.2088 22.2291 17.3754 22.1532 17.558L20.3066 16.7899C20.279 16.856 20.2659 16.912 20.2594 16.9477C20.2562 16.9654 20.2545 16.9792 20.2535 16.9879C20.2526 16.9965 20.2523 17.0017 20.2522 17.0023C20.2522 17.003 20.2523 17.0008 20.2525 16.9947C20.2527 16.9886 20.2529 16.9802 20.253 16.9685C20.2533 16.9439 20.2533 16.9143 20.2533 16.8716L22.2533 16.8716ZM20.5296 16.5018C20.5173 16.5111 20.4598 16.5554 20.4001 16.6328C20.3405 16.7099 20.3122 16.7764 20.3066 16.7899L22.1532 17.558C22.123 17.6305 22.0717 17.7404 21.9826 17.8558C21.8932 17.9713 21.7996 18.0488 21.7366 18.0965L20.5296 16.5018ZM18.8523 18.4793C18.8934 18.4793 18.9212 18.4793 18.9442 18.479C18.9674 18.4787 18.9742 18.4783 18.9724 18.4784C18.9707 18.4785 18.9473 18.4799 18.9117 18.4867C18.8738 18.4938 18.818 18.5077 18.7532 18.5352L19.5355 20.3759C19.3538 20.4531 19.1884 20.4687 19.1004 20.4743C19.0145 20.4798 18.9178 20.4793 18.8523 20.4793L18.8523 18.4793ZM20.3433 19.2718C20.3237 19.3518 20.2996 19.4519 20.2741 19.536C20.2521 19.6086 20.198 19.7823 20.0729 19.9516L18.4643 18.7631C18.4152 18.8295 18.388 18.8868 18.3754 18.9161C18.3687 18.9315 18.3645 18.9431 18.3624 18.949C18.3603 18.955 18.3595 18.9577 18.3601 18.9557C18.3617 18.9504 18.3656 18.9367 18.3732 18.9073C18.3806 18.8782 18.3891 18.8436 18.4006 18.7965L20.3433 19.2718ZM18.7532 18.5352C18.7244 18.5475 18.6628 18.5768 18.5938 18.6313C18.5249 18.6858 18.4824 18.7386 18.4643 18.7631L20.0729 19.9516C19.931 20.1435 19.7564 20.282 19.5355 20.3759L18.7532 18.5352ZM8.03107 20.4793L5.32345 20.4793L5.32345 18.4793L8.03107 18.4793L8.03107 20.4793ZM3.83249 19.2718C3.71191 18.779 3.46218 18.4615 3.15329 18.3832L3.64484 16.4445C5.03266 16.7964 5.59009 18.04 5.77518 18.7965L3.83249 19.2718ZM1.92248 16.8716L1.92248 15.077L3.92248 15.077L3.92248 16.8716L1.92248 16.8716ZM3.08987 13.5846C3.48567 13.4737 3.7709 13.2491 3.84882 12.9126L5.79726 13.3638C5.48521 14.7113 4.37348 15.302 3.62959 15.5104L3.08987 13.5846ZM5.35657 11.6567L8.03107 11.6567L8.03107 13.6567L5.35657 13.6567L5.35657 11.6567ZM3.84882 12.9126C3.87008 12.8208 3.89436 12.7146 3.91931 12.6271C3.93833 12.5604 3.99127 12.3724 4.12104 12.1936L5.73987 13.368C5.76767 13.3297 5.78785 13.2953 5.80199 13.2685C5.81607 13.2418 5.82563 13.2198 5.83151 13.2054C5.83741 13.1908 5.84092 13.1806 5.84229 13.1764C5.84369 13.1722 5.84381 13.1715 5.84264 13.1756C5.83994 13.1851 5.83508 13.2034 5.82684 13.2376C5.81869 13.2713 5.80944 13.3112 5.79726 13.3638L3.84882 12.9126ZM5.35657 13.6567C5.31399 13.6567 5.2848 13.6567 5.26054 13.657C5.23611 13.6573 5.22817 13.6578 5.22893 13.6577C5.22937 13.6577 5.2523 13.6564 5.28771 13.6497C5.3252 13.6427 5.38262 13.6287 5.44985 13.5998L4.66065 11.7621C4.84607 11.6824 5.01576 11.6672 5.10272 11.6617C5.18958 11.6562 5.28805 11.6567 5.35657 11.6567L5.35657 13.6567ZM4.12104 12.1936C4.16974 12.1265 4.24625 12.0313 4.3601 11.9402C4.47415 11.8489 4.58394 11.795 4.66065 11.7621L5.44985 13.5998C5.46817 13.5919 5.5343 13.5621 5.60992 13.5016C5.68535 13.4412 5.72866 13.3835 5.73987 13.3681L4.12104 12.1936ZM1.92248 15.077C1.92248 15.0108 1.92205 14.9159 1.92715 14.832C1.93231 14.7474 1.94647 14.5859 2.01892 14.4081L3.87116 15.1625C3.89712 15.0988 3.90981 15.0447 3.9162 15.0092C3.92223 14.9756 3.92343 14.954 3.92345 14.9536C3.92349 14.953 3.92304 14.9608 3.92277 14.9843C3.9225 15.0077 3.92248 15.0359 3.92248 15.077L1.92248 15.077ZM3.62959 15.5104C3.58248 15.5236 3.54759 15.5334 3.51821 15.542C3.4885 15.5506 3.47403 15.5552 3.46791 15.5573C3.46547 15.5581 3.46759 15.5574 3.47302 15.5553C3.47838 15.5533 3.48932 15.5489 3.50414 15.542C3.51895 15.5351 3.54011 15.5246 3.56531 15.5098C3.59067 15.4949 3.62179 15.4746 3.65579 15.4479L2.42128 13.8744C2.58696 13.7444 2.76021 13.6853 2.82832 13.6623C2.91062 13.6345 3.00928 13.6072 3.08986 13.5846L3.62959 15.5104ZM2.01892 14.4081C2.10715 14.1915 2.23623 14.0196 2.42127 13.8744L3.65579 15.4479C3.67536 15.4326 3.7275 15.3892 3.78127 15.3178C3.83492 15.2466 3.86208 15.1848 3.87116 15.1625L2.01892 14.4081ZM3.15329 18.3832C3.0611 18.3598 2.95548 18.3333 2.86887 18.3068C2.80495 18.2872 2.61619 18.2305 2.43916 18.0965L3.64618 16.5018C3.60748 16.4725 3.5727 16.4513 3.546 16.4366C3.51937 16.4219 3.49754 16.4119 3.48337 16.4059C3.46909 16.3998 3.45909 16.3961 3.45525 16.3948C3.45129 16.3934 3.45083 16.3933 3.45517 16.3947C3.46505 16.3977 3.48379 16.403 3.51814 16.4121C3.55209 16.421 3.59219 16.4312 3.64484 16.4445L3.15329 18.3832ZM3.92248 16.8716C3.92248 16.9143 3.9225 16.9439 3.92278 16.9685C3.92292 16.9802 3.92309 16.9886 3.92327 16.9947C3.92345 17.0008 3.9236 17.003 3.92356 17.0023C3.92352 17.0017 3.9232 16.9965 3.92225 16.9879C3.9213 16.9792 3.91954 16.9654 3.91633 16.9477C3.90987 16.912 3.89673 16.856 3.86921 16.7899L2.02259 17.558C1.94667 17.3754 1.93243 17.2088 1.92726 17.124C1.92204 17.0383 1.92248 16.9409 1.92248 16.8716L3.92248 16.8716ZM2.43916 18.0965C2.37614 18.0488 2.28252 17.9713 2.1932 17.8557C2.10403 17.7404 2.05273 17.6305 2.02259 17.558L3.86921 16.7899C3.86362 16.7764 3.83533 16.7099 3.77572 16.6328C3.71594 16.5554 3.65843 16.5111 3.64618 16.5018L2.43916 18.0965ZM5.32345 20.4793C5.25799 20.4793 5.16127 20.4798 5.07541 20.4743C4.98738 20.4687 4.82196 20.4531 4.64032 20.3759L5.42258 18.5352C5.35774 18.5077 5.30193 18.4938 5.26412 18.4867C5.22849 18.4799 5.20505 18.4785 5.20342 18.4784C5.20161 18.4783 5.20837 18.4787 5.23153 18.479C5.25455 18.4793 5.28232 18.4793 5.32345 18.4793L5.32345 20.4793ZM5.77518 18.7965C5.78671 18.8436 5.79519 18.8782 5.80262 18.9073C5.81012 18.9367 5.81405 18.9504 5.81564 18.9557C5.81624 18.9577 5.81549 18.955 5.81337 18.949C5.81126 18.943 5.80703 18.9315 5.80038 18.9161C5.78775 18.8868 5.76054 18.8295 5.71145 18.7631L4.10292 19.9516C3.97782 19.7823 3.92371 19.6086 3.9017 19.536C3.87618 19.4519 3.85207 19.3518 3.83249 19.2718L5.77518 18.7965ZM4.64032 20.3759C4.4194 20.282 4.24472 20.1435 4.10292 19.9516L5.71145 18.7631C5.69337 18.7386 5.65088 18.6858 5.58198 18.6313C5.51294 18.5768 5.45139 18.5475 5.42258 18.5352L4.64032 20.3759ZM25.9629 18.8729L25.9629 6.31633L27.9629 6.31633L27.9629 18.8729L25.9629 18.8729ZM26.4458 6.69288C24.5558 7.1515 20.8116 7.57893 16.943 7.86584C13.0573 8.15401 8.93604 8.30822 6.26189 8.19777L6.34444 6.19947C8.90408 6.3052 12.9359 6.15752 16.795 5.87132C20.6712 5.58385 24.2634 5.16442 25.9742 4.74929L26.4458 6.69288ZM25.9629 6.31633C25.9629 6.56322 26.1957 6.75358 26.4458 6.69288L25.9742 4.74929C26.9899 4.50282 27.9629 5.27493 27.9629 6.31633L25.9629 6.31633ZM12.0879 13.5051C10.7401 13.5051 9.63208 14.6101 9.63208 15.9922L7.63208 15.9922C7.63208 13.5226 9.61853 11.5051 12.0879 11.5051L12.0879 13.5051ZM9.63208 15.9922C9.63208 17.3743 10.7401 18.4793 12.0879 18.4793L12.0879 20.4793C9.61853 20.4793 7.63208 18.4618 7.63208 15.9922L9.63208 15.9922ZM12.0879 18.4793C13.4357 18.4793 14.5437 17.3743 14.5437 15.9922L16.5437 15.9922C16.5437 18.4618 14.5572 20.4793 12.0879 20.4793L12.0879 18.4793ZM14.5437 15.9922C14.5437 14.6101 13.4357 13.5051 12.0879 13.5051L12.0879 11.5051C14.5572 11.5051 16.5437 13.5226 16.5437 15.9922L14.5437 15.9922Z" fill="#0ED5FF"/>
</g>
<defs>
<clipPath id="clip0_1253_13667">
<rect width="28" height="28" fill="white"/>
</clipPath>
</defs>
</svg>
