<svg width="28" height="28" viewBox="0 0 28 28" fill="none" xmlns="http://www.w3.org/2000/svg">
<path fill-rule="evenodd" clip-rule="evenodd" d="M21.9455 8.73333C22.0253 8.70844 22.1302 8.75822 22.2351 8.89512C22.2351 8.89512 22.2351 8.89512 26.9776 13.4835C27.2546 13.7573 27.2546 14.1722 26.9776 14.3755C26.9776 14.3755 26.9776 14.3755 22.2351 19.0344C22.1302 19.1713 22.0253 19.2045 21.9455 19.163C21.8658 19.1215 21.8154 19.0012 21.8154 18.8269V9.03203C21.8154 8.86194 21.8658 8.75822 21.9455 8.73333Z" fill="#ED1C24"/>
<path fill-rule="evenodd" clip-rule="evenodd" d="M13.833 1.0874H14.1687L14.4919 1.22016C14.4919 1.22016 14.4919 1.22016 19.3729 6.01597C19.5827 6.28978 19.5114 6.49721 19.163 6.49721C19.163 6.49721 19.163 6.49721 17.1401 6.49721C16.7918 6.49721 16.5148 6.77102 16.5148 7.11536C16.5148 7.11536 16.5148 7.11536 16.5148 10.6749C16.5148 11.0192 16.2336 11.293 15.8139 11.293C15.8139 11.293 15.8139 11.293 12.2592 11.293C11.9108 11.293 11.6296 11.0192 11.6296 10.6749C11.6296 10.6749 11.6296 10.6749 11.6296 7.11536C11.6296 6.77102 11.3526 6.49721 11.0001 6.49721H8.83872C8.49038 6.49721 8.41903 6.28978 8.62888 6.01597C8.62888 6.01597 8.62888 6.01597 13.514 1.22016L13.833 1.0874Z" fill="#ED1C24"/>
<path fill-rule="evenodd" clip-rule="evenodd" d="M6.1863 8.62961C6.27443 8.6711 6.32899 8.79141 6.32899 8.96565V18.9638C6.32899 19.1381 6.27443 19.2418 6.1863 19.275C6.10236 19.3082 5.98065 19.275 5.83796 19.1713C5.83796 19.1713 5.83796 19.1713 1.02415 14.3755C0.747158 14.1722 0.747158 13.7573 1.02415 13.4835C1.02415 13.4835 1.02415 13.4835 5.83796 8.75822C5.98065 8.62131 6.10236 8.58812 6.1863 8.62961Z" fill="#ED1C24"/>
<path fill-rule="evenodd" clip-rule="evenodd" d="M12.2592 16.4996C12.2592 16.4996 12.2592 16.4996 15.8139 16.4996C16.2336 16.4996 16.5148 16.7734 16.5148 17.1177C16.5148 17.1177 16.5148 17.1177 16.5148 20.8847C16.5148 21.2954 16.7918 21.5692 17.1401 21.5692H19.0245C19.3729 21.5692 19.5114 21.7725 19.2344 21.9799C19.2344 21.9799 19.2344 21.9799 14.4919 26.7052C14.3492 26.8421 14.1771 26.9126 14.0009 26.9126C13.8288 26.9126 13.6525 26.8421 13.514 26.7052C13.514 26.7052 13.514 26.7052 8.77157 21.9799C8.49038 21.7725 8.62888 21.5692 8.97721 21.5692C8.97721 21.5692 8.97721 21.5692 11.0001 21.5692C11.3526 21.5692 11.6296 21.2954 11.6296 20.8847C11.6296 20.8847 11.6296 20.8847 11.6296 17.1177C11.6296 16.7734 11.9108 16.4996 12.2592 16.4996Z" fill="#ED1C24"/>
</svg>
