<svg width="28" height="29" viewBox="0 0 28 29" fill="none" xmlns="http://www.w3.org/2000/svg">
<path d="M13.1162 23.4419L12.6122 24.3056L12.6123 24.3057L13.1162 23.4419ZM19.5539 27.1974L20.0581 26.3338L20.0578 26.3336L19.5539 27.1974ZM21.395 27.204L21.8928 28.0714L21.8929 28.0713L21.395 27.204ZM22.0704 26.5312L22.9357 27.0325L22.9359 27.0322L22.0704 26.5312ZM22.3177 18.3074L21.3177 18.307V18.3074H22.3177ZM21.8297 16.4767L22.6968 15.9786L22.6968 15.9785L21.8297 16.4767ZM20.4942 15.1329L19.9903 15.9967L19.9908 15.9969L20.4942 15.1329ZM14.0566 11.3774L14.5605 10.5136L14.56 10.5133L14.0566 11.3774ZM13.1372 11.1275L13.1404 10.1275H13.1404L13.1372 11.1275ZM12.2163 11.3716L12.7142 12.2388L12.7142 12.2388L12.2163 11.3716ZM11.5414 12.044L12.4067 12.5453L12.4067 12.5452L11.5414 12.044ZM11.2939 12.9641L10.2939 12.9636V12.9641H11.2939ZM11.2939 20.2686L12.2939 20.2686V20.2686H11.2939ZM11.7818 22.0983L10.9146 22.5961L10.9147 22.5963L11.7818 22.0983ZM13.1302 10.144C12.578 10.144 12.1302 10.5917 12.1302 11.144C12.1302 11.6963 12.578 12.144 13.1302 12.144V10.144ZM25.7769 11.284L26.1598 10.3602L26.1596 10.3601L25.7769 11.284ZM26.3732 11.6826L27.0807 10.9759L27.0804 10.9756L26.3732 11.6826ZM26.7714 12.2791L25.8473 12.6614L25.8473 12.6614L26.7714 12.2791ZM26.9109 12.9826L25.9109 12.9821V12.9826H26.9109ZM25.9109 23.7579C25.9109 24.3102 26.3586 24.7579 26.9109 24.7579C27.4632 24.7579 27.9109 24.3102 27.9109 23.7579H25.9109ZM23.3921 7.18302C23.3921 7.7353 23.8398 8.18302 24.3921 8.18302C24.9444 8.18302 25.3921 7.7353 25.3921 7.18302H23.3921ZM24.3921 3.10086H25.3921L25.3921 3.09944L24.3921 3.10086ZM23.9361 2.00353L24.6428 1.29595L24.6426 1.29581L23.9361 2.00353ZM22.8381 1.54919V2.54919H22.8381L22.8381 1.54919ZM2.64189 1.54919L2.64114 2.54919H2.64189V1.54919ZM2.04756 1.66695L2.42952 2.59113L2.42955 2.59112L2.04756 1.66695ZM1.54353 2.00319L2.2501 2.71084L2.25015 2.71078L1.54353 2.00319ZM1.20654 2.50671L2.13012 2.89011L2.13014 2.89007L1.20654 2.50671ZM1.08789 3.10086L0.0878906 3.10011V3.10086H1.08789ZM7.46606 23.2622C8.01835 23.2622 8.46606 22.8145 8.46606 22.2622C8.46606 21.7099 8.01835 21.2622 7.46606 21.2622V23.2622ZM1.08789 5.20902C0.535606 5.20902 0.0878906 5.65673 0.0878906 6.20902C0.0878906 6.7613 0.535606 7.20902 1.08789 7.20902V5.20902ZM24.3921 7.20902C24.9444 7.20902 25.3921 6.7613 25.3921 6.20902C25.3921 5.65673 24.9444 5.20902 24.3921 5.20902V7.20902ZM12.6123 24.3057L19.05 28.0612L20.0578 26.3336L13.6201 22.5781L12.6123 24.3057ZM19.0497 28.061C19.4811 28.3128 19.971 28.4461 20.47 28.4479L20.4772 26.4479C20.3297 26.4474 20.1851 26.408 20.0581 26.3338L19.0497 28.061ZM20.47 28.4479C20.9692 28.4497 21.4599 28.3198 21.8928 28.0714L20.8973 26.3367C20.7695 26.4101 20.6246 26.4484 20.4772 26.4479L20.47 28.4479ZM21.8929 28.0713C22.326 27.8227 22.6856 27.4643 22.9357 27.0325L21.2051 26.03C21.1311 26.1577 21.025 26.2634 20.8972 26.3368L21.8929 28.0713ZM22.9359 27.0322C23.1858 26.6004 23.3177 26.1102 23.3177 25.6107H21.3177C21.3177 25.7578 21.2789 25.9025 21.2049 26.0303L22.9359 27.0322ZM23.3177 25.6107V18.3074H21.3177V25.6107H23.3177ZM23.3177 18.3078C23.318 17.4904 23.104 16.6873 22.6968 15.9786L20.9626 16.9748C21.1955 17.3802 21.3179 17.8394 21.3177 18.307L23.3177 18.3078ZM22.6968 15.9785C22.2897 15.2699 21.7039 14.6804 20.9977 14.2689L19.9908 15.9969C20.3946 16.2322 20.7297 16.5695 20.9627 16.9749L22.6968 15.9785ZM20.9981 14.2691L14.5605 10.5136L13.5527 12.2411L19.9903 15.9967L20.9981 14.2691ZM14.56 10.5133C14.129 10.2622 13.6393 10.1291 13.1404 10.1275L13.1341 12.1275C13.2812 12.1279 13.4258 12.1672 13.5531 12.2414L14.56 10.5133ZM13.1404 10.1275C12.6413 10.1259 12.1509 10.2559 11.7183 10.5044L12.7142 12.2388C12.8421 12.1654 12.9868 12.127 13.1341 12.1275L13.1404 10.1275ZM11.7183 10.5044C11.2855 10.7529 10.926 11.1111 10.676 11.5429L12.4067 12.5452C12.4805 12.4177 12.5866 12.3121 12.7142 12.2388L11.7183 10.5044ZM10.6761 11.5428C10.4259 11.9745 10.2942 12.4646 10.2939 12.9636L12.2939 12.9646C12.294 12.8172 12.3329 12.6726 12.4067 12.5453L10.6761 11.5428ZM10.2939 12.9641V20.2686H12.2939V12.9641H10.2939ZM10.2939 20.2685C10.2939 21.0853 10.5079 21.8878 10.9146 22.5961L12.649 21.6004C12.4163 21.195 12.2939 20.7358 12.2939 20.2686L10.2939 20.2685ZM10.9147 22.5963C11.3215 23.3046 11.9068 23.8939 12.6122 24.3056L13.6203 22.5782C13.2166 22.3426 12.8817 22.0054 12.6489 21.6002L10.9147 22.5963ZM13.1302 12.144H25.0734V10.144H13.1302V12.144ZM25.0734 12.144C25.1834 12.144 25.2924 12.1657 25.3942 12.2078L26.1596 10.3601C25.8153 10.2175 25.4462 10.144 25.0734 10.144V12.144ZM25.394 12.2078C25.4957 12.2499 25.5881 12.3117 25.666 12.3896L27.0804 10.9756C26.8169 10.712 26.5041 10.5029 26.1598 10.3602L25.394 12.2078ZM25.6657 12.3893C25.7435 12.4672 25.8053 12.5597 25.8473 12.6614L27.6954 11.8969C27.5529 11.5524 27.344 11.2395 27.0807 10.9759L25.6657 12.3893ZM25.8473 12.6614C25.8893 12.7629 25.911 12.8719 25.9109 12.9821L27.9109 12.9831C27.9111 12.6106 27.838 12.2414 27.6954 11.8968L25.8473 12.6614ZM25.9109 12.9826V23.7579H27.9109V12.9826H25.9109ZM25.3921 7.18302V3.10086H23.3921V7.18302H25.3921ZM25.3921 3.09944C25.3911 2.42262 25.1215 1.77402 24.6428 1.29595L23.2295 2.7111C23.3334 2.81489 23.3919 2.95561 23.3921 3.10227L25.3921 3.09944ZM24.6426 1.29581C24.1638 0.817756 23.5148 0.549193 22.8381 0.549195L22.8381 2.54919C22.9848 2.54919 23.1257 2.60743 23.2296 2.71124L24.6426 1.29581ZM22.8381 0.549195H2.64189V2.54919H22.8381V0.549195ZM2.64265 0.549195C2.30739 0.548942 1.97539 0.614727 1.66556 0.74279L2.42955 2.59112C2.49666 2.56338 2.56855 2.54914 2.64114 2.54919L2.64265 0.549195ZM1.6656 0.742776C1.35578 0.870824 1.07417 1.05866 0.836914 1.29559L2.25015 2.71078C2.30148 2.65952 2.36243 2.61886 2.42952 2.59113L1.6656 0.742776ZM0.836971 1.29554C0.599731 1.53241 0.411473 1.8137 0.282945 2.12334L2.13014 2.89007C2.15797 2.82303 2.19873 2.76213 2.2501 2.71084L0.836971 1.29554ZM0.282959 2.12331C0.154422 2.43295 0.0881422 2.76486 0.0878909 3.10011L2.08789 3.10161C2.08794 3.02901 2.1023 2.95714 2.13012 2.89011L0.282959 2.12331ZM0.0878906 3.10086V20.7082H2.08789V3.10086H0.0878906ZM0.0878906 20.7082C0.0878906 21.3855 0.356953 22.0352 0.835938 22.5142L2.25015 21.0999C2.14627 20.9961 2.08789 20.8552 2.08789 20.7082H0.0878906ZM0.835938 22.5142C1.31496 22.9932 1.9646 23.2622 2.64189 23.2622V21.2622C2.49489 21.2622 2.354 21.2038 2.25015 21.0999L0.835938 22.5142ZM2.64189 23.2622H7.46606V21.2622H2.64189V23.2622ZM1.08789 7.20902H24.3921V5.20902H1.08789V7.20902ZM18.5879 20.0829C18.8181 20.0829 19.0046 20.2694 19.0046 20.4996H17.0046C17.0046 21.374 17.7135 22.0829 18.5879 22.0829V20.0829ZM19.0046 20.4996C19.0046 20.7298 18.8179 20.9162 18.5879 20.9162V18.9162C17.7136 18.9162 17.0046 19.6249 17.0046 20.4996H19.0046ZM18.5879 22.0829C19.4623 22.0829 20.1712 21.374 20.1712 20.4996H18.1712C18.1712 20.2694 18.3577 20.0829 18.5879 20.0829V22.0829ZM20.1712 20.4996C20.1712 19.6249 19.4622 18.9162 18.5879 18.9162V20.9162C18.3579 20.9162 18.1712 20.7298 18.1712 20.4996H20.1712Z" fill="#0ED5FF"/>
</svg>
