<svg width="28" height="20" viewBox="0 0 28 20" fill="none" xmlns="http://www.w3.org/2000/svg">
<path d="M2.05619 18.419L2.51018 17.528L2.05619 18.419ZM1.2718 17.6346L2.16281 17.1806L1.2718 17.6346ZM25.9423 18.419L25.4883 17.528L25.9423 18.419ZM26.7267 17.6346L25.8357 17.1806L26.7267 17.6346ZM25.9423 1.40004L25.4883 2.29104L25.9423 1.40004ZM26.7267 2.18442L25.8357 2.63841L26.7267 2.18442ZM2.05619 1.40004L2.51018 2.29104L2.05619 1.40004ZM1.2718 2.18442L2.16281 2.63841L1.2718 2.18442ZM3.94797 2.20441H24.0505V0.204407H3.94797V2.20441ZM24.0505 17.6147H3.94797V19.6147H24.0505V17.6147ZM2.07617 4.61466V4.0762H0.0761719V4.61466H2.07617ZM25.9223 4.0762V4.61466H27.9223V4.0762H25.9223ZM1.07617 5.61466H26.9223V3.61466H1.07617V5.61466ZM2.07617 15.7429V7.93517H0.0761719V15.7429H2.07617ZM2.07617 7.93517V4.61466H0.0761719V7.93517H2.07617ZM25.9223 4.61466V7.93517H27.9223V4.61466H25.9223ZM25.9223 7.93517V15.7429H27.9223V7.93517H25.9223ZM1.07617 8.93517H26.9223V6.93517H1.07617V8.93517ZM3.58899 12.8839H9.87104V10.8839H3.58899V12.8839ZM3.58899 15.6659H12.0249V13.6659H3.58899V15.6659ZM3.94797 17.6147C3.42885 17.6147 3.09966 17.6139 2.85053 17.5935C2.61307 17.5741 2.53768 17.542 2.51018 17.528L1.6022 19.31C1.95864 19.4916 2.32653 19.5574 2.68767 19.5869C3.03713 19.6154 3.46186 19.6147 3.94797 19.6147V17.6147ZM0.0761719 15.7429C0.0761719 16.229 0.0753942 16.6537 0.103947 17.0032C0.133453 17.3643 0.199179 17.7322 0.380795 18.0886L2.16281 17.1806C2.14879 17.1531 2.11671 17.0778 2.0973 16.8403C2.07695 16.5912 2.07617 16.262 2.07617 15.7429H0.0761719ZM2.51018 17.528C2.36062 17.4518 2.23901 17.3302 2.16281 17.1806L0.380795 18.0886C0.648748 18.6145 1.07631 19.0421 1.6022 19.31L2.51018 17.528ZM24.0505 19.6147C24.5366 19.6147 24.9614 19.6154 25.3108 19.5869C25.672 19.5574 26.0399 19.4916 26.3963 19.31L25.4883 17.528C25.4608 17.542 25.3854 17.5741 25.148 17.5935C24.8988 17.6139 24.5696 17.6147 24.0505 17.6147V19.6147ZM25.9223 15.7429C25.9223 16.262 25.9215 16.5912 25.9012 16.8403C25.8818 17.0778 25.8497 17.1531 25.8357 17.1806L27.6177 18.0886C27.7993 17.7322 27.865 17.3643 27.8945 17.0032C27.9231 16.6537 27.9223 16.229 27.9223 15.7429H25.9223ZM26.3963 19.31C26.9222 19.0421 27.3497 18.6145 27.6177 18.0886L25.8357 17.1806C25.7595 17.3302 25.6379 17.4518 25.4883 17.528L26.3963 19.31ZM24.0505 2.20441C24.5696 2.20441 24.8988 2.20518 25.148 2.22554C25.3854 2.24494 25.4608 2.27703 25.4883 2.29104L26.3963 0.509029C26.0399 0.327414 25.672 0.261688 25.3108 0.232181C24.9614 0.203629 24.5366 0.204407 24.0505 0.204407V2.20441ZM27.9223 4.0762C27.9223 3.59009 27.9231 3.16537 27.8945 2.8159C27.865 2.45476 27.7993 2.08687 27.6177 1.73043L25.8357 2.63841C25.8497 2.66592 25.8818 2.74131 25.9012 2.97876C25.9215 3.2279 25.9223 3.55709 25.9223 4.0762H27.9223ZM25.4883 2.29104C25.6379 2.36725 25.7595 2.48885 25.8357 2.63841L27.6177 1.73043C27.3497 1.20454 26.9222 0.776983 26.3963 0.509029L25.4883 2.29104ZM3.94797 0.204407C3.46186 0.204407 3.03713 0.203629 2.68767 0.232181C2.32653 0.261688 1.95864 0.327414 1.6022 0.509029L2.51018 2.29104C2.53768 2.27703 2.61307 2.24494 2.85053 2.22554C3.09966 2.20518 3.42885 2.20441 3.94797 2.20441V0.204407ZM2.07617 4.0762C2.07617 3.55709 2.07695 3.2279 2.0973 2.97876C2.11671 2.74131 2.14879 2.66592 2.16281 2.63841L0.380795 1.73043C0.199179 2.08687 0.133453 2.45476 0.103947 2.8159C0.0753942 3.16537 0.0761719 3.59009 0.0761719 4.0762H2.07617ZM1.6022 0.509029C1.07631 0.776983 0.648748 1.20454 0.380795 1.73043L2.16281 2.63841C2.23901 2.48885 2.36061 2.36725 2.51018 2.29104L1.6022 0.509029ZM17.589 15.2813C16.4561 15.2813 15.5377 14.3629 15.5377 13.23H13.5377C13.5377 15.4675 15.3515 17.2813 17.589 17.2813V15.2813ZM15.5377 13.23C15.5377 12.0972 16.4561 11.1788 17.589 11.1788V9.17876C15.3515 9.17876 13.5377 10.9926 13.5377 13.23H15.5377ZM17.589 11.1788C18.0412 11.1788 18.4566 11.3239 18.795 11.5705L19.9727 9.954C19.3037 9.46661 18.4785 9.17876 17.589 9.17876V11.1788ZM18.795 14.8896C18.4566 15.1361 18.0412 15.2813 17.589 15.2813V17.2813C18.4785 17.2813 19.3037 16.9935 19.9727 16.5061L18.795 14.8896ZM23.23 13.23C23.23 14.3629 22.3116 15.2813 21.1787 15.2813V17.2813C23.4162 17.2813 25.23 15.4675 25.23 13.23H23.23ZM21.1787 15.2813C20.0458 15.2813 19.1274 14.3629 19.1274 13.23H17.1274C17.1274 15.4675 18.9413 17.2813 21.1787 17.2813V15.2813ZM19.1274 13.23C19.1274 12.0972 20.0458 11.1788 21.1787 11.1788V9.17876C18.9413 9.17876 17.1274 10.9926 17.1274 13.23H19.1274ZM21.1787 11.1788C22.3116 11.1788 23.23 12.0972 23.23 13.23H25.23C25.23 10.9926 23.4162 9.17876 21.1787 9.17876V11.1788Z" fill="#0ED5FF"/>
</svg>
