<svg width="52" height="36" viewBox="0 0 52 36" fill="none" xmlns="http://www.w3.org/2000/svg">
<path opacity="0.8" d="M50.3573 5.63309C49.7646 3.43046 48.028 1.69424 45.8257 1.10112C41.8022 0 25.7078 0 25.7078 0C25.7078 0 9.61391 0 5.59033 1.05915C3.43046 1.65188 1.65148 3.43085 1.05875 5.63309C0 9.65628 0 18 0 18C0 18 0 26.3857 1.05875 30.3669C1.65188 32.5691 3.38809 34.3058 5.59072 34.8989C9.65628 36 25.7082 36 25.7082 36C25.7082 36 41.8022 36 45.8257 34.9409C48.0284 34.3481 49.7646 32.6115 50.3577 30.4093C51.4165 26.3857 51.4165 18.0424 51.4165 18.0424C51.4165 18.0424 51.4588 9.65628 50.3573 5.63309Z" fill="#002024"/>
<path d="M20.584 25.7082L33.9673 17.9999L20.584 10.2916V25.7082Z" fill="white"/>
</svg>
