<svg width="81" height="58" viewBox="0 0 81 58" fill="none" xmlns="http://www.w3.org/2000/svg">
<path d="M79.3409 9.45755C78.4126 6.00793 75.6928 3.28879 72.2438 2.35988C65.9424 0.635376 40.7365 0.635376 40.7365 0.635376C40.7365 0.635376 15.5313 0.635376 9.22982 2.29414C5.84717 3.22244 3.06105 6.00855 2.13276 9.45755C0.474609 15.7584 0.474609 28.8258 0.474609 28.8258C0.474609 28.8258 0.474609 41.9589 2.13276 48.194C3.06167 51.643 5.78081 54.3628 9.23043 55.2917C15.5976 57.0162 40.7371 57.0162 40.7371 57.0162C40.7371 57.0162 65.9424 57.0162 72.2438 55.3574C75.6935 54.4291 78.4126 51.7094 79.3415 48.2604C80.9997 41.9589 80.9997 28.8921 80.9997 28.8921C80.9997 28.8921 81.066 15.7584 79.3409 9.45755Z" fill="#FF0000"/>
<path d="M32.7109 40.8979L53.6711 28.8257L32.7109 16.7535V40.8979Z" fill="white"/>
</svg>
