<svg width="46" height="29" viewBox="0 0 46 29" fill="none" xmlns="http://www.w3.org/2000/svg">
<path d="M1.40039 1.00049H8.04654M37.9542 1.00049H44.6004M33.1247 15.78C36.9956 18.5587 39.7382 22.6926 40.8342 27.4005M12.8761 15.78C9.00589 18.5595 6.2635 22.693 5.16654 27.4005M44.6004 11.2058C44.6004 10.3036 44.2503 9.43834 43.6271 8.80038C43.0039 8.16243 42.1586 7.80403 41.2773 7.80403H37.9808C36.5938 7.84202 35.215 7.57387 33.9382 7.0178C32.6614 6.46173 31.5166 5.63077 30.5814 4.58142C29.6455 3.45953 28.4831 2.55871 27.1744 1.94102C25.8656 1.32333 24.4416 1.00347 23.0004 1.00347C21.5592 1.00347 20.1352 1.32333 18.8264 1.94102C17.5176 2.55871 16.3552 3.45953 15.4193 4.58142C14.4843 5.63089 13.3395 6.46193 12.0626 7.01801C10.7858 7.57409 9.40702 7.84217 8.01996 7.80403H4.72347C3.84213 7.80403 2.9969 8.16243 2.3737 8.80038C1.7505 9.43834 1.40039 10.3036 1.40039 11.2058C1.40039 12.108 1.7505 12.9733 2.3737 13.6112C2.9969 14.2492 3.84213 14.6076 4.72347 14.6076H8.01996C9.40702 14.5694 10.7858 14.8375 12.0626 15.3936C13.3395 15.9497 14.4843 16.7807 15.4193 17.8302C16.3552 18.9521 17.5176 19.8529 18.8264 20.4706C20.1352 21.0883 21.5592 21.4081 23.0004 21.4081C24.4416 21.4081 25.8656 21.0883 27.1744 20.4706C28.4831 19.8529 29.6455 18.9521 30.5814 17.8302C31.5166 16.7808 32.6614 15.9499 33.9382 15.3938C35.215 14.8377 36.5938 14.5696 37.9808 14.6076H41.2773C42.1586 14.6076 43.0039 14.2492 43.6271 13.6112C44.2503 12.9733 44.6004 12.108 44.6004 11.2058Z" stroke="#002024" stroke-width="2" stroke-linecap="round" stroke-linejoin="round"/>
</svg>
