<svg width="42" height="32" viewBox="0 0 42 32" fill="none" xmlns="http://www.w3.org/2000/svg">
<path d="M15.3825 23.5H26.6325M8.82 9.90625H10.695M8.82 16.4688H10.695M16.32 9.90625H18.195M16.32 16.4688H18.195M23.82 9.90625H25.695M23.82 16.4688H25.695M31.32 9.90625H33.195M31.32 16.4688H33.195M6.18094 2.30219C3.81844 2.44 1.93406 4.15281 1.70813 6.50875C1.5 8.67906 1.3125 11.8028 1.3125 16C1.3125 20.1972 1.5 23.3219 1.70813 25.4912C1.93313 27.8481 3.8175 29.56 6.18094 29.6978C9.20344 29.875 14.0503 30.0625 21 30.0625C27.9497 30.0625 32.7966 29.875 35.8191 29.6978C38.1816 29.56 40.0659 27.8481 40.2919 25.4912C40.5 23.3209 40.6875 20.1972 40.6875 16C40.6875 11.8028 40.5 8.67812 40.2919 6.50875C40.0669 4.15281 38.1825 2.44 35.8191 2.30219C32.7966 2.125 27.9497 1.9375 21 1.9375C14.0503 1.9375 9.20344 2.125 6.18094 2.30219Z" stroke="#002024" stroke-width="2" stroke-linecap="round" stroke-linejoin="round"/>
</svg>
