<svg width="42" height="42" viewBox="0 0 42 42" fill="none" xmlns="http://www.w3.org/2000/svg">
<path d="M21.4678 40.6277C22.7428 40.6652 24.1472 40.6877 25.6866 40.6877C30.3159 40.6877 33.72 40.4871 36.0412 40.2715C38.4112 40.0512 40.1522 38.1715 40.3003 35.7959C40.4878 32.7724 40.6875 27.9321 40.6875 21.0002C40.6875 14.0684 40.4878 9.22806 40.3003 6.20462C40.1522 3.82899 38.4112 1.94931 36.0412 1.72899C33.72 1.51337 30.3159 1.31274 25.6875 1.31274C21.0591 1.31274 17.655 1.51337 15.3328 1.72899C12.9638 1.94931 11.2219 3.82899 11.0747 6.20462C11.0018 7.38582 10.9415 8.56776 10.8938 9.75024M24.75 36.0002H26.625M8.8125 36.0002H10.6875M1.47187 36.1821C1.57031 38.5212 3.2325 40.3943 5.56875 40.5556C6.69375 40.6324 8.08031 40.6877 9.75 40.6877C11.4197 40.6877 12.8062 40.6324 13.9312 40.5556C16.2675 40.3943 17.9297 38.5212 18.0281 36.1821C18.1125 34.1684 18.1875 31.3287 18.1875 27.5627C18.1875 23.7968 18.1125 20.9571 18.0281 18.9434C17.9297 16.6043 16.2675 14.7312 13.9312 14.5699C12.5394 14.4781 11.1449 14.434 9.75 14.4377C8.08031 14.4377 6.69375 14.4931 5.56875 14.5699C3.2325 14.7312 1.57031 16.6043 1.47187 18.9434C1.3875 20.9571 1.3125 23.7968 1.3125 27.5627C1.3125 31.3287 1.3875 34.1684 1.47187 36.1821Z" stroke="#002024" stroke-width="2" stroke-linecap="round" stroke-linejoin="round"/>
</svg>
