<svg width="48" height="23" viewBox="0 0 48 23" fill="none" xmlns="http://www.w3.org/2000/svg">
<path d="M8.32094 16.9781H10.2809M8.32094 11.9738H10.2809M14.2009 11.9738H16.1609M20.0809 11.9738H22.0409M25.9609 11.9738H27.9209M31.8409 11.9738H33.8009M37.7209 11.9738H39.6809M8.32094 6.96959H10.2809M14.2009 6.96959H16.1609M20.0809 6.96959H22.0409M25.9609 6.96959H27.9209M31.8409 6.96959H33.8009M37.7209 6.96959H39.6809M14.2009 16.9781H33.8009M37.7209 16.9781H39.6809M42.6209 1.96533H5.38094C3.21594 1.96533 1.46094 3.75788 1.46094 5.96874V17.9789C1.46094 20.19 3.21594 21.9824 5.38094 21.9824H42.6209C44.7859 21.9824 46.5409 20.19 46.5409 17.9789V5.96874C46.5409 3.75788 44.7859 1.96533 42.6209 1.96533Z" stroke="#002024" stroke-width="2" stroke-linecap="round" stroke-linejoin="round"/>
</svg>
