<svg width="32" height="32" viewBox="0 0 32 32" fill="none" xmlns="http://www.w3.org/2000/svg">
<g clip-path="url(#clip0_145_1399)">
<path d="M28.482 8.624L18.482 3.124C18.3343 3.0428 18.1686 3.00023 18.0001 3.00023C17.8316 3.00023 17.6658 3.0428 17.5182 3.124L7.51818 8.624C7.36139 8.71033 7.23064 8.83715 7.13958 8.99124C7.04852 9.14532 7.00049 9.32102 7.00049 9.5C7.00049 9.67898 7.04852 9.85468 7.13958 10.0088C7.23064 10.1629 7.36139 10.2897 7.51818 10.376L17.0001 15.5913V26.3086L13.9639 24.6393L13.0001 26.3912L17.5182 28.876C17.6658 28.9573 17.8316 29 18.0001 29C18.1686 29 18.3344 28.9573 18.482 28.876L28.482 23.376C28.6388 23.2897 28.7697 23.1629 28.8608 23.0088C28.9519 22.8548 29 22.679 29.0001 22.5V9.5C29 9.32098 28.9519 9.14525 28.8608 8.99116C28.7697 8.83707 28.6388 8.71027 28.482 8.624ZM18.0001 5.1416L25.9249 9.5L18.0001 13.8584L10.0753 9.5L18.0001 5.1416ZM27.0001 21.9087L19.0001 26.3087V15.5913L27.0001 11.1913V21.9087Z" fill="#0ED5FF"/>
<path d="M1 16L9 16V14H1V16Z" fill="#0ED5FF"/>
<path d="M3 24H11V22H3V24Z" fill="#0ED5FF"/>
<path d="M5 20H13V18H5V20Z" fill="#0ED5FF"/>
</g>
<defs>
<clipPath id="clip0_145_1399">
<rect width="32" height="32" fill="white"/>
</clipPath>
</defs>
</svg>
