<svg width="20" height="18" viewBox="0 0 20 18" fill="none" xmlns="http://www.w3.org/2000/svg">
<path d="M10.1567 0C10.7351 0 11.3135 0 11.9095 0C11.9095 0.0103554 11.9095 0.0207108 11.9095 0.03138C11.9204 0.0316938 11.9312 0.0320076 11.9425 0.0323214C11.9921 0.0338904 12.0417 0.0356163 12.0913 0.0373422C12.1085 0.0378129 12.1256 0.0382836 12.1433 0.0387543C12.2284 0.0418923 12.2987 0.0481683 12.379 0.07845C12.4201 0.0845691 12.4608 0.0897468 12.5023 0.09414C12.5888 0.104025 12.6705 0.118303 12.7545 0.14121C12.7973 0.149526 12.8401 0.157214 12.883 0.164745C13.0093 0.187339 13.132 0.215894 13.2553 0.25104C13.2733 0.256061 13.2913 0.261082 13.3099 0.266416C13.3905 0.289167 13.4707 0.311917 13.5497 0.339218C13.6074 0.359144 13.6652 0.372481 13.7248 0.385033C13.7633 0.393976 13.7982 0.40794 13.8344 0.42363C13.891 0.443399 13.948 0.460815 14.0056 0.477603C14.0708 0.497059 14.1319 0.521692 14.1943 0.54915C14.222 0.559505 14.2497 0.569547 14.2774 0.579588C14.36 0.609243 14.4416 0.641407 14.5229 0.67467C14.5229 0.685025 14.5229 0.695381 14.5229 0.70605C14.5355 0.707305 14.5481 0.70856 14.5611 0.709972C14.632 0.724878 14.6923 0.754061 14.7577 0.7845C14.7837 0.795169 14.8098 0.805681 14.8359 0.81588C14.8359 0.826235 14.8359 0.836591 14.8359 0.84726C14.8441 0.848829 14.852 0.850555 14.8603 0.852124C14.9118 0.866715 14.9592 0.888681 15.0081 0.91002C15.0236 0.915197 15.0391 0.920375 15.055 0.92571C15.055 0.936065 15.055 0.946421 15.055 0.95709C15.0675 0.960071 15.0675 0.960071 15.0804 0.963052C15.1248 0.974663 15.168 0.989254 15.2115 1.00416C15.2115 1.01452 15.2115 1.02487 15.2115 1.03554C15.2283 1.04009 15.245 1.04464 15.2624 1.04935C15.3068 1.06268 15.3436 1.07571 15.3837 1.0983C15.3837 1.10866 15.3837 1.11901 15.3837 1.12968C15.3968 1.13266 15.3968 1.13266 15.4101 1.13564C15.4497 1.14631 15.4866 1.1609 15.5245 1.17675C15.5245 1.18711 15.5245 1.19746 15.5245 1.20813C15.5329 1.2097 15.5414 1.21127 15.5502 1.21284C15.671 1.24892 15.7843 1.33679 15.8844 1.4121C15.8948 1.40692 15.9051 1.40174 15.9157 1.39641C15.9157 1.41712 15.9157 1.43783 15.9157 1.45917C15.9364 1.45917 15.957 1.45917 15.9783 1.45917C15.9783 1.46953 15.9783 1.47988 15.9783 1.49055C15.9877 1.49212 15.9971 1.49384 16.0067 1.49541C16.0469 1.50812 16.0583 1.52366 16.0879 1.55331C16.1394 1.58485 16.186 1.61183 16.2425 1.6327C16.2534 1.63756 16.2644 1.64243 16.2757 1.64745C16.2808 1.66298 16.286 1.67852 16.2913 1.69452C16.3068 1.6997 16.3223 1.70487 16.3383 1.71021C16.3383 1.72056 16.3383 1.73092 16.3383 1.74159C16.3495 1.74583 16.3608 1.75006 16.3725 1.7543C16.4862 1.80247 16.4862 1.80247 16.5153 1.86225C16.5189 1.87417 16.5225 1.88609 16.5261 1.89849C16.5467 1.89849 16.5674 1.89849 16.5887 1.89849C16.6287 1.93567 16.6287 1.93567 16.6669 1.97694C16.6824 1.98729 16.6979 1.99765 16.7139 2.00832C16.7139 2.01867 16.7139 2.02903 16.7139 2.0397C16.7281 2.04299 16.7423 2.04613 16.7569 2.04943C16.8206 2.07657 16.8328 2.10826 16.8704 2.16522C16.8962 2.18373 16.8962 2.18373 16.9251 2.19848C16.9749 2.22531 17.0067 2.24775 17.0425 2.29074C17.0425 2.30109 17.0425 2.31145 17.0425 2.32212C17.0517 2.32636 17.061 2.33059 17.0704 2.33499C17.1481 2.37641 17.2189 2.44482 17.2772 2.5104C17.2772 2.52075 17.2772 2.53111 17.2772 2.54178C17.2858 2.54539 17.2945 2.54884 17.3034 2.55261C17.3506 2.57928 17.3838 2.61317 17.422 2.65161C17.4359 2.66557 17.4499 2.67938 17.4642 2.69382C17.4963 2.73006 17.4963 2.73006 17.4963 2.76144C17.5118 2.76662 17.5273 2.77179 17.5433 2.77713C17.5697 2.8082 17.5959 2.83958 17.6215 2.87127C17.6319 2.87645 17.6422 2.88162 17.6528 2.88696C17.6528 2.90249 17.6528 2.91803 17.6528 2.93403C17.6735 2.94438 17.6941 2.95474 17.7154 2.96541C17.7154 2.97576 17.7154 2.98612 17.7154 2.99679C17.7309 3.00197 17.7464 3.00714 17.7624 3.01248C17.7996 3.05421 17.8229 3.08465 17.8406 3.138C17.8561 3.14318 17.8716 3.14835 17.8876 3.15369C17.9037 3.17958 17.9192 3.20578 17.9345 3.23214C17.9458 3.24344 17.957 3.25473 17.9688 3.2665C17.9782 3.27591 17.9874 3.28517 17.9971 3.2949C17.9971 3.30525 17.9971 3.31561 17.9971 3.32628C18.0074 3.32628 18.0178 3.32628 18.0284 3.32628C18.0336 3.34699 18.0387 3.3677 18.0441 3.38904C18.0544 3.38904 18.0647 3.38904 18.0754 3.38904C18.0768 3.40222 18.0768 3.40222 18.0783 3.41556C18.1021 3.48349 18.158 3.52272 18.2162 3.56163C18.2162 3.57716 18.2162 3.5927 18.2162 3.6087C18.2265 3.61388 18.2369 3.61905 18.2475 3.62439C18.2423 3.63992 18.2372 3.65546 18.2319 3.67146C18.2412 3.6724 18.2506 3.67334 18.2602 3.67444C18.3081 3.69217 18.3175 3.72182 18.3414 3.7656C18.3517 3.77078 18.3621 3.77595 18.3727 3.78129C18.4021 3.82883 18.404 3.84797 18.404 3.90681C18.4195 3.90681 18.435 3.90681 18.4509 3.90681C18.4963 3.96408 18.5135 3.98934 18.5135 4.06371C18.529 4.06371 18.5445 4.06371 18.5605 4.06371C18.6231 4.16569 18.6231 4.16569 18.6231 4.2363C18.6376 4.24163 18.6376 4.24163 18.6525 4.24713C18.6963 4.27427 18.6988 4.29796 18.717 4.34613C18.7369 4.37437 18.7577 4.40151 18.7793 4.4285C18.7952 4.45596 18.7952 4.45596 18.7952 4.51872C18.8056 4.51872 18.8159 4.51872 18.8265 4.51872C18.8578 4.56579 18.8578 4.56579 18.8578 4.62855C18.8682 4.62855 18.8785 4.62855 18.8891 4.62855C18.8891 4.6389 18.8891 4.64926 18.8891 4.65993C18.8995 4.66511 18.9098 4.67028 18.9204 4.67562C18.9642 4.73477 18.9724 4.77525 18.9674 4.84821C18.9815 4.85354 18.9815 4.85354 18.996 4.85903C19.0397 4.88539 19.0513 4.91113 19.073 4.9571C19.0797 4.97075 19.0865 4.98455 19.0934 4.99868C19.1082 5.03649 19.1082 5.03649 19.1082 5.08356C19.1186 5.08874 19.1289 5.09391 19.1395 5.09925C19.1395 5.13031 19.1395 5.16138 19.1395 5.19339C19.155 5.19857 19.1705 5.20374 19.1865 5.20908C19.2171 5.25583 19.2178 5.27592 19.2178 5.3346C19.2281 5.3346 19.2384 5.3346 19.2491 5.3346C19.252 5.35249 19.252 5.35249 19.255 5.37084C19.2628 5.41619 19.2628 5.41619 19.296 5.46012C19.296 5.48083 19.296 5.50154 19.296 5.52288C19.3063 5.52288 19.3167 5.52288 19.3273 5.52288C19.3555 5.58297 19.3617 5.62926 19.3586 5.69547C19.3689 5.69547 19.3793 5.69547 19.3899 5.69547C19.3951 5.73171 19.4002 5.76796 19.4056 5.8053C19.4159 5.8053 19.4262 5.8053 19.4369 5.8053C19.4398 5.81597 19.443 5.82648 19.4461 5.83746C19.4502 5.85143 19.4542 5.86539 19.4585 5.87983C19.4624 5.89363 19.4664 5.90744 19.4705 5.92172C19.4826 5.95859 19.4976 5.99044 19.5151 6.02496C19.5256 6.06152 19.5359 6.09823 19.5464 6.13479C19.5522 6.14514 19.558 6.1555 19.5639 6.16617C19.5844 6.21292 19.5796 6.25701 19.5777 6.30738C19.588 6.30738 19.5984 6.30738 19.609 6.30738C19.6115 6.32636 19.6115 6.32636 19.6142 6.34582C19.6167 6.36261 19.6192 6.3794 19.6217 6.39665C19.624 6.41313 19.6264 6.42976 19.6289 6.44686C19.6408 6.49754 19.6603 6.53018 19.6873 6.57411C19.6902 6.63389 19.6902 6.63389 19.6873 6.68394C19.6976 6.68394 19.7079 6.68394 19.7186 6.68394C19.7448 6.74999 19.7502 6.80161 19.7478 6.87238C19.7483 6.90831 19.7483 6.90831 19.7733 6.95553C19.8049 7.03351 19.8009 7.10302 19.7968 7.18602C19.8071 7.18602 19.8175 7.18602 19.8281 7.18602C19.8547 7.26698 19.8628 7.33413 19.8613 7.42043C19.8613 7.4311 19.8611 7.44192 19.861 7.4529C19.8605 7.47895 19.86 7.50515 19.8594 7.5312C19.8697 7.5312 19.8801 7.5312 19.8907 7.5312C19.9048 7.57937 19.9082 7.62204 19.9079 7.67209C19.9078 7.69422 19.9078 7.69422 19.9078 7.71665C19.9076 7.73172 19.9074 7.74694 19.9073 7.76263C19.9073 7.778 19.9071 7.79354 19.9071 7.80938C19.907 7.84735 19.9067 7.88548 19.9063 7.92345C19.9167 7.92345 19.927 7.92345 19.9376 7.92345C19.965 8.00629 19.9732 8.07721 19.9721 8.16413C19.9719 8.17621 19.9719 8.18814 19.9719 8.20053C19.9718 8.23866 19.9713 8.27663 19.9708 8.31476C19.9707 8.34064 19.9707 8.36669 19.9705 8.39258C19.9702 8.45581 19.9696 8.5192 19.9689 8.58243C19.9793 8.58243 19.9896 8.58243 20.0002 8.58243C20.0002 8.85685 20.0002 9.13126 20.0002 9.414C19.9899 9.414 19.9796 9.414 19.9689 9.414C19.9691 9.42937 19.9693 9.44491 19.9694 9.46075C19.97 9.51849 19.9704 9.57639 19.9707 9.63413C19.9708 9.65908 19.971 9.68402 19.9713 9.70881C19.974 9.96362 19.9739 9.96362 19.9376 10.0887C19.9273 10.0887 19.917 10.0887 19.9063 10.0887C19.9067 10.1091 19.9071 10.1295 19.9074 10.1506C19.9078 10.1776 19.9081 10.2048 19.9082 10.2318C19.9085 10.2453 19.9088 10.2587 19.9092 10.2726C19.9096 10.3496 19.9018 10.408 19.875 10.4809C19.8714 10.5142 19.8688 10.5476 19.8672 10.581C19.8622 10.6615 19.8508 10.7331 19.8281 10.8104C19.8178 10.8104 19.8074 10.8104 19.7968 10.8104C19.7973 10.8203 19.7979 10.8302 19.7985 10.8404C19.8012 10.9249 19.7937 10.9869 19.7602 11.0644C19.747 11.0957 19.747 11.0957 19.7499 11.1429C19.7499 11.187 19.7498 11.187 19.7273 11.2232C19.6977 11.2745 19.6959 11.3145 19.6912 11.3727C19.6865 11.4138 19.6738 11.4479 19.656 11.4851C19.6456 11.4851 19.6353 11.4851 19.6247 11.4851C19.6283 11.5019 19.6317 11.5187 19.6355 11.5361C19.6411 11.6046 19.6333 11.607 19.5934 11.6577C19.5879 11.6883 19.5879 11.6883 19.5855 11.7214C19.5772 11.7873 19.5739 11.7888 19.5308 11.8303C19.5308 11.8455 19.5308 11.8607 19.5308 11.8764C19.5308 11.9337 19.5171 11.9431 19.4838 11.9872C19.4813 12.0052 19.4786 12.0234 19.476 12.0421C19.4675 12.1009 19.4556 12.1142 19.4212 12.1597C19.4135 12.1899 19.406 12.2198 19.3995 12.2501C19.3827 12.3119 19.3547 12.3689 19.3273 12.4265C19.317 12.4265 19.3067 12.4265 19.296 12.4265C19.2966 12.4404 19.2973 12.4542 19.2979 12.4687C19.296 12.5201 19.2865 12.5528 19.2647 12.5991C19.2544 12.5991 19.2441 12.5991 19.2334 12.5991C19.2283 12.6353 19.2231 12.6716 19.2178 12.7089C19.2074 12.7089 19.1971 12.7089 19.1865 12.7089C19.1843 12.7211 19.1819 12.7335 19.1796 12.7462C19.1708 12.7873 19.1708 12.7873 19.1552 12.8187C19.1448 12.8187 19.1345 12.8187 19.1239 12.8187C19.1187 12.855 19.1135 12.8912 19.1082 12.9286C19.0979 12.9286 19.0876 12.9286 19.0769 12.9286C19.0769 12.9544 19.0769 12.9803 19.0769 13.007C19.0669 13.01 19.0569 13.0128 19.0466 13.0158C19.0078 13.0374 19.0078 13.0374 19.0026 13.0952C19.0013 13.1128 19.0001 13.1302 18.9987 13.1482C18.9883 13.1482 18.978 13.1482 18.9674 13.1482C18.9674 13.1741 18.9674 13.2 18.9674 13.2267C18.957 13.2267 18.9467 13.2267 18.9361 13.2267C18.9361 13.237 18.9361 13.2474 18.9361 13.258C18.9258 13.258 18.9154 13.258 18.9048 13.258C18.9071 13.2745 18.9071 13.2745 18.9096 13.2913C18.9024 13.3578 18.8729 13.3831 18.8265 13.4306C18.8162 13.4306 18.8059 13.4306 18.7952 13.4306C18.7901 13.4669 18.7849 13.5031 18.7796 13.5405C18.7641 13.5405 18.7486 13.5405 18.7326 13.5405C18.7275 13.5767 18.7223 13.613 18.717 13.6503C18.7067 13.6503 18.6963 13.6503 18.6857 13.6503C18.6838 13.6668 18.6838 13.6668 18.6818 13.6836C18.6672 13.7396 18.6423 13.7772 18.6074 13.8229C18.5971 13.8229 18.5868 13.8229 18.5761 13.8229C18.5747 13.8394 18.5747 13.8394 18.5732 13.8561C18.5564 13.9156 18.5218 13.9489 18.4822 13.9955C18.4689 14.0303 18.4689 14.0303 18.4666 14.0582C18.4563 14.0582 18.4459 14.0582 18.4353 14.0582C18.4301 14.0789 18.425 14.0997 18.4196 14.121C18.4093 14.121 18.399 14.121 18.3883 14.121C18.3883 14.1314 18.3883 14.1417 18.3883 14.1524C18.378 14.1524 18.3677 14.1524 18.357 14.1524C18.357 14.1731 18.357 14.1938 18.357 14.2151C18.3467 14.2151 18.3364 14.2151 18.3258 14.2151C18.3225 14.2261 18.3193 14.2371 18.316 14.2484C18.2959 14.2904 18.2822 14.3079 18.2494 14.3388C18.2085 14.3775 18.1843 14.4158 18.1578 14.466C18.114 14.5355 18.0563 14.5977 17.9971 14.6545C17.9868 14.6545 17.9765 14.6545 17.9658 14.6545C17.9635 14.6719 17.9635 14.6719 17.961 14.6898C17.9494 14.736 17.9353 14.7608 17.9032 14.7957C17.8929 14.7957 17.8826 14.7957 17.8719 14.7957C17.8682 14.8046 17.8644 14.8134 17.8606 14.8227C17.8364 14.8661 17.8071 14.8948 17.7713 14.9293C17.7575 14.9428 17.7437 14.9563 17.7297 14.9701C17.7007 14.9982 17.6718 15.0262 17.6428 15.0541C17.5699 15.1258 17.5092 15.1892 17.465 15.2821C17.4547 15.2821 17.4444 15.2821 17.4337 15.2821C17.4234 15.3028 17.4131 15.3235 17.4024 15.3448C17.3921 15.3448 17.3818 15.3448 17.3711 15.3448C17.366 15.3603 17.3608 15.3759 17.3555 15.3919C17.3452 15.3919 17.3348 15.3919 17.3242 15.3919C17.3139 15.4126 17.3035 15.4333 17.2929 15.4546C17.2826 15.4546 17.2722 15.4546 17.2616 15.4546C17.2564 15.4702 17.2513 15.4857 17.2459 15.5017C17.2198 15.5345 17.202 15.5477 17.1622 15.5621C17.1157 15.5824 17.091 15.605 17.056 15.6415C17.0386 15.6594 17.0386 15.6594 17.0209 15.6778C17.0031 15.6964 17.0031 15.6964 16.9847 15.7154C16.961 15.7402 16.9372 15.765 16.9132 15.7896C16.9027 15.8006 16.8923 15.8116 16.8815 15.8229C16.8547 15.8469 16.8547 15.8469 16.8234 15.8469C16.8182 15.8624 16.8131 15.878 16.8078 15.894C16.7916 15.9001 16.7755 15.9062 16.7589 15.9126C16.6924 15.9382 16.6586 15.9818 16.6143 16.0361C16.5832 16.073 16.5502 16.102 16.5104 16.1293C16.5001 16.1293 16.4898 16.1293 16.4791 16.1293C16.4791 16.1397 16.4791 16.15 16.4791 16.1607C16.4677 16.1646 16.4563 16.1684 16.4445 16.1725C16.3829 16.2002 16.3425 16.2434 16.2941 16.2897C16.2594 16.3181 16.2397 16.3231 16.1974 16.3333C16.1871 16.3488 16.1768 16.3644 16.1661 16.3804C16.1558 16.3804 16.1455 16.3804 16.1348 16.3804C16.1348 16.3907 16.1348 16.4011 16.1348 16.4117C16.1087 16.4136 16.1087 16.4136 16.0819 16.4157C16.0539 16.4215 16.0539 16.4215 16.0253 16.4274C16.0056 16.4565 16.0056 16.4565 15.994 16.4902C15.9632 16.518 15.942 16.5352 15.901 16.5432C15.8641 16.5515 15.8641 16.5515 15.8306 16.5912C15.791 16.6309 15.7653 16.6469 15.7123 16.6628C15.702 16.6628 15.6916 16.6628 15.681 16.6628C15.6758 16.6783 15.6707 16.6938 15.6653 16.7098C15.648 16.7117 15.648 16.7117 15.6301 16.7138C15.5785 16.7279 15.56 16.7491 15.5245 16.7883C15.4775 16.8197 15.4775 16.8197 15.415 16.8197C15.415 16.83 15.415 16.8404 15.415 16.8511C15.368 16.8824 15.368 16.8824 15.3054 16.8824C15.3054 16.8928 15.3054 16.9031 15.3054 16.9138C15.288 16.9181 15.2705 16.9223 15.2525 16.9265C15.1924 16.9399 15.1924 16.9399 15.1646 16.9923C15.1156 16.9952 15.1156 16.9952 15.0707 16.9923C15.0655 17.013 15.0603 17.0337 15.055 17.055C15.0428 17.0541 15.0304 17.0531 15.0178 17.052C15.0043 17.053 14.9907 17.0541 14.9768 17.055C14.9664 17.0706 14.9561 17.0861 14.9455 17.1021C14.8965 17.1051 14.8965 17.1051 14.8516 17.1021C14.8412 17.1228 14.8309 17.1435 14.8203 17.1649C14.7944 17.1649 14.7686 17.1649 14.742 17.1649C14.742 17.1752 14.742 17.1856 14.742 17.1962C14.7059 17.2014 14.6697 17.2066 14.6325 17.2119C14.6325 17.2223 14.6325 17.2326 14.6325 17.2433C14.617 17.2433 14.6015 17.2433 14.5855 17.2433C14.5855 17.2537 14.5855 17.264 14.5855 17.2747C14.5256 17.2979 14.4675 17.3199 14.4056 17.3365C14.3619 17.3497 14.3297 17.3633 14.2901 17.3845C14.2329 17.4148 14.1786 17.4273 14.1154 17.4394C14.0822 17.4459 14.0822 17.4459 14.0516 17.4727C14.007 17.5055 13.9661 17.4975 13.9126 17.4943C13.9126 17.5047 13.9126 17.5151 13.9126 17.5257C13.9023 17.5275 13.8918 17.5292 13.8811 17.5309C13.8027 17.545 13.7452 17.5604 13.6779 17.6042C13.5951 17.6329 13.5121 17.645 13.4254 17.6566C13.3796 17.6646 13.3796 17.6646 13.3414 17.6913C13.2943 17.7187 13.2652 17.7189 13.2114 17.717C13.196 17.7165 13.1808 17.716 13.165 17.7157C13.1534 17.7151 13.142 17.7146 13.1301 17.714C13.1301 17.7244 13.1301 17.7347 13.1301 17.7454C13.0694 17.7749 13.0145 17.7823 12.9483 17.7871C12.9093 17.7914 12.9093 17.7914 12.8678 17.8085C12.8054 17.8274 12.7508 17.8273 12.686 17.8257C12.6746 17.8257 12.663 17.8256 12.6511 17.8254C12.6231 17.8249 12.5949 17.8245 12.5668 17.8238C12.5668 17.8342 12.5668 17.8445 12.5668 17.8552C12.5045 17.8977 12.4394 17.89 12.3672 17.8885C12.3549 17.8885 12.3423 17.8883 12.3297 17.8882C12.2991 17.8877 12.2686 17.8872 12.2381 17.8866C12.2381 17.897 12.2381 17.9073 12.2381 17.918C12.1098 17.9412 11.9791 17.939 11.8491 17.9418C11.8206 17.9426 11.8206 17.9426 11.7915 17.9434C11.7744 17.9439 11.7572 17.9442 11.7395 17.9446C11.6876 17.9497 11.6455 17.9632 11.5965 17.9807C11.5394 17.9944 11.4863 17.9985 11.4276 17.9988C11.4098 17.9988 11.3918 17.9989 11.3735 17.9989C11.3542 17.9991 11.335 17.9991 11.3151 17.9991C11.2951 17.9991 11.275 17.9991 11.2542 17.9993C11.2118 17.9993 11.1693 17.9994 11.1267 17.9994C11.0835 17.9994 11.0405 17.9994 10.9974 17.9997C10.7624 18.0008 10.5304 18.0003 10.2976 17.965C10.2976 17.9547 10.2976 17.9443 10.2976 17.9337C10.2857 17.9338 10.2739 17.9338 10.2617 17.934C10.2078 17.9343 10.1539 17.9345 10.1001 17.9346C10.0815 17.9348 10.0628 17.9349 10.0436 17.9351C10.0165 17.9351 10.0165 17.9351 9.98882 17.9352C9.97238 17.9352 9.9558 17.9354 9.93874 17.9354C9.89022 17.9337 9.84453 17.9271 9.7968 17.918C9.7968 17.9076 9.7968 17.8973 9.7968 17.8866C9.77958 17.8869 9.76252 17.8874 9.74484 17.8877C9.72199 17.888 9.6993 17.8883 9.67645 17.8885C9.66518 17.8888 9.65392 17.8891 9.64234 17.8894C9.57692 17.8899 9.52684 17.8847 9.46816 17.8552C9.46816 17.8449 9.46816 17.8345 9.46816 17.8238C9.45063 17.8243 9.43295 17.8249 9.41495 17.8256C9.1921 17.8303 9.1921 17.8303 9.09038 17.7882C9.04547 17.7706 8.9993 17.7667 8.95173 17.7611C8.93623 17.7559 8.92074 17.7507 8.90478 17.7454C8.90478 17.735 8.90478 17.7247 8.90478 17.714C8.89289 17.7142 8.88099 17.7143 8.86878 17.7146C8.84547 17.7148 8.84547 17.7148 8.82168 17.7149C8.80619 17.7151 8.79085 17.7154 8.77489 17.7156C8.73263 17.714 8.73263 17.714 8.68569 17.6983C8.68569 17.6828 8.68569 17.6672 8.68569 17.6512C8.67504 17.6514 8.66456 17.6516 8.6536 17.6519C8.63279 17.652 8.63279 17.652 8.61135 17.6522C8.59758 17.6523 8.58381 17.6527 8.56957 17.6528C8.53263 17.6514 8.50196 17.6461 8.46659 17.6356C8.46659 17.6252 8.46659 17.6148 8.46659 17.6042C8.45016 17.6051 8.43373 17.6061 8.41667 17.6072C8.35157 17.6039 8.33279 17.5907 8.2788 17.5571C8.24187 17.5472 8.20509 17.5395 8.16753 17.5325C8.13795 17.5257 8.13795 17.5257 8.1223 17.51C8.10525 17.5082 8.08803 17.5061 8.07051 17.5041C8.01276 17.4943 8.01276 17.4943 7.98334 17.4718C7.93905 17.4391 7.89617 17.4336 7.84249 17.4242C7.80932 17.4159 7.80932 17.4159 7.76237 17.3845C7.73639 17.3737 7.71041 17.3632 7.68412 17.3531C7.68412 17.3428 7.68412 17.3324 7.68412 17.3218C7.668 17.3227 7.65188 17.3236 7.63529 17.3247C7.56972 17.3214 7.53702 17.3067 7.48068 17.2747C7.4547 17.2639 7.42872 17.2533 7.40243 17.2433C7.40243 17.233 7.40243 17.2226 7.40243 17.2119C7.36628 17.2067 7.33013 17.2016 7.29288 17.1962C7.29288 17.1807 7.29288 17.1652 7.29288 17.1492C7.26706 17.1543 7.24124 17.1595 7.21464 17.1649C7.20431 17.1441 7.19398 17.1234 7.18334 17.1021C7.15908 17.104 7.15908 17.104 7.13451 17.106C7.06284 17.1013 7.03702 17.0812 6.9799 17.0393C6.92982 17.0164 6.88021 16.9957 6.82825 16.9775C6.7921 16.9609 6.7921 16.9609 6.76268 16.9304C6.7198 16.8886 6.67536 16.8736 6.61996 16.8511C6.58271 16.8311 6.54672 16.8098 6.51041 16.7883C6.51041 16.7779 6.51041 16.7676 6.51041 16.7569C6.49586 16.7569 6.4813 16.7569 6.46644 16.7569C6.38709 16.7461 6.33326 16.6949 6.27144 16.6472C6.21792 16.6077 6.16409 16.5804 6.10353 16.5529C6.10353 16.5426 6.10353 16.5322 6.10353 16.5216C6.0932 16.5216 6.08287 16.5216 6.07223 16.5216C6.07223 16.5112 6.07223 16.5009 6.07223 16.4902C6.01605 16.4608 5.9583 16.4364 5.90008 16.4117C5.90008 16.4014 5.90008 16.391 5.90008 16.3804C5.88459 16.3752 5.8691 16.37 5.85313 16.3647C5.84797 16.3543 5.84281 16.344 5.83749 16.3333C5.81135 16.3221 5.81135 16.3221 5.78459 16.3107C5.70994 16.2784 5.70994 16.2784 5.68099 16.2391C5.68099 16.2288 5.68099 16.2184 5.68099 16.2078C5.67035 16.2068 5.65971 16.2059 5.64875 16.2048C5.58788 16.188 5.53968 16.1566 5.4932 16.1136C5.4932 16.1033 5.4932 16.0929 5.4932 16.0822C5.48349 16.0783 5.47379 16.0746 5.46378 16.0705C5.4306 16.0509 5.4306 16.0509 5.41589 16.0185C5.41041 16.0085 5.40493 15.9985 5.3993 15.9881C5.36112 15.9776 5.36112 15.9776 5.32105 15.9724C5.30556 15.9621 5.29007 15.9517 5.2741 15.941C5.2741 15.9307 5.2741 15.9203 5.2741 15.9097C5.26534 15.906 5.25673 15.9026 5.24766 15.8988C5.21135 15.8783 5.18647 15.8546 5.15783 15.8245C5.11464 15.7812 5.068 15.7421 5.02199 15.7021C4.99241 15.6743 4.99241 15.6743 4.97676 15.6429C4.96127 15.6377 4.94578 15.6326 4.92982 15.6272C4.92982 15.6169 4.92982 15.6065 4.92982 15.5959C4.91432 15.5959 4.89883 15.5959 4.88287 15.5959C4.88287 15.5855 4.88287 15.5751 4.88287 15.5645C4.86738 15.5593 4.85188 15.5541 4.83592 15.5488C4.83592 15.5384 4.83592 15.5281 4.83592 15.5174C4.82669 15.513 4.81745 15.5088 4.80791 15.5042C4.71495 15.4551 4.64594 15.3745 4.57896 15.2951C4.55298 15.264 4.55298 15.264 4.51605 15.229C4.49163 15.2036 4.49163 15.2036 4.49163 15.1722C4.47614 15.167 4.46065 15.1619 4.44468 15.1565C4.41338 15.1095 4.41338 15.1095 4.41338 15.0624C4.40306 15.0624 4.39273 15.0624 4.38209 15.0624C4.36957 15.0472 4.35689 15.032 4.3439 15.0163C4.30838 14.9653 4.30838 14.9653 4.25689 14.9526C4.25047 14.9416 4.24406 14.9306 4.23733 14.9193C4.20556 14.8667 4.16722 14.8303 4.12277 14.7886C4.1004 14.7643 4.1004 14.7643 4.1004 14.7329C4.0849 14.7277 4.06941 14.7226 4.05345 14.7172C4.03482 14.677 4.03482 14.677 4.02215 14.6388C4.01182 14.6388 4.00149 14.6388 3.99085 14.6388C3.92825 14.5539 3.92825 14.5539 3.92825 14.5132C3.91276 14.5081 3.89727 14.5029 3.8813 14.4976C3.8813 14.482 3.8813 14.4665 3.8813 14.4505C3.87097 14.4505 3.86065 14.4505 3.85 14.4505C3.85 14.435 3.85 14.4194 3.85 14.4034C3.83968 14.4034 3.82935 14.4034 3.81871 14.4034C3.8029 14.3774 3.78725 14.3512 3.77176 14.325C3.75642 14.3065 3.74077 14.2881 3.72481 14.2701C3.68772 14.2278 3.65908 14.1855 3.63091 14.1367C3.62027 14.1234 3.60963 14.1102 3.59867 14.0965C3.56065 14.0485 3.54061 14.0061 3.52137 13.9484C3.50587 13.9432 3.49038 13.9381 3.47442 13.9327C3.46378 13.9013 3.45345 13.87 3.44312 13.8386C3.42262 13.8121 3.4018 13.786 3.38052 13.7601C3.34656 13.7003 3.33357 13.6729 3.33357 13.6032C3.38678 13.5483 3.43029 13.5318 3.50572 13.5248C3.50572 13.5144 3.50572 13.5041 3.50572 13.4934C3.5367 13.483 3.56769 13.4727 3.59961 13.462C3.59961 13.4517 3.59961 13.4413 3.59961 13.4306C3.63576 13.4255 3.67191 13.4203 3.70916 13.4149C3.70916 13.3994 3.70916 13.3839 3.70916 13.3679C3.72324 13.3655 3.72324 13.3655 3.73748 13.363C3.77692 13.3506 3.79038 13.3346 3.81871 13.3051C3.84907 13.2885 3.84907 13.2885 3.8813 13.2737C3.89194 13.2679 3.90259 13.2621 3.91354 13.2562C3.9439 13.2424 3.9439 13.2424 3.99085 13.2424C3.99601 13.2268 4.00118 13.2113 4.0065 13.1953C4.02199 13.1953 4.03748 13.1953 4.05345 13.1953C4.05861 13.1798 4.06378 13.1642 4.0691 13.1482C4.09586 13.1363 4.12262 13.1247 4.14985 13.114C4.19101 13.0957 4.22215 13.0668 4.25689 13.0384C4.28256 13.0271 4.30869 13.0166 4.33514 13.007C4.36988 12.9935 4.36988 12.9935 4.39774 12.9756C4.4029 12.9601 4.40806 12.9446 4.41338 12.9286C4.41855 12.9389 4.42371 12.9493 4.42903 12.9599C4.4342 12.9496 4.43936 12.9392 4.44468 12.9286C4.46018 12.9234 4.47567 12.9182 4.49163 12.9129C4.49867 12.9055 4.50587 12.898 4.51323 12.8903C4.54468 12.86 4.5763 12.8499 4.61683 12.8344C4.62716 12.8241 4.63749 12.8137 4.64813 12.803C4.6813 12.7933 4.6813 12.7933 4.71072 12.7873C4.70556 12.777 4.7004 12.7666 4.69507 12.756C4.70932 12.7514 4.7234 12.7469 4.73811 12.7422C4.79727 12.7218 4.83968 12.7032 4.88772 12.6628C4.93561 12.6261 4.98412 12.6069 5.03936 12.5834C5.05533 12.568 5.07097 12.5523 5.08631 12.5363C5.11245 12.5258 5.13842 12.5154 5.16456 12.5049C5.17301 12.4965 5.1813 12.4881 5.18991 12.4795C5.19711 12.4723 5.20415 12.4652 5.21151 12.4579C5.227 12.4579 5.24249 12.4579 5.25846 12.4579C5.26362 12.4475 5.26878 12.4371 5.2741 12.4265C5.29492 12.416 5.31589 12.4056 5.3367 12.3951C5.34187 12.3847 5.34703 12.3744 5.35235 12.3637C5.38334 12.3637 5.41432 12.3637 5.44625 12.3637C5.45141 12.3482 5.45658 12.3327 5.4619 12.3166C5.48631 12.2901 5.48631 12.2901 5.50885 12.2696C5.54015 12.2853 5.54015 12.2853 5.55579 12.301C5.55579 12.2854 5.55579 12.2699 5.55579 12.2539C5.60916 12.2145 5.66487 12.1946 5.72794 12.1754C5.72794 12.1651 5.72794 12.1547 5.72794 12.1441C5.76409 12.1389 5.80024 12.1337 5.83749 12.1284C5.83749 12.118 5.83749 12.1077 5.83749 12.097C5.85924 12.0767 5.85924 12.0767 5.88835 12.0559C5.89774 12.0488 5.90728 12.0418 5.91698 12.0345C5.94703 12.0185 5.94703 12.0185 6.00963 12.0185C6.00963 12.0082 6.00963 11.9978 6.00963 11.9872C6.04062 11.982 6.0716 11.9768 6.10353 11.9715C6.10353 11.9559 6.10353 11.9404 6.10353 11.9244C6.14531 11.8936 6.18334 11.8769 6.23263 11.8607C6.27786 11.8508 6.27786 11.8508 6.29132 11.8146C6.33921 11.8047 6.33921 11.8047 6.38522 11.7989C6.38005 11.7833 6.37489 11.7678 6.36957 11.7518C6.39539 11.7518 6.42121 11.7518 6.44781 11.7518C6.45313 11.7367 6.45313 11.7367 6.45861 11.7214C6.47911 11.689 6.47911 11.689 6.52011 11.6773C6.53858 11.6754 6.53858 11.6754 6.55736 11.6734C6.55736 11.663 6.55736 11.6526 6.55736 11.642C6.59351 11.6368 6.62966 11.6316 6.66691 11.6263C6.67207 11.6108 6.67723 11.5952 6.68256 11.5792C6.69805 11.5792 6.71354 11.5792 6.7295 11.5792C6.73482 11.5642 6.73482 11.5642 6.7403 11.5488C6.7608 11.5165 6.7608 11.5165 6.79695 11.5077C6.81088 11.5053 6.82481 11.5031 6.83905 11.5008C6.89664 11.4724 6.89664 11.4724 6.93295 11.4223C6.94234 11.4204 6.95173 11.4184 6.96127 11.4164C6.99867 11.4087 6.99867 11.4087 7.02778 11.3743C7.04281 11.3592 7.04281 11.3592 7.05814 11.3439C7.07364 11.3439 7.08913 11.3439 7.10509 11.3439C7.11026 11.3335 7.11542 11.3232 7.12074 11.3125C7.15173 11.301 7.18303 11.2905 7.21464 11.2811C7.21464 11.2708 7.21464 11.2604 7.21464 11.2497C7.23529 11.2497 7.25595 11.2497 7.27724 11.2497C7.2824 11.2342 7.28756 11.2187 7.29288 11.2027C7.34077 11.184 7.34077 11.184 7.38678 11.1713C7.38678 11.1609 7.38678 11.1506 7.38678 11.1399C7.40666 11.1324 7.42653 11.1248 7.44641 11.1173C7.46299 11.111 7.46299 11.111 7.48005 11.1046C7.50619 11.095 7.53248 11.0859 7.55893 11.0771C7.56409 11.0616 7.56925 11.0461 7.57457 11.0301C7.60556 11.0188 7.63702 11.0084 7.66847 10.9987C7.7126 10.9769 7.7126 10.9769 7.74672 10.9516C7.74672 10.9413 7.74672 10.9309 7.74672 10.9202C7.76159 10.9157 7.77645 10.9111 7.79179 10.9064C7.8414 10.8925 7.8414 10.8925 7.87191 10.8575C7.88256 10.855 7.8932 10.8523 7.90415 10.8496C7.91417 10.8471 7.92418 10.8445 7.93451 10.8418C7.93968 10.8314 7.94484 10.8211 7.95016 10.8104C7.98115 10.799 8.01245 10.7884 8.04406 10.779C8.04406 10.7687 8.04406 10.7583 8.04406 10.7476C8.05626 10.7431 8.06863 10.7385 8.0813 10.7338C8.12387 10.7186 8.12387 10.7186 8.1536 10.6849C8.19476 10.683 8.19476 10.683 8.23185 10.6849C8.23185 10.6694 8.23185 10.6538 8.23185 10.6378C8.25251 10.6378 8.27317 10.6378 8.29445 10.6378C8.29961 10.6275 8.30478 10.6171 8.3101 10.6064C8.33201 10.5893 8.35454 10.573 8.37755 10.5575C8.38975 10.549 8.40196 10.5405 8.41464 10.5318C8.45094 10.5123 8.45094 10.5123 8.51354 10.5123C8.51354 10.5019 8.51354 10.4916 8.51354 10.4809C8.53936 10.4706 8.56519 10.4602 8.59179 10.4495C8.59179 10.4392 8.59179 10.4288 8.59179 10.4182C8.604 10.4136 8.61636 10.4091 8.62903 10.4043C8.6716 10.3891 8.6716 10.3891 8.70134 10.3554C8.74249 10.3455 8.74249 10.3455 8.77958 10.3397C8.77958 10.3294 8.77958 10.319 8.77958 10.3083C8.81057 10.298 8.84155 10.2876 8.87348 10.2769C8.87348 10.2666 8.87348 10.2562 8.87348 10.2456C8.8993 10.2456 8.92512 10.2456 8.95173 10.2456C8.95705 10.2305 8.95705 10.2305 8.96252 10.2151C8.98302 10.1828 8.98303 10.1828 9.02403 10.171C9.04249 10.1692 9.04249 10.1692 9.06127 10.1671C9.06127 10.1568 9.06127 10.1464 9.06127 10.1357C9.08193 10.1357 9.10259 10.1357 9.12387 10.1357C9.12903 10.115 9.1342 10.0943 9.13952 10.073C9.17051 10.073 9.20149 10.073 9.23342 10.073C9.23858 10.0574 9.24374 10.0419 9.24907 10.0259C9.3004 10.0011 9.35157 9.98119 9.40556 9.96315C9.41072 9.94761 9.41589 9.93208 9.42121 9.91608C9.4522 9.9109 9.48318 9.90572 9.51511 9.90039C9.51511 9.89003 9.51511 9.87968 9.51511 9.86901C9.54609 9.85865 9.57708 9.8483 9.609 9.83763C9.609 9.82727 9.609 9.81692 9.609 9.80625C9.63999 9.79589 9.67098 9.78554 9.7029 9.77487C9.7029 9.76451 9.7029 9.75416 9.7029 9.74349C9.72872 9.74349 9.75454 9.74349 9.78115 9.74349C9.78631 9.72795 9.79148 9.71242 9.7968 9.69642C9.84468 9.67775 9.84468 9.67775 9.89069 9.66504C9.89069 9.65468 9.89069 9.64433 9.89069 9.63366C9.92684 9.62848 9.96299 9.6233 10.0002 9.61797C9.98991 9.61279 9.97958 9.60761 9.96894 9.60228C9.96894 9.59192 9.96894 9.58157 9.96894 9.5709C9.98349 9.56933 9.99805 9.5676 10.0129 9.56603C10.0663 9.55442 10.0747 9.54642 10.1098 9.50814C10.1509 9.48962 10.1921 9.47535 10.235 9.46107C10.2401 9.44553 10.2453 9.43 10.2506 9.414C10.2816 9.4027 10.3131 9.39235 10.3445 9.38262C10.3955 9.35563 10.4398 9.32268 10.4854 9.28754C10.5311 9.25255 10.5718 9.22917 10.6262 9.21003C10.6694 9.18791 10.6694 9.1879 10.7045 9.16296C10.7045 9.1526 10.7045 9.14225 10.7045 9.13158C10.7218 9.12969 10.7218 9.12969 10.7397 9.12766C10.7907 9.11369 10.811 9.09251 10.8453 9.05313C10.8608 9.0583 10.8763 9.06348 10.8923 9.06882C10.8923 9.04293 10.8923 9.01704 10.8923 8.99037C10.8819 8.99037 10.8716 8.99037 10.861 8.99037C10.8574 8.97939 10.8539 8.9684 10.8502 8.9571C10.83 8.9127 10.8054 8.88336 10.7736 8.84696C10.7361 8.79754 10.7095 8.74215 10.6807 8.68724C10.6508 8.63295 10.616 8.5851 10.5793 8.53536C10.5552 8.49613 10.532 8.45644 10.5088 8.41658C10.4973 8.39682 10.4973 8.39682 10.4854 8.37658C10.4775 8.36324 10.4699 8.3499 10.4619 8.33609C10.4403 8.30032 10.4403 8.30032 10.414 8.27569C10.3802 8.24164 10.3652 8.201 10.3455 8.15786C10.3279 8.12585 10.3078 8.10577 10.2819 8.08035C10.2714 8.05415 10.2611 8.0281 10.2506 8.0019C10.2433 7.99452 10.2358 7.98699 10.2281 7.9793C10.2037 7.95483 10.2037 7.95483 10.1841 7.91466C10.1519 7.85112 10.1118 7.79652 10.0696 7.7394C10.0472 7.70379 10.0472 7.70379 10.0472 7.65672C10.0369 7.65672 10.0265 7.65672 10.0159 7.65672C9.97285 7.60055 9.94594 7.55489 9.93764 7.48413C9.92215 7.47895 9.90666 7.47377 9.89069 7.46844C9.86597 7.41698 9.84609 7.36567 9.8281 7.31154C9.8126 7.30636 9.79711 7.30118 9.78115 7.29585C9.75627 7.25286 9.73686 7.2141 9.72637 7.16546C9.72387 7.15668 9.72121 7.14789 9.71855 7.13895C9.70306 7.13377 9.68756 7.12859 9.6716 7.12326C9.66096 7.09721 9.65047 7.07101 9.6403 7.04481C9.62481 7.03445 9.60932 7.0241 9.59335 7.01343C9.58256 6.96432 9.58256 6.96432 9.57771 6.91929C9.56221 6.91411 9.54672 6.90893 9.53076 6.9036C9.53592 6.89324 9.54109 6.88289 9.54641 6.87222C9.53608 6.86704 9.52575 6.86186 9.51511 6.85653C9.50447 6.83582 9.49398 6.81479 9.48381 6.79377C9.47536 6.78278 9.46706 6.7718 9.45846 6.76051C9.43686 6.73101 9.43686 6.73101 9.43686 6.69963C9.42653 6.69445 9.4162 6.68927 9.40556 6.68394C9.39476 6.66323 9.38443 6.6422 9.37426 6.62118C9.36362 6.60533 9.35298 6.58948 9.34202 6.57317C9.31166 6.52704 9.31166 6.52704 9.29601 6.47997C9.28099 6.46538 9.28099 6.46538 9.26565 6.45047C9.23076 6.41438 9.21996 6.3852 9.20212 6.33876C9.1799 6.31397 9.1799 6.31397 9.15517 6.29169C9.12794 6.2589 9.10932 6.23175 9.09382 6.19174C9.07739 6.15158 9.05861 6.1202 9.03389 6.08474C8.98944 6.01962 8.94907 5.95294 8.90947 5.88485C8.88976 5.85064 8.88976 5.85064 8.85783 5.82099C8.85783 5.80546 8.85783 5.78992 8.85783 5.77392C8.8475 5.76874 8.83717 5.76356 8.82653 5.75823C8.81041 5.73658 8.79523 5.71414 8.78052 5.69155C8.77223 5.67868 8.76393 5.66597 8.75533 5.65263C8.72074 5.59819 8.68819 5.54328 8.65736 5.48663C8.63357 5.44443 8.60697 5.40693 8.57708 5.36896C8.52481 5.30087 8.45094 5.20374 8.45094 5.11494C8.44061 5.11494 8.43029 5.11494 8.41965 5.11494C8.41965 5.10458 8.41965 5.09423 8.41965 5.08356C8.40415 5.07838 8.38866 5.0732 8.3727 5.06787C8.36205 5.03649 8.35173 5.00511 8.3414 4.97373C8.32121 4.94706 8.30024 4.92101 8.2788 4.89528C8.25846 4.86421 8.23921 4.83268 8.21996 4.80098C8.20227 4.77258 8.18365 4.74513 8.1644 4.71782C8.13795 4.67562 8.13795 4.67562 8.13795 4.62855C8.12763 4.62855 8.1173 4.62855 8.10666 4.62855C8.08115 4.58932 8.05924 4.54853 8.03686 4.50758C8.01495 4.4671 8.01495 4.4671 7.96581 4.45596C7.96581 4.44043 7.96581 4.42489 7.96581 4.40889C7.94719 4.38237 7.92841 4.35601 7.90916 4.33013C7.82497 4.20916 7.82497 4.20916 7.82497 4.14216C7.81464 4.14216 7.80431 4.14216 7.79367 4.14216C7.77677 4.10058 7.76096 4.05932 7.74672 4.01664C7.73639 4.01664 7.72606 4.01664 7.71542 4.01664C7.71542 4.00111 7.71542 3.98557 7.71542 3.96957C7.70509 3.96957 7.69476 3.96957 7.68412 3.96957C7.67598 3.95498 7.668 3.94039 7.65971 3.92548C7.60603 3.83118 7.54641 3.74034 7.48756 3.64934C7.48036 3.6382 7.47332 3.62706 7.46597 3.6156C7.45971 3.60587 7.45345 3.59615 7.44703 3.58611C7.43373 3.56163 7.43373 3.56163 7.43373 3.53025C7.4234 3.52507 7.41307 3.51989 7.40243 3.51456C7.40243 3.5042 7.40243 3.49385 7.40243 3.48318C7.39539 3.47643 7.38819 3.46953 7.38083 3.46263C7.35016 3.43046 7.33874 3.39924 7.32418 3.35766C7.31385 3.35766 7.30353 3.35766 7.29288 3.35766C7.28662 3.33977 7.28662 3.33977 7.28021 3.32142C7.26456 3.27921 7.26456 3.27921 7.23623 3.25379C7.22903 3.24657 7.22199 3.23951 7.21464 3.23214C7.21464 3.21661 7.21464 3.20107 7.21464 3.18507C7.20431 3.18507 7.19398 3.18507 7.18334 3.18507C7.11401 3.06849 7.11401 3.06849 7.10509 3.01248C7.09476 3.01248 7.08443 3.01248 7.07379 3.01248C7.07379 2.99177 7.07379 2.97106 7.07379 2.94972C7.06346 2.94972 7.05313 2.94972 7.04249 2.94972C7.01276 2.91614 6.99539 2.88665 6.97896 2.84475C6.96784 2.806 6.96785 2.806 6.93295 2.79282C6.92199 2.76662 6.91104 2.74026 6.9004 2.7139C6.88068 2.67138 6.85423 2.63608 6.82637 2.59858C6.80212 2.56531 6.78162 2.53017 6.7608 2.49471C6.75047 2.47918 6.74015 2.46364 6.7295 2.44764C6.64766 2.32447 6.64766 2.32447 6.63561 2.25936C6.62528 2.25936 6.61495 2.25936 6.60431 2.25936C6.59758 2.24477 6.59758 2.24477 6.59054 2.22986C6.57395 2.19456 6.57395 2.19456 6.54171 2.16522C6.53686 2.14671 6.53201 2.12835 6.527 2.10936C6.52152 2.09148 6.51605 2.07375 6.51041 2.05539C6.49492 2.05021 6.47943 2.04503 6.46346 2.0397C6.445 2.01287 6.445 2.01287 6.42731 1.97788C6.39821 1.92281 6.36816 1.86868 6.33639 1.81518C6.32512 1.79635 6.32512 1.79635 6.3137 1.77705C6.29194 1.74128 6.29195 1.74128 6.26597 1.70848C6.24437 1.67883 6.24437 1.67883 6.22872 1.63176C6.21323 1.61591 6.19742 1.60038 6.18177 1.58469C6.16346 1.55488 6.16346 1.55488 6.1475 1.52287C6.14218 1.51236 6.1367 1.50185 6.13123 1.49118C6.11917 1.45917 6.11918 1.45917 6.11918 1.39641C6.17786 1.36503 6.17786 1.36503 6.21307 1.36503C6.21824 1.35467 6.2234 1.34432 6.22872 1.33365C6.24954 1.32314 6.27051 1.31278 6.29132 1.30227C6.29648 1.29191 6.30165 1.28156 6.30697 1.27089C6.33827 1.26022 6.36957 1.24971 6.40087 1.23951C6.41119 1.22915 6.42152 1.2188 6.43216 1.20813C6.46534 1.1984 6.46534 1.1984 6.49476 1.19244C6.4896 1.18208 6.48443 1.17173 6.47911 1.16106C6.49304 1.15651 6.49304 1.15651 6.50712 1.1518C6.5716 1.13062 6.63561 1.10897 6.6982 1.08261C6.6982 1.07225 6.6982 1.0619 6.6982 1.05123C6.7101 1.04966 6.72215 1.04793 6.73436 1.04637C6.77692 1.03931 6.77692 1.03931 6.79993 1.01106C6.8234 0.98847 6.8234 0.98847 6.8655 0.985489C6.88334 0.987058 6.88334 0.987058 6.90165 0.98847C6.90681 0.972937 6.91198 0.957404 6.9173 0.9414C6.96378 0.933712 6.96378 0.933712 7.01119 0.92571C7.01636 0.910177 7.02152 0.894644 7.02684 0.87864C7.05783 0.87864 7.08882 0.87864 7.12074 0.87864C7.12074 0.863107 7.12074 0.847574 7.12074 0.83157C7.17504 0.823882 7.17504 0.823882 7.23029 0.81588C7.23545 0.800347 7.24061 0.784814 7.24594 0.76881C7.31558 0.761122 7.31558 0.761122 7.38678 0.75312C7.38678 0.742764 7.38678 0.732409 7.38678 0.72174C7.44875 0.706207 7.44875 0.706207 7.51198 0.69036C7.51198 0.680004 7.51198 0.669649 7.51198 0.65898C7.52637 0.656156 7.52637 0.656156 7.54108 0.653175C7.56018 0.649252 7.56018 0.649252 7.57943 0.645173C7.59195 0.642662 7.60447 0.640152 7.61745 0.637485C7.65673 0.628541 7.65673 0.628541 7.69977 0.59622C7.72575 0.590258 7.75173 0.584766 7.77802 0.58053C7.77802 0.570174 7.77802 0.559819 7.77802 0.54915C7.80227 0.546796 7.80227 0.546796 7.82684 0.544286C7.88756 0.53346 7.92747 0.515259 7.98146 0.48639C8.01276 0.475721 8.04406 0.465208 8.07536 0.45501C8.08052 0.449832 8.08569 0.444654 8.09101 0.43932C8.11996 0.433201 8.14891 0.427709 8.17802 0.422688C8.20181 0.418452 8.2018 0.418452 8.22606 0.414216C8.23827 0.412176 8.25047 0.410137 8.26315 0.40794C8.26315 0.397584 8.26315 0.387229 8.26315 0.37656C8.28256 0.374677 8.30196 0.372637 8.32184 0.370598C8.35892 0.366989 8.38475 0.362753 8.41777 0.34518C8.46159 0.324469 8.50055 0.3229 8.54875 0.319762C8.56565 0.318507 8.58256 0.317409 8.59993 0.316153C8.61276 0.315369 8.62559 0.314584 8.63874 0.3138C8.63874 0.303445 8.63874 0.293089 8.63874 0.28242C8.65204 0.280537 8.6655 0.278654 8.67927 0.276615C8.70525 0.272692 8.70525 0.272692 8.7317 0.268613C8.74891 0.266102 8.76612 0.263592 8.78396 0.260925C8.79805 0.25763 8.81198 0.254492 8.82653 0.25104C8.8317 0.240685 8.83686 0.230329 8.84218 0.21966C8.8788 0.212286 8.91573 0.206637 8.95267 0.202087C8.97285 0.19942 8.99304 0.196753 9.01385 0.194085C9.03733 0.191261 9.03733 0.191261 9.06127 0.18828C9.06127 0.177925 9.06127 0.167569 9.06127 0.1569C9.0788 0.156115 9.09633 0.155331 9.11432 0.154546C9.13749 0.153448 9.16049 0.152193 9.1835 0.150938C9.19508 0.150467 9.20666 0.149996 9.21855 0.149526C9.27755 0.146388 9.30853 0.143407 9.35861 0.10983C9.39069 0.103868 9.39069 0.103868 9.42716 0.101044C9.4403 0.0997884 9.45345 0.0986901 9.46691 0.0974349C9.49461 0.0952383 9.52215 0.0930417 9.54985 0.0908451C9.56284 0.0895899 9.57598 0.0884916 9.58944 0.0872364C9.60149 0.086295 9.61354 0.0853536 9.62591 0.0844122C9.65955 0.0806466 9.65955 0.0806466 9.68725 0.04707C9.73389 0.0420492 9.73389 0.0420492 9.79304 0.0406371C9.80337 0.0403233 9.8137 0.0400095 9.8245 0.0396957C9.85767 0.0387543 9.89085 0.0379698 9.92387 0.0373422C9.94641 0.0367146 9.96894 0.036087 9.99132 0.0354594C10.0466 0.0338904 10.1016 0.0326352 10.1567 0.03138C10.1567 0.0210246 10.1567 0.0106692 10.1567 0ZM9.68725 7.09188C9.7029 7.12326 9.7029 7.12326 9.7029 7.12326L9.68725 7.09188ZM9.7968 7.26447C9.81245 7.29585 9.81245 7.29585 9.81245 7.29585L9.7968 7.26447ZM18.8109 13.3208C18.816 13.3312 18.8212 13.3415 18.8265 13.3522C18.8317 13.3418 18.8369 13.3315 18.8422 13.3208C18.8319 13.3208 18.8215 13.3208 18.8109 13.3208ZM18.2788 14.2151C18.2945 14.2465 18.2945 14.2465 18.2945 14.2465L18.2788 14.2151ZM17.8876 14.7172C17.9032 14.7486 17.9032 14.7486 17.9032 14.7486L17.8876 14.7172ZM17.4181 15.2193C17.4337 15.2507 17.4337 15.2507 17.4337 15.2507L17.4181 15.2193ZM17.1833 15.4546C17.199 15.486 17.199 15.486 17.199 15.486L17.1833 15.4546ZM16.7452 15.8312C16.7452 15.8467 16.7452 15.8623 16.7452 15.8783C16.7555 15.8731 16.7658 15.8679 16.7765 15.8626C16.7661 15.8522 16.7558 15.8419 16.7452 15.8312ZM15.4619 16.7255C15.4775 16.7569 15.4775 16.7569 15.4775 16.7569L15.4619 16.7255Z" fill="#FADB06"/>
<path d="M4.0378 1.05123C4.1328 1.08999 4.18647 1.16247 4.2256 1.2552C4.2256 1.26556 4.2256 1.27591 4.2256 1.28658C4.23593 1.28658 4.24625 1.28658 4.2569 1.28658C4.2569 1.29694 4.2569 1.30729 4.2569 1.31796C4.26722 1.31796 4.27755 1.31796 4.28819 1.31796C4.29461 1.33412 4.30103 1.35028 4.30776 1.36691C4.33686 1.43517 4.37599 1.49385 4.42121 1.55237C4.44813 1.5894 4.46973 1.62831 4.49211 1.66848C4.51042 1.70001 4.53201 1.72826 4.55423 1.75728C4.60118 1.83055 4.60118 1.83055 4.60118 1.86711C4.61151 1.87229 4.62184 1.87747 4.63248 1.8828C4.67943 1.95341 4.67943 1.95341 4.67943 1.99263C4.69164 2.00393 4.704 2.01523 4.71668 2.02699C4.76347 2.07736 4.77145 2.11548 4.78898 2.18091C4.80447 2.18609 4.81996 2.19127 4.83593 2.1966C4.85439 2.22406 4.85439 2.22406 4.87208 2.25936C4.92168 2.35334 4.97661 2.44262 5.04625 2.52311C5.07067 2.55747 5.07067 2.55747 5.06675 2.59372C5.06284 2.6025 5.05893 2.61129 5.05502 2.62023C5.06441 2.62415 5.0738 2.62808 5.08334 2.632C5.12294 2.65459 5.14109 2.67562 5.16456 2.71437C5.16456 2.7299 5.16456 2.74544 5.16456 2.76144C5.17489 2.76144 5.18522 2.76144 5.19586 2.76144C5.2004 2.77117 5.20494 2.7809 5.20963 2.79094C5.22622 2.82624 5.22622 2.82624 5.25846 2.85558C5.30541 2.9425 5.30541 2.9425 5.30541 2.9811C5.31574 2.9811 5.32607 2.9811 5.33671 2.9811C5.37474 3.03398 5.38366 3.05532 5.38366 3.12231C5.39398 3.12231 5.40431 3.12231 5.41496 3.12231C5.42075 3.14851 5.42075 3.14851 5.42669 3.17534C5.43968 3.23308 5.43968 3.23308 5.47849 3.25081C5.48851 3.25505 5.49852 3.25913 5.50885 3.26352C5.52059 3.29678 5.52059 3.29678 5.5245 3.32628C5.53483 3.32628 5.54516 3.32628 5.5558 3.32628C5.5558 3.35217 5.5558 3.37806 5.5558 3.40473C5.56582 3.40865 5.57583 3.41258 5.58616 3.4165C5.6184 3.43611 5.6184 3.43611 5.63014 3.46937C5.63139 3.4791 5.6328 3.48883 5.63405 3.49887C5.64438 3.49887 5.65471 3.49887 5.66535 3.49887C5.66535 3.52476 5.66535 3.55065 5.66535 3.57732C5.67536 3.58187 5.68538 3.58642 5.69571 3.59113C5.72794 3.6087 5.72794 3.6087 5.74359 3.64008C5.73843 3.65561 5.73326 3.67115 5.72794 3.68715C5.74344 3.69233 5.75893 3.69751 5.77489 3.70284C5.77489 3.7132 5.77489 3.72355 5.77489 3.73422C5.78522 3.73422 5.79555 3.73422 5.80619 3.73422C5.81261 3.75101 5.81902 3.76796 5.82575 3.78521C5.84782 3.8373 5.87505 3.86727 5.91574 3.90681C5.9317 3.93803 5.94735 3.96941 5.96269 4.00095C5.9738 4.01178 5.9738 4.01178 5.98506 4.02292C6.01386 4.05241 6.03107 4.08238 6.05064 4.11863C6.05736 4.13071 6.06409 4.14295 6.07082 4.15534C6.08788 4.18923 6.08788 4.18923 6.10353 4.2363C6.11386 4.24148 6.12419 4.24666 6.13483 4.25199C6.13483 4.26235 6.13483 4.2727 6.13483 4.28337C6.14469 4.30455 6.15517 4.32542 6.16613 4.34613C6.17646 4.34613 6.18679 4.34613 6.19743 4.34613C6.20384 4.36292 6.21026 4.37971 6.21699 4.39712C6.23389 4.43698 6.24547 4.45706 6.27661 4.48828C6.31433 4.5261 6.32168 4.56281 6.33827 4.61286C6.35377 4.61804 6.36926 4.62322 6.38522 4.62855C6.41323 4.67248 6.41323 4.67248 6.44187 4.72756C6.45157 4.7456 6.46112 4.76364 6.47098 4.78231C6.49477 4.83252 6.49477 4.83252 6.50291 4.86845C6.50917 4.90171 6.50916 4.90171 6.55736 4.92666C6.55736 4.93702 6.55736 4.94737 6.55736 4.95804C6.56769 4.95804 6.57802 4.95804 6.58866 4.95804C6.59226 4.97452 6.59571 4.99099 6.59946 5.00809C6.61715 5.07085 6.64923 5.10317 6.69821 5.14632C6.73906 5.18288 6.74766 5.20375 6.76081 5.25615C6.76816 5.2629 6.77568 5.2698 6.78334 5.27671C6.81996 5.3164 6.82638 5.36143 6.83906 5.41305C6.84938 5.41305 6.85971 5.41305 6.87035 5.41305C6.87458 5.43078 6.87881 5.44867 6.88303 5.46702C6.88913 5.48538 6.89539 5.5039 6.90165 5.52288C6.91715 5.52806 6.93264 5.53324 6.9486 5.53857C6.96754 5.56713 6.96754 5.56713 6.98585 5.60321C7.0112 5.65201 7.03749 5.69594 7.07082 5.73956C7.1051 5.78961 7.1051 5.78961 7.1051 5.85237C7.11449 5.85598 7.12388 5.85959 7.13342 5.86335C7.17646 5.88893 7.19039 5.91466 7.21464 5.95828C7.22278 5.9724 7.23076 5.98652 7.23906 6.00111C7.25017 6.02072 7.25017 6.02072 7.26159 6.04065C7.27192 6.05618 7.28225 6.07172 7.29289 6.08772C7.32935 6.14248 7.36222 6.19912 7.39524 6.25607C7.41621 6.29153 7.41621 6.29153 7.4425 6.31601C7.4763 6.35006 7.49132 6.39054 7.51104 6.43384C7.52622 6.46491 7.52622 6.46491 7.55048 6.48719C7.57974 6.51653 7.59633 6.54728 7.61558 6.58384C7.63796 6.62903 7.63796 6.62903 7.66848 6.66825C7.6691 6.69445 7.6691 6.7205 7.66848 6.7467C7.67755 6.74968 7.68647 6.75251 7.69586 6.75549C7.7378 6.78247 7.75298 6.81291 7.77583 6.85653C7.79555 6.89105 7.81809 6.92133 7.8425 6.95255C7.87724 6.99774 7.89899 7.03838 7.91887 7.09188C7.94265 7.11965 7.94266 7.11965 7.96582 7.13895C7.96065 7.14931 7.95549 7.15966 7.95017 7.17033C7.9605 7.17551 7.97082 7.18069 7.98147 7.18602C8.00165 7.21332 8.00165 7.21332 8.02247 7.2469C8.03295 7.26322 8.03295 7.26322 8.04375 7.28C8.05971 7.31154 8.05971 7.31154 8.05971 7.35861C8.07521 7.35861 8.0907 7.35861 8.10666 7.35861C8.11292 7.37038 8.11918 7.38215 8.1256 7.39423C8.13389 7.4096 8.14219 7.42514 8.15064 7.44098C8.163 7.46389 8.163 7.46389 8.17536 7.48727C8.19884 7.53104 8.19884 7.53104 8.2281 7.56525C8.23452 7.57482 8.24093 7.58423 8.24751 7.59396C8.24234 7.60949 8.23718 7.62503 8.23186 7.64103C8.24735 7.64103 8.26284 7.64103 8.2788 7.64103C8.32075 7.6961 8.33358 7.74553 8.3414 7.81362C8.3569 7.8188 8.37239 7.82398 8.38835 7.82931C8.40995 7.86006 8.43076 7.8916 8.45095 7.92345C8.46159 7.93679 8.47223 7.94997 8.48319 7.96362C8.5328 8.02622 8.5605 8.06152 8.5605 8.14311C8.57082 8.14311 8.58115 8.14311 8.59179 8.14311C8.59179 8.15347 8.59179 8.16382 8.59179 8.17449C8.60729 8.17967 8.62278 8.18485 8.63874 8.19018C8.66942 8.23694 8.67004 8.25702 8.67004 8.3157C8.68037 8.3157 8.6907 8.3157 8.70134 8.3157C8.75424 8.35555 8.77661 8.41612 8.804 8.47448C8.83327 8.54807 8.83326 8.54807 8.88913 8.59812C8.89101 8.65115 8.89101 8.65115 8.88913 8.70795C8.87881 8.71831 8.86848 8.72866 8.85783 8.73933C8.83718 8.73933 8.81652 8.73933 8.79524 8.73933C8.79524 8.74969 8.79524 8.76004 8.79524 8.77071C8.78491 8.77071 8.77458 8.77071 8.76394 8.77071C8.75877 8.78624 8.75361 8.80178 8.74829 8.81778C8.72247 8.8126 8.69665 8.80742 8.67004 8.80209C8.67521 8.81762 8.68037 8.83316 8.68569 8.84916C8.66503 8.84916 8.64438 8.84916 8.62309 8.84916C8.62309 8.85952 8.62309 8.86987 8.62309 8.88054C8.61496 8.88431 8.60682 8.88807 8.59852 8.89199C8.5461 8.91725 8.50118 8.94063 8.4558 8.97766C8.41668 9.00841 8.39039 9.0161 8.3414 9.02175C8.3414 9.03211 8.3414 9.04246 8.3414 9.05313C8.30525 9.06349 8.2691 9.07384 8.23186 9.08451C8.23186 9.09487 8.23186 9.10522 8.23186 9.11589C8.22153 9.11919 8.2112 9.12232 8.20056 9.12562C8.14657 9.15057 8.10525 9.18336 8.05846 9.21976C8.02419 9.24455 7.9896 9.25788 7.95017 9.27279C7.93733 9.28346 7.92435 9.29413 7.91104 9.30511C7.87004 9.33696 7.84453 9.34544 7.79367 9.35124C7.79367 9.3616 7.79367 9.37195 7.79367 9.38262C7.78522 9.38654 7.77661 9.39062 7.76801 9.3947C7.75674 9.40004 7.74547 9.40553 7.73405 9.41102C7.72294 9.41635 7.71182 9.42169 7.7004 9.42702C7.66816 9.44554 7.64766 9.46609 7.62153 9.49245C7.58522 9.50861 7.54876 9.5243 7.51198 9.53952C7.46879 9.56321 7.43264 9.58753 7.39461 9.61891C7.3558 9.64919 7.32247 9.66253 7.27724 9.68073C7.25111 9.7016 7.22497 9.72247 7.19899 9.74349C7.16785 9.75949 7.13655 9.77518 7.1051 9.79056C7.09477 9.80092 7.08444 9.81127 7.0738 9.82194C7.05314 9.82194 7.03248 9.82194 7.0112 9.82194C7.0112 9.8323 7.0112 9.84265 7.0112 9.85332C6.99571 9.85332 6.98021 9.85332 6.96425 9.85332C6.96425 9.86368 6.96425 9.87403 6.96425 9.8847C6.94876 9.8847 6.93327 9.8847 6.9173 9.8847C6.91214 9.89506 6.90697 9.90541 6.90165 9.91608C6.881 9.91608 6.86034 9.91608 6.83906 9.91608C6.83389 9.93161 6.82873 9.94715 6.82341 9.96315C6.79962 9.98151 6.79962 9.98151 6.77051 9.99751C6.76112 10.0028 6.75157 10.0083 6.74187 10.0138C6.71386 10.0259 6.71386 10.0259 6.66691 10.0259C6.66691 10.0363 6.66691 10.0466 6.66691 10.0573C6.65298 10.0609 6.63921 10.0644 6.62481 10.0681C6.57082 10.0854 6.57082 10.0854 6.53389 10.1288C6.48866 10.1731 6.46269 10.1784 6.40087 10.1828C6.39571 10.1983 6.39054 10.2139 6.38522 10.2299C6.35424 10.2351 6.32325 10.2402 6.29132 10.2456C6.28616 10.2611 6.281 10.2766 6.27567 10.2926C6.21793 10.3377 6.19367 10.3554 6.11918 10.3554C6.11918 10.3658 6.11918 10.3761 6.11918 10.3868C6.10885 10.3868 6.09852 10.3868 6.08788 10.3868C6.08788 10.3971 6.08788 10.4075 6.08788 10.4182C6.06206 10.4182 6.03624 10.4182 6.00963 10.4182C6.00447 10.4337 5.99931 10.4492 5.99398 10.4652C5.9702 10.4836 5.9702 10.4836 5.94109 10.4996C5.9317 10.5049 5.92215 10.5104 5.91245 10.5159C5.88444 10.528 5.88444 10.528 5.83749 10.528C5.83749 10.5383 5.83749 10.5487 5.83749 10.5594C5.80134 10.5697 5.76519 10.5801 5.72794 10.5907C5.72794 10.6011 5.72794 10.6115 5.72794 10.6221C5.69711 10.6447 5.6666 10.665 5.63405 10.6849C5.62466 10.6909 5.61527 10.6968 5.60557 10.7029C5.5522 10.7356 5.52607 10.7477 5.4619 10.7477C5.45846 10.7571 5.45502 10.7663 5.45142 10.776C5.42403 10.8212 5.39508 10.8344 5.34844 10.8584C5.32528 10.8707 5.32528 10.8707 5.3015 10.8829C5.27004 10.8987 5.23843 10.914 5.20666 10.929C5.1702 10.9486 5.1461 10.9667 5.11574 10.9938C5.07067 11.0301 5.07067 11.0301 5.00807 11.0301C5.00807 11.0404 5.00807 11.0508 5.00807 11.0615C4.99962 11.0654 4.99101 11.0695 4.9824 11.0735C4.97114 11.0789 4.95987 11.0844 4.94844 11.0898C4.93733 11.0952 4.92622 11.1005 4.9148 11.1059C4.88225 11.1226 4.88225 11.1226 4.85893 11.1487C4.82184 11.1851 4.77568 11.1906 4.72638 11.2027C4.72638 11.213 4.72638 11.2234 4.72638 11.234C4.71026 11.2402 4.69414 11.2463 4.67755 11.2527C4.62654 11.2742 4.59148 11.3026 4.55032 11.3396C4.49211 11.382 4.40791 11.4223 4.33514 11.4223C4.32935 11.4374 4.32935 11.4374 4.32341 11.4528C4.30384 11.4851 4.30384 11.4851 4.27067 11.4968C4.25611 11.4987 4.25611 11.4987 4.24125 11.5008C4.24125 11.5111 4.24125 11.5215 4.24125 11.5321C4.22059 11.5321 4.19993 11.5321 4.17865 11.5321C4.17865 11.5425 4.17865 11.5529 4.17865 11.5635C4.13718 11.5805 4.09602 11.5963 4.05345 11.6106C4.04829 11.621 4.04312 11.6313 4.0378 11.642C4.02747 11.642 4.01715 11.642 4.0065 11.642C4.0065 11.6523 4.0065 11.6627 4.0065 11.6734C3.99805 11.6776 3.98945 11.6817 3.98084 11.6859C3.96957 11.6916 3.9583 11.6971 3.94688 11.7029C3.93577 11.7082 3.92466 11.7137 3.91323 11.7193C3.87802 11.7372 3.87802 11.7372 3.83436 11.7675C3.81887 11.7727 3.80337 11.7779 3.78741 11.7832C3.76629 11.7984 3.74531 11.8141 3.72481 11.8303C3.70118 11.8472 3.6774 11.8638 3.65345 11.8803C3.63546 11.8927 3.63546 11.8927 3.61715 11.9054C3.58397 11.9244 3.58397 11.9244 3.53702 11.9244C3.52513 11.9366 3.51308 11.949 3.50087 11.9617C3.45095 12.0105 3.40431 12.0342 3.33358 12.0342C3.32841 12.0498 3.32325 12.0653 3.31793 12.0813C3.3076 12.0813 3.29727 12.0813 3.28663 12.0813C3.28147 12.0917 3.2763 12.102 3.27098 12.1127C3.25549 12.1075 3.23999 12.1023 3.22403 12.097C3.21887 12.1125 3.2137 12.1281 3.20838 12.1441C3.15549 12.1828 3.13467 12.1911 3.06754 12.1911C3.06394 12.2007 3.06049 12.2101 3.05674 12.22C3.03013 12.2639 3.00431 12.2741 2.95799 12.295C2.89837 12.3221 2.89837 12.3221 2.84844 12.3637C2.82779 12.3637 2.80713 12.3637 2.78585 12.3637C2.78068 12.3793 2.77552 12.3948 2.7702 12.4108C2.71245 12.4558 2.68819 12.4735 2.6137 12.4735C2.6137 12.4839 2.6137 12.4943 2.6137 12.5049C2.59633 12.5089 2.5788 12.5128 2.56081 12.5167C2.50322 12.5294 2.50322 12.5294 2.48757 12.5677C2.48272 12.578 2.47787 12.5884 2.47286 12.5991C2.42685 12.6177 2.42685 12.6177 2.37896 12.6304C2.36347 12.6356 2.34798 12.6408 2.33201 12.6461C2.33201 12.6565 2.33201 12.6669 2.33201 12.6775C2.31464 12.6814 2.29711 12.6854 2.27912 12.6893C2.22168 12.7028 2.22168 12.7028 2.19993 12.7422C2.19711 12.7519 2.19414 12.7616 2.19117 12.7717C2.16535 12.7717 2.13952 12.7717 2.11292 12.7717C2.11292 12.782 2.11292 12.7924 2.11292 12.803C2.05549 12.8476 2.03045 12.8658 1.95643 12.8658C1.95283 12.8755 1.94907 12.8854 1.94531 12.8955C1.91934 12.938 1.89993 12.9425 1.85283 12.956C1.83999 12.9598 1.82716 12.9635 1.81402 12.9675C1.80416 12.9701 1.79445 12.9728 1.78428 12.9756C1.78428 12.986 1.78428 12.9963 1.78428 13.007C1.77583 13.0109 1.76722 13.015 1.75862 13.0191C1.74735 13.0244 1.73608 13.0299 1.72466 13.0354C1.71355 13.0407 1.70244 13.0461 1.69101 13.0514C1.65815 13.0684 1.65815 13.0684 1.63452 13.0955C1.61214 13.1168 1.61214 13.1168 1.56519 13.1168C1.56519 13.1272 1.56519 13.1376 1.56519 13.1482C1.54453 13.1482 1.52387 13.1482 1.50259 13.1482C1.50259 13.1586 1.50259 13.1689 1.50259 13.1796C1.48522 13.1838 1.46769 13.1881 1.4497 13.1923C1.3896 13.2056 1.3896 13.2056 1.36175 13.258C1.27176 13.2444 1.27176 13.2444 1.23655 13.2267C1.22513 13.1904 1.21464 13.1537 1.20525 13.1168C1.19492 13.1168 1.18459 13.1168 1.17395 13.1168C1.17004 13.1087 1.16597 13.1005 1.1619 13.0922C1.15658 13.0812 1.1511 13.0702 1.14563 13.0589C1.14031 13.0483 1.13499 13.0374 1.12967 13.0265C1.11715 13.0025 1.104 12.9789 1.09007 12.9559C1.05658 12.8998 1.02638 12.8423 0.995862 12.7844C0.989759 12.7726 0.983499 12.7607 0.977083 12.7484C0.850166 12.5065 0.850166 12.5065 0.811199 12.3964C0.790229 12.3429 0.763468 12.2923 0.737177 12.2413C0.714798 12.196 0.70447 12.1637 0.70447 12.1127C0.694141 12.1127 0.683812 12.1127 0.673171 12.1127C0.671293 12.1039 0.669258 12.0953 0.667224 12.0862C0.657991 12.0487 0.657991 12.0487 0.640933 12.0098C0.626222 11.9715 0.626222 11.9715 0.626222 11.9244C0.615894 11.9244 0.605565 11.9244 0.594923 11.9244C0.590855 11.9115 0.590854 11.9115 0.586786 11.8985C0.566285 11.8342 0.543906 11.7721 0.515737 11.7107C0.482873 11.6384 0.462685 11.5654 0.442967 11.4887C0.438898 11.4732 0.434829 11.4578 0.430604 11.4419C0.426848 11.4275 0.423249 11.4129 0.419336 11.398C0.408069 11.3561 0.408069 11.3561 0.375831 11.3125C0.37364 11.2957 0.371293 11.2789 0.368945 11.2615C0.359556 11.1984 0.339055 11.1509 0.313233 11.0928C0.293984 11.0304 0.278491 10.9687 0.266285 10.9045C0.252983 10.8402 0.239837 10.7773 0.218398 10.7153C0.205878 10.6763 0.200088 10.6447 0.195862 10.6046C0.192106 10.5471 0.192106 10.5471 0.172388 10.514C0.15267 10.4724 0.151887 10.4386 0.149853 10.3927C0.145628 10.3294 0.137646 10.2743 0.117615 10.2142C0.0930454 10.1403 0.0867856 10.07 0.0833427 9.99233C0.0802128 9.94683 0.0802128 9.94683 0.0629984 9.90321C0.0431236 9.84061 0.0406198 9.7824 0.0384288 9.71697C0.0357684 9.62691 0.0357684 9.62691 0.0158936 9.53952C0.0227794 9.49731 0.0227794 9.49731 0.031543 9.46107C0.0212144 9.46107 0.0108858 9.46107 0.000244141 9.46107C0.000244141 8.8967 0.000244141 8.33233 0.000244141 7.75086C0.0105728 7.75086 0.0209014 7.75086 0.031543 7.75086C0.0285697 7.73046 0.0257528 7.71007 0.0227794 7.68904C0.0177716 7.65437 0.0177715 7.65437 0.0158936 7.62534C0.0210579 7.62016 0.0262222 7.61498 0.031543 7.60965C0.034047 7.58753 0.0354555 7.56525 0.036551 7.54297C0.037177 7.52947 0.0378029 7.51614 0.0384288 7.50233C0.0393678 7.48115 0.0393677 7.48115 0.0403067 7.45965C0.0410892 7.44553 0.0417152 7.43126 0.0423412 7.41682C0.0440627 7.38167 0.0456276 7.34669 0.0471925 7.31154C0.0575211 7.31154 0.0678498 7.31154 0.0784914 7.31154C0.0836557 7.2753 0.08882 7.23905 0.0941409 7.20171C0.0838122 7.19653 0.0734836 7.19136 0.062842 7.18602C0.0731706 7.18602 0.0834992 7.18602 0.0941409 7.18602C0.0993052 7.10836 0.10447 7.03069 0.10979 6.95067C0.120119 6.95067 0.130448 6.95067 0.141089 6.95067C0.146254 6.86265 0.151418 6.77463 0.156739 6.68394C0.167067 6.67876 0.177396 6.67359 0.188038 6.66825C0.19461 6.62903 0.199775 6.59106 0.203687 6.55152C0.215111 6.43714 0.215111 6.43714 0.250635 6.40152C0.257052 6.36841 0.26206 6.335 0.266285 6.30142C0.274266 6.23835 0.283499 6.1908 0.313233 6.13479C0.315737 6.11565 0.318398 6.09666 0.321058 6.07689C0.32497 6.05116 0.32497 6.05116 0.328883 6.02496C0.339211 6.01978 0.34954 6.01461 0.360182 6.00927C0.366285 5.97632 0.366285 5.97632 0.368006 5.93867C0.37051 5.89991 0.37051 5.89991 0.375831 5.86806C0.38616 5.86288 0.396488 5.85771 0.40713 5.85237C0.416833 5.81236 0.416833 5.81236 0.422779 5.76608C0.429665 5.71854 0.429665 5.71854 0.438429 5.67978C0.448757 5.6746 0.459086 5.66943 0.469728 5.66409C0.480526 5.63083 0.480526 5.63083 0.487255 5.59254C0.489915 5.57952 0.492576 5.5665 0.495236 5.55316C0.497114 5.54328 0.499149 5.53324 0.501027 5.52288C0.511355 5.52288 0.521684 5.52288 0.532326 5.52288C0.533265 5.513 0.534203 5.50327 0.535142 5.49307C0.536551 5.4802 0.537803 5.4675 0.539211 5.45416C0.540463 5.44145 0.541715 5.42874 0.542967 5.41556C0.547975 5.38167 0.547975 5.38167 0.563625 5.35029C0.573953 5.35029 0.584282 5.35029 0.594923 5.35029C0.595862 5.34041 0.596801 5.33068 0.59774 5.32048C0.599149 5.30761 0.600401 5.29491 0.601809 5.28157C0.603061 5.26886 0.604313 5.25615 0.605565 5.24297C0.610573 5.20908 0.610573 5.20908 0.626222 5.1777C0.636551 5.1777 0.64688 5.1777 0.657521 5.1777C0.657521 5.15181 0.657521 5.12592 0.657521 5.09925C0.66785 5.09407 0.678178 5.0889 0.68882 5.08356C0.699618 5.0503 0.699618 5.0503 0.706347 5.01201C0.709008 4.99899 0.711668 4.98597 0.714329 4.97263C0.717146 4.95773 0.717146 4.95773 0.720119 4.94235C0.730448 4.94235 0.740776 4.94235 0.751418 4.94235C0.766911 4.89575 0.766911 4.89575 0.782717 4.84821C0.793045 4.84821 0.803374 4.84821 0.814016 4.84821C0.814955 4.83833 0.815894 4.8286 0.816833 4.8184C0.818241 4.80553 0.819493 4.79283 0.820902 4.77949C0.822153 4.76678 0.823405 4.75407 0.824657 4.74089C0.829665 4.707 0.829665 4.707 0.845315 4.67562C0.855643 4.67562 0.865972 4.67562 0.876614 4.67562C0.881152 4.6604 0.88569 4.64518 0.890385 4.62949C0.907913 4.58148 0.907912 4.58148 0.939211 4.56579C0.939211 4.5399 0.939211 4.51401 0.939211 4.48734C0.954704 4.49252 0.970197 4.4977 0.98616 4.50303C0.98616 4.49268 0.98616 4.48232 0.98616 4.47165C0.975831 4.46647 0.965502 4.4613 0.954861 4.45596C0.965189 4.45078 0.975518 4.44561 0.98616 4.44027C0.991324 4.42474 0.996488 4.40921 1.00181 4.3932C1.01214 4.3932 1.02247 4.3932 1.03311 4.3932C1.02794 4.37767 1.02278 4.36213 1.01746 4.34613C1.02779 4.34613 1.03812 4.34613 1.04876 4.34613C1.08303 4.28008 1.11182 4.21167 1.13937 4.14263C1.17067 4.06528 1.17067 4.06528 1.20525 4.04802C1.22168 4.019 1.22168 4.01899 1.23655 3.98526C1.24234 3.97428 1.24813 3.9633 1.25408 3.952C1.27004 3.92313 1.27004 3.92313 1.26785 3.89112C1.28334 3.88594 1.29884 3.88077 1.3148 3.87543C1.31777 3.85645 1.31777 3.85645 1.32075 3.83715C1.32387 3.82397 1.32716 3.81063 1.33045 3.79698C1.34078 3.7918 1.3511 3.78663 1.36175 3.78129C1.36691 3.77094 1.37208 3.76058 1.3774 3.74991C1.39305 3.71853 1.39305 3.71853 1.42434 3.70284C1.42434 3.68731 1.42434 3.67178 1.42434 3.65577C1.49148 3.56712 1.49148 3.56712 1.53389 3.54594C1.53843 3.53433 1.54297 3.52256 1.54766 3.51064C1.56754 3.46184 1.59445 3.42968 1.62779 3.38904C1.63483 3.37712 1.64203 3.36504 1.64938 3.3528C1.67145 3.31608 1.69477 3.2836 1.72075 3.24971C1.76316 3.19401 1.7979 3.1369 1.83123 3.07524C1.84156 3.07524 1.85189 3.07524 1.86253 3.07524C1.86644 3.06614 1.87035 3.05704 1.87427 3.04778C1.89664 3.0073 1.92168 2.98016 1.95643 2.94972C1.96675 2.94972 1.97708 2.94972 1.98772 2.94972C1.9896 2.93717 1.99164 2.92446 1.99367 2.91144C1.9968 2.89826 2.00009 2.88492 2.00337 2.87127C2.0137 2.86609 2.02403 2.86092 2.03467 2.85558C2.04751 2.83864 2.05987 2.82122 2.07192 2.80365C2.12497 2.73022 2.18772 2.66887 2.25298 2.60658C2.29117 2.5694 2.31495 2.54602 2.33201 2.49471C2.34751 2.49471 2.363 2.49471 2.37896 2.49471C2.38413 2.47918 2.38929 2.46365 2.39461 2.44764C2.42497 2.41328 2.42497 2.41328 2.45721 2.38488C2.46754 2.38488 2.47787 2.38488 2.48851 2.38488C2.504 2.35382 2.504 2.35382 2.51981 2.32212C2.53013 2.32212 2.54046 2.32212 2.55111 2.32212C2.55627 2.30659 2.56143 2.29106 2.56675 2.27505C2.57708 2.27505 2.58741 2.27505 2.59805 2.27505C2.61355 2.24399 2.61355 2.24399 2.62935 2.21229C2.63968 2.21229 2.65001 2.21229 2.66065 2.21229C2.66582 2.19676 2.67098 2.18123 2.6763 2.16522C2.68663 2.16522 2.69696 2.16522 2.7076 2.16522C2.72309 2.13416 2.72309 2.13416 2.7389 2.10246C2.74923 2.10246 2.75956 2.10246 2.7702 2.10246C2.77536 2.08693 2.78053 2.0714 2.78585 2.05539C2.79618 2.05021 2.8065 2.04504 2.81715 2.0397C2.82059 2.02417 2.82059 2.02417 2.82403 2.00832C2.82685 1.99797 2.82982 1.98761 2.8328 1.97694C2.84829 1.97176 2.86378 1.96659 2.87974 1.96125C2.90103 1.9407 2.92168 1.91967 2.94234 1.89849C2.96143 1.88139 2.98068 1.86429 3.00009 1.8475C3.01073 1.83809 3.02153 1.82867 3.03264 1.8191C3.05705 1.79776 3.08178 1.77642 3.10635 1.7554C3.11902 1.74426 3.1317 1.73328 3.14485 1.72198C3.15658 1.71194 3.16832 1.70174 3.18037 1.69138C3.21214 1.66361 3.21214 1.66361 3.22403 1.61607C3.23436 1.62125 3.24469 1.62643 3.25533 1.63176C3.27082 1.62141 3.28632 1.61105 3.30228 1.60038C3.31261 1.60038 3.32294 1.60038 3.33358 1.60038C3.3389 1.58673 3.3389 1.58673 3.34438 1.57292C3.37004 1.52884 3.40306 1.50577 3.44312 1.47486C3.44829 1.46451 3.45345 1.45415 3.45877 1.44348C3.48459 1.4325 3.51073 1.42214 3.53702 1.4121C3.55251 1.40175 3.56801 1.39139 3.58397 1.38072C3.5943 1.38072 3.60463 1.38072 3.61527 1.38072C3.62153 1.36613 3.62153 1.36613 3.62794 1.35122C3.6533 1.30588 3.6835 1.29019 3.7317 1.27277C3.77693 1.25301 3.80087 1.22822 3.83436 1.19244C3.84469 1.18726 3.85502 1.18209 3.86566 1.17675C3.88021 1.16561 3.88021 1.16561 3.89508 1.15416C3.92826 1.12968 3.92826 1.12968 3.96049 1.11399C3.99289 1.0972 4.01339 1.07806 4.0378 1.05123ZM0.297584 6.19755C0.313233 6.22893 0.313233 6.22893 0.313233 6.22893L0.297584 6.19755Z" fill="#16AD0A"/>
</svg>
