<svg width="24" height="30" viewBox="0 0 24 30" fill="none" xmlns="http://www.w3.org/2000/svg">
<path d="M16.7467 11.5115L17.412 10.7649L15.9189 9.43428L15.2536 10.1808L16.7467 11.5115ZM10.5434 16.9692L9.79951 17.6376L10.5464 18.4689L11.2899 17.6346L10.5434 16.9692ZM9.6286 14.4548L8.96028 13.7109L7.47253 15.0475L8.14086 15.7914L9.6286 14.4548ZM12.154 28.5385L11.6995 29.4292C11.985 29.5749 12.3229 29.5749 12.6084 29.4292L12.154 28.5385ZM22.7693 5.52308H23.7693C23.7693 5.10867 23.5137 4.7372 23.1267 4.58911L22.7693 5.52308ZM12.154 1.46154L12.5113 0.527568C12.2812 0.439531 12.0267 0.439531 11.7966 0.527568L12.154 1.46154ZM1.53857 5.52308L1.18123 4.58911C0.79418 4.7372 0.538574 5.10867 0.538574 5.52308H1.53857ZM15.2536 10.1808L9.79682 16.3039L11.2899 17.6346L16.7467 11.5115L15.2536 10.1808ZM11.2873 16.3009L9.6286 14.4548L8.14086 15.7914L9.79951 17.6376L11.2873 16.3009ZM12.154 28.5385C12.6084 29.4292 12.6087 29.4291 12.609 29.4289C12.6092 29.4288 12.6096 29.4286 12.6099 29.4285C12.6106 29.4281 12.6114 29.4277 12.6124 29.4272C12.6144 29.4261 12.6171 29.4248 12.6204 29.4231C12.6269 29.4197 12.636 29.415 12.6475 29.409C12.6705 29.397 12.7034 29.3797 12.7454 29.3572C12.8293 29.3122 12.9499 29.2465 13.1019 29.1606C13.4057 28.989 13.8359 28.7366 14.3503 28.4085C15.3771 27.7538 16.7501 26.7912 18.1276 25.5614C20.8436 23.1366 23.7693 19.4997 23.7693 15H21.7693C21.7693 18.6234 19.3874 21.7557 16.7957 24.0694C15.5194 25.2088 14.2385 26.1078 13.2749 26.7222C12.7942 27.0288 12.395 27.2629 12.1183 27.4192C11.98 27.4973 11.8725 27.5558 11.801 27.5942C11.7652 27.6133 11.7385 27.6274 11.7213 27.6364C11.7128 27.6408 11.7066 27.644 11.7029 27.6459C11.7011 27.6469 11.6999 27.6475 11.6993 27.6478C11.6991 27.6479 11.6989 27.648 11.699 27.648C11.699 27.648 11.6991 27.6479 11.6991 27.6479C11.6993 27.6478 11.6995 27.6477 12.154 28.5385ZM23.7693 15V5.52308H21.7693V15H23.7693ZM23.1267 4.58911L12.5113 0.527568L11.7966 2.39551L22.412 6.45705L23.1267 4.58911ZM11.7966 0.527568L1.18123 4.58911L1.89592 6.45705L12.5113 2.39551L11.7966 0.527568ZM0.538574 5.52308V15H2.53857V5.52308H0.538574ZM0.538574 15C0.538574 19.4997 3.46427 23.1366 6.18029 25.5614C7.55783 26.7912 8.93084 27.7538 9.95764 28.4085C10.4721 28.7366 10.9022 28.989 11.206 29.1606C11.358 29.2465 11.4786 29.3122 11.5626 29.3572C11.6045 29.3797 11.6374 29.397 11.6604 29.409C11.6719 29.415 11.681 29.4197 11.6876 29.4231C11.6908 29.4248 11.6935 29.4261 11.6955 29.4272C11.6965 29.4277 11.6973 29.4281 11.698 29.4285C11.6983 29.4286 11.6987 29.4288 11.6989 29.4289C11.6992 29.4291 11.6995 29.4292 12.154 28.5385C12.6084 27.6477 12.6086 27.6478 12.6088 27.6479C12.6088 27.6479 12.6089 27.648 12.609 27.648C12.609 27.648 12.6089 27.6479 12.6086 27.6478C12.608 27.6475 12.6068 27.6469 12.605 27.6459C12.6013 27.644 12.5952 27.6408 12.5866 27.6364C12.5695 27.6274 12.5427 27.6133 12.5069 27.5942C12.4354 27.5558 12.3279 27.4973 12.1896 27.4192C11.9129 27.2629 11.5137 27.0288 11.033 26.7222C10.0694 26.1078 8.78855 25.2088 7.51224 24.0694C4.92057 21.7557 2.53857 18.6234 2.53857 15H0.538574Z" fill="#0ED5FF"/>
</svg>
