<svg width="20" height="20" viewBox="0 0 20 20" fill="none" xmlns="http://www.w3.org/2000/svg">
<g clip-path="url(#clip0_3012_2318)">
<path d="M9.05238 4.52056C9.05238 6.95856 7.07038 8.93956 4.63238 8.93956C2.19238 8.93956 0.213379 6.96056 0.213379 4.52056C0.213379 2.07756 2.19238 0.101563 4.63238 0.101563C7.07038 0.101562 9.05238 2.07656 9.05238 4.52056ZM19.7964 4.52056C19.7964 2.07756 17.8174 0.101563 15.3784 0.101563C12.9404 0.101563 10.9624 2.07756 10.9624 4.52056C10.9624 6.95856 12.9404 8.93956 15.3784 8.93956C17.8184 8.93856 19.7964 6.95956 19.7964 4.52056ZM9.05238 15.2676C9.05238 12.8276 7.07038 10.8516 4.63238 10.8516C2.19238 10.8516 0.213379 12.8276 0.213379 15.2676C0.213379 17.7076 2.19238 19.6866 4.63238 19.6866C7.07038 19.6866 9.05238 17.7086 9.05238 15.2676ZM19.7964 15.2676C19.7964 12.8276 17.8174 10.8516 15.3784 10.8516C12.9404 10.8516 10.9624 12.8276 10.9624 15.2676C10.9624 17.7076 12.9404 19.6866 15.3784 19.6866C17.8184 19.6866 19.7964 17.7086 19.7964 15.2676Z" fill="#009DE0"/>
</g>
<defs>
<clipPath id="clip0_3012_2318">
<rect width="20" height="20" fill="white" transform="translate(0.000488281)"/>
</clipPath>
</defs>
</svg>
