<svg width="25" height="24" viewBox="0 0 25 24" fill="none" xmlns="http://www.w3.org/2000/svg">
<path d="M0.5 12C0.5 5.37258 5.87258 0 12.5 0C19.1274 0 24.5 5.37258 24.5 12C24.5 18.6274 19.1274 24 12.5 24C5.87258 24 0.5 18.6274 0.5 12Z" fill="white"/>
<path fill-rule="evenodd" clip-rule="evenodd" d="M15.0719 2.82927C15.2185 3.8248 14.8133 4.80009 14.2788 5.49012C13.7069 6.23027 12.7211 6.80272 11.766 6.77285C11.5917 5.81972 12.0381 4.83768 12.5813 4.17753C13.1771 3.44895 14.1983 2.88998 15.0719 2.82927ZM17.9415 16.8419C18.4338 16.0873 18.6178 15.7066 19 14.8547C16.22 13.7975 15.7746 9.84521 18.5258 8.3283C17.6866 7.27591 16.5074 6.66587 15.3942 6.66587C14.5922 6.66587 14.0426 6.87518 13.543 7.06546C13.1267 7.22403 12.7451 7.36939 12.2809 7.36939C11.7793 7.36939 11.3351 7.21012 10.87 7.04336C10.3589 6.8601 9.82251 6.6678 9.15697 6.6678C7.90779 6.6678 6.57815 7.43107 5.73514 8.73596C4.55015 10.5738 4.75228 14.0288 6.67394 16.972C7.3608 18.0253 8.27852 19.2088 9.47885 19.2194C9.9769 19.2243 10.3083 19.0757 10.667 18.9148C11.0775 18.7307 11.5237 18.5306 12.2962 18.5265C13.0733 18.5218 13.5124 18.7244 13.9175 18.9112C14.2669 19.0724 14.591 19.2219 15.0848 19.2165C16.2861 19.2069 17.2546 17.8952 17.9415 16.8419Z" fill="#0B0B0A"/>
</svg>
