<svg width="24" height="24" viewBox="0 0 24 24" fill="none" xmlns="http://www.w3.org/2000/svg">
<path d="M0 12C0 5.37258 5.37258 0 12 0C18.6274 0 24 5.37258 24 12C24 18.6274 18.6274 24 12 24C5.37258 24 0 18.6274 0 12Z" fill="white"/>
<path d="M12 7.09364C13.5022 7.09364 14.5155 7.74251 15.0933 8.28472L17.351 6.08033C15.9644 4.79147 14.16 4.00038 12 4.00038C8.8712 4.00038 6.16904 5.79589 4.85352 8.40916L7.44012 10.418C8.08899 8.48916 9.8845 7.09364 12 7.09364Z" fill="#EA4335"/>
<path d="M19.6798 12.1791C19.6798 11.5213 19.6265 11.0413 19.5109 10.5436H12V13.5124H16.4088C16.3199 14.2501 15.8399 15.3612 14.7733 16.1079L17.2976 18.0634C18.8087 16.6679 19.6798 14.6146 19.6798 12.1791Z" fill="#4285F4"/>
<path d="M7.4488 13.583C7.27992 13.0853 7.18214 12.5519 7.18214 12.0009C7.18214 11.4498 7.27992 10.9164 7.43992 10.4187L4.85331 8.40983C4.3111 9.49425 4 10.712 4 12.0009C4 13.2897 4.3111 14.5075 4.85331 15.5919L7.4488 13.583Z" fill="#FBBC05"/>
<path d="M11.9999 20.0001C14.1599 20.0001 15.9731 19.289 17.2976 18.0624L14.7732 16.1069C14.0976 16.578 13.191 16.9068 11.9999 16.9068C9.8844 16.9068 8.08889 15.5113 7.44891 13.5825L4.8623 15.5913C6.17783 18.2046 8.8711 20.0001 11.9999 20.0001Z" fill="#34A853"/>
</svg>
