<svg width="185" height="129" viewBox="0 0 185 129" fill="none" xmlns="http://www.w3.org/2000/svg">
<path d="M58.267 46.9512C61.7683 42.1032 63.519 39.6793 65.0738 39.3781C66.4182 39.1177 67.8023 39.5631 68.7425 40.5587C69.8299 41.7101 69.8384 44.7001 69.8553 50.6802L69.8776 58.5288C69.8823 60.2 69.8847 61.0355 70.1676 61.7442C70.4174 62.3699 70.8212 62.9224 71.3415 63.3504C71.9309 63.8351 72.7263 64.0911 74.3171 64.603L81.7884 67.0072C87.4811 68.8391 90.3274 69.755 91.0943 71.1406C91.7574 72.3387 91.7615 73.7928 91.1052 74.9946C90.3462 76.3846 87.5051 77.3166 81.8229 79.1807L74.3653 81.6272C72.7774 82.1481 71.9835 82.4086 71.3969 82.8966C70.879 83.3276 70.4783 83.8823 70.2321 84.5095C69.9532 85.2197 69.9556 86.0553 69.9603 87.7265L69.9825 95.5751C69.9995 101.555 70.0079 104.545 68.9271 105.703C67.9925 106.704 66.6109 107.157 65.2651 106.904C63.7086 106.612 61.9442 104.198 58.4155 99.3697L53.7842 93.0331C52.7981 91.6839 52.3051 91.0093 51.6597 90.6022C51.0898 90.2428 50.4383 90.0332 49.7658 89.9928C49.0041 89.9471 48.2102 90.2075 46.6223 90.7284L39.1647 93.1749C33.4825 95.039 30.6414 95.971 29.2065 95.3008C27.9658 94.7212 27.1078 93.5473 26.9324 92.1892C26.7294 90.6186 28.4801 88.1946 31.9814 83.3467L36.5767 76.9839C37.5551 75.6292 38.0444 74.9518 38.232 74.2122C38.3977 73.5591 38.3958 72.8748 38.2264 72.2227C38.0345 71.4841 37.5415 70.8095 36.5554 69.4603L31.9241 63.1237C28.3954 58.2957 26.631 55.8817 26.8251 54.3099C26.9928 52.9508 27.8442 51.7721 29.0816 51.1855C30.5126 50.5072 33.3589 51.4231 39.0516 53.2549L46.5229 55.6591C48.1137 56.171 48.9091 56.427 49.6705 56.3769C50.3428 56.3327 50.9931 56.1194 51.5609 55.7568C52.204 55.3461 52.6933 54.6687 53.6717 53.3139L58.267 46.9512Z" fill="url(#paint0_linear_268_15417)"/>
<path d="M139.164 63.9585C139.93 59.5393 140.313 57.3297 141.262 56.6154C142.083 55.9978 143.162 55.8428 144.124 56.2047C145.235 56.6233 146.224 58.636 148.202 62.6614L150.925 68.2025C151.477 69.3274 151.754 69.8899 152.178 70.2745C152.552 70.6142 153.006 70.8538 153.497 70.9712C154.054 71.1041 154.674 71.0151 155.915 70.837L162.026 69.9599C166.466 69.3227 168.685 69.0041 169.658 69.6859C170.499 70.2755 170.98 71.2543 170.933 72.2802C170.878 73.4667 169.27 75.0292 166.052 78.1543L161.624 82.456C160.725 83.3293 160.275 83.766 160.04 84.2878C159.833 84.7486 159.745 85.2543 159.786 85.7581C159.831 86.3285 160.107 86.891 160.66 88.0159L163.383 93.557C165.361 97.5824 166.35 99.5951 166.002 100.731C165.701 101.713 164.919 102.473 163.928 102.745C162.783 103.06 160.8 102.013 156.834 99.9186L151.374 97.036C150.266 96.4509 149.712 96.1583 149.143 96.0961C148.64 96.0413 148.132 96.1142 147.666 96.3081C147.137 96.5278 146.688 96.9644 145.789 97.8377L141.36 102.139C138.143 105.264 136.534 106.827 135.347 106.847C134.32 106.864 133.355 106.355 132.791 105.498C132.137 104.506 132.52 102.296 133.286 97.8767L134.34 91.7935C134.554 90.5585 134.661 89.941 134.545 89.3808C134.442 88.8861 134.215 88.4254 133.887 88.0416C133.514 87.6069 132.96 87.3143 131.852 86.7291L126.392 83.8466C122.426 81.7525 120.443 80.7055 120.057 79.5822C119.723 78.611 119.909 77.5365 120.55 76.7342C121.292 75.8063 123.512 75.4877 127.951 74.8505L134.063 73.9734C135.303 73.7953 135.924 73.7063 136.42 73.4222C136.859 73.1713 137.227 72.8137 137.491 72.3825C137.789 71.8942 137.896 71.2767 138.11 70.0417L139.164 63.9585Z" fill="url(#paint1_linear_268_15417)"/>
<path d="M99.4879 17.5224C101.556 13.4751 102.59 11.4514 103.713 11.0517C104.684 10.7062 105.765 10.8836 106.575 11.5214C107.512 12.2591 107.845 14.5071 108.511 19.003L108.575 19.4395C108.76 20.6848 108.852 21.3074 109.14 21.8043C109.394 22.2431 109.756 22.6102 110.19 22.8713C110.683 23.1671 111.304 23.2691 112.546 23.4729L113.127 23.5683C117.506 24.2869 119.696 24.6462 120.418 25.5842C121.043 26.3954 121.211 27.4692 120.864 28.4325C120.462 29.5463 118.487 30.5569 114.537 32.5781L113.87 32.9189C112.767 33.4833 112.216 33.7655 111.84 34.19C111.509 34.5648 111.276 35.0167 111.164 35.5045C111.036 36.0569 111.127 36.6697 111.309 37.8953L111.405 38.5449C112.065 43.0001 112.395 45.2277 111.716 46.204C111.128 47.0481 110.15 47.5327 109.123 47.488C107.934 47.4364 106.363 45.8237 103.219 42.5983L102.94 42.3121C102.053 41.4016 101.609 40.9464 101.08 40.7119C100.612 40.5049 100.1 40.4208 99.5906 40.4676C99.014 40.5205 98.4481 40.8101 97.3163 41.3891L96.9605 41.5712C92.951 43.6227 90.9463 44.6485 89.8039 44.3177C88.8163 44.0317 88.0439 43.2598 87.7573 42.2723C87.4259 41.1302 88.4505 39.1248 90.4997 35.1142L90.7984 34.5294C91.3621 33.4261 91.644 32.8744 91.7 32.3104C91.7494 31.8123 91.6734 31.3097 91.4789 30.8485C91.2587 30.3262 90.8263 29.8826 89.9615 28.9953L89.4392 28.4594C86.3422 25.2817 84.7936 23.6928 84.7691 22.5091C84.7478 21.4854 85.2502 20.5215 86.1015 19.9526C87.0859 19.2947 89.2753 19.654 93.654 20.3726L94.2354 20.468C95.4777 20.6719 96.0988 20.7738 96.6599 20.6509C97.1552 20.5424 97.615 20.31 97.9962 19.9756C98.428 19.5968 98.7144 19.0363 99.2872 17.9153L99.4879 17.5224Z" fill="url(#paint2_linear_268_15417)"/>
<defs>
<linearGradient id="paint0_linear_268_15417" x1="0.46782" y1="101.776" x2="92.5083" y2="124.264" gradientUnits="userSpaceOnUse">
<stop stop-color="#01E0FF"/>
<stop offset="0.51" stop-color="#7778FA"/>
<stop offset="1" stop-color="#FF01F5"/>
</linearGradient>
<linearGradient id="paint1_linear_268_15417" x1="117.953" y1="120.76" x2="188.216" y2="105.472" gradientUnits="userSpaceOnUse">
<stop stop-color="#01E0FF"/>
<stop offset="0.51" stop-color="#7778FA"/>
<stop offset="1" stop-color="#FF01F5"/>
</linearGradient>
<linearGradient id="paint2_linear_268_15417" x1="72.4769" y1="51.5373" x2="127.236" y2="56.5921" gradientUnits="userSpaceOnUse">
<stop stop-color="#01E0FF"/>
<stop offset="0.51" stop-color="#7778FA"/>
<stop offset="1" stop-color="#FF01F5"/>
</linearGradient>
</defs>
</svg>
