<svg width="209" height="196" viewBox="0 0 209 196" fill="none" xmlns="http://www.w3.org/2000/svg">
<path d="M82.8232 4.21135L83.3391 2.27903V2.27903L82.8232 4.21135ZM189.682 32.7398L189.166 34.6722L189.682 32.7398ZM59.0875 17.8653L60.9987 18.4546L61.0094 18.4198L61.0189 18.3847L59.0875 17.8653ZM201.672 37.3026L203.007 35.8139V35.8139L201.672 37.3026ZM203.385 56.3892L205.317 56.9086V56.9086L203.385 56.3892ZM205.415 43.7621L203.459 44.1794L203.459 44.1794L205.415 43.7621ZM70.15 2.18971L69.7356 0.233112V0.233113L70.15 2.18971ZM63.667 5.91908L65.1508 7.26004L65.1508 7.26004L63.667 5.91908ZM95.5782 157.43L94.0526 158.724L95.5782 157.43ZM99.1009 111.861L98.9767 109.864L99.1009 111.861ZM144.345 39.8269L143.804 41.7523L144.345 39.8269ZM116.359 31.9586L116.9 30.0333L116.359 31.9586ZM82.3073 6.14367L189.166 34.6722L190.198 30.8075L83.3391 2.27903L82.3073 6.14367ZM3.9112 203.589L60.9987 18.4546L57.1763 17.276L0.0887992 202.411L3.9112 203.589ZM189.166 34.6722C192.474 35.5553 194.839 36.1883 196.652 36.8343C198.444 37.4725 199.53 38.0682 200.336 38.7913L203.007 35.8139C201.652 34.5983 200.019 33.7873 197.994 33.0661C195.992 32.3528 193.442 31.6737 190.198 30.8075L189.166 34.6722ZM205.317 56.9086C206.186 53.6764 206.871 51.136 207.252 49.0502C207.638 46.9412 207.75 45.1242 207.37 43.3448L203.459 44.1794C203.684 45.234 203.659 46.4664 203.318 48.3304C202.973 50.2176 202.34 52.5737 201.454 55.8698L205.317 56.9086ZM200.336 38.7913C201.923 40.2147 203.015 42.101 203.459 44.1794L207.371 43.3448C206.75 40.4373 205.222 37.8012 203.007 35.8139L200.336 38.7913ZM83.3391 2.27903C80.0946 1.41283 77.5458 0.730773 75.4534 0.350806C73.338 -0.033329 71.5177 -0.144301 69.7356 0.233112L70.5644 4.14632C71.6267 3.92133 72.8667 3.9465 74.7387 4.28644C76.6337 4.63055 78.9993 5.26051 82.3073 6.14367L83.3391 2.27903ZM61.0189 18.3847C61.9054 15.0884 62.5404 12.7331 63.1885 10.9268C63.8285 9.14282 64.4257 8.06244 65.1508 7.26004L62.1831 4.57813C60.9624 5.92892 60.1477 7.55729 59.4235 9.57596C58.7072 11.5723 58.0254 14.1135 57.1561 17.3459L61.0189 18.3847ZM69.7356 0.233113C66.8219 0.850181 64.1779 2.3707 62.1831 4.57813L65.1508 7.26004C66.5792 5.67949 68.474 4.58902 70.5644 4.14632L69.7356 0.233113ZM201.454 55.8698L170.334 171.59L174.197 172.628L205.317 56.9086L201.454 55.8698ZM123.036 202.433C120.024 192.242 109.732 171.034 97.1038 156.137L94.0526 158.724C106.311 173.184 116.341 193.895 119.2 203.567L123.036 202.433ZM97.1038 156.137C89.9945 147.751 86.8326 137.13 87.4205 128.602C87.7141 124.344 88.9313 120.739 90.9091 118.183C92.8492 115.676 95.5857 114.083 99.2251 113.857L98.9767 109.864C94.1624 110.164 90.3737 112.339 87.7457 115.735C85.1554 119.082 83.7617 123.516 83.43 128.327C82.7674 137.938 86.2978 149.576 94.0526 158.724L97.1038 156.137ZM99.2251 113.857C102.125 113.676 105.817 114.871 110.28 117.829C114.713 120.767 119.709 125.314 125.154 131.484C136.04 143.818 148.522 162.409 161.693 186.872L165.215 184.976C151.964 160.364 139.316 141.485 128.153 128.837C122.574 122.516 117.317 117.694 112.49 114.495C107.695 111.316 103.122 109.607 98.9767 109.864L99.2251 113.857ZM184.971 121.651C187.617 128.817 193.398 144.27 198.08 160.199C200.422 168.164 202.476 176.209 203.727 183.369C204.987 190.586 205.39 196.687 204.582 200.867L208.509 201.626C209.462 196.693 208.944 189.99 207.667 182.681C206.38 175.314 204.281 167.11 201.918 159.071C197.191 142.99 191.362 127.412 188.724 120.265L184.971 121.651ZM144.886 37.9016L116.9 30.0333L115.818 33.884L143.804 41.7523L144.886 37.9016ZM116.9 30.0333C113.476 29.0706 111.481 25.5146 112.444 22.0907L108.593 21.008C107.032 26.5586 110.267 32.3234 115.818 33.884L116.9 30.0333ZM152.829 33.445C151.866 36.8689 148.31 38.8642 144.886 37.9016L143.804 41.7523C149.354 43.3129 155.119 40.0782 156.68 34.5276L152.829 33.445Z" fill="#012AFF"/>
</svg>
