<svg width="96" height="122" viewBox="0 0 96 122" fill="none" xmlns="http://www.w3.org/2000/svg">
<path d="M10.5518 23.3613L11.0259 24.7844L10.5518 23.3613ZM69.8078 3.62288L69.3337 2.19975V2.19975L69.8078 3.62288ZM83.6345 10.5809L85.0586 10.1098L83.6345 10.5809ZM125.383 136.765L123.959 137.236L125.383 136.765ZM118.448 150.639L118.922 152.062L118.448 150.639ZM59.1922 170.377L58.7182 168.954L59.1922 170.377ZM45.3655 163.419L46.7896 162.948L45.3655 163.419ZM3.61735 37.235L2.19326 37.7061L3.61735 37.235ZM52.1193 171.945L52.3453 170.463L52.3453 170.463L52.1193 171.945ZM48.3428 170.045L49.3985 168.979L49.3984 168.979L48.3428 170.045ZM126.946 143.862L125.463 143.638L125.463 143.638L126.946 143.862ZM125.052 147.651L126.121 148.704L125.052 147.651ZM76.8807 2.05459L77.1067 0.571711L77.1067 0.571711L76.8807 2.05459ZM80.6572 3.95509L81.7129 2.88948L81.7129 2.88948L80.6572 3.95509ZM3.94843 26.3486L5.01761 27.4007L5.01761 27.4007L3.94843 26.3486ZM2.05438 30.138L3.53749 30.3625L2.05438 30.138ZM52.2405 20.9179L51.7665 19.4948L52.2405 20.9179ZM35.4802 26.5009L35.9542 27.924L35.4802 26.5009ZM66.6176 75.4548L65.4276 76.368L65.428 76.3685L66.6176 75.4548ZM64.5852 74.5707L64.4415 73.0776L64.4405 73.0777L64.5852 74.5707ZM62.7584 75.8274L64.1001 76.4982L64.1002 76.498L62.7584 75.8274ZM56.8931 87.5581L56.2189 88.8981L57.5622 89.574L58.2347 88.229L56.8931 87.5581ZM45.93 82.042L44.5884 81.3711L43.9192 82.7094L45.2558 83.3819L45.93 82.042ZM51.7955 70.3117L53.1371 70.9825L53.1372 70.9824L51.7955 70.3117ZM51.7069 68.0908L52.9904 67.3146L52.9904 67.3145L51.7069 68.0908ZM49.785 66.9854L49.8082 65.4855L49.808 65.4855L49.785 66.9854ZM42.597 68.0967L42.123 66.6736L42.597 68.0967ZM30.036 78.9989L31.3776 79.6699L31.3777 79.6697L30.036 78.9989ZM28.8365 95.619L30.2606 95.1479L28.8365 95.619ZM32.8377 102.8L34.1977 103.433L34.6007 102.567L33.9862 101.835L32.8377 102.8ZM14.757 141.66L13.397 141.027L12.7837 142.345L14.082 142.999L14.757 141.66ZM30.0533 149.367L29.3783 150.707L30.7604 151.403L31.4133 150L30.0533 149.367ZM48.1395 110.497L48.2289 109L47.2101 108.939L46.7795 109.865L48.1395 110.497ZM56.269 109.42L55.7949 107.997L56.269 109.42ZM68.83 98.5176L67.4884 97.8469L67.4883 97.847L68.83 98.5176ZM70.1335 12.1582L76.2547 15.2386L77.6033 12.5588L71.4821 9.47837L70.1335 12.1582ZM62.2021 16.3059L78.0452 24.2787L79.3938 21.5989L63.5507 13.6261L62.2021 16.3059ZM11.0259 24.7844L70.2818 5.046L69.3337 2.19975L10.0778 21.9382L11.0259 24.7844ZM82.2104 11.0521L123.959 137.236L126.807 136.294L85.0586 10.1098L82.2104 11.0521ZM117.974 149.216L58.7182 168.954L59.6663 171.8L118.922 152.062L117.974 149.216ZM46.7896 162.948L41.8897 148.138L39.0415 149.08L43.9414 163.89L46.7896 162.948ZM21.7425 87.2429L5.04143 36.7638L2.19326 37.7061L18.8943 88.1852L21.7425 87.2429ZM58.7182 168.954C56.8778 169.567 55.5831 169.997 54.5454 170.251C53.5249 170.5 52.8819 170.544 52.3453 170.463L51.8934 173.428C52.9793 173.594 54.056 173.459 55.2579 173.165C56.4427 172.875 57.8731 172.398 59.6663 171.8L58.7182 168.954ZM43.9414 163.89C44.5368 165.69 45.0105 167.125 45.4874 168.251C45.9711 169.392 46.5066 170.337 47.2871 171.111L49.3984 168.979C49.0111 168.596 48.661 168.051 48.2496 167.08C47.8315 166.093 47.4005 164.794 46.7896 162.948L43.9414 163.89ZM52.3453 170.463C51.2323 170.293 50.2007 169.774 49.3985 168.979L47.2871 171.111C48.5394 172.351 50.1518 173.163 51.8934 173.428L52.3453 170.463ZM123.959 137.236C124.569 139.083 124.998 140.382 125.251 141.424C125.5 142.449 125.544 143.096 125.463 143.638L128.429 144.087C128.593 143 128.459 141.921 128.167 140.716C127.878 139.528 127.402 138.093 126.807 136.294L123.959 137.236ZM118.922 152.062C120.715 151.465 122.147 150.989 123.269 150.51C124.407 150.025 125.35 149.487 126.121 148.704L123.982 146.599C123.6 146.988 123.058 147.339 122.091 147.751C121.108 148.17 119.814 148.603 117.974 149.216L118.922 152.062ZM125.463 143.638C125.293 144.758 124.775 145.794 123.982 146.599L126.121 148.704C127.357 147.447 128.165 145.831 128.429 144.087L125.463 143.638ZM70.2818 5.046C72.1222 4.43298 73.4169 4.00292 74.4546 3.74922C75.4751 3.4997 76.1181 3.45571 76.6547 3.53748L77.1067 0.571711C76.0207 0.406236 74.944 0.541205 73.7421 0.835053C72.5573 1.12472 71.1269 1.60242 69.3337 2.19975L70.2818 5.046ZM85.0586 10.1098C84.4632 8.31028 83.9895 6.87484 83.5126 5.7494C83.0289 4.60796 82.4934 3.66273 81.7129 2.88948L79.6016 5.02069C79.9889 5.40444 80.339 5.94919 80.7504 6.91995C81.1685 7.90671 81.5995 9.2057 82.2104 11.0521L85.0586 10.1098ZM76.6547 3.53748C77.7677 3.70707 78.7993 4.22595 79.6016 5.02069L81.7129 2.88948C80.4606 1.64877 78.8482 0.837091 77.1067 0.571711L76.6547 3.53748ZM10.0778 21.9382C8.28455 22.5355 6.85346 23.011 5.73131 23.4897C4.59283 23.9755 3.65011 24.5132 2.87925 25.2966L5.01761 27.4007C5.39984 27.0123 5.94205 26.6615 6.90861 26.2491C7.89151 25.8297 9.18558 25.3974 11.0259 24.7844L10.0778 21.9382ZM5.04143 36.7638C4.43055 34.9174 4.00175 33.6177 3.74875 32.5759C3.49989 31.5511 3.45558 30.9037 3.53749 30.3625L0.57127 29.9136C0.406774 31.0004 0.540817 32.0786 0.833479 33.2838C1.12201 34.4719 1.59789 35.9066 2.19326 37.7061L5.04143 36.7638ZM2.87925 25.2966C1.64285 26.5531 0.835247 28.1694 0.57127 29.9136L3.53749 30.3625C3.70701 29.2424 4.22546 28.2057 5.01761 27.4007L2.87925 25.2966ZM51.7665 19.4948L35.0061 25.0778L35.9542 27.924L52.7146 22.3411L51.7665 19.4948ZM35.0061 25.0778C33.1095 25.7095 31.0558 24.6807 30.423 22.7681L27.5748 23.7105C28.7263 27.1909 32.4761 29.0826 35.9542 27.924L35.0061 25.0778ZM54.067 14.8858C54.7005 16.8006 53.6654 18.8623 51.7665 19.4948L52.7146 22.3411C56.1904 21.1833 58.0659 17.4217 56.9151 13.9435L54.067 14.8858ZM67.8076 74.5416C67.0124 73.5054 65.7404 72.9525 64.4415 73.0776L64.729 76.0638C64.9981 76.0379 65.262 76.1522 65.4276 76.368L67.8076 74.5416ZM64.4405 73.0777C63.1422 73.2035 62.0001 73.9894 61.4167 75.1568L64.1002 76.498C64.2229 76.2525 64.4616 76.0897 64.7299 76.0637L64.4405 73.0777ZM61.4168 75.1566L55.5514 86.8873L58.2347 88.229L64.1001 76.4982L61.4168 75.1566ZM57.5673 86.2182L46.6042 80.702L45.2558 83.3819L56.2189 88.8981L57.5673 86.2182ZM47.2716 82.7128L53.1371 70.9825L50.4539 69.6408L44.5884 81.3711L47.2716 82.7128ZM53.1372 70.9824C53.7201 69.8163 53.6657 68.4312 52.9904 67.3146L50.4233 68.867C50.5651 69.1014 50.5772 69.3942 50.4538 69.641L53.1372 70.9824ZM52.9904 67.3145C52.3153 66.1984 51.1143 65.5058 49.8082 65.4855L49.7618 68.4852C50.0306 68.4893 50.2811 68.6319 50.4233 68.8671L52.9904 67.3145ZM49.808 65.4855C47.1959 65.4454 44.6093 65.8453 42.123 66.6736L43.0711 69.5198C45.2381 68.798 47.4886 68.4503 49.762 68.4852L49.808 65.4855ZM42.123 66.6736C36.2428 68.6323 31.4705 72.7753 28.6944 78.3282L31.3777 79.6697C33.7988 74.827 37.9479 71.2264 43.0711 69.5198L42.123 66.6736ZM28.6944 78.328C25.9172 83.8815 25.4618 90.1944 27.4125 96.0902L30.2606 95.1479C28.5591 90.0051 28.9554 84.5135 31.3776 79.6699L28.6944 78.328ZM27.4125 96.0902C28.3557 98.9413 29.8131 101.532 31.6892 103.765L33.9862 101.835C32.3539 99.892 31.084 97.6366 30.2606 95.1479L27.4125 96.0902ZM31.4777 102.167L13.397 141.027L16.117 142.292L34.1977 103.433L31.4777 102.167ZM31.4133 150L49.4995 111.13L46.7795 109.865L28.6933 148.734L31.4133 150ZM48.0501 111.995C50.958 112.168 53.8998 111.79 56.743 110.843L55.7949 107.997C53.3153 108.823 50.7562 109.151 48.2289 109L48.0501 111.995ZM56.743 110.843C62.6219 108.885 67.3957 104.742 70.1717 99.1883L67.4883 97.847C65.0674 102.69 60.917 106.291 55.7949 107.997L56.743 110.843ZM70.1717 99.1884C74.1413 91.2484 73.214 81.5801 67.8072 74.5411L65.428 76.3685C70.1349 82.4964 70.9444 90.934 67.4884 97.8469L70.1717 99.1884ZM14.082 142.999L29.3783 150.707L30.7283 148.028L15.432 140.32L14.082 142.999Z" fill="#012AFF"/>
</svg>
