<svg width="237" height="219" viewBox="0 0 237 219" fill="none" xmlns="http://www.w3.org/2000/svg">
<path d="M117.701 281.291L118.023 279.317L117.701 281.291ZM111.519 278.104L112.94 276.697L112.94 276.697L111.519 278.104ZM241.382 236.589L239.408 236.266L239.408 236.266L241.382 236.589ZM238.195 242.77L239.603 244.191L239.603 244.191L238.195 242.77ZM161.556 3.03924L161.879 1.06537L161.879 1.06537L161.556 3.03924ZM167.738 6.22605L169.159 4.81855L167.738 6.22605ZM41.0623 41.5596L42.4698 42.9805L42.4698 42.9805L41.0623 41.5596ZM37.8755 47.7414L39.8493 48.0637L37.8755 47.7414ZM150.484 19.0826L160.504 24.2479L162.337 20.6925L152.317 15.5272L150.484 19.0826ZM137.353 25.7418L163.286 39.1108L165.119 35.5555L139.185 22.1864L137.353 25.7418ZM52.5954 38.6847L150.494 7.38766L149.276 3.57762L51.3774 34.8746L52.5954 38.6847ZM170.613 17.7592L237.034 225.527L240.844 224.309L174.423 16.5411L170.613 17.7592ZM226.662 245.645L128.763 276.942L129.981 280.752L227.88 249.455L226.662 245.645ZM108.644 266.571L100.849 242.185L97.0386 243.404L104.834 267.789L108.644 266.571ZM68.7949 141.919L42.2239 58.8035L38.4138 60.0215L64.9849 143.137L68.7949 141.919ZM128.763 276.942C125.73 277.912 123.57 278.601 121.834 279.004C120.12 279.401 118.992 279.475 118.023 279.317L117.379 283.265C119.076 283.542 120.782 283.354 122.737 282.9C124.669 282.452 127.011 281.702 129.981 280.752L128.763 276.942ZM104.834 267.789C105.784 270.759 106.531 273.102 107.287 274.935C108.052 276.791 108.888 278.29 110.098 279.512L112.94 276.697C112.249 275.999 111.655 275.037 110.985 273.411C110.306 271.764 109.614 269.604 108.644 266.571L104.834 267.789ZM118.023 279.317C116.095 279.002 114.315 278.085 112.94 276.697L110.098 279.512C112.068 281.5 114.617 282.814 117.379 283.265L118.023 279.317ZM237.034 225.527C238.003 228.56 238.692 230.72 239.095 232.456C239.492 234.169 239.566 235.298 239.408 236.266L243.356 236.911C243.633 235.213 243.445 233.507 242.992 231.553C242.543 229.62 241.793 227.279 240.844 224.309L237.034 225.527ZM227.88 249.455C230.85 248.506 233.193 247.759 235.027 247.003C236.882 246.238 238.381 245.402 239.603 244.191L236.788 241.35C236.09 242.04 235.128 242.634 233.503 243.305C231.855 243.984 229.695 244.676 226.662 245.645L227.88 249.455ZM239.408 236.266C239.093 238.195 238.176 239.974 236.788 241.35L239.603 244.191C241.591 242.222 242.905 239.673 243.356 236.911L239.408 236.266ZM150.494 7.38766C153.527 6.41806 155.688 5.72896 157.424 5.32633C159.137 4.929 160.265 4.85495 161.234 5.01311L161.879 1.06537C160.181 0.788252 158.475 0.976351 156.52 1.42976C154.588 1.87787 152.246 2.62811 149.276 3.57762L150.494 7.38766ZM174.423 16.5411C173.474 13.571 172.726 11.2284 171.971 9.39458C171.206 7.53915 170.37 6.04054 169.159 4.81855L166.317 7.63354C167.008 8.33096 167.602 9.29284 168.272 10.9188C168.952 12.5665 169.644 14.7262 170.613 17.7592L174.423 16.5411ZM161.234 5.01312C163.163 5.32795 164.942 6.24525 166.317 7.63354L169.159 4.81855C167.19 2.83013 164.641 1.51631 161.879 1.06537L161.234 5.01312ZM51.3774 34.8746C48.4072 35.8241 46.0646 36.5714 44.2308 37.3272C42.3754 38.0919 40.8768 38.9283 39.6548 40.1387L42.4698 42.9805C43.1672 42.2897 44.1291 41.6956 45.755 41.0254C47.4027 40.3463 49.5624 39.6543 52.5954 38.6847L51.3774 34.8746ZM42.2239 58.8035C41.2543 55.7705 40.5652 53.6099 40.1626 51.8738C39.7652 50.1606 39.6912 49.0325 39.8493 48.0637L35.9016 47.4192C35.6245 49.1168 35.8126 50.8226 36.266 52.7776C36.7141 54.7097 37.4643 57.0514 38.4138 60.0215L42.2239 58.8035ZM39.6548 40.1387C37.6664 42.1084 36.3525 44.657 35.9016 47.4192L39.8493 48.0637C40.1642 46.1351 41.0815 44.3557 42.4698 42.9805L39.6548 40.1387ZM120.044 31.6288L92.3538 40.481L93.5719 44.2911L121.262 35.4388L120.044 31.6288ZM92.3538 40.481C88.9661 41.564 85.3417 39.6957 84.2587 36.3079L80.4487 37.5259C82.2044 43.0179 88.0799 46.0468 93.5719 44.2911L92.3538 40.481ZM124.217 23.5336C125.3 26.9214 123.432 30.5457 120.044 31.6288L121.262 35.4388C126.754 33.6831 129.783 27.8076 128.027 22.3156L124.217 23.5336Z" fill="#012AFF"/>
<path d="M141.727 124.466L141.728 124.467C149.47 134.747 150.664 148.79 144.769 160.222L144.769 160.222C140.64 168.231 133.646 174.145 125.063 176.889L125.063 176.889C120.908 178.217 116.629 178.716 112.411 178.418L111.056 178.322L110.468 179.547L80.8793 241.126L59.3969 230.038L89.0255 168.372L89.5789 167.22L88.7662 166.234C86.0775 162.971 84.0001 159.196 82.6724 155.043C79.9288 146.461 80.6914 137.335 84.8223 129.326L84.8224 129.326C88.9515 121.318 95.9443 115.403 104.529 112.659C108.16 111.498 111.924 110.961 115.719 111.061C116.327 111.078 116.884 111.405 117.194 111.929C117.503 112.452 117.522 113.097 117.243 113.639C117.243 113.639 117.243 113.639 117.243 113.639L107.374 132.775L106.457 134.553L108.236 135.47L126.181 144.719L127.958 145.635L128.875 143.858L138.743 124.721L138.744 124.721C139.022 124.181 139.559 123.821 140.165 123.769C140.773 123.718 141.363 123.982 141.727 124.466Z" stroke="#012AFF" stroke-width="4"/>
</svg>
