<svg width="108" height="105" viewBox="0 0 108 105" fill="none" xmlns="http://www.w3.org/2000/svg">
<path d="M28.6222 2.7312L28.7797 1.23949L28.7797 1.23949L28.6222 2.7312ZM88.5912 9.06259L88.4337 10.5543L88.5912 9.06259ZM16.9919 12.0924L18.4765 12.3068L18.4804 12.2798L18.4834 12.2526L16.9919 12.0924ZM95.4351 10.5065L96.2515 9.24812L96.2515 9.24812L95.4351 10.5065ZM97.972 20.6421L99.4634 20.8023L99.4634 20.8023L97.972 20.6421ZM97.9973 13.6693L96.5966 14.2059L96.5966 14.2059L97.9973 13.6693ZM21.6251 2.71381L21.0905 1.3123L21.6251 2.71381ZM18.4485 5.27069L19.7039 6.09166L19.7039 6.09166L18.4485 5.27069ZM48.447 84.1808L47.467 85.3164L48.447 84.1808ZM46.4915 59.3378L46.1673 57.8733L46.4915 59.3378ZM64.7708 16.7131L64.5936 18.2026L64.7708 16.7131ZM49.0315 14.8412L49.2087 13.3517L49.0315 14.8412ZM28.4647 4.22291L88.4337 10.5543L88.7487 7.57088L28.7797 1.23949L28.4647 4.22291ZM3.38071 116.852L18.4765 12.3068L15.5073 11.8781L0.411505 116.423L3.38071 116.852ZM88.4337 10.5543C90.2968 10.751 91.6047 10.8902 92.616 11.081C93.6103 11.2686 94.1867 11.4846 94.6186 11.7648L96.2515 9.24812C95.3555 8.66681 94.3485 8.35497 93.1722 8.13304C92.0129 7.91434 90.5627 7.7624 88.7487 7.57088L88.4337 10.5543ZM99.4634 20.8023C99.6576 18.9947 99.8141 17.5489 99.8437 16.3725C99.8739 15.1785 99.78 14.1298 99.398 13.1326L96.5966 14.2059C96.7798 14.6841 96.8701 15.2895 96.8447 16.2968C96.8188 17.3218 96.68 18.6249 96.4806 20.4819L99.4634 20.8023ZM94.6186 11.7648C95.521 12.3503 96.2131 13.205 96.5966 14.2059L99.398 13.1326C98.787 11.5379 97.6852 10.1783 96.2515 9.24812L94.6186 11.7648ZM28.7797 1.23949C26.9656 1.04796 25.5157 0.893724 24.336 0.865484C23.1388 0.836825 22.0889 0.931499 21.0905 1.3123L22.1597 4.11531C22.6425 3.93115 23.2525 3.8404 24.2642 3.86462C25.2935 3.88926 26.6015 4.0262 28.4647 4.22291L28.7797 1.23949ZM18.4834 12.2526C18.6829 10.3955 18.824 9.09269 19.0164 8.08529C19.2056 7.09535 19.4226 6.52182 19.7039 6.09166L17.1931 4.44972C16.6084 5.34384 16.294 6.34869 16.0697 7.52232C15.8489 8.67848 15.6947 10.1244 15.5005 11.9322L18.4834 12.2526ZM21.0905 1.3123C19.4928 1.92173 18.1283 3.01967 17.1931 4.44972L19.7039 6.09166C20.2922 5.19197 21.1517 4.4998 22.1597 4.11531L21.0905 1.3123ZM96.4806 20.4819L89.5024 85.443L92.4853 85.7634L99.4634 20.8023L96.4806 20.4819ZM67.4116 105.923C64.9036 100.639 57.5324 90.0393 49.4269 83.0451L47.467 85.3164C55.2481 92.0307 62.3674 102.292 64.7013 107.21L67.4116 105.923ZM49.4269 83.0451C44.966 79.1958 42.4183 73.8395 42.0236 69.3073C41.8267 67.0454 42.1728 65.0873 42.9726 63.6331C43.7501 62.2196 44.9923 61.206 46.8157 60.8024L46.1673 57.8733C43.4818 58.4677 41.5279 60.035 40.344 62.1873C39.1825 64.299 38.8019 66.8917 39.035 69.5676C39.5003 74.9109 42.4393 80.978 47.467 85.3164L49.4269 83.0451ZM46.8157 60.8024C48.2379 60.4876 50.2301 60.7807 52.8471 61.9797C55.439 63.1672 58.4838 65.1704 61.9224 68.02C68.7956 73.7158 77.0694 82.6473 86.2213 94.6966L88.6103 92.8821C79.382 80.7322 70.9514 71.6061 63.8366 65.71C60.2811 62.7636 57.0108 60.5874 54.0967 59.2523C51.2078 57.9288 48.503 57.3563 46.1673 57.8733L46.8157 60.8024ZM93.2139 57.5504C95.246 61.1887 99.6595 69.0111 103.521 77.1804C105.452 81.2657 107.232 85.4098 108.504 89.1403C109.79 92.9121 110.502 96.1047 110.423 98.3466L113.421 98.4522C113.52 95.6361 112.652 92.01 111.344 88.172C110.021 84.2926 108.189 80.0356 106.233 75.8983C102.321 67.6221 97.8575 59.7121 95.8331 56.0876L93.2139 57.5504ZM64.9479 15.2236L49.2087 13.3517L48.8544 16.3307L64.5936 18.2026L64.9479 15.2236ZM49.2087 13.3517C47.5076 13.1494 46.2927 11.6065 46.495 9.90545L43.516 9.55115C43.118 12.8974 45.5081 15.9327 48.8544 16.3307L49.2087 13.3517ZM68.3942 12.5099C68.1918 14.211 66.6489 15.4259 64.9479 15.2236L64.5936 18.2026C67.9399 18.6006 70.9752 16.2105 71.3732 12.8642L68.3942 12.5099Z" fill="#012AFF"/>
</svg>
