<svg width="117" height="117" viewBox="0 0 117 117" fill="none" xmlns="http://www.w3.org/2000/svg">
<path d="M94.5078 54.2088H59.9303C58.7839 54.2088 57.6846 53.7535 56.874 52.9432C56.0634 52.1329 55.6081 51.0339 55.6081 49.8879V15.3209C55.6081 14.1749 56.0634 13.0759 56.874 12.2656C57.6846 11.4552 58.7839 11 59.9303 11C70.2433 11.0126 80.1303 15.1137 87.4227 22.4039C94.715 29.6941 98.8174 39.578 98.83 49.8879C98.83 51.0339 98.3747 52.1329 97.5641 52.9432C96.7535 53.7535 95.6541 54.2088 94.5078 54.2088Z" stroke="#FFC200" stroke-width="2"/>
<path d="M104.678 61.5797C105.822 61.5811 106.92 62.0364 107.729 62.8457C108.131 63.2465 108.451 63.7225 108.669 64.2467C108.887 64.7709 108.999 65.3329 109 65.9005C109.012 71.0099 108.01 76.0709 106.053 80.7908C104.096 85.5107 101.222 89.7959 97.5979 93.3986C96.7874 94.2086 95.6882 94.6637 94.5422 94.6637C93.3961 94.6637 92.2969 94.2086 91.4864 93.3986L67.0443 68.9554C66.4401 68.3511 66.0286 67.5813 65.8619 66.7433C65.6952 65.9052 65.7807 65.0366 66.1078 64.2472C66.4349 63.4577 66.9887 62.783 67.6993 62.3082C68.4099 61.8334 69.2454 61.5799 70.1001 61.5797H104.678Z" stroke="#FFC200" stroke-width="2"/>
<path d="M46.9637 26.8027V59.2827L72.2096 84.5166C72.6332 84.9405 72.9639 85.4478 73.1808 86.0063C73.3977 86.5647 73.4961 87.1622 73.4697 87.7607C73.4433 88.3593 73.2926 88.9458 73.0273 89.483C72.7621 90.0202 72.3879 90.4964 71.9287 90.8813C67.2959 94.774 61.8186 97.5324 55.9321 98.9372C50.0457 100.342 43.9126 100.354 38.0205 98.9734C32.1285 97.5924 26.64 94.8562 21.9915 90.9823C17.3431 87.1083 13.6628 82.2036 11.2435 76.6581C8.82424 71.1126 7.73258 65.0792 8.05538 59.0379C8.37818 52.9965 10.1065 47.1137 13.103 41.8574C16.0995 36.6011 20.2814 32.1162 25.3162 28.7593C30.351 25.4025 36.0998 23.2663 42.1055 22.5207C42.7134 22.4403 43.3314 22.4916 43.9177 22.6713C44.5039 22.851 45.0445 23.1548 45.5028 23.562C45.9622 23.9677 46.3301 24.4665 46.582 25.0252C46.8339 25.5839 46.964 26.1898 46.9637 26.8027Z" stroke="#FFC200" stroke-width="2"/>
</svg>
