<svg width="117" height="117" viewBox="0 0 117 117" fill="none" xmlns="http://www.w3.org/2000/svg">
<path d="M62.6363 66.7727H46.091M62.6363 75.0453H75.0453M50.2273 75.0453H54.3637M75.0453 66.7727H70.909M58.5 13V21.2727M70.909 13V21.2727M46.091 13V21.2727M58.5 95.7274V104M70.909 95.7274V104M46.091 95.7274V104M104 58.5H95.7274M104 70.909H95.7274M104 46.091H95.7274M21.2727 58.5H13M21.2727 70.909H13M21.2727 46.091H13M29.5453 72.9772L44.0229 87.4547H72.9772L87.4547 72.9772V44.0229L72.9772 29.5453H44.0229L29.5453 44.0229V72.9772ZM95.7274 21.2727H21.2727V95.7274H95.7274V21.2727Z" stroke="#FFC200" stroke-width="2" stroke-miterlimit="10" stroke-linecap="round" stroke-linejoin="round"/>
</svg>
