<svg width="52" height="52" viewBox="0 0 52 52" fill="none" xmlns="http://www.w3.org/2000/svg">
<path d="M29.1304 45.8265H2V2H24.9565M24.9565 2L35.3913 12.4349M24.9565 2L24.9565 12.4349L35.3913 12.4349M35.3913 12.4349V15.5653M45.488 35.5394L47.913 50L40.6087 44.7826L33.3043 50L35.7711 35.5644M10.3478 18.6958H18.6957M10.3478 24.9567H22.8696M10.3478 31.2176H22.8696M10.3478 37.4786H22.8696M50 32.7829L40.6087 38.5221L31.2174 32.7829V23.3915L40.6087 17.6523L50 23.3915V32.7829ZM40.6087 33.3046L45.8261 28.0872L43.7391 24.9567L40.6087 27.0437L37.4783 24.9567L35.3913 28.0872L40.6087 33.3046Z" stroke="#FFC200" stroke-width="3" stroke-miterlimit="10" stroke-linecap="round" stroke-linejoin="round"/>
</svg>
