<svg width="14" height="18" viewBox="0 0 14 18" fill="none" xmlns="http://www.w3.org/2000/svg">
<path d="M11.1666 7.33333V2.83333C11.1666 2.36662 11.1666 2.13327 11.0758 1.95501C10.9959 1.79821 10.8685 1.67072 10.7116 1.59082C10.5334 1.5 10.3 1.5 9.83329 1.5H4.16663C3.69992 1.5 3.46656 1.5 3.2883 1.59082C3.1315 1.67072 3.00402 1.79821 2.92412 1.95501C2.83329 2.13327 2.83329 2.36662 2.83329 2.83333V7.33333M5.74996 4.83333V4M8.24996 4.83333V4M6.49996 16.5H7.49996C9.36679 16.5 10.3002 16.5 11.0133 16.1367C11.6405 15.8171 12.1504 15.3072 12.47 14.68C12.8333 13.9669 12.8333 13.0335 12.8333 11.1667V8.66667C12.8333 8.19992 12.8333 7.96658 12.7425 7.78833C12.6625 7.6315 12.5351 7.50408 12.3783 7.42417C12.2 7.33333 11.9667 7.33333 11.5 7.33333H2.49996C2.03325 7.33333 1.79989 7.33333 1.62163 7.42417C1.46483 7.50408 1.33735 7.6315 1.25745 7.78833C1.16663 7.96658 1.16663 8.19992 1.16663 8.66667V11.1667C1.16663 13.0335 1.16663 13.9669 1.52993 14.68C1.84952 15.3072 2.35945 15.8171 2.98666 16.1367C3.69969 16.5 4.63312 16.5 6.49996 16.5Z" stroke="#002024" stroke-width="1.5" stroke-linecap="round" stroke-linejoin="round"/>
</svg>
