<svg width="20" height="20" viewBox="0 0 20 20" fill="none" xmlns="http://www.w3.org/2000/svg">
<path d="M13.125 16.875V16.125C12.8409 16.125 12.5812 16.2855 12.4542 16.5396L13.125 16.875ZM18.125 16.875L18.7958 16.5396C18.6688 16.2855 18.4091 16.125 18.125 16.125V16.875ZM19.375 19.375V20.125C19.6349 20.125 19.8763 19.9904 20.013 19.7693C20.1496 19.5482 20.1621 19.2721 20.0458 19.0396L19.375 19.375ZM11.875 19.375L11.2042 19.0396C11.0879 19.2721 11.1004 19.5482 11.237 19.7693C11.3737 19.9904 11.6151 20.125 11.875 20.125V19.375ZM0.991117 19.0089L1.52145 18.4786L1.52144 18.4786L0.991117 19.0089ZM9.70975 4.04029L10.2401 3.50998L10.2401 3.50995L9.70975 4.04029ZM13.4911 0.991117L14.0214 1.52145L14.0214 1.52144L13.4911 0.991117ZM15.2589 0.991117L14.7286 1.52144L14.7286 1.52145L15.2589 0.991117ZM14.875 16.875C14.875 17.2892 15.2108 17.625 15.625 17.625C16.0392 17.625 16.375 17.2892 16.375 16.875H14.875ZM0.625 16.125C0.210786 16.125 -0.125 16.4608 -0.125 16.875C-0.125 17.2892 0.210786 17.625 0.625 17.625V16.125ZM8.125 17.625C8.53921 17.625 8.875 17.2892 8.875 16.875C8.875 16.4608 8.53921 16.125 8.125 16.125V17.625ZM13.125 17.625H18.125V16.125H13.125V17.625ZM17.4542 17.2104L18.7042 19.7104L20.0458 19.0396L18.7958 16.5396L17.4542 17.2104ZM19.375 18.625H11.875V20.125H19.375V18.625ZM12.5458 19.7104L13.7958 17.2104L12.4542 16.5396L11.2042 19.0396L12.5458 19.7104ZM8.875 13.125C8.875 11.9315 8.40089 10.7869 7.55698 9.943L6.49632 11.0037C7.05892 11.5663 7.375 12.3293 7.375 13.125H8.875ZM7.55698 9.943C6.71306 9.0991 5.56847 8.625 4.375 8.625V10.125C5.17065 10.125 5.93372 10.4411 6.49632 11.0037L7.55698 9.943ZM4.375 8.625C3.18153 8.625 2.03694 9.0991 1.19302 9.943L2.25368 11.0037C2.81628 10.4411 3.57935 10.125 4.375 10.125V8.625ZM1.19302 9.943C0.349107 10.7869 -0.125 11.9315 -0.125 13.125H1.375C1.375 12.3293 1.69108 11.5663 2.25368 11.0037L1.19302 9.943ZM-0.125 13.125V18.125H1.375V13.125H-0.125ZM-0.125 18.125C-0.125 18.6554 0.0856916 19.1642 0.460791 19.5393L1.52144 18.4786C1.4277 18.3848 1.375 18.2576 1.375 18.125H-0.125ZM0.460787 19.5392C0.835891 19.9144 1.34462 20.125 1.875 20.125V18.625C1.74235 18.625 1.61518 18.5723 1.52145 18.4786L0.460787 19.5392ZM1.875 20.125H6.875V18.625H1.875V20.125ZM6.875 20.125C7.40538 20.125 7.91411 19.9144 8.28921 19.5392L7.22855 18.4786C7.13482 18.5723 7.00765 18.625 6.875 18.625V20.125ZM8.28921 19.5392C8.6643 19.1642 8.875 18.6554 8.875 18.125H7.375C7.375 18.2576 7.3223 18.3848 7.22855 18.4786L8.28921 19.5392ZM8.875 18.125V13.125H7.375V18.125H8.875ZM5.125 9.375V6.25H3.625V9.375H5.125ZM5.125 6.25C5.125 5.62011 5.37522 5.01602 5.82062 4.57062L4.75996 3.50996C4.03326 4.23666 3.625 5.22229 3.625 6.25H5.125ZM5.82062 4.57062C6.26602 4.12522 6.87011 3.875 7.5 3.875V2.375C6.47229 2.375 5.48666 2.78326 4.75996 3.50996L5.82062 4.57062ZM7.5 3.875C8.12989 3.875 8.734 4.12522 9.17943 4.57064L10.2401 3.50995C9.51334 2.78326 8.52771 2.375 7.5 2.375V3.875ZM9.1794 4.5706C9.62477 5.01601 9.875 5.62011 9.875 6.25H11.375C11.375 5.22229 10.9667 4.23668 10.2401 3.50998L9.1794 4.5706ZM9.875 6.25V11.875H11.375V6.25H9.875ZM9.875 11.875C9.875 12.4053 10.0856 12.9141 10.4608 13.2892L11.5214 12.2286C11.4277 12.1349 11.375 12.0077 11.375 11.875H9.875ZM10.4608 13.2892C10.8359 13.6644 11.3447 13.875 11.875 13.875V12.375C11.7423 12.375 11.6151 12.3223 11.5214 12.2286L10.4608 13.2892ZM11.875 13.875C12.4053 13.875 12.9141 13.6644 13.2892 13.2892L12.2286 12.2286C12.1349 12.3223 12.0077 12.375 11.875 12.375V13.875ZM13.2892 13.2892C13.6644 12.9141 13.875 12.4053 13.875 11.875H12.375C12.375 12.0077 12.3223 12.1349 12.2286 12.2286L13.2892 13.2892ZM13.875 11.875V1.875H12.375V11.875H13.875ZM13.875 1.875C13.875 1.74235 13.9277 1.61518 14.0214 1.52145L12.9608 0.460787C12.5856 0.835891 12.375 1.34462 12.375 1.875H13.875ZM14.0214 1.52144C14.1152 1.4277 14.2424 1.375 14.375 1.375V-0.125C13.8446 -0.125 13.3358 0.0856916 12.9607 0.460791L14.0214 1.52144ZM14.375 1.375C14.5076 1.375 14.6348 1.4277 14.7286 1.52144L15.7893 0.460791C15.4142 0.0856916 14.9054 -0.125 14.375 -0.125V1.375ZM14.7286 1.52145C14.8223 1.61518 14.875 1.74235 14.875 1.875H16.375C16.375 1.34462 16.1644 0.835891 15.7892 0.460787L14.7286 1.52145ZM14.875 1.875V16.875H16.375V1.875H14.875ZM0.625 17.625H8.125V16.125H0.625V17.625ZM4.375 14.1875C4.96182 14.1875 5.4375 13.7118 5.4375 13.125H3.9375C3.9375 12.8834 4.13336 12.6875 4.375 12.6875V14.1875ZM5.4375 13.125C5.4375 12.5382 4.96182 12.0625 4.375 12.0625V13.5625C4.13336 13.5625 3.9375 13.3666 3.9375 13.125H5.4375Z" fill="#0ed5ff"/>
</svg>
