<svg width="20" height="20" viewBox="0 0 20 20" fill="none" xmlns="http://www.w3.org/2000/svg">
<path d="M5.20052 18.7385V15.2385C3.45052 14.2302 2.17552 12.5635 1.67552 10.6052C0.650519 6.59685 3.06719 2.51352 7.07552 1.48852C8.57404 1.1885 9.39204 1.20988 10.8171 1.41344C12.5122 1.75859 13.9775 2.6386 14.9866 3.78907M12.7005 18.7384V16.8718L13.5421 17.0134C14.9005 17.2384 16.1921 16.3218 16.4171 14.9551C16.4421 14.8218 16.4505 14.6801 16.4505 14.5468V12.4968L17.2255 12.3051C17.8921 12.1384 18.3005 11.4551 18.1338 10.7884C18.1005 10.6468 17.773 9.96092 17.6897 9.84425M8.02982 6.82772C8.02982 5.16468 9.37796 3.81653 11.041 3.81653H17.7267C18.187 3.81653 18.56 4.18963 18.56 4.64986V9.00558C18.56 9.46583 18.187 9.83892 17.7267 9.83892H11.041C9.37796 9.83892 8.02982 8.49075 8.02982 6.82772ZM8.02982 6.82772L1.71879 6.8278M15.5746 9.83883V3.81653" stroke="#0ed5ff" stroke-width="1.5" stroke-linecap="round" stroke-linejoin="round"/>
</svg>
