<svg width="131" height="220" viewBox="0 0 131 220" fill="none" xmlns="http://www.w3.org/2000/svg">
<path d="M267.561 172.012L298.691 198.122L332.013 180.28L314.463 211.562L343.834 242.394L301.277 234.98L283.706 274.23L274.505 233.025L238.713 230.237L272.034 212.395L267.561 172.012Z" stroke="#145BE6" stroke-width="2" stroke-miterlimit="10" stroke-linecap="round" stroke-linejoin="round"/>
<path d="M134.276 243.379L165.406 269.489L198.727 251.647L181.177 282.929L210.549 313.761L167.992 306.347L150.42 345.597L141.22 304.392L105.427 301.604L138.749 283.762L134.276 243.379Z" stroke="#145BE6" stroke-width="2" stroke-miterlimit="10" stroke-linecap="round" stroke-linejoin="round"/>
<path d="M30.2051 145.104L61.335 171.213L94.6565 153.371L77.1064 184.653L106.478 215.486L63.9209 208.072L46.3498 247.321L37.149 206.116L1.3565 203.328L34.6779 185.487L30.2051 145.104Z" stroke="#145BE6" stroke-width="2" stroke-miterlimit="10" stroke-linecap="round" stroke-linejoin="round"/>
<path d="M90.55 1.57054L121.68 27.6798L155.001 9.83807L137.451 41.1199L166.823 71.9526L124.266 64.5385L106.687 103.775L97.4939 62.5829L61.7014 59.795L95.0228 41.9533L90.55 1.57054Z" stroke="#145BE6" stroke-width="2" stroke-miterlimit="10" stroke-linecap="round" stroke-linejoin="round"/>
<path d="M243.462 30.9165L274.592 57.0258L307.914 39.184L290.363 70.4658L319.735 101.298L277.178 93.8844L259.607 133.134L250.406 91.9288L214.614 89.141L247.935 71.2992L243.462 30.9165Z" stroke="#145BE6" stroke-width="2" stroke-miterlimit="10" stroke-linecap="round" stroke-linejoin="round"/>
</svg>
