<svg width="189" height="184" viewBox="0 0 189 184" fill="none" xmlns="http://www.w3.org/2000/svg">
<path d="M128.664 86.4475C128.901 85.9488 128.689 85.3522 128.19 85.1149C127.691 84.8776 127.095 85.0896 126.858 85.5883L128.664 86.4475ZM105.648 132.494L105.672 133.494C106.049 133.485 106.389 133.265 106.551 132.924L105.648 132.494ZM91.5072 132.833L90.5084 132.783C90.4947 133.061 90.5971 133.332 90.7911 133.531C90.9851 133.73 91.2532 133.839 91.5311 133.832L91.5072 132.833ZM94.3984 74.4537L93.6746 73.7637C93.5091 73.9373 93.4115 74.1647 93.3996 74.4042L94.3984 74.4537ZM108.201 59.9745L107.862 59.0337C107.716 59.0863 107.584 59.1722 107.477 59.2845L108.201 59.9745ZM141.996 47.8044L142.335 48.7453C142.418 48.7152 142.498 48.674 142.57 48.623L141.996 47.8044ZM164.345 32.1207L165.035 31.3969C164.69 31.068 164.16 31.0283 163.77 31.3022L164.345 32.1207ZM214.728 80.1507L215.598 80.6446C215.824 80.2456 215.75 79.7435 215.418 79.4269L214.728 80.1507ZM203.825 99.348L204.549 100.038C204.606 99.9788 204.655 99.9129 204.695 99.8418L203.825 99.348ZM168.919 134.516C168.538 134.916 168.553 135.549 168.953 135.93C169.352 136.311 169.985 136.296 170.367 135.896L168.919 134.516ZM104.426 188.098L104.402 187.098C104.202 187.103 104.008 187.168 103.845 187.284L104.426 188.098ZM164.253 186.66L164.277 187.66C164.602 187.652 164.903 187.487 165.084 187.218L164.253 186.66ZM174.603 171.241L175.433 171.799C175.669 171.447 175.658 170.985 175.405 170.645L174.603 171.241ZM163.529 156.334L162.698 155.777C162.462 156.128 162.474 156.59 162.726 156.93L163.529 156.334ZM173.869 140.906L174.7 141.463C174.936 141.112 174.924 140.65 174.672 140.31L173.869 140.906ZM162.802 125.992L161.972 125.434C161.736 125.786 161.747 126.248 161.999 126.587L162.802 125.992ZM173.144 110.58L173.974 111.138C174.21 110.786 174.199 110.324 173.947 109.984L173.144 110.58ZM162.077 95.6656L162.88 95.0697C162.686 94.8087 162.378 94.6581 162.053 94.6659L162.077 95.6656ZM64.5564 97.9979L64.5325 96.9982C64.128 97.0078 63.7692 97.2603 63.6235 97.6377L64.5564 97.9979ZM49.4494 137.126L50.2945 137.66C50.3294 137.605 50.3588 137.547 50.3823 137.486L49.4494 137.126ZM23.225 149.115L23.915 148.391C23.5152 148.01 22.8823 148.025 22.5012 148.425L23.225 149.115ZM1.0573 172.369L0.333491 171.679C-0.0475845 172.079 -0.0324462 172.712 0.367303 173.093L1.0573 172.369ZM70.8193 238.872L70.1293 239.596C70.529 239.977 71.162 239.962 71.5431 239.562L70.8193 238.872ZM92.987 215.618L93.7108 216.308C94.0918 215.908 94.0767 215.275 93.677 214.894L92.987 215.618ZM178.761 1.47747L179.451 0.75366C179.051 0.372584 178.418 0.387717 178.037 0.787472L178.761 1.47747ZM156.593 24.7315L155.869 24.0415C155.488 24.4412 155.504 25.0742 155.903 25.4553L156.593 24.7315ZM226.355 91.2346L225.665 91.9584C226.065 92.3394 226.698 92.3243 227.079 91.9246L226.355 91.2346ZM248.523 67.9806L249.247 68.6706C249.628 68.2708 249.613 67.6378 249.213 67.2567L248.523 67.9806ZM126.858 85.5883L104.745 132.065L106.551 132.924L128.664 86.4475L126.858 85.5883ZM105.624 131.495L91.4833 131.833L91.5311 133.832L105.672 133.494L105.624 131.495ZM92.506 132.882L95.3972 74.5032L93.3996 74.4042L90.5084 132.783L92.506 132.882ZM95.1222 75.1437L108.925 60.6645L107.477 59.2845L93.6746 73.7637L95.1222 75.1437ZM108.54 60.9154L142.335 48.7453L141.657 46.8636L107.862 59.0337L108.54 60.9154ZM142.57 48.623L164.919 32.9393L163.77 31.3022L141.421 46.9859L142.57 48.623ZM163.655 32.8445L214.038 80.8745L215.418 79.4269L165.035 31.3969L163.655 32.8445ZM213.859 79.6569L202.956 98.8541L204.695 99.8418L215.598 80.6446L213.859 79.6569ZM203.102 98.658L168.919 134.516L170.367 135.896L204.549 100.038L203.102 98.658ZM81.9403 205.348L105.006 188.913L103.845 187.284L80.7797 203.72L81.9403 205.348ZM104.45 189.098L164.277 187.66L164.229 185.661L104.402 187.098L104.45 189.098ZM165.084 187.218L175.433 171.799L173.772 170.684L163.423 186.103L165.084 187.218ZM175.405 170.645L164.331 155.737L162.726 156.93L173.8 171.838L175.405 170.645ZM164.359 156.89L174.7 141.463L173.039 140.349L162.698 155.777L164.359 156.89ZM174.672 140.31L163.605 125.396L161.999 126.587L173.066 141.502L174.672 140.31ZM163.633 126.549L173.974 111.138L172.314 110.023L161.972 125.434L163.633 126.549ZM173.947 109.984L162.88 95.0697L161.274 96.2615L172.341 111.176L173.947 109.984ZM162.053 94.6659L122.703 95.607L122.751 97.6064L162.101 96.6653L162.053 94.6659ZM93.2393 96.3116L64.5325 96.9982L64.5803 98.9976L93.2871 98.3111L93.2393 96.3116ZM63.6235 97.6377L48.5165 136.766L50.3823 137.486L65.4892 98.3581L63.6235 97.6377ZM48.6043 136.591L34.0069 159.664L35.6971 160.733L50.2945 137.66L48.6043 136.591ZM22.5012 148.425L0.333491 171.679L1.78111 173.059L23.9488 149.805L22.5012 148.425ZM0.367303 173.093L70.1293 239.596L71.5093 238.148L1.7473 171.645L0.367303 173.093ZM71.5431 239.562L93.7108 216.308L92.2631 214.928L70.0954 238.182L71.5431 239.562ZM93.677 214.894L23.915 148.391L22.535 149.839L92.297 216.342L93.677 214.894ZM178.037 0.787472L155.869 24.0415L157.317 25.4215L179.485 2.16747L178.037 0.787472ZM155.903 25.4553L225.665 91.9584L227.045 90.5107L157.283 24.0077L155.903 25.4553ZM227.079 91.9246L249.247 68.6706L247.799 67.2906L225.631 90.5446L227.079 91.9246ZM249.213 67.2567L179.451 0.75366L178.071 2.20128L247.833 68.7044L249.213 67.2567Z" fill="#145BE6"/>
</svg>
