<svg width="116" height="238" viewBox="0 0 116 238" fill="none" xmlns="http://www.w3.org/2000/svg">
<path d="M267.29 171.514L298.42 197.623L331.741 179.781L314.191 211.063L343.563 241.896L301.006 234.482L283.435 273.731L274.234 232.526L238.441 229.738L271.763 211.897L267.29 171.514Z" stroke="#145BE6" stroke-width="2" stroke-miterlimit="10" stroke-linecap="round" stroke-linejoin="round"/>
<path d="M134.004 242.881L165.134 268.99L198.456 251.148L180.906 282.43L210.277 313.263L167.72 305.849L150.149 345.099L140.948 303.893L105.156 301.105L138.477 283.264L134.004 242.881Z" stroke="#145BE6" stroke-width="2" stroke-miterlimit="10" stroke-linecap="round" stroke-linejoin="round"/>
<path d="M29.9336 144.605L61.0636 170.715L94.385 152.873L76.8349 184.155L106.206 214.987L63.6494 207.573L46.0783 246.823L36.8775 205.618L1.08501 202.83L34.4064 184.988L29.9336 144.605Z" stroke="#145BE6" stroke-width="2" stroke-miterlimit="10" stroke-linecap="round" stroke-linejoin="round"/>
<path d="M90.2785 1.07213L121.408 27.1814L154.73 9.33966L137.18 40.6215L166.551 71.4542L123.994 64.0401L106.416 103.276L97.2224 62.0845L61.4299 59.2966L94.7513 41.4548L90.2785 1.07213Z" stroke="#145BE6" stroke-width="2" stroke-miterlimit="10" stroke-linecap="round" stroke-linejoin="round"/>
<path d="M243.191 30.4181L274.321 56.5274L307.642 38.6856L290.092 69.9674L319.464 100.8L276.907 93.386L259.335 132.636L250.135 91.4304L214.342 88.6425L247.664 70.8008L243.191 30.4181Z" stroke="#145BE6" stroke-width="2" stroke-miterlimit="10" stroke-linecap="round" stroke-linejoin="round"/>
</svg>
