<svg width="153" height="198" viewBox="0 0 153 198" fill="none" xmlns="http://www.w3.org/2000/svg">
<path d="M116.554 88.3482C116.743 87.8293 116.476 87.2553 115.957 87.0661C115.438 86.8769 114.864 87.1442 114.675 87.663L116.554 88.3482ZM98.5006 134.94L98.6186 135.933C98.9932 135.888 99.3109 135.637 99.4401 135.282L98.5006 134.94ZM84.867 136.561L83.8681 136.606C83.8805 136.883 84.008 137.143 84.22 137.323C84.4319 137.503 84.7091 137.587 84.9851 137.554L84.867 136.561ZM82.3181 79.8843L81.5324 79.2656C81.384 79.4541 81.3083 79.6896 81.3191 79.9292L82.3181 79.8843ZM94.3307 64.6298L93.9046 63.7251C93.7642 63.7912 93.6411 63.8892 93.545 64.0111L94.3307 64.6298ZM125.873 49.7769L126.299 50.6816C126.379 50.6438 126.454 50.5954 126.522 50.5377L125.873 49.7769ZM146.033 32.5764L146.652 31.7907C146.277 31.4958 145.747 31.5062 145.384 31.8156L146.033 32.5764ZM199.115 74.3769L200.027 74.7866C200.215 74.368 200.094 73.8752 199.733 73.5913L199.115 74.3769ZM190.336 93.9252L191.122 94.5438C191.172 94.4796 191.215 94.4094 191.248 94.3348L190.336 93.9252ZM159.801 131.084C159.46 131.518 159.534 132.147 159.968 132.489C160.402 132.83 161.031 132.756 161.373 132.322L159.801 131.084ZM102.408 188.782L102.29 187.789C102.092 187.812 101.905 187.895 101.754 188.026L102.408 188.782ZM160.088 181.917L160.206 182.91C160.529 182.872 160.813 182.679 160.967 182.394L160.088 181.917ZM168.678 166.07L169.557 166.547C169.759 166.175 169.704 165.716 169.421 165.401L168.678 166.07ZM156.613 152.679L155.733 152.203C155.532 152.575 155.586 153.034 155.87 153.348L156.613 152.679ZM165.193 136.825L166.072 137.301C166.274 136.929 166.219 136.47 165.936 136.156L165.193 136.825ZM153.134 123.425L152.255 122.949C152.053 123.321 152.107 123.78 152.39 124.094L153.134 123.425ZM161.717 107.587L162.596 108.063C162.797 107.691 162.743 107.233 162.46 106.918L161.717 107.587ZM149.658 94.1876L150.401 93.5187C150.183 93.2771 149.862 93.1563 149.539 93.1946L149.658 94.1876ZM55.6363 105.366L55.5183 104.373C55.1165 104.421 54.7831 104.706 54.6736 105.096L55.6363 105.366ZM44.6193 144.558L45.511 145.011C45.5406 144.953 45.5643 144.892 45.582 144.829L44.6193 144.558ZM20.3758 158.543L20.9945 157.758C20.5606 157.416 19.9318 157.491 19.5901 157.925L20.3758 158.543ZM1.0832 183.043L0.297551 182.424C-0.0441354 182.858 0.0306181 183.487 0.464518 183.828L1.0832 183.043ZM74.5808 240.92L73.9621 241.706C74.396 242.048 75.0247 241.973 75.3664 241.539L74.5808 240.92ZM93.8733 216.421L94.659 217.04C95.0007 216.606 94.9259 215.977 94.492 215.635L93.8733 216.421ZM157.159 1.64628L157.778 0.86064C157.344 0.518953 156.715 0.593713 156.374 1.02761L157.159 1.64628ZM137.867 26.1455L137.081 25.5268C136.739 25.9607 136.814 26.5895 137.248 26.9311L137.867 26.1455ZM211.364 84.0232L210.746 84.8089C211.18 85.1506 211.808 85.0758 212.15 84.6419L211.364 84.0232ZM230.657 59.524L231.443 60.1427C231.784 59.7088 231.71 59.0801 231.276 58.7384L230.657 59.524ZM114.675 87.663L97.5611 134.597L99.4401 135.282L116.554 88.3482L114.675 87.663ZM98.3825 133.947L84.749 135.568L84.9851 137.554L98.6186 135.933L98.3825 133.947ZM85.866 136.516L83.3171 79.8394L81.3191 79.9292L83.8681 136.606L85.866 136.516ZM83.1037 80.503L95.1163 65.2485L93.545 64.0111L81.5324 79.2656L83.1037 80.503ZM94.7567 65.5345L126.299 50.6816L125.447 48.8722L93.9046 63.7251L94.7567 65.5345ZM126.522 50.5377L146.682 33.3371L145.384 31.8156L125.224 49.0162L126.522 50.5377ZM145.415 33.362L198.496 75.1626L199.733 73.5913L146.652 31.7907L145.415 33.362ZM198.203 73.9673L189.424 93.5155L191.248 94.3348L200.027 74.7866L198.203 73.9673ZM189.551 93.3065L159.801 131.084L161.373 132.322L191.122 94.5438L189.551 93.3065ZM82.2783 207.531L103.063 189.538L101.754 188.026L80.9692 206.019L82.2783 207.531ZM102.526 189.775L160.206 182.91L159.97 180.924L102.29 187.789L102.526 189.775ZM160.967 182.394L169.557 166.547L167.798 165.594L159.209 181.441L160.967 182.394ZM169.421 165.401L157.356 152.009L155.87 153.348L167.935 166.74L169.421 165.401ZM157.492 153.155L166.072 137.301L164.313 136.349L155.733 152.203L157.492 153.155ZM165.936 136.156L153.877 122.756L152.39 124.094L164.45 137.494L165.936 136.156ZM154.013 123.902L162.596 108.063L160.837 107.11L152.255 122.949L154.013 123.902ZM162.46 106.918L150.401 93.5187L148.914 94.8566L160.973 108.256L162.46 106.918ZM149.539 93.1946L111.602 97.7053L111.838 99.6913L149.776 95.1806L149.539 93.1946ZM83.195 101.083L55.5183 104.373L55.7544 106.359L83.4311 103.069L83.195 101.083ZM54.6736 105.096L43.6566 144.288L45.582 144.829L56.599 105.637L54.6736 105.096ZM43.7276 144.106L31.7337 167.737L33.5171 168.642L45.511 145.011L43.7276 144.106ZM19.5901 157.925L0.297551 182.424L1.86884 183.661L21.1614 159.162L19.5901 157.925ZM0.464518 183.828L73.9621 241.706L75.1994 240.135L1.70187 182.257L0.464518 183.828ZM75.3664 241.539L94.659 217.04L93.0877 215.802L73.7951 240.302L75.3664 241.539ZM94.492 215.635L20.9945 157.758L19.7571 159.329L93.2547 217.207L94.492 215.635ZM156.374 1.02761L137.081 25.5268L138.652 26.7642L157.945 2.26496L156.374 1.02761ZM137.248 26.9311L210.746 84.8089L211.983 83.2376L138.485 25.3599L137.248 26.9311ZM212.15 84.6419L231.443 60.1427L229.871 58.9053L210.579 83.4046L212.15 84.6419ZM231.276 58.7384L157.778 0.86064L156.541 2.43193L230.038 60.3097L231.276 58.7384Z" fill="#145BE6"/>
</svg>
